<svg width="600" height="400" xmlns="http://www.w3.org/2000/svg" style="font-family: Arial, sans-serif;"><rect width="600" height="400" fill="#ffffff"/><g transform="translate(60,30)"><rect width="510" height="300" fill="#f8f9fc" stroke="#ddd"/><g stroke-width="1"><line x1="0" y1="300" x2="510" y2="300" stroke="#eee" /><text x="-5" y="304" text-anchor="end" font-size="10" fill="#666">0.0</text><line x1="0" y1="240" x2="510" y2="240" stroke="#eee" /><text x="-5" y="244" text-anchor="end" font-size="10" fill="#666">20.0</text><line x1="0" y1="180" x2="510" y2="180" stroke="#eee" /><text x="-5" y="184" text-anchor="end" font-size="10" fill="#666">40.0</text><line x1="0" y1="120" x2="510" y2="120" stroke="#eee" /><text x="-5" y="124" text-anchor="end" font-size="10" fill="#666">60.0</text><line x1="0" y1="59.999999999999986" x2="510" y2="59.999999999999986" stroke="#eee" /><text x="-5" y="63.999999999999986" text-anchor="end" font-size="10" fill="#666">80.0</text><line x1="0" y1="0" x2="510" y2="0" stroke="#eee" /><text x="-5" y="4" text-anchor="end" font-size="10" fill="#666">100.0</text></g><g stroke-width="1"><line x1="0" y1="0" x2="0" y2="300" stroke="#eee"/><text x="0" y="320" text-anchor="middle" font-size="10" fill="#666">22:19:50</text><line x1="102" y1="0" x2="102" y2="300" stroke="#eee"/><text x="102" y="320" text-anchor="middle" font-size="10" fill="#666">22:31:50</text><line x1="204" y1="0" x2="204" y2="300" stroke="#eee"/><text x="204" y="320" text-anchor="middle" font-size="10" fill="#666">22:43:50</text><line x1="306" y1="0" x2="306" y2="300" stroke="#eee"/><text x="306" y="320" text-anchor="middle" font-size="10" fill="#666">22:55:50</text><line x1="408" y1="0" x2="408" y2="300" stroke="#eee"/><text x="408" y="320" text-anchor="middle" font-size="10" fill="#666">23:07:50</text><line x1="510" y1="0" x2="510" y2="300" stroke="#eee"/><text x="510" y="320" text-anchor="middle" font-size="10" fill="#666">23:19:50</text></g><path d="M0.00,300.00 L1.42,300.00 L2.83,300.00 L4.25,300.00 L5.67,300.00 L7.08,300.00 L8.50,300.00 L9.92,300.00 L11.33,300.00 L12.75,300.00 L14.17,300.00 L15.58,300.00 L17.00,299.23 L18.42,300.00 L19.83,299.97 L21.25,299.96 L22.67,299.96 L24.08,299.98 L25.50,300.00 L26.92,299.91 L28.33,299.23 L29.75,299.96 L31.17,299.99 L32.58,300.00 L34.00,299.99 L35.42,299.94 L36.83,300.00 L38.25,299.96 L39.67,299.99 L41.08,300.00 L42.50,299.94 L43.92,299.76 L45.33,299.99 L46.75,299.99 L48.17,299.99 L49.58,299.95 L51.00,299.97 L52.42,300.00 L53.83,300.00 L55.25,299.99 L56.67,299.94 L58.08,299.98 L59.50,300.00 L60.92,300.00 L62.33,300.00 L63.75,300.00 L65.17,300.00 L66.58,300.00 L68.00,300.00 L69.42,300.00 L70.83,300.00 L72.25,299.96 L73.67,299.96 L75.08,299.97 L76.50,300.00 L77.92,300.00 L79.33,299.97 L80.75,299.98 L82.17,300.00 L83.58,299.99 L85.00,300.00 L86.42,299.99 L87.83,300.00 L89.25,300.00 L90.67,299.99 L92.08,299.98 L93.50,299.98 L94.92,299.98 L96.33,299.89 L97.75,300.00 L99.17,300.00 L100.58,299.97 L102.00,299.72 L103.42,299.97 L104.83,299.90 L106.25,299.95 L107.67,299.97 L109.08,299.97 L110.50,299.96 L111.92,299.82 L113.33,299.98 L114.75,299.98 L116.17,299.94 L117.58,299.92 L119.00,299.93 L120.42,299.98 L121.83,299.98 L123.25,299.98 L124.67,299.98 L126.08,299.97 L127.50,299.97 L128.92,299.97 L130.33,300.00 L131.75,299.99 L133.17,299.99 L134.58,299.99 L136.00,299.95 L137.42,299.95 L138.83,299.98 L140.25,299.99 L141.67,299.99 L143.08,299.96 L144.50,299.97 L145.92,299.99 L147.33,299.90 L148.75,299.86 L150.17,299.99 L151.58,299.99 L153.00,299.90 L154.42,299.93 L155.83,299.94 L157.25,300.00 L158.67,299.96 L160.08,299.99 L161.50,299.99 L162.92,299.93 L164.33,299.80 L165.75,299.99 L167.17,299.98 L168.58,299.98 L170.00,299.99 L171.42,299.98 L172.83,299.92 L174.25,300.00 L175.67,300.00 L177.08,299.95 L178.50,299.95 L179.92,299.97 L181.33,299.96 L182.75,299.94 L184.17,299.98 L185.58,300.00 L187.00,299.99 L188.42,299.98 L189.83,299.97 L191.25,299.98 L192.67,299.99 L194.08,299.97 L195.50,299.99 L196.92,299.98 L198.33,299.91 L199.75,300.00 L201.17,299.99 L202.58,299.94 L204.00,299.94 L205.42,299.94 L206.83,299.96 L208.25,299.96 L209.67,300.00 L211.08,300.00 L212.50,299.99 L213.92,299.96 L215.33,300.00 L216.75,300.00 L218.17,300.00 L219.58,299.99 L221.00,299.97 L222.42,299.97 L223.83,300.00 L225.25,300.00 L226.67,299.99 L228.08,299.99 L229.50,300.00 L230.92,300.00 L232.33,300.00 L233.75,300.00 L235.17,299.99 L236.58,299.99 L238.00,299.97 L239.42,299.98 L240.83,299.99 L242.25,299.96 L243.67,299.94 L245.08,299.93 L246.50,299.94 L247.92,299.99 L249.33,299.99 L250.75,299.98 L252.17,299.99 L253.58,299.95 L255.00,300.00 L256.42,299.99 L257.83,299.99 L259.25,299.96 L260.67,299.93 L262.08,299.89 L263.50,299.90 L264.92,299.98 L266.33,299.95 L267.75,299.96 L269.17,299.96 L270.58,299.98 L272.00,299.98 L273.42,300.00 L274.83,299.98 L276.25,299.98 L277.67,299.96 L279.08,300.00 L280.50,300.00 L281.92,299.99 L283.33,300.00 L284.75,299.99 L286.17,299.99 L287.58,299.97 L289.00,299.95 L290.42,299.96 L291.83,299.93 L293.25,299.93 L294.67,299.90 L296.08,299.96 L297.50,299.94 L298.92,299.95 L300.33,299.97 L301.75,299.98 L303.17,299.94 L304.58,299.93 L306.00,299.93 L307.42,299.97 L308.83,299.96 L310.25,299.96 L311.67,299.88 L313.08,299.95 L314.50,299.93 L315.92,299.97 L317.33,299.97 L318.75,299.93 L320.17,299.97 L321.58,299.99 L323.00,299.99 L324.42,299.95 L325.83,299.99 L327.25,299.95 L328.67,299.96 L330.08,300.00 L331.50,300.00 L332.92,299.98 L334.33,299.96 L335.75,299.98 L337.17,299.98 L338.58,300.00 L340.00,300.00 L341.42,299.98 L342.83,300.00 L344.25,300.00 L345.67,299.96 L347.08,300.00 L348.50,300.00 L349.92,299.98 L351.33,299.93 L352.75,299.97 L354.17,299.97 L355.58,299.87 L357.00,299.78 L358.42,299.66 L359.83,299.91 L361.25,299.99 L362.67,300.00 L364.08,300.00 L365.50,299.99 L366.92,299.97 L368.33,299.98 L369.75,300.00 L371.17,300.00 L372.58,300.00 L374.00,299.96 L375.42,299.97 L376.83,299.97 L378.25,300.00 L379.67,299.99 L381.08,299.99 L382.50,299.94 L383.92,299.97 L385.33,299.97 L386.75,299.97 L388.17,299.97 L389.58,299.98 L391.00,299.98 L392.42,299.99 L393.83,299.99 L395.25,299.99 L396.67,299.96 L398.08,299.99 L399.50,299.96 L400.92,299.99 L402.33,299.95 L403.75,299.99 L405.17,299.88 L406.58,299.72 L408.00,299.75 L409.42,300.00 L410.83,300.00 L412.25,299.95 L413.67,299.87 L415.08,299.91 L416.50,299.92 L417.92,299.96 L419.33,299.80 L420.75,299.93 L422.17,299.93 L423.58,299.95 L425.00,299.98 L426.42,299.98 L427.83,299.95 L429.25,300.00 L430.67,299.98 L432.08,299.94 L433.50,299.97 L434.92,299.97 L436.33,299.97 L437.75,299.85 L439.17,299.99 L440.58,299.99 L442.00,299.96 L443.42,299.96 L444.83,299.96 L446.25,299.99 L447.67,299.97 L449.08,299.97 L450.50,299.95 L451.92,299.95 L453.33,299.95 L454.75,299.95 L456.17,299.98 L457.58,299.97 L459.00,299.91 L460.42,299.99 L461.83,299.99 L463.25,299.98 L464.67,299.95 L466.08,299.97 L467.50,299.94 L468.92,299.93 L470.33,299.98 L471.75,299.98 L473.17,299.97 L474.58,299.99 L476.00,299.99 L477.42,299.98 L478.83,299.93 L480.25,299.97 L481.67,299.95 L483.08,300.00 L484.50,299.99 L485.92,299.94 L487.33,300.00 L488.75,299.98 L490.17,299.85 L491.58,299.99 L493.00,299.96 L494.42,300.00 L495.83,299.97 L497.25,299.93 L498.67,300.00 L500.08,300.00 L501.50,300.00 L502.92,300.00 L504.33,300.00 L505.75,300.00 L507.17,300.00 L508.58,300.00 L510.00,300.00" stroke="#4e73df" fill="none" stroke-width="2" stroke-linejoin="round"/></g><text x="300" y="20" text-anchor="middle" font-size="16" fill="#333">CPU Utilization</text><text x="10" y="200" text-anchor="middle" transform="rotate(-90,10,200)" font-size="12" fill="#666">Usage (%)</text><g font-size="12"><circle cx="20" cy="375" r="5" fill="#4e73df"/><text x="30" y="380" fill="#333">value: 0.0 at 23:19:50</text></g></svg>