<svg width="600" height="400" xmlns="http://www.w3.org/2000/svg" style="font-family: Arial, sans-serif;"><rect width="600" height="400" fill="#ffffff"/><g transform="translate(60,30)"><rect width="510" height="300" fill="#f8f9fc" stroke="#ddd"/><g stroke-width="1"><line x1="0" y1="300" x2="510" y2="300" stroke="#eee" /><text x="-5" y="304" text-anchor="end" font-size="10" fill="#666">0.0</text><line x1="0" y1="240" x2="510" y2="240" stroke="#eee" /><text x="-5" y="244" text-anchor="end" font-size="10" fill="#666">20.0</text><line x1="0" y1="180" x2="510" y2="180" stroke="#eee" /><text x="-5" y="184" text-anchor="end" font-size="10" fill="#666">40.0</text><line x1="0" y1="120" x2="510" y2="120" stroke="#eee" /><text x="-5" y="124" text-anchor="end" font-size="10" fill="#666">60.0</text><line x1="0" y1="59.999999999999986" x2="510" y2="59.999999999999986" stroke="#eee" /><text x="-5" y="63.999999999999986" text-anchor="end" font-size="10" fill="#666">80.0</text><line x1="0" y1="0" x2="510" y2="0" stroke="#eee" /><text x="-5" y="4" text-anchor="end" font-size="10" fill="#666">100.0</text></g><g stroke-width="1"><line x1="0" y1="0" x2="0" y2="300" stroke="#eee"/><text x="0" y="320" text-anchor="middle" font-size="10" fill="#666">21:55:00</text><line x1="102" y1="0" x2="102" y2="300" stroke="#eee"/><text x="102" y="320" text-anchor="middle" font-size="10" fill="#666">22:06:42</text><line x1="204" y1="0" x2="204" y2="300" stroke="#eee"/><text x="204" y="320" text-anchor="middle" font-size="10" fill="#666">22:18:24</text><line x1="306" y1="0" x2="306" y2="300" stroke="#eee"/><text x="306" y="320" text-anchor="middle" font-size="10" fill="#666">22:30:06</text><line x1="408" y1="0" x2="408" y2="300" stroke="#eee"/><text x="408" y="320" text-anchor="middle" font-size="10" fill="#666">22:41:48</text><line x1="510" y1="0" x2="510" y2="300" stroke="#eee"/><text x="510" y="320" text-anchor="middle" font-size="10" fill="#666">22:53:30</text></g><path d="M0.00,299.97 L1.45,299.99 L2.91,299.98 L4.36,299.98 L5.81,299.96 L7.26,299.94 L8.72,299.99 L10.17,299.99 L11.62,299.99 L13.08,299.97 L14.53,299.98 L15.98,299.99 L17.44,299.98 L18.89,299.97 L20.34,299.99 L21.79,300.00 L23.25,299.99 L24.70,299.99 L26.15,300.00 L27.61,299.99 L29.06,299.96 L30.51,299.96 L31.97,299.96 L33.42,299.97 L34.87,300.00 L36.32,300.00 L37.78,299.99 L39.23,299.97 L40.68,299.97 L42.14,299.97 L43.59,299.98 L45.04,299.99 L46.50,299.99 L47.95,299.99 L49.40,299.97 L50.85,299.97 L52.31,300.00 L53.76,299.98 L55.21,299.96 L56.67,299.96 L58.12,299.95 L59.57,299.96 L61.03,299.97 L62.48,299.97 L63.93,299.98 L65.38,299.99 L66.84,299.98 L68.29,299.96 L69.74,299.98 L71.20,299.98 L72.65,299.98 L74.10,299.99 L75.56,299.97 L77.01,299.97 L78.46,299.97 L79.91,299.97 L81.37,299.98 L82.82,299.99 L84.27,299.98 L85.73,299.98 L87.18,299.99 L88.63,299.99 L90.09,299.99 L91.54,299.98 L92.99,299.97 L94.44,299.98 L95.90,299.98 L97.35,299.96 L98.80,299.95 L100.26,299.97 L101.71,299.98 L103.16,299.98 L104.62,299.94 L106.07,299.94 L107.52,299.98 L108.97,299.96 L110.43,299.96 L111.88,299.97 L113.33,299.95 L114.79,299.92 L116.24,299.96 L117.69,299.98 L119.15,299.98 L120.60,299.96 L122.05,299.96 L123.50,299.96 L124.96,299.96 L126.41,299.99 L127.86,299.99 L129.32,299.97 L130.77,299.96 L132.22,299.98 L133.68,300.00 L135.13,299.97 L136.58,299.96 L138.03,300.00 L139.49,299.99 L140.94,299.97 L142.39,299.96 L143.85,299.96 L145.30,299.93 L146.75,299.96 L148.21,299.96 L149.66,299.96 L151.11,299.96 L152.56,299.96 L154.02,299.97 L155.47,299.96 L156.92,299.97 L158.38,299.99 L159.83,299.98 L161.28,299.95 L162.74,299.99 L164.19,299.99 L165.64,299.97 L167.09,299.97 L168.55,299.97 L170.00,299.99 L171.45,299.98 L172.91,299.96 L174.36,299.97 L175.81,299.98 L177.26,300.00 L178.72,299.98 L180.17,299.96 L181.62,299.94 L183.08,299.91 L184.53,299.92 L185.98,299.97 L187.44,299.97 L188.89,299.98 L190.34,300.00 L191.79,299.97 L193.25,299.95 L194.70,299.97 L196.15,299.98 L197.61,299.99 L199.06,299.99 L200.51,299.99 L201.97,299.99 L203.42,299.98 L204.87,299.99 L206.32,299.97 L207.78,299.96 L209.23,299.96 L210.68,299.92 L212.14,299.93 L213.59,299.97 L215.04,299.99 L216.50,299.96 L217.95,299.93 L219.40,299.92 L220.85,299.94 L222.31,299.97 L223.76,299.96 L225.21,299.96 L226.67,299.98 L228.12,299.98 L229.57,299.98 L231.03,299.92 L232.48,299.88 L233.93,299.94 L235.38,299.96 L236.84,299.98 L238.29,299.99 L239.74,299.99 L241.20,299.98 L242.65,299.97 L244.10,299.97 L245.56,299.99 L247.01,299.98 L248.46,299.98 L249.91,299.98 L251.37,299.96 L252.82,299.95 L254.27,299.98 L255.73,299.96 L257.18,299.96 L258.63,299.92 L260.09,299.94 L261.54,299.96 L262.99,299.98 L264.44,299.97 L265.90,299.96 L267.35,299.95 L268.80,299.96 L270.26,299.98 L271.71,299.98 L273.16,299.97 L274.62,299.98 L276.07,299.98 L277.52,299.98 L278.97,299.98 L280.43,299.97 L281.88,299.96 L283.33,299.99 L284.79,299.99 L286.24,299.98 L287.69,299.98 L289.15,299.97 L290.60,299.97 L292.05,299.98 L293.50,299.99 L294.96,299.98 L296.41,299.96 L297.86,299.96 L299.32,299.96 L300.77,299.94 L302.22,299.95 L303.68,299.99 L305.13,299.99 L306.58,299.99 L308.03,299.99 L309.49,300.00 L310.94,299.99 L312.39,299.98 L313.85,299.97 L315.30,299.97 L316.75,299.98 L318.21,299.99 L319.66,299.98 L321.11,299.97 L322.56,299.98 L324.02,299.98 L325.47,299.99 L326.92,300.00 L328.38,300.00 L329.83,299.99 L331.28,299.99 L332.74,299.99 L334.19,299.99 L335.64,299.99 L337.09,300.00 L338.55,300.00 L340.00,299.96 L341.45,299.93 L342.91,299.96 L344.36,299.96 L345.81,299.98 L347.26,299.99 L348.72,299.98 L350.17,299.96 L351.62,299.94 L353.08,299.91 L354.53,299.95 L355.98,299.96 L357.44,299.96 L358.89,299.97 L360.34,299.97 L361.79,299.98 L363.25,299.99 L364.70,299.97 L366.15,299.97 L367.61,299.97 L369.06,299.97 L370.51,299.99 L371.97,299.97 L373.42,299.97 L374.87,300.00 L376.32,300.00 L377.78,299.98 L379.23,299.96 L380.68,299.98 L382.14,300.00 L383.59,299.99 L385.04,299.98 L386.50,299.96 L387.95,299.96 L389.40,299.97 L390.85,299.98 L392.31,299.97 L393.76,299.95 L395.21,299.97 L396.67,300.00 L398.12,299.97 L399.57,299.94 L401.03,299.98 L402.48,299.98 L403.93,299.99 L405.38,299.97 L406.84,299.97 L408.29,299.97 L409.74,299.97 L411.20,299.97 L412.65,299.97 L414.10,299.97 L415.56,299.98 L417.01,299.98 L418.46,299.99 L419.91,299.99 L421.37,300.00 L422.82,300.00 L424.27,300.00 L425.73,300.00 L427.18,300.00 L428.63,299.99 L430.09,299.99 L431.54,299.99 L432.99,299.98 L434.44,299.99 L435.90,299.98 L437.35,299.98 L438.80,299.99 L440.26,300.00 L441.71,299.99 L443.16,299.99 L444.62,300.00 L446.07,299.99 L447.52,299.98 L448.97,299.97 L450.43,300.00 L451.88,299.98 L453.33,299.97 L454.79,299.99 L456.24,300.00 L457.69,300.00 L459.15,299.98 L460.60,299.97 L462.05,299.99 L463.50,299.98 L464.96,299.97 L466.41,299.97 L467.86,299.97 L469.32,299.96 L470.77,299.97 L472.22,299.97 L473.68,299.96 L475.13,299.99 L476.58,299.98 L478.03,299.93 L479.49,299.86 L480.94,299.91 L482.39,299.99 L483.85,299.98 L485.30,299.97 L486.75,299.96 L488.21,299.97 L489.66,300.00 L491.11,300.00 L492.56,299.99 L494.02,299.97 L495.47,299.96 L496.92,299.99 L498.38,299.99 L499.83,299.98 L501.28,299.96 L502.74,299.95 L504.19,299.95 L505.64,299.95 L507.09,299.96 L508.55,299.97 L510.00,299.98" stroke="#4e73df" fill="none" stroke-width="2" stroke-linejoin="round"/></g><text x="300" y="20" text-anchor="middle" font-size="16" fill="#333">CPU Utilization</text><text x="10" y="200" text-anchor="middle" transform="rotate(-90,10,200)" font-size="12" fill="#666">Usage (%)</text><g font-size="12"><circle cx="20" cy="375" r="5" fill="#4e73df"/><text x="30" y="380" fill="#333">value: 0.0 at 22:53:30</text></g></svg>