<svg width="600" height="400" xmlns="http://www.w3.org/2000/svg" style="font-family: Arial, sans-serif;"><rect width="600" height="400" fill="#ffffff"/><g transform="translate(60,30)"><rect width="510" height="300" fill="#f8f9fc" stroke="#ddd"/><g stroke-width="1"><line x1="0" y1="300" x2="510" y2="300" stroke="#eee" /><text x="-5" y="304" text-anchor="end" font-size="10" fill="#666">0.0</text><line x1="0" y1="240" x2="510" y2="240" stroke="#eee" /><text x="-5" y="244" text-anchor="end" font-size="10" fill="#666">20.0</text><line x1="0" y1="180" x2="510" y2="180" stroke="#eee" /><text x="-5" y="184" text-anchor="end" font-size="10" fill="#666">40.0</text><line x1="0" y1="120" x2="510" y2="120" stroke="#eee" /><text x="-5" y="124" text-anchor="end" font-size="10" fill="#666">60.0</text><line x1="0" y1="59.999999999999986" x2="510" y2="59.999999999999986" stroke="#eee" /><text x="-5" y="63.999999999999986" text-anchor="end" font-size="10" fill="#666">80.0</text><line x1="0" y1="0" x2="510" y2="0" stroke="#eee" /><text x="-5" y="4" text-anchor="end" font-size="10" fill="#666">100.0</text></g><g stroke-width="1"><line x1="0" y1="0" x2="0" y2="300" stroke="#eee"/><text x="0" y="320" text-anchor="middle" font-size="10" fill="#666">20:10:20</text><line x1="102" y1="0" x2="102" y2="300" stroke="#eee"/><text x="102" y="320" text-anchor="middle" font-size="10" fill="#666">20:21:50</text><line x1="204" y1="0" x2="204" y2="300" stroke="#eee"/><text x="204" y="320" text-anchor="middle" font-size="10" fill="#666">20:33:20</text><line x1="306" y1="0" x2="306" y2="300" stroke="#eee"/><text x="306" y="320" text-anchor="middle" font-size="10" fill="#666">20:44:50</text><line x1="408" y1="0" x2="408" y2="300" stroke="#eee"/><text x="408" y="320" text-anchor="middle" font-size="10" fill="#666">20:56:20</text><line x1="510" y1="0" x2="510" y2="300" stroke="#eee"/><text x="510" y="320" text-anchor="middle" font-size="10" fill="#666">21:07:50</text></g><path d="M0.00,299.96 L1.53,299.95 L3.06,299.95 L4.59,299.97 L6.13,299.98 L7.66,299.97 L9.19,299.95 L10.72,299.96 L12.25,299.98 L13.78,299.97 L15.32,299.95 L16.85,299.95 L18.38,299.97 L19.91,299.99 L21.44,299.95 L22.97,299.94 L24.50,299.98 L26.04,299.97 L27.57,299.96 L29.10,299.96 L30.63,299.95 L32.16,299.98 L33.69,299.97 L35.23,299.97 L36.76,299.97 L38.29,299.97 L39.82,299.96 L41.35,299.97 L42.88,299.97 L44.41,299.95 L45.95,299.98 L47.48,299.96 L49.01,299.94 L50.54,299.96 L52.07,300.00 L53.60,299.96 L55.14,299.92 L56.67,299.95 L58.20,299.94 L59.73,299.95 L61.26,299.93 L62.79,299.91 L64.32,299.94 L65.86,299.93 L67.39,299.91 L68.92,299.95 L70.45,299.97 L71.98,299.97 L73.51,299.96 L75.05,299.96 L76.58,299.98 L78.11,299.97 L79.64,299.94 L81.17,299.95 L82.70,299.97 L84.23,299.97 L85.77,299.97 L87.30,299.96 L88.83,299.96 L90.36,299.95 L91.89,299.95 L93.42,299.95 L94.95,299.95 L96.49,299.95 L98.02,299.92 L99.55,299.89 L101.08,299.92 L102.61,299.95 L104.14,299.98 L105.68,299.98 L107.21,299.98 L108.74,299.96 L110.27,299.96 L111.80,299.97 L113.33,299.96 L114.86,299.95 L116.40,299.97 L117.93,299.98 L119.46,299.98 L120.99,299.98 L122.52,299.99 L124.05,299.98 L125.59,299.94 L127.12,299.92 L128.65,299.97 L130.18,299.95 L131.71,299.93 L133.24,299.95 L134.77,299.97 L136.31,299.97 L137.84,299.97 L139.37,300.00 L140.90,299.99 L142.43,299.98 L143.96,299.98 L145.50,299.95 L147.03,299.95 L148.56,299.95 L150.09,299.95 L151.62,299.95 L153.15,300.00 L154.68,299.99 L156.22,299.96 L157.75,299.95 L159.28,299.98 L160.81,299.97 L162.34,299.97 L163.87,300.00 L165.41,299.97 L166.94,299.93 L168.47,299.93 L170.00,299.93 L171.53,299.96 L173.06,300.00 L174.59,300.00 L176.13,299.98 L177.66,299.96 L179.19,299.95 L180.72,299.92 L182.25,299.94 L183.78,299.95 L185.32,299.96 L186.85,299.96 L188.38,299.94 L189.91,299.95 L191.44,299.94 L192.97,299.93 L194.50,299.95 L196.04,299.98 L197.57,299.96 L199.10,299.95 L200.63,300.00 L202.16,299.98 L203.69,299.95 L205.23,299.95 L206.76,299.98 L208.29,299.96 L209.82,299.93 L211.35,299.91 L212.88,299.99 L214.41,299.97 L215.95,299.96 L217.48,299.95 L219.01,299.96 L220.54,299.97 L222.07,299.91 L223.60,299.85 L225.14,299.92 L226.67,299.92 L228.20,299.94 L229.73,299.93 L231.26,299.93 L232.79,299.94 L234.32,299.95 L235.86,299.94 L237.39,299.94 L238.92,299.94 L240.45,299.97 L241.98,299.95 L243.51,299.91 L245.05,299.92 L246.58,299.96 L248.11,299.96 L249.64,299.97 L251.17,299.95 L252.70,299.95 L254.23,299.98 L255.77,299.98 L257.30,299.99 L258.83,299.98 L260.36,299.99 L261.89,299.97 L263.42,299.95 L264.95,299.94 L266.49,299.92 L268.02,299.95 L269.55,300.00 L271.08,299.96 L272.61,299.93 L274.14,299.97 L275.68,299.96 L277.21,299.96 L278.74,299.98 L280.27,299.98 L281.80,299.98 L283.33,299.97 L284.86,299.97 L286.40,299.97 L287.93,299.97 L289.46,299.97 L290.99,299.99 L292.52,299.99 L294.05,299.96 L295.59,299.96 L297.12,299.98 L298.65,299.98 L300.18,299.96 L301.71,299.96 L303.24,299.92 L304.77,299.94 L306.31,299.97 L307.84,299.98 L309.37,299.97 L310.90,299.95 L312.43,299.97 L313.96,299.97 L315.50,299.97 L317.03,299.97 L318.56,299.98 L320.09,299.95 L321.62,299.93 L323.15,299.95 L324.68,299.93 L326.22,299.94 L327.75,299.96 L329.28,299.95 L330.81,299.95 L332.34,299.96 L333.87,299.95 L335.41,299.95 L336.94,299.96 L338.47,299.96 L340.00,299.96 L341.53,299.96 L343.06,299.96 L344.59,299.97 L346.13,299.99 L347.66,299.97 L349.19,299.97 L350.72,299.97 L352.25,299.98 L353.78,299.96 L355.32,299.94 L356.85,299.98 L358.38,299.99 L359.91,299.99 L361.44,299.97 L362.97,299.94 L364.50,299.94 L366.04,299.95 L367.57,299.97 L369.10,299.97 L370.63,299.98 L372.16,299.97 L373.69,299.96 L375.23,299.97 L376.76,299.99 L378.29,299.97 L379.82,299.98 L381.35,299.96 L382.88,299.91 L384.41,299.93 L385.95,299.95 L387.48,299.94 L389.01,299.91 L390.54,299.91 L392.07,299.91 L393.60,299.94 L395.14,299.97 L396.67,299.96 L398.20,299.95 L399.73,299.95 L401.26,299.95 L402.79,299.95 L404.32,299.97 L405.86,299.96 L407.39,299.95 L408.92,299.96 L410.45,299.98 L411.98,299.97 L413.51,299.98 L415.05,299.99 L416.58,299.98 L418.11,299.96 L419.64,299.93 L421.17,299.95 L422.70,299.98 L424.23,299.98 L425.77,299.96 L427.30,299.96 L428.83,299.98 L430.36,299.97 L431.89,299.94 L433.42,299.95 L434.95,299.89 L436.49,299.92 L438.02,299.95 L439.55,299.96 L441.08,299.97 L442.61,299.97 L444.14,299.96 L445.68,299.96 L447.21,299.93 L448.74,299.94 L450.27,299.96 L451.80,299.96 L453.33,299.95 L454.86,299.93 L456.40,299.94 L457.93,299.95 L459.46,299.95 L460.99,299.97 L462.52,299.97 L464.05,299.97 L465.59,299.96 L467.12,299.97 L468.65,299.96 L470.18,299.95 L471.71,299.94 L473.24,299.92 L474.77,299.91 L476.31,299.99 L477.84,299.99 L479.37,299.97 L480.90,299.96 L482.43,299.96 L483.96,299.97 L485.50,299.96 L487.03,299.92 L488.56,299.94 L490.09,299.96 L491.62,299.97 L493.15,299.98 L494.68,299.98 L496.22,299.97 L497.75,299.96 L499.28,299.95 L500.81,299.95 L502.34,299.96 L503.87,299.97 L505.41,299.97 L506.94,299.96 L508.47,299.96 L510.00,299.98" stroke="#4e73df" fill="none" stroke-width="2" stroke-linejoin="round"/></g><text x="300" y="20" text-anchor="middle" font-size="16" fill="#333">CPU Utilization</text><text x="10" y="200" text-anchor="middle" transform="rotate(-90,10,200)" font-size="12" fill="#666">Usage (%)</text><g font-size="12"><circle cx="20" cy="375" r="5" fill="#4e73df"/><text x="30" y="380" fill="#333">value: 0.0 at 21:07:50</text></g></svg>