<svg width="600" height="400" xmlns="http://www.w3.org/2000/svg" style="font-family: Arial, sans-serif;"><rect width="600" height="400" fill="#ffffff"/><g transform="translate(60,30)"><rect width="510" height="300" fill="#f8f9fc" stroke="#ddd"/><g stroke-width="1"><line x1="0" y1="300" x2="510" y2="300" stroke="#eee" /><text x="-5" y="304" text-anchor="end" font-size="10" fill="#666">0.0</text><line x1="0" y1="240" x2="510" y2="240" stroke="#eee" /><text x="-5" y="244" text-anchor="end" font-size="10" fill="#666">20.0</text><line x1="0" y1="180" x2="510" y2="180" stroke="#eee" /><text x="-5" y="184" text-anchor="end" font-size="10" fill="#666">40.0</text><line x1="0" y1="120" x2="510" y2="120" stroke="#eee" /><text x="-5" y="124" text-anchor="end" font-size="10" fill="#666">60.0</text><line x1="0" y1="59.999999999999986" x2="510" y2="59.999999999999986" stroke="#eee" /><text x="-5" y="63.999999999999986" text-anchor="end" font-size="10" fill="#666">80.0</text><line x1="0" y1="0" x2="510" y2="0" stroke="#eee" /><text x="-5" y="4" text-anchor="end" font-size="10" fill="#666">100.0</text></g><g stroke-width="1"><line x1="0" y1="0" x2="0" y2="300" stroke="#eee"/><text x="0" y="320" text-anchor="middle" font-size="10" fill="#666">23:56:50</text><line x1="102" y1="0" x2="102" y2="300" stroke="#eee"/><text x="102" y="320" text-anchor="middle" font-size="10" fill="#666">00:08:16</text><line x1="204" y1="0" x2="204" y2="300" stroke="#eee"/><text x="204" y="320" text-anchor="middle" font-size="10" fill="#666">00:19:42</text><line x1="306" y1="0" x2="306" y2="300" stroke="#eee"/><text x="306" y="320" text-anchor="middle" font-size="10" fill="#666">00:31:08</text><line x1="408" y1="0" x2="408" y2="300" stroke="#eee"/><text x="408" y="320" text-anchor="middle" font-size="10" fill="#666">00:42:34</text><line x1="510" y1="0" x2="510" y2="300" stroke="#eee"/><text x="510" y="320" text-anchor="middle" font-size="10" fill="#666">00:54:00</text></g><path d="M0.00,299.95 L10.41,299.98 L20.82,299.96 L31.22,299.95 L41.63,299.98 L52.04,299.97 L62.45,299.96 L72.86,299.95 L83.27,299.93 L93.67,299.95 L104.08,299.95 L114.49,299.93 L124.90,299.93 L135.31,299.96 L145.71,299.96 L156.12,299.97 L166.53,299.97 L176.94,299.96 L187.35,299.96 L197.76,299.97 L208.16,299.96 L218.57,299.97 L228.98,299.98 L239.39,299.93 L249.80,299.97 L260.20,299.95 L270.61,299.96 L281.02,299.96 L291.43,299.96 L301.84,299.96 L312.24,299.93 L322.65,299.96 L333.06,299.96 L343.47,299.95 L353.88,299.95 L364.29,299.94 L374.69,299.97 L385.10,299.95 L395.51,299.96 L405.92,299.94 L416.33,299.96 L426.73,299.92 L437.14,299.94 L447.55,299.94 L457.96,299.97 L468.37,299.94 L478.78,299.97 L489.18,299.98 L499.59,299.96 L510.00,299.92" stroke="#4e73df" fill="none" stroke-width="2" stroke-linejoin="round"/><circle id="point-value-0" cx="0.00" cy="299.95" r="5" fill="#4e73df" opacity="0" onmouseover="showTooltip(evt, 'value', '0.0', '23:56:50', 0.00, 299.95)" onmouseout="hideTooltip()"/><circle id="point-value-1" cx="10.41" cy="299.98" r="5" fill="#4e73df" opacity="0" onmouseover="showTooltip(evt, 'value', '0.0', '23:58:00', 10.41, 299.98)" onmouseout="hideTooltip()"/><circle id="point-value-2" cx="20.82" cy="299.96" r="5" fill="#4e73df" opacity="0" onmouseover="showTooltip(evt, 'value', '0.0', '23:59:10', 20.82, 299.96)" onmouseout="hideTooltip()"/><circle id="point-value-3" cx="31.22" cy="299.95" r="5" fill="#4e73df" opacity="0" onmouseover="showTooltip(evt, 'value', '0.0', '00:00:20', 31.22, 299.95)" onmouseout="hideTooltip()"/><circle id="point-value-4" cx="41.63" cy="299.98" r="5" fill="#4e73df" opacity="0" onmouseover="showTooltip(evt, 'value', '0.0', '00:01:30', 41.63, 299.98)" onmouseout="hideTooltip()"/><circle id="point-value-5" cx="52.04" cy="299.97" r="5" fill="#4e73df" opacity="0" onmouseover="showTooltip(evt, 'value', '0.0', '00:02:40', 52.04, 299.97)" onmouseout="hideTooltip()"/><circle id="point-value-6" cx="62.45" cy="299.96" r="5" fill="#4e73df" opacity="0" onmouseover="showTooltip(evt, 'value', '0.0', '00:03:50', 62.45, 299.96)" onmouseout="hideTooltip()"/><circle id="point-value-7" cx="72.86" cy="299.95" r="5" fill="#4e73df" opacity="0" onmouseover="showTooltip(evt, 'value', '0.0', '00:05:00', 72.86, 299.95)" onmouseout="hideTooltip()"/><circle id="point-value-8" cx="83.27" cy="299.93" r="5" fill="#4e73df" opacity="0" onmouseover="showTooltip(evt, 'value', '0.0', '00:06:10', 83.27, 299.93)" onmouseout="hideTooltip()"/><circle id="point-value-9" cx="93.67" cy="299.95" r="5" fill="#4e73df" opacity="0" onmouseover="showTooltip(evt, 'value', '0.0', '00:07:20', 93.67, 299.95)" onmouseout="hideTooltip()"/><circle id="point-value-10" cx="104.08" cy="299.95" r="5" fill="#4e73df" opacity="0" onmouseover="showTooltip(evt, 'value', '0.0', '00:08:30', 104.08, 299.95)" onmouseout="hideTooltip()"/><circle id="point-value-11" cx="114.49" cy="299.93" r="5" fill="#4e73df" opacity="0" onmouseover="showTooltip(evt, 'value', '0.0', '00:09:40', 114.49, 299.93)" onmouseout="hideTooltip()"/><circle id="point-value-12" cx="124.90" cy="299.93" r="5" fill="#4e73df" opacity="0" onmouseover="showTooltip(evt, 'value', '0.0', '00:10:50', 124.90, 299.93)" onmouseout="hideTooltip()"/><circle id="point-value-13" cx="135.31" cy="299.96" r="5" fill="#4e73df" opacity="0" onmouseover="showTooltip(evt, 'value', '0.0', '00:12:00', 135.31, 299.96)" onmouseout="hideTooltip()"/><circle id="point-value-14" cx="145.71" cy="299.96" r="5" fill="#4e73df" opacity="0" onmouseover="showTooltip(evt, 'value', '0.0', '00:13:10', 145.71, 299.96)" onmouseout="hideTooltip()"/><circle id="point-value-15" cx="156.12" cy="299.97" r="5" fill="#4e73df" opacity="0" onmouseover="showTooltip(evt, 'value', '0.0', '00:14:20', 156.12, 299.97)" onmouseout="hideTooltip()"/><circle id="point-value-16" cx="166.53" cy="299.97" r="5" fill="#4e73df" opacity="0" onmouseover="showTooltip(evt, 'value', '0.0', '00:15:30', 166.53, 299.97)" onmouseout="hideTooltip()"/><circle id="point-value-17" cx="176.94" cy="299.96" r="5" fill="#4e73df" opacity="0" onmouseover="showTooltip(evt, 'value', '0.0', '00:16:40', 176.94, 299.96)" onmouseout="hideTooltip()"/><circle id="point-value-18" cx="187.35" cy="299.96" r="5" fill="#4e73df" opacity="0" onmouseover="showTooltip(evt, 'value', '0.0', '00:17:50', 187.35, 299.96)" onmouseout="hideTooltip()"/><circle id="point-value-19" cx="197.76" cy="299.97" r="5" fill="#4e73df" opacity="0" onmouseover="showTooltip(evt, 'value', '0.0', '00:19:00', 197.76, 299.97)" onmouseout="hideTooltip()"/><circle id="point-value-20" cx="208.16" cy="299.96" r="5" fill="#4e73df" opacity="0" onmouseover="showTooltip(evt, 'value', '0.0', '00:20:10', 208.16, 299.96)" onmouseout="hideTooltip()"/><circle id="point-value-21" cx="218.57" cy="299.97" r="5" fill="#4e73df" opacity="0" onmouseover="showTooltip(evt, 'value', '0.0', '00:21:20', 218.57, 299.97)" onmouseout="hideTooltip()"/><circle id="point-value-22" cx="228.98" cy="299.98" r="5" fill="#4e73df" opacity="0" onmouseover="showTooltip(evt, 'value', '0.0', '00:22:30', 228.98, 299.98)" onmouseout="hideTooltip()"/><circle id="point-value-23" cx="239.39" cy="299.93" r="5" fill="#4e73df" opacity="0" onmouseover="showTooltip(evt, 'value', '0.0', '00:23:40', 239.39, 299.93)" onmouseout="hideTooltip()"/><circle id="point-value-24" cx="249.80" cy="299.97" r="5" fill="#4e73df" opacity="0" onmouseover="showTooltip(evt, 'value', '0.0', '00:24:50', 249.80, 299.97)" onmouseout="hideTooltip()"/><circle id="point-value-25" cx="260.20" cy="299.95" r="5" fill="#4e73df" opacity="0" onmouseover="showTooltip(evt, 'value', '0.0', '00:26:00', 260.20, 299.95)" onmouseout="hideTooltip()"/><circle id="point-value-26" cx="270.61" cy="299.96" r="5" fill="#4e73df" opacity="0" onmouseover="showTooltip(evt, 'value', '0.0', '00:27:10', 270.61, 299.96)" onmouseout="hideTooltip()"/><circle id="point-value-27" cx="281.02" cy="299.96" r="5" fill="#4e73df" opacity="0" onmouseover="showTooltip(evt, 'value', '0.0', '00:28:20', 281.02, 299.96)" onmouseout="hideTooltip()"/><circle id="point-value-28" cx="291.43" cy="299.96" r="5" fill="#4e73df" opacity="0" onmouseover="showTooltip(evt, 'value', '0.0', '00:29:30', 291.43, 299.96)" onmouseout="hideTooltip()"/><circle id="point-value-29" cx="301.84" cy="299.96" r="5" fill="#4e73df" opacity="0" onmouseover="showTooltip(evt, 'value', '0.0', '00:30:40', 301.84, 299.96)" onmouseout="hideTooltip()"/><circle id="point-value-30" cx="312.24" cy="299.93" r="5" fill="#4e73df" opacity="0" onmouseover="showTooltip(evt, 'value', '0.0', '00:31:50', 312.24, 299.93)" onmouseout="hideTooltip()"/><circle id="point-value-31" cx="322.65" cy="299.96" r="5" fill="#4e73df" opacity="0" onmouseover="showTooltip(evt, 'value', '0.0', '00:33:00', 322.65, 299.96)" onmouseout="hideTooltip()"/><circle id="point-value-32" cx="333.06" cy="299.96" r="5" fill="#4e73df" opacity="0" onmouseover="showTooltip(evt, 'value', '0.0', '00:34:10', 333.06, 299.96)" onmouseout="hideTooltip()"/><circle id="point-value-33" cx="343.47" cy="299.95" r="5" fill="#4e73df" opacity="0" onmouseover="showTooltip(evt, 'value', '0.0', '00:35:20', 343.47, 299.95)" onmouseout="hideTooltip()"/><circle id="point-value-34" cx="353.88" cy="299.95" r="5" fill="#4e73df" opacity="0" onmouseover="showTooltip(evt, 'value', '0.0', '00:36:30', 353.88, 299.95)" onmouseout="hideTooltip()"/><circle id="point-value-35" cx="364.29" cy="299.94" r="5" fill="#4e73df" opacity="0" onmouseover="showTooltip(evt, 'value', '0.0', '00:37:40', 364.29, 299.94)" onmouseout="hideTooltip()"/><circle id="point-value-36" cx="374.69" cy="299.97" r="5" fill="#4e73df" opacity="0" onmouseover="showTooltip(evt, 'value', '0.0', '00:38:50', 374.69, 299.97)" onmouseout="hideTooltip()"/><circle id="point-value-37" cx="385.10" cy="299.95" r="5" fill="#4e73df" opacity="0" onmouseover="showTooltip(evt, 'value', '0.0', '00:40:00', 385.10, 299.95)" onmouseout="hideTooltip()"/><circle id="point-value-38" cx="395.51" cy="299.96" r="5" fill="#4e73df" opacity="0" onmouseover="showTooltip(evt, 'value', '0.0', '00:41:10', 395.51, 299.96)" onmouseout="hideTooltip()"/><circle id="point-value-39" cx="405.92" cy="299.94" r="5" fill="#4e73df" opacity="0" onmouseover="showTooltip(evt, 'value', '0.0', '00:42:20', 405.92, 299.94)" onmouseout="hideTooltip()"/><circle id="point-value-40" cx="416.33" cy="299.96" r="5" fill="#4e73df" opacity="0" onmouseover="showTooltip(evt, 'value', '0.0', '00:43:30', 416.33, 299.96)" onmouseout="hideTooltip()"/><circle id="point-value-41" cx="426.73" cy="299.92" r="5" fill="#4e73df" opacity="0" onmouseover="showTooltip(evt, 'value', '0.0', '00:44:40', 426.73, 299.92)" onmouseout="hideTooltip()"/><circle id="point-value-42" cx="437.14" cy="299.94" r="5" fill="#4e73df" opacity="0" onmouseover="showTooltip(evt, 'value', '0.0', '00:45:50', 437.14, 299.94)" onmouseout="hideTooltip()"/><circle id="point-value-43" cx="447.55" cy="299.94" r="5" fill="#4e73df" opacity="0" onmouseover="showTooltip(evt, 'value', '0.0', '00:47:00', 447.55, 299.94)" onmouseout="hideTooltip()"/><circle id="point-value-44" cx="457.96" cy="299.97" r="5" fill="#4e73df" opacity="0" onmouseover="showTooltip(evt, 'value', '0.0', '00:48:10', 457.96, 299.97)" onmouseout="hideTooltip()"/><circle id="point-value-45" cx="468.37" cy="299.94" r="5" fill="#4e73df" opacity="0" onmouseover="showTooltip(evt, 'value', '0.0', '00:49:20', 468.37, 299.94)" onmouseout="hideTooltip()"/><circle id="point-value-46" cx="478.78" cy="299.97" r="5" fill="#4e73df" opacity="0" onmouseover="showTooltip(evt, 'value', '0.0', '00:50:30', 478.78, 299.97)" onmouseout="hideTooltip()"/><circle id="point-value-47" cx="489.18" cy="299.98" r="5" fill="#4e73df" opacity="0" onmouseover="showTooltip(evt, 'value', '0.0', '00:51:40', 489.18, 299.98)" onmouseout="hideTooltip()"/><circle id="point-value-48" cx="499.59" cy="299.96" r="5" fill="#4e73df" opacity="0" onmouseover="showTooltip(evt, 'value', '0.0', '00:52:50', 499.59, 299.96)" onmouseout="hideTooltip()"/><circle id="point-value-49" cx="510.00" cy="299.92" r="5" fill="#4e73df" opacity="0" onmouseover="showTooltip(evt, 'value', '0.0', '00:54:00', 510.00, 299.92)" onmouseout="hideTooltip()"/></g><g id="tooltip" visibility="hidden"><rect x="0" y="0" width="150" height="40" fill="#333" opacity="0.8" rx="5"/><text x="5" y="15" font-size="10" fill="#fff" id="tooltip-series"></text><text x="5" y="30" font-size="10" fill="#fff" id="tooltip-value"></text></g><script><![CDATA[function showTooltip(evt, series, value, time, x, y) {  var tooltip = document.getElementById("tooltip");  var seriesText = document.getElementById("tooltip-series");  var valueText = document.getElementById("tooltip-value");  seriesText.textContent = "Series: " + series;  valueText.textContent = value + " at " + time;  tooltip.setAttribute("transform", "translate(" + (x + 10) + "," + (y - 50) + ")");  tooltip.setAttribute("visibility", "visible");  evt.target.setAttribute("r", "7");  evt.target.setAttribute("opacity", "1");}function hideTooltip() {  var tooltip = document.getElementById("tooltip");  tooltip.setAttribute("visibility", "hidden");  var circles = document.getElementsByTagName("circle");  for (var i = 0; i < circles.length; i++) {    circles[i].setAttribute("r", "5");    circles[i].setAttribute("opacity", "0");  }}]]></script><text x="300" y="20" text-anchor="middle" font-size="16" fill="#333">CPU Utilization</text><text x="10" y="200" text-anchor="middle" transform="rotate(-90,10,200)" font-size="12" fill="#666">Usage (%)</text><g font-size="12"><circle cx="20" cy="375" r="5" fill="#4e73df"/><text x="30" y="380" fill="#333">value: 0.0 at 00:54:00</text></g></svg>