<svg width="600" height="400" xmlns="http://www.w3.org/2000/svg" style="font-family: Arial, sans-serif;"><rect width="600" height="400" fill="#ffffff"/><g transform="translate(60,30)"><rect width="510" height="300" fill="#f8f9fc" stroke="#ddd"/><g stroke-width="1"><line x1="0" y1="300" x2="510" y2="300" stroke="#eee" /><text x="-5" y="304" text-anchor="end" font-size="10" fill="#666">0.0</text><line x1="0" y1="240" x2="510" y2="240" stroke="#eee" /><text x="-5" y="244" text-anchor="end" font-size="10" fill="#666">20.0</text><line x1="0" y1="180" x2="510" y2="180" stroke="#eee" /><text x="-5" y="184" text-anchor="end" font-size="10" fill="#666">40.0</text><line x1="0" y1="120" x2="510" y2="120" stroke="#eee" /><text x="-5" y="124" text-anchor="end" font-size="10" fill="#666">60.0</text><line x1="0" y1="59.999999999999986" x2="510" y2="59.999999999999986" stroke="#eee" /><text x="-5" y="63.999999999999986" text-anchor="end" font-size="10" fill="#666">80.0</text><line x1="0" y1="0" x2="510" y2="0" stroke="#eee" /><text x="-5" y="4" text-anchor="end" font-size="10" fill="#666">100.0</text></g><g stroke-width="1"><line x1="0" y1="0" x2="0" y2="300" stroke="#eee"/><text x="0" y="320" text-anchor="middle" font-size="10" fill="#666">22:19:40</text><line x1="102" y1="0" x2="102" y2="300" stroke="#eee"/><text x="102" y="320" text-anchor="middle" font-size="10" fill="#666">22:31:20</text><line x1="204" y1="0" x2="204" y2="300" stroke="#eee"/><text x="204" y="320" text-anchor="middle" font-size="10" fill="#666">22:43:00</text><line x1="306" y1="0" x2="306" y2="300" stroke="#eee"/><text x="306" y="320" text-anchor="middle" font-size="10" fill="#666">22:54:40</text><line x1="408" y1="0" x2="408" y2="300" stroke="#eee"/><text x="408" y="320" text-anchor="middle" font-size="10" fill="#666">23:06:20</text><line x1="510" y1="0" x2="510" y2="300" stroke="#eee"/><text x="510" y="320" text-anchor="middle" font-size="10" fill="#666">23:18:00</text></g><path d="M0.00,299.97 L10.20,299.97 L20.40,299.97 L30.60,299.96 L40.80,299.96 L51.00,299.96 L61.20,299.94 L71.40,299.95 L81.60,299.98 L91.80,299.98 L102.00,299.94 L112.20,299.97 L122.40,299.97 L132.60,299.96 L142.80,299.96 L153.00,299.95 L163.20,299.97 L173.40,299.98 L183.60,299.95 L193.80,299.97 L204.00,299.95 L214.20,299.97 L224.40,299.96 L234.60,299.94 L244.80,299.93 L255.00,299.92 L265.20,299.93 L275.40,299.97 L285.60,299.96 L295.80,299.95 L306.00,299.98 L316.20,299.97 L326.40,299.98 L336.60,299.98 L346.80,299.97 L357.00,299.97 L367.20,299.97 L377.40,299.97 L387.60,299.98 L397.80,299.96 L408.00,299.98 L418.20,299.96 L428.40,299.97 L438.60,299.95 L448.80,299.94 L459.00,299.95 L469.20,299.95 L479.40,299.95 L489.60,299.97 L499.80,299.94 L510.00,299.96" stroke="#4e73df" fill="none" stroke-width="2" stroke-linejoin="round"/><circle id="point-value-0" cx="0.00" cy="299.97" r="5" fill="#4e73df" opacity="0" onmouseover="showTooltip(evt, 'value', '0.0', '22:19:40', 0.00, 299.97)" onmouseout="hideTooltip()"/><circle id="point-value-1" cx="10.20" cy="299.97" r="5" fill="#4e73df" opacity="0" onmouseover="showTooltip(evt, 'value', '0.0', '22:20:50', 10.20, 299.97)" onmouseout="hideTooltip()"/><circle id="point-value-2" cx="20.40" cy="299.97" r="5" fill="#4e73df" opacity="0" onmouseover="showTooltip(evt, 'value', '0.0', '22:22:00', 20.40, 299.97)" onmouseout="hideTooltip()"/><circle id="point-value-3" cx="30.60" cy="299.96" r="5" fill="#4e73df" opacity="0" onmouseover="showTooltip(evt, 'value', '0.0', '22:23:10', 30.60, 299.96)" onmouseout="hideTooltip()"/><circle id="point-value-4" cx="40.80" cy="299.96" r="5" fill="#4e73df" opacity="0" onmouseover="showTooltip(evt, 'value', '0.0', '22:24:20', 40.80, 299.96)" onmouseout="hideTooltip()"/><circle id="point-value-5" cx="51.00" cy="299.96" r="5" fill="#4e73df" opacity="0" onmouseover="showTooltip(evt, 'value', '0.0', '22:25:30', 51.00, 299.96)" onmouseout="hideTooltip()"/><circle id="point-value-6" cx="61.20" cy="299.94" r="5" fill="#4e73df" opacity="0" onmouseover="showTooltip(evt, 'value', '0.0', '22:26:40', 61.20, 299.94)" onmouseout="hideTooltip()"/><circle id="point-value-7" cx="71.40" cy="299.95" r="5" fill="#4e73df" opacity="0" onmouseover="showTooltip(evt, 'value', '0.0', '22:27:50', 71.40, 299.95)" onmouseout="hideTooltip()"/><circle id="point-value-8" cx="81.60" cy="299.98" r="5" fill="#4e73df" opacity="0" onmouseover="showTooltip(evt, 'value', '0.0', '22:29:00', 81.60, 299.98)" onmouseout="hideTooltip()"/><circle id="point-value-9" cx="91.80" cy="299.98" r="5" fill="#4e73df" opacity="0" onmouseover="showTooltip(evt, 'value', '0.0', '22:30:10', 91.80, 299.98)" onmouseout="hideTooltip()"/><circle id="point-value-10" cx="102.00" cy="299.94" r="5" fill="#4e73df" opacity="0" onmouseover="showTooltip(evt, 'value', '0.0', '22:31:20', 102.00, 299.94)" onmouseout="hideTooltip()"/><circle id="point-value-11" cx="112.20" cy="299.97" r="5" fill="#4e73df" opacity="0" onmouseover="showTooltip(evt, 'value', '0.0', '22:32:30', 112.20, 299.97)" onmouseout="hideTooltip()"/><circle id="point-value-12" cx="122.40" cy="299.97" r="5" fill="#4e73df" opacity="0" onmouseover="showTooltip(evt, 'value', '0.0', '22:33:40', 122.40, 299.97)" onmouseout="hideTooltip()"/><circle id="point-value-13" cx="132.60" cy="299.96" r="5" fill="#4e73df" opacity="0" onmouseover="showTooltip(evt, 'value', '0.0', '22:34:50', 132.60, 299.96)" onmouseout="hideTooltip()"/><circle id="point-value-14" cx="142.80" cy="299.96" r="5" fill="#4e73df" opacity="0" onmouseover="showTooltip(evt, 'value', '0.0', '22:36:00', 142.80, 299.96)" onmouseout="hideTooltip()"/><circle id="point-value-15" cx="153.00" cy="299.95" r="5" fill="#4e73df" opacity="0" onmouseover="showTooltip(evt, 'value', '0.0', '22:37:10', 153.00, 299.95)" onmouseout="hideTooltip()"/><circle id="point-value-16" cx="163.20" cy="299.97" r="5" fill="#4e73df" opacity="0" onmouseover="showTooltip(evt, 'value', '0.0', '22:38:20', 163.20, 299.97)" onmouseout="hideTooltip()"/><circle id="point-value-17" cx="173.40" cy="299.98" r="5" fill="#4e73df" opacity="0" onmouseover="showTooltip(evt, 'value', '0.0', '22:39:30', 173.40, 299.98)" onmouseout="hideTooltip()"/><circle id="point-value-18" cx="183.60" cy="299.95" r="5" fill="#4e73df" opacity="0" onmouseover="showTooltip(evt, 'value', '0.0', '22:40:40', 183.60, 299.95)" onmouseout="hideTooltip()"/><circle id="point-value-19" cx="193.80" cy="299.97" r="5" fill="#4e73df" opacity="0" onmouseover="showTooltip(evt, 'value', '0.0', '22:41:50', 193.80, 299.97)" onmouseout="hideTooltip()"/><circle id="point-value-20" cx="204.00" cy="299.95" r="5" fill="#4e73df" opacity="0" onmouseover="showTooltip(evt, 'value', '0.0', '22:43:00', 204.00, 299.95)" onmouseout="hideTooltip()"/><circle id="point-value-21" cx="214.20" cy="299.97" r="5" fill="#4e73df" opacity="0" onmouseover="showTooltip(evt, 'value', '0.0', '22:44:10', 214.20, 299.97)" onmouseout="hideTooltip()"/><circle id="point-value-22" cx="224.40" cy="299.96" r="5" fill="#4e73df" opacity="0" onmouseover="showTooltip(evt, 'value', '0.0', '22:45:20', 224.40, 299.96)" onmouseout="hideTooltip()"/><circle id="point-value-23" cx="234.60" cy="299.94" r="5" fill="#4e73df" opacity="0" onmouseover="showTooltip(evt, 'value', '0.0', '22:46:30', 234.60, 299.94)" onmouseout="hideTooltip()"/><circle id="point-value-24" cx="244.80" cy="299.93" r="5" fill="#4e73df" opacity="0" onmouseover="showTooltip(evt, 'value', '0.0', '22:47:40', 244.80, 299.93)" onmouseout="hideTooltip()"/><circle id="point-value-25" cx="255.00" cy="299.92" r="5" fill="#4e73df" opacity="0" onmouseover="showTooltip(evt, 'value', '0.0', '22:48:50', 255.00, 299.92)" onmouseout="hideTooltip()"/><circle id="point-value-26" cx="265.20" cy="299.93" r="5" fill="#4e73df" opacity="0" onmouseover="showTooltip(evt, 'value', '0.0', '22:50:00', 265.20, 299.93)" onmouseout="hideTooltip()"/><circle id="point-value-27" cx="275.40" cy="299.97" r="5" fill="#4e73df" opacity="0" onmouseover="showTooltip(evt, 'value', '0.0', '22:51:10', 275.40, 299.97)" onmouseout="hideTooltip()"/><circle id="point-value-28" cx="285.60" cy="299.96" r="5" fill="#4e73df" opacity="0" onmouseover="showTooltip(evt, 'value', '0.0', '22:52:20', 285.60, 299.96)" onmouseout="hideTooltip()"/><circle id="point-value-29" cx="295.80" cy="299.95" r="5" fill="#4e73df" opacity="0" onmouseover="showTooltip(evt, 'value', '0.0', '22:53:30', 295.80, 299.95)" onmouseout="hideTooltip()"/><circle id="point-value-30" cx="306.00" cy="299.98" r="5" fill="#4e73df" opacity="0" onmouseover="showTooltip(evt, 'value', '0.0', '22:54:40', 306.00, 299.98)" onmouseout="hideTooltip()"/><circle id="point-value-31" cx="316.20" cy="299.97" r="5" fill="#4e73df" opacity="0" onmouseover="showTooltip(evt, 'value', '0.0', '22:55:50', 316.20, 299.97)" onmouseout="hideTooltip()"/><circle id="point-value-32" cx="326.40" cy="299.98" r="5" fill="#4e73df" opacity="0" onmouseover="showTooltip(evt, 'value', '0.0', '22:57:00', 326.40, 299.98)" onmouseout="hideTooltip()"/><circle id="point-value-33" cx="336.60" cy="299.98" r="5" fill="#4e73df" opacity="0" onmouseover="showTooltip(evt, 'value', '0.0', '22:58:10', 336.60, 299.98)" onmouseout="hideTooltip()"/><circle id="point-value-34" cx="346.80" cy="299.97" r="5" fill="#4e73df" opacity="0" onmouseover="showTooltip(evt, 'value', '0.0', '22:59:20', 346.80, 299.97)" onmouseout="hideTooltip()"/><circle id="point-value-35" cx="357.00" cy="299.97" r="5" fill="#4e73df" opacity="0" onmouseover="showTooltip(evt, 'value', '0.0', '23:00:30', 357.00, 299.97)" onmouseout="hideTooltip()"/><circle id="point-value-36" cx="367.20" cy="299.97" r="5" fill="#4e73df" opacity="0" onmouseover="showTooltip(evt, 'value', '0.0', '23:01:40', 367.20, 299.97)" onmouseout="hideTooltip()"/><circle id="point-value-37" cx="377.40" cy="299.97" r="5" fill="#4e73df" opacity="0" onmouseover="showTooltip(evt, 'value', '0.0', '23:02:50', 377.40, 299.97)" onmouseout="hideTooltip()"/><circle id="point-value-38" cx="387.60" cy="299.98" r="5" fill="#4e73df" opacity="0" onmouseover="showTooltip(evt, 'value', '0.0', '23:04:00', 387.60, 299.98)" onmouseout="hideTooltip()"/><circle id="point-value-39" cx="397.80" cy="299.96" r="5" fill="#4e73df" opacity="0" onmouseover="showTooltip(evt, 'value', '0.0', '23:05:10', 397.80, 299.96)" onmouseout="hideTooltip()"/><circle id="point-value-40" cx="408.00" cy="299.98" r="5" fill="#4e73df" opacity="0" onmouseover="showTooltip(evt, 'value', '0.0', '23:06:20', 408.00, 299.98)" onmouseout="hideTooltip()"/><circle id="point-value-41" cx="418.20" cy="299.96" r="5" fill="#4e73df" opacity="0" onmouseover="showTooltip(evt, 'value', '0.0', '23:07:30', 418.20, 299.96)" onmouseout="hideTooltip()"/><circle id="point-value-42" cx="428.40" cy="299.97" r="5" fill="#4e73df" opacity="0" onmouseover="showTooltip(evt, 'value', '0.0', '23:08:40', 428.40, 299.97)" onmouseout="hideTooltip()"/><circle id="point-value-43" cx="438.60" cy="299.95" r="5" fill="#4e73df" opacity="0" onmouseover="showTooltip(evt, 'value', '0.0', '23:09:50', 438.60, 299.95)" onmouseout="hideTooltip()"/><circle id="point-value-44" cx="448.80" cy="299.94" r="5" fill="#4e73df" opacity="0" onmouseover="showTooltip(evt, 'value', '0.0', '23:11:00', 448.80, 299.94)" onmouseout="hideTooltip()"/><circle id="point-value-45" cx="459.00" cy="299.95" r="5" fill="#4e73df" opacity="0" onmouseover="showTooltip(evt, 'value', '0.0', '23:12:10', 459.00, 299.95)" onmouseout="hideTooltip()"/><circle id="point-value-46" cx="469.20" cy="299.95" r="5" fill="#4e73df" opacity="0" onmouseover="showTooltip(evt, 'value', '0.0', '23:13:20', 469.20, 299.95)" onmouseout="hideTooltip()"/><circle id="point-value-47" cx="479.40" cy="299.95" r="5" fill="#4e73df" opacity="0" onmouseover="showTooltip(evt, 'value', '0.0', '23:14:30', 479.40, 299.95)" onmouseout="hideTooltip()"/><circle id="point-value-48" cx="489.60" cy="299.97" r="5" fill="#4e73df" opacity="0" onmouseover="showTooltip(evt, 'value', '0.0', '23:15:40', 489.60, 299.97)" onmouseout="hideTooltip()"/><circle id="point-value-49" cx="499.80" cy="299.94" r="5" fill="#4e73df" opacity="0" onmouseover="showTooltip(evt, 'value', '0.0', '23:16:50', 499.80, 299.94)" onmouseout="hideTooltip()"/><circle id="point-value-50" cx="510.00" cy="299.96" r="5" fill="#4e73df" opacity="0" onmouseover="showTooltip(evt, 'value', '0.0', '23:18:00', 510.00, 299.96)" onmouseout="hideTooltip()"/></g><g id="tooltip" visibility="hidden"><rect x="0" y="0" width="150" height="40" fill="#333" opacity="0.8" rx="5"/><text x="5" y="15" font-size="10" fill="#fff" id="tooltip-series"></text><text x="5" y="30" font-size="10" fill="#fff" id="tooltip-value"></text></g><script><![CDATA[function showTooltip(evt, series, value, time, x, y) {  var tooltip = document.getElementById("tooltip");  var seriesText = document.getElementById("tooltip-series");  var valueText = document.getElementById("tooltip-value");  seriesText.textContent = "Series: " + series;  valueText.textContent = value + " at " + time;  tooltip.setAttribute("transform", "translate(" + (x + 10) + "," + (y - 50) + ")");  tooltip.setAttribute("visibility", "visible");  evt.target.setAttribute("r", "7");  evt.target.setAttribute("opacity", "1");}function hideTooltip() {  var tooltip = document.getElementById("tooltip");  tooltip.setAttribute("visibility", "hidden");  var circles = document.getElementsByTagName("circle");  for (var i = 0; i < circles.length; i++) {    circles[i].setAttribute("r", "5");    circles[i].setAttribute("opacity", "0");  }}]]></script><text x="300" y="20" text-anchor="middle" font-size="16" fill="#333">CPU Utilization</text><text x="10" y="200" text-anchor="middle" transform="rotate(-90,10,200)" font-size="12" fill="#666">Usage (%)</text><g font-size="12"><circle cx="20" cy="375" r="5" fill="#4e73df"/><text x="30" y="380" fill="#333">value: 0.0 at 23:18:00</text></g></svg>