<svg width="600" height="400" xmlns="http://www.w3.org/2000/svg" style="font-family: Arial, sans-serif;"><rect width="600" height="400" fill="#ffffff"/><g transform="translate(60,30)"><rect width="510" height="300" fill="#f8f9fc" stroke="#ddd"/><g stroke-width="1"><line x1="0" y1="300" x2="510" y2="300" stroke="#eee" /><text x="-5" y="304" text-anchor="end" font-size="10" fill="#666">0.0</text><line x1="0" y1="240" x2="510" y2="240" stroke="#eee" /><text x="-5" y="244" text-anchor="end" font-size="10" fill="#666">20.0</text><line x1="0" y1="180" x2="510" y2="180" stroke="#eee" /><text x="-5" y="184" text-anchor="end" font-size="10" fill="#666">40.0</text><line x1="0" y1="120" x2="510" y2="120" stroke="#eee" /><text x="-5" y="124" text-anchor="end" font-size="10" fill="#666">60.0</text><line x1="0" y1="59.999999999999986" x2="510" y2="59.999999999999986" stroke="#eee" /><text x="-5" y="63.999999999999986" text-anchor="end" font-size="10" fill="#666">80.0</text><line x1="0" y1="0" x2="510" y2="0" stroke="#eee" /><text x="-5" y="4" text-anchor="end" font-size="10" fill="#666">100.0</text></g><g stroke-width="1"><line x1="0" y1="0" x2="0" y2="300" stroke="#eee"/><text x="0" y="320" text-anchor="middle" font-size="10" fill="#666">10/22 0:10</text><line x1="102" y1="0" x2="102" y2="300" stroke="#eee"/><text x="102" y="320" text-anchor="middle" font-size="10" fill="#666">10/22 9:33</text><line x1="204" y1="0" x2="204" y2="300" stroke="#eee"/><text x="204" y="320" text-anchor="middle" font-size="10" fill="#666">10/22 18:56</text><line x1="306" y1="0" x2="306" y2="300" stroke="#eee"/><text x="306" y="320" text-anchor="middle" font-size="10" fill="#666">10/23 4:20</text><line x1="408" y1="0" x2="408" y2="300" stroke="#eee"/><text x="408" y="320" text-anchor="middle" font-size="10" fill="#666">10/23 13:43</text><line x1="510" y1="0" x2="510" y2="300" stroke="#eee"/><text x="510" y="320" text-anchor="middle" font-size="10" fill="#666">10/23 23:06</text></g><path d="M0.00,299.93 L1.51,299.95 L3.02,299.94 L4.53,299.96 L6.04,299.98 L7.54,299.94 L9.05,299.93 L10.56,299.95 L12.07,299.95 L13.58,299.95 L15.09,299.96 L16.60,299.96 L18.11,299.96 L19.62,299.95 L21.12,299.96 L22.63,299.95 L24.14,299.97 L25.65,299.96 L27.16,299.94 L28.67,299.95 L30.18,299.97 L31.69,299.97" stroke="#4e73df" fill="none" stroke-width="2" stroke-linejoin="round"/><path d="M162.96,299.97 L164.47,299.98 L165.98,299.98 L167.49,299.98 L168.99,299.98 L170.50,299.97 L172.01,299.98 L173.52,299.98 L175.03,299.98 L176.54,299.98 L178.05,299.97 L179.56,299.97 L181.07,299.99 L182.57,299.98 L184.08,300.00 L185.59,299.99 L187.10,299.99 L188.61,300.00 L190.12,299.98 L191.63,299.97 L193.14,299.98" stroke="#4e73df" fill="none" stroke-width="2" stroke-linejoin="round"/><path d="M226.33,299.99 L227.84,299.99 L229.35,299.99 L230.86,299.99 L232.37,299.99 L233.88,299.99 L235.38,299.98 L236.89,299.95 L238.40,299.97 L239.91,299.96 L241.42,299.97 L242.93,299.99 L244.44,299.97 L245.95,299.96 L247.46,299.96 L248.96,299.96 L250.47,299.96 L251.98,299.95 L253.49,299.96 L255.00,299.96 L256.51,299.97 L258.02,299.97 L259.53,299.99 L261.04,299.96 L262.54,299.96 L264.05,299.97 L265.56,299.98 L267.07,299.99 L268.58,299.99 L270.09,299.99 L271.60,299.99 L273.11,299.99 L274.62,300.00 L276.12,299.99 L277.63,299.99 L279.14,299.99 L280.65,299.99 L282.16,299.99 L283.67,299.99 L285.18,299.98 L286.69,299.97 L288.20,299.97 L289.70,299.98 L291.21,299.90 L292.72,299.97" stroke="#4e73df" fill="none" stroke-width="2" stroke-linejoin="round"/><path d="M479.82,299.96 L481.33,299.96 L482.84,299.94 L484.35,299.98 L485.86,299.97 L487.37,299.97 L488.88,299.96 L490.38,299.94 L491.89,299.96 L493.40,299.96 L494.91,299.97 L496.42,299.97 L497.93,299.95 L499.44,299.97 L500.95,299.97 L502.46,299.96 L503.96,299.96 L505.47,299.95 L506.98,299.96 L508.49,299.97 L510.00,299.96" stroke="#4e73df" fill="none" stroke-width="2" stroke-linejoin="round"/><circle id="point-value-0" cx="0.00" cy="299.93" r="5" fill="#4e73df" opacity="0" onmouseover="showTooltip(evt, 'value', '0.0', '00:10:00', 0.00, 299.93)" onmouseout="hideTooltip()"/><circle id="point-value-1" cx="1.51" cy="299.95" r="5" fill="#4e73df" opacity="0" onmouseover="showTooltip(evt, 'value', '0.0', '00:18:20', 1.51, 299.95)" onmouseout="hideTooltip()"/><circle id="point-value-2" cx="3.02" cy="299.94" r="5" fill="#4e73df" opacity="0" onmouseover="showTooltip(evt, 'value', '0.0', '00:26:40', 3.02, 299.94)" onmouseout="hideTooltip()"/><circle id="point-value-3" cx="4.53" cy="299.96" r="5" fill="#4e73df" opacity="0" onmouseover="showTooltip(evt, 'value', '0.0', '00:35:00', 4.53, 299.96)" onmouseout="hideTooltip()"/><circle id="point-value-4" cx="6.04" cy="299.98" r="5" fill="#4e73df" opacity="0" onmouseover="showTooltip(evt, 'value', '0.0', '00:43:20', 6.04, 299.98)" onmouseout="hideTooltip()"/><circle id="point-value-5" cx="7.54" cy="299.94" r="5" fill="#4e73df" opacity="0" onmouseover="showTooltip(evt, 'value', '0.0', '00:51:40', 7.54, 299.94)" onmouseout="hideTooltip()"/><circle id="point-value-6" cx="9.05" cy="299.93" r="5" fill="#4e73df" opacity="0" onmouseover="showTooltip(evt, 'value', '0.0', '01:00:00', 9.05, 299.93)" onmouseout="hideTooltip()"/><circle id="point-value-7" cx="10.56" cy="299.95" r="5" fill="#4e73df" opacity="0" onmouseover="showTooltip(evt, 'value', '0.0', '01:08:20', 10.56, 299.95)" onmouseout="hideTooltip()"/><circle id="point-value-8" cx="12.07" cy="299.95" r="5" fill="#4e73df" opacity="0" onmouseover="showTooltip(evt, 'value', '0.0', '01:16:40', 12.07, 299.95)" onmouseout="hideTooltip()"/><circle id="point-value-9" cx="13.58" cy="299.95" r="5" fill="#4e73df" opacity="0" onmouseover="showTooltip(evt, 'value', '0.0', '01:25:00', 13.58, 299.95)" onmouseout="hideTooltip()"/><circle id="point-value-10" cx="15.09" cy="299.96" r="5" fill="#4e73df" opacity="0" onmouseover="showTooltip(evt, 'value', '0.0', '01:33:20', 15.09, 299.96)" onmouseout="hideTooltip()"/><circle id="point-value-11" cx="16.60" cy="299.96" r="5" fill="#4e73df" opacity="0" onmouseover="showTooltip(evt, 'value', '0.0', '01:41:40', 16.60, 299.96)" onmouseout="hideTooltip()"/><circle id="point-value-12" cx="18.11" cy="299.96" r="5" fill="#4e73df" opacity="0" onmouseover="showTooltip(evt, 'value', '0.0', '01:50:00', 18.11, 299.96)" onmouseout="hideTooltip()"/><circle id="point-value-13" cx="19.62" cy="299.95" r="5" fill="#4e73df" opacity="0" onmouseover="showTooltip(evt, 'value', '0.0', '01:58:20', 19.62, 299.95)" onmouseout="hideTooltip()"/><circle id="point-value-14" cx="21.12" cy="299.96" r="5" fill="#4e73df" opacity="0" onmouseover="showTooltip(evt, 'value', '0.0', '02:06:40', 21.12, 299.96)" onmouseout="hideTooltip()"/><circle id="point-value-15" cx="22.63" cy="299.95" r="5" fill="#4e73df" opacity="0" onmouseover="showTooltip(evt, 'value', '0.0', '02:15:00', 22.63, 299.95)" onmouseout="hideTooltip()"/><circle id="point-value-16" cx="24.14" cy="299.97" r="5" fill="#4e73df" opacity="0" onmouseover="showTooltip(evt, 'value', '0.0', '02:23:20', 24.14, 299.97)" onmouseout="hideTooltip()"/><circle id="point-value-17" cx="25.65" cy="299.96" r="5" fill="#4e73df" opacity="0" onmouseover="showTooltip(evt, 'value', '0.0', '02:31:40', 25.65, 299.96)" onmouseout="hideTooltip()"/><circle id="point-value-18" cx="27.16" cy="299.94" r="5" fill="#4e73df" opacity="0" onmouseover="showTooltip(evt, 'value', '0.0', '02:40:00', 27.16, 299.94)" onmouseout="hideTooltip()"/><circle id="point-value-19" cx="28.67" cy="299.95" r="5" fill="#4e73df" opacity="0" onmouseover="showTooltip(evt, 'value', '0.0', '02:48:20', 28.67, 299.95)" onmouseout="hideTooltip()"/><circle id="point-value-20" cx="30.18" cy="299.97" r="5" fill="#4e73df" opacity="0" onmouseover="showTooltip(evt, 'value', '0.0', '02:56:40', 30.18, 299.97)" onmouseout="hideTooltip()"/><circle id="point-value-21" cx="31.69" cy="299.97" r="5" fill="#4e73df" opacity="0" onmouseover="showTooltip(evt, 'value', '0.0', '03:05:00', 31.69, 299.97)" onmouseout="hideTooltip()"/><circle id="point-value-22" cx="162.96" cy="299.97" r="5" fill="#4e73df" opacity="0" onmouseover="showTooltip(evt, 'value', '0.0', '15:10:00', 162.96, 299.97)" onmouseout="hideTooltip()"/><circle id="point-value-23" cx="164.47" cy="299.98" r="5" fill="#4e73df" opacity="0" onmouseover="showTooltip(evt, 'value', '0.0', '15:18:20', 164.47, 299.98)" onmouseout="hideTooltip()"/><circle id="point-value-24" cx="165.98" cy="299.98" r="5" fill="#4e73df" opacity="0" onmouseover="showTooltip(evt, 'value', '0.0', '15:26:40', 165.98, 299.98)" onmouseout="hideTooltip()"/><circle id="point-value-25" cx="167.49" cy="299.98" r="5" fill="#4e73df" opacity="0" onmouseover="showTooltip(evt, 'value', '0.0', '15:35:00', 167.49, 299.98)" onmouseout="hideTooltip()"/><circle id="point-value-26" cx="168.99" cy="299.98" r="5" fill="#4e73df" opacity="0" onmouseover="showTooltip(evt, 'value', '0.0', '15:43:20', 168.99, 299.98)" onmouseout="hideTooltip()"/><circle id="point-value-27" cx="170.50" cy="299.97" r="5" fill="#4e73df" opacity="0" onmouseover="showTooltip(evt, 'value', '0.0', '15:51:40', 170.50, 299.97)" onmouseout="hideTooltip()"/><circle id="point-value-28" cx="172.01" cy="299.98" r="5" fill="#4e73df" opacity="0" onmouseover="showTooltip(evt, 'value', '0.0', '16:00:00', 172.01, 299.98)" onmouseout="hideTooltip()"/><circle id="point-value-29" cx="173.52" cy="299.98" r="5" fill="#4e73df" opacity="0" onmouseover="showTooltip(evt, 'value', '0.0', '16:08:20', 173.52, 299.98)" onmouseout="hideTooltip()"/><circle id="point-value-30" cx="175.03" cy="299.98" r="5" fill="#4e73df" opacity="0" onmouseover="showTooltip(evt, 'value', '0.0', '16:16:40', 175.03, 299.98)" onmouseout="hideTooltip()"/><circle id="point-value-31" cx="176.54" cy="299.98" r="5" fill="#4e73df" opacity="0" onmouseover="showTooltip(evt, 'value', '0.0', '16:25:00', 176.54, 299.98)" onmouseout="hideTooltip()"/><circle id="point-value-32" cx="178.05" cy="299.97" r="5" fill="#4e73df" opacity="0" onmouseover="showTooltip(evt, 'value', '0.0', '16:33:20', 178.05, 299.97)" onmouseout="hideTooltip()"/><circle id="point-value-33" cx="179.56" cy="299.97" r="5" fill="#4e73df" opacity="0" onmouseover="showTooltip(evt, 'value', '0.0', '16:41:40', 179.56, 299.97)" onmouseout="hideTooltip()"/><circle id="point-value-34" cx="181.07" cy="299.99" r="5" fill="#4e73df" opacity="0" onmouseover="showTooltip(evt, 'value', '0.0', '16:50:00', 181.07, 299.99)" onmouseout="hideTooltip()"/><circle id="point-value-35" cx="182.57" cy="299.98" r="5" fill="#4e73df" opacity="0" onmouseover="showTooltip(evt, 'value', '0.0', '16:58:20', 182.57, 299.98)" onmouseout="hideTooltip()"/><circle id="point-value-36" cx="184.08" cy="300.00" r="5" fill="#4e73df" opacity="0" onmouseover="showTooltip(evt, 'value', '0.0', '17:06:40', 184.08, 300.00)" onmouseout="hideTooltip()"/><circle id="point-value-37" cx="185.59" cy="299.99" r="5" fill="#4e73df" opacity="0" onmouseover="showTooltip(evt, 'value', '0.0', '17:15:00', 185.59, 299.99)" onmouseout="hideTooltip()"/><circle id="point-value-38" cx="187.10" cy="299.99" r="5" fill="#4e73df" opacity="0" onmouseover="showTooltip(evt, 'value', '0.0', '17:23:20', 187.10, 299.99)" onmouseout="hideTooltip()"/><circle id="point-value-39" cx="188.61" cy="300.00" r="5" fill="#4e73df" opacity="0" onmouseover="showTooltip(evt, 'value', '0.0', '17:31:40', 188.61, 300.00)" onmouseout="hideTooltip()"/><circle id="point-value-40" cx="190.12" cy="299.98" r="5" fill="#4e73df" opacity="0" onmouseover="showTooltip(evt, 'value', '0.0', '17:40:00', 190.12, 299.98)" onmouseout="hideTooltip()"/><circle id="point-value-41" cx="191.63" cy="299.97" r="5" fill="#4e73df" opacity="0" onmouseover="showTooltip(evt, 'value', '0.0', '17:48:20', 191.63, 299.97)" onmouseout="hideTooltip()"/><circle id="point-value-42" cx="193.14" cy="299.98" r="5" fill="#4e73df" opacity="0" onmouseover="showTooltip(evt, 'value', '0.0', '17:56:40', 193.14, 299.98)" onmouseout="hideTooltip()"/><circle id="point-value-43" cx="226.33" cy="299.99" r="5" fill="#4e73df" opacity="0" onmouseover="showTooltip(evt, 'value', '0.0', '21:00:00', 226.33, 299.99)" onmouseout="hideTooltip()"/><circle id="point-value-44" cx="227.84" cy="299.99" r="5" fill="#4e73df" opacity="0" onmouseover="showTooltip(evt, 'value', '0.0', '21:08:20', 227.84, 299.99)" onmouseout="hideTooltip()"/><circle id="point-value-45" cx="229.35" cy="299.99" r="5" fill="#4e73df" opacity="0" onmouseover="showTooltip(evt, 'value', '0.0', '21:16:40', 229.35, 299.99)" onmouseout="hideTooltip()"/><circle id="point-value-46" cx="230.86" cy="299.99" r="5" fill="#4e73df" opacity="0" onmouseover="showTooltip(evt, 'value', '0.0', '21:25:00', 230.86, 299.99)" onmouseout="hideTooltip()"/><circle id="point-value-47" cx="232.37" cy="299.99" r="5" fill="#4e73df" opacity="0" onmouseover="showTooltip(evt, 'value', '0.0', '21:33:20', 232.37, 299.99)" onmouseout="hideTooltip()"/><circle id="point-value-48" cx="233.88" cy="299.99" r="5" fill="#4e73df" opacity="0" onmouseover="showTooltip(evt, 'value', '0.0', '21:41:40', 233.88, 299.99)" onmouseout="hideTooltip()"/><circle id="point-value-49" cx="235.38" cy="299.98" r="5" fill="#4e73df" opacity="0" onmouseover="showTooltip(evt, 'value', '0.0', '21:50:00', 235.38, 299.98)" onmouseout="hideTooltip()"/><circle id="point-value-50" cx="236.89" cy="299.95" r="5" fill="#4e73df" opacity="0" onmouseover="showTooltip(evt, 'value', '0.0', '21:58:20', 236.89, 299.95)" onmouseout="hideTooltip()"/><circle id="point-value-51" cx="238.40" cy="299.97" r="5" fill="#4e73df" opacity="0" onmouseover="showTooltip(evt, 'value', '0.0', '22:06:40', 238.40, 299.97)" onmouseout="hideTooltip()"/><circle id="point-value-52" cx="239.91" cy="299.96" r="5" fill="#4e73df" opacity="0" onmouseover="showTooltip(evt, 'value', '0.0', '22:15:00', 239.91, 299.96)" onmouseout="hideTooltip()"/><circle id="point-value-53" cx="241.42" cy="299.97" r="5" fill="#4e73df" opacity="0" onmouseover="showTooltip(evt, 'value', '0.0', '22:23:20', 241.42, 299.97)" onmouseout="hideTooltip()"/><circle id="point-value-54" cx="242.93" cy="299.99" r="5" fill="#4e73df" opacity="0" onmouseover="showTooltip(evt, 'value', '0.0', '22:31:40', 242.93, 299.99)" onmouseout="hideTooltip()"/><circle id="point-value-55" cx="244.44" cy="299.97" r="5" fill="#4e73df" opacity="0" onmouseover="showTooltip(evt, 'value', '0.0', '22:40:00', 244.44, 299.97)" onmouseout="hideTooltip()"/><circle id="point-value-56" cx="245.95" cy="299.96" r="5" fill="#4e73df" opacity="0" onmouseover="showTooltip(evt, 'value', '0.0', '22:48:20', 245.95, 299.96)" onmouseout="hideTooltip()"/><circle id="point-value-57" cx="247.46" cy="299.96" r="5" fill="#4e73df" opacity="0" onmouseover="showTooltip(evt, 'value', '0.0', '22:56:40', 247.46, 299.96)" onmouseout="hideTooltip()"/><circle id="point-value-58" cx="248.96" cy="299.96" r="5" fill="#4e73df" opacity="0" onmouseover="showTooltip(evt, 'value', '0.0', '23:05:00', 248.96, 299.96)" onmouseout="hideTooltip()"/><circle id="point-value-59" cx="250.47" cy="299.96" r="5" fill="#4e73df" opacity="0" onmouseover="showTooltip(evt, 'value', '0.0', '23:13:20', 250.47, 299.96)" onmouseout="hideTooltip()"/><circle id="point-value-60" cx="251.98" cy="299.95" r="5" fill="#4e73df" opacity="0" onmouseover="showTooltip(evt, 'value', '0.0', '23:21:40', 251.98, 299.95)" onmouseout="hideTooltip()"/><circle id="point-value-61" cx="253.49" cy="299.96" r="5" fill="#4e73df" opacity="0" onmouseover="showTooltip(evt, 'value', '0.0', '23:30:00', 253.49, 299.96)" onmouseout="hideTooltip()"/><circle id="point-value-62" cx="255.00" cy="299.96" r="5" fill="#4e73df" opacity="0" onmouseover="showTooltip(evt, 'value', '0.0', '23:38:20', 255.00, 299.96)" onmouseout="hideTooltip()"/><circle id="point-value-63" cx="256.51" cy="299.97" r="5" fill="#4e73df" opacity="0" onmouseover="showTooltip(evt, 'value', '0.0', '23:46:40', 256.51, 299.97)" onmouseout="hideTooltip()"/><circle id="point-value-64" cx="258.02" cy="299.97" r="5" fill="#4e73df" opacity="0" onmouseover="showTooltip(evt, 'value', '0.0', '23:55:00', 258.02, 299.97)" onmouseout="hideTooltip()"/><circle id="point-value-65" cx="259.53" cy="299.99" r="5" fill="#4e73df" opacity="0" onmouseover="showTooltip(evt, 'value', '0.0', '00:03:20', 259.53, 299.99)" onmouseout="hideTooltip()"/><circle id="point-value-66" cx="261.04" cy="299.96" r="5" fill="#4e73df" opacity="0" onmouseover="showTooltip(evt, 'value', '0.0', '00:11:40', 261.04, 299.96)" onmouseout="hideTooltip()"/><circle id="point-value-67" cx="262.54" cy="299.96" r="5" fill="#4e73df" opacity="0" onmouseover="showTooltip(evt, 'value', '0.0', '00:20:00', 262.54, 299.96)" onmouseout="hideTooltip()"/><circle id="point-value-68" cx="264.05" cy="299.97" r="5" fill="#4e73df" opacity="0" onmouseover="showTooltip(evt, 'value', '0.0', '00:28:20', 264.05, 299.97)" onmouseout="hideTooltip()"/><circle id="point-value-69" cx="265.56" cy="299.98" r="5" fill="#4e73df" opacity="0" onmouseover="showTooltip(evt, 'value', '0.0', '00:36:40', 265.56, 299.98)" onmouseout="hideTooltip()"/><circle id="point-value-70" cx="267.07" cy="299.99" r="5" fill="#4e73df" opacity="0" onmouseover="showTooltip(evt, 'value', '0.0', '00:45:00', 267.07, 299.99)" onmouseout="hideTooltip()"/><circle id="point-value-71" cx="268.58" cy="299.99" r="5" fill="#4e73df" opacity="0" onmouseover="showTooltip(evt, 'value', '0.0', '00:53:20', 268.58, 299.99)" onmouseout="hideTooltip()"/><circle id="point-value-72" cx="270.09" cy="299.99" r="5" fill="#4e73df" opacity="0" onmouseover="showTooltip(evt, 'value', '0.0', '01:01:40', 270.09, 299.99)" onmouseout="hideTooltip()"/><circle id="point-value-73" cx="271.60" cy="299.99" r="5" fill="#4e73df" opacity="0" onmouseover="showTooltip(evt, 'value', '0.0', '01:10:00', 271.60, 299.99)" onmouseout="hideTooltip()"/><circle id="point-value-74" cx="273.11" cy="299.99" r="5" fill="#4e73df" opacity="0" onmouseover="showTooltip(evt, 'value', '0.0', '01:18:20', 273.11, 299.99)" onmouseout="hideTooltip()"/><circle id="point-value-75" cx="274.62" cy="300.00" r="5" fill="#4e73df" opacity="0" onmouseover="showTooltip(evt, 'value', '0.0', '01:26:40', 274.62, 300.00)" onmouseout="hideTooltip()"/><circle id="point-value-76" cx="276.12" cy="299.99" r="5" fill="#4e73df" opacity="0" onmouseover="showTooltip(evt, 'value', '0.0', '01:35:00', 276.12, 299.99)" onmouseout="hideTooltip()"/><circle id="point-value-77" cx="277.63" cy="299.99" r="5" fill="#4e73df" opacity="0" onmouseover="showTooltip(evt, 'value', '0.0', '01:43:20', 277.63, 299.99)" onmouseout="hideTooltip()"/><circle id="point-value-78" cx="279.14" cy="299.99" r="5" fill="#4e73df" opacity="0" onmouseover="showTooltip(evt, 'value', '0.0', '01:51:40', 279.14, 299.99)" onmouseout="hideTooltip()"/><circle id="point-value-79" cx="280.65" cy="299.99" r="5" fill="#4e73df" opacity="0" onmouseover="showTooltip(evt, 'value', '0.0', '02:00:00', 280.65, 299.99)" onmouseout="hideTooltip()"/><circle id="point-value-80" cx="282.16" cy="299.99" r="5" fill="#4e73df" opacity="0" onmouseover="showTooltip(evt, 'value', '0.0', '02:08:20', 282.16, 299.99)" onmouseout="hideTooltip()"/><circle id="point-value-81" cx="283.67" cy="299.99" r="5" fill="#4e73df" opacity="0" onmouseover="showTooltip(evt, 'value', '0.0', '02:16:40', 283.67, 299.99)" onmouseout="hideTooltip()"/><circle id="point-value-82" cx="285.18" cy="299.98" r="5" fill="#4e73df" opacity="0" onmouseover="showTooltip(evt, 'value', '0.0', '02:25:00', 285.18, 299.98)" onmouseout="hideTooltip()"/><circle id="point-value-83" cx="286.69" cy="299.97" r="5" fill="#4e73df" opacity="0" onmouseover="showTooltip(evt, 'value', '0.0', '02:33:20', 286.69, 299.97)" onmouseout="hideTooltip()"/><circle id="point-value-84" cx="288.20" cy="299.97" r="5" fill="#4e73df" opacity="0" onmouseover="showTooltip(evt, 'value', '0.0', '02:41:40', 288.20, 299.97)" onmouseout="hideTooltip()"/><circle id="point-value-85" cx="289.70" cy="299.98" r="5" fill="#4e73df" opacity="0" onmouseover="showTooltip(evt, 'value', '0.0', '02:50:00', 289.70, 299.98)" onmouseout="hideTooltip()"/><circle id="point-value-86" cx="291.21" cy="299.90" r="5" fill="#4e73df" opacity="0" onmouseover="showTooltip(evt, 'value', '0.0', '02:58:20', 291.21, 299.90)" onmouseout="hideTooltip()"/><circle id="point-value-87" cx="292.72" cy="299.97" r="5" fill="#4e73df" opacity="0" onmouseover="showTooltip(evt, 'value', '0.0', '03:06:40', 292.72, 299.97)" onmouseout="hideTooltip()"/><circle id="point-value-88" cx="479.82" cy="299.96" r="5" fill="#4e73df" opacity="0" onmouseover="showTooltip(evt, 'value', '0.0', '20:20:00', 479.82, 299.96)" onmouseout="hideTooltip()"/><circle id="point-value-89" cx="481.33" cy="299.96" r="5" fill="#4e73df" opacity="0" onmouseover="showTooltip(evt, 'value', '0.0', '20:28:20', 481.33, 299.96)" onmouseout="hideTooltip()"/><circle id="point-value-90" cx="482.84" cy="299.94" r="5" fill="#4e73df" opacity="0" onmouseover="showTooltip(evt, 'value', '0.0', '20:36:40', 482.84, 299.94)" onmouseout="hideTooltip()"/><circle id="point-value-91" cx="484.35" cy="299.98" r="5" fill="#4e73df" opacity="0" onmouseover="showTooltip(evt, 'value', '0.0', '20:45:00', 484.35, 299.98)" onmouseout="hideTooltip()"/><circle id="point-value-92" cx="485.86" cy="299.97" r="5" fill="#4e73df" opacity="0" onmouseover="showTooltip(evt, 'value', '0.0', '20:53:20', 485.86, 299.97)" onmouseout="hideTooltip()"/><circle id="point-value-93" cx="487.37" cy="299.97" r="5" fill="#4e73df" opacity="0" onmouseover="showTooltip(evt, 'value', '0.0', '21:01:40', 487.37, 299.97)" onmouseout="hideTooltip()"/><circle id="point-value-94" cx="488.88" cy="299.96" r="5" fill="#4e73df" opacity="0" onmouseover="showTooltip(evt, 'value', '0.0', '21:10:00', 488.88, 299.96)" onmouseout="hideTooltip()"/><circle id="point-value-95" cx="490.38" cy="299.94" r="5" fill="#4e73df" opacity="0" onmouseover="showTooltip(evt, 'value', '0.0', '21:18:20', 490.38, 299.94)" onmouseout="hideTooltip()"/><circle id="point-value-96" cx="491.89" cy="299.96" r="5" fill="#4e73df" opacity="0" onmouseover="showTooltip(evt, 'value', '0.0', '21:26:40', 491.89, 299.96)" onmouseout="hideTooltip()"/><circle id="point-value-97" cx="493.40" cy="299.96" r="5" fill="#4e73df" opacity="0" onmouseover="showTooltip(evt, 'value', '0.0', '21:35:00', 493.40, 299.96)" onmouseout="hideTooltip()"/><circle id="point-value-98" cx="494.91" cy="299.97" r="5" fill="#4e73df" opacity="0" onmouseover="showTooltip(evt, 'value', '0.0', '21:43:20', 494.91, 299.97)" onmouseout="hideTooltip()"/><circle id="point-value-99" cx="496.42" cy="299.97" r="5" fill="#4e73df" opacity="0" onmouseover="showTooltip(evt, 'value', '0.0', '21:51:40', 496.42, 299.97)" onmouseout="hideTooltip()"/><circle id="point-value-100" cx="497.93" cy="299.95" r="5" fill="#4e73df" opacity="0" onmouseover="showTooltip(evt, 'value', '0.0', '22:00:00', 497.93, 299.95)" onmouseout="hideTooltip()"/><circle id="point-value-101" cx="499.44" cy="299.97" r="5" fill="#4e73df" opacity="0" onmouseover="showTooltip(evt, 'value', '0.0', '22:08:20', 499.44, 299.97)" onmouseout="hideTooltip()"/><circle id="point-value-102" cx="500.95" cy="299.97" r="5" fill="#4e73df" opacity="0" onmouseover="showTooltip(evt, 'value', '0.0', '22:16:40', 500.95, 299.97)" onmouseout="hideTooltip()"/><circle id="point-value-103" cx="502.46" cy="299.96" r="5" fill="#4e73df" opacity="0" onmouseover="showTooltip(evt, 'value', '0.0', '22:25:00', 502.46, 299.96)" onmouseout="hideTooltip()"/><circle id="point-value-104" cx="503.96" cy="299.96" r="5" fill="#4e73df" opacity="0" onmouseover="showTooltip(evt, 'value', '0.0', '22:33:20', 503.96, 299.96)" onmouseout="hideTooltip()"/><circle id="point-value-105" cx="505.47" cy="299.95" r="5" fill="#4e73df" opacity="0" onmouseover="showTooltip(evt, 'value', '0.0', '22:41:40', 505.47, 299.95)" onmouseout="hideTooltip()"/><circle id="point-value-106" cx="506.98" cy="299.96" r="5" fill="#4e73df" opacity="0" onmouseover="showTooltip(evt, 'value', '0.0', '22:50:00', 506.98, 299.96)" onmouseout="hideTooltip()"/><circle id="point-value-107" cx="508.49" cy="299.97" r="5" fill="#4e73df" opacity="0" onmouseover="showTooltip(evt, 'value', '0.0', '22:58:20', 508.49, 299.97)" onmouseout="hideTooltip()"/><circle id="point-value-108" cx="510.00" cy="299.96" r="5" fill="#4e73df" opacity="0" onmouseover="showTooltip(evt, 'value', '0.0', '23:06:40', 510.00, 299.96)" onmouseout="hideTooltip()"/></g><g id="tooltip" visibility="hidden"><rect x="0" y="0" width="150" height="40" fill="#333" opacity="0.8" rx="5"/><text x="5" y="15" font-size="10" fill="#fff" id="tooltip-series"></text><text x="5" y="30" font-size="10" fill="#fff" id="tooltip-value"></text></g><script><![CDATA[function showTooltip(evt, series, value, time, x, y) {  var tooltip = document.getElementById("tooltip");  var seriesText = document.getElementById("tooltip-series");  var valueText = document.getElementById("tooltip-value");  seriesText.textContent = "Series: " + series;  valueText.textContent = value + " at " + time;  tooltip.setAttribute("transform", "translate(" + (x + 10) + "," + (y - 50) + ")");  tooltip.setAttribute("visibility", "visible");  evt.target.setAttribute("r", "7");  evt.target.setAttribute("opacity", "1");}function hideTooltip() {  var tooltip = document.getElementById("tooltip");  tooltip.setAttribute("visibility", "hidden");  var circles = document.getElementsByTagName("circle");  for (var i = 0; i < circles.length; i++) {    circles[i].setAttribute("r", "5");    circles[i].setAttribute("opacity", "0");  }}]]></script><text x="300" y="20" text-anchor="middle" font-size="16" fill="#333">CPU Utilization</text><text x="10" y="200" text-anchor="middle" transform="rotate(-90,10,200)" font-size="12" fill="#666">Usage (%)</text><g font-size="12"><circle cx="20" cy="375" r="5" fill="#4e73df"/><text x="30" y="380" fill="#333">value: 0.0 at 23:06:40</text></g></svg>