<svg width="600" height="400" xmlns="http://www.w3.org/2000/svg" style="font-family: Arial, sans-serif;"><rect width="600" height="400" fill="#ffffff"/><g transform="translate(60,30)"><rect width="510" height="300" fill="#f8f9fc" stroke="#ddd"/><g stroke-width="1"><line x1="0" y1="300" x2="510" y2="300" stroke="#eee" /><text x="-5" y="304" text-anchor="end" font-size="10" fill="#666">0.0</text><line x1="0" y1="240" x2="510" y2="240" stroke="#eee" /><text x="-5" y="244" text-anchor="end" font-size="10" fill="#666">0.2</text><line x1="0" y1="180" x2="510" y2="180" stroke="#eee" /><text x="-5" y="184" text-anchor="end" font-size="10" fill="#666">0.4</text><line x1="0" y1="120" x2="510" y2="120" stroke="#eee" /><text x="-5" y="124" text-anchor="end" font-size="10" fill="#666">0.6</text><line x1="0" y1="59.999999999999986" x2="510" y2="59.999999999999986" stroke="#eee" /><text x="-5" y="63.999999999999986" text-anchor="end" font-size="10" fill="#666">0.8</text><line x1="0" y1="0" x2="510" y2="0" stroke="#eee" /><text x="-5" y="4" text-anchor="end" font-size="10" fill="#666">1.0</text></g><g stroke-width="1"><line x1="0" y1="0" x2="0" y2="300" stroke="#eee"/><text x="0" y="320" text-anchor="middle" font-size="10" fill="#666">20:10:20</text><line x1="102" y1="0" x2="102" y2="300" stroke="#eee"/><text x="102" y="320" text-anchor="middle" font-size="10" fill="#666">20:22:20</text><line x1="204" y1="0" x2="204" y2="300" stroke="#eee"/><text x="204" y="320" text-anchor="middle" font-size="10" fill="#666">20:34:20</text><line x1="306" y1="0" x2="306" y2="300" stroke="#eee"/><text x="306" y="320" text-anchor="middle" font-size="10" fill="#666">20:46:20</text><line x1="408" y1="0" x2="408" y2="300" stroke="#eee"/><text x="408" y="320" text-anchor="middle" font-size="10" fill="#666">20:58:20</text><line x1="510" y1="0" x2="510" y2="300" stroke="#eee"/><text x="510" y="320" text-anchor="middle" font-size="10" fill="#666">21:10:20</text></g><path d="M0.00,300.00 L1.42,300.00 L2.83,300.00 L4.25,300.00 L5.67,300.00 L7.08,300.00 L8.50,300.00 L9.92,300.00 L11.33,300.00 L12.75,300.00 L14.17,300.00 L15.58,300.00 L17.00,300.00 L18.42,300.00 L19.83,300.00 L21.25,300.00 L22.67,300.00 L24.08,300.00 L25.50,300.00 L26.92,300.00 L28.33,300.00 L29.75,300.00 L31.17,300.00 L32.58,300.00 L34.00,300.00 L35.42,300.00 L36.83,300.00 L38.25,300.00 L39.67,300.00 L41.08,300.00 L42.50,300.00 L43.92,300.00 L45.33,300.00 L46.75,300.00 L48.17,300.00 L49.58,300.00 L51.00,300.00 L52.42,300.00 L53.83,300.00 L55.25,300.00 L56.67,300.00 L58.08,300.00 L59.50,300.00 L60.92,300.00 L62.33,300.00 L63.75,300.00 L65.17,300.00 L66.58,300.00 L68.00,300.00 L69.42,300.00 L70.83,300.00 L72.25,300.00 L73.67,300.00 L75.08,300.00 L76.50,300.00 L77.92,300.00 L79.33,300.00 L80.75,300.00 L82.17,300.00 L83.58,300.00 L85.00,300.00 L86.42,300.00 L87.83,300.00 L89.25,300.00 L90.67,300.00 L92.08,300.00 L93.50,300.00 L94.92,300.00 L96.33,300.00 L97.75,300.00 L99.17,300.00 L100.58,300.00 L102.00,300.00 L103.42,300.00 L104.83,300.00 L106.25,300.00 L107.67,300.00 L109.08,300.00 L110.50,300.00 L111.92,300.00 L113.33,300.00 L114.75,300.00 L116.17,300.00 L117.58,300.00 L119.00,300.00 L120.42,300.00 L121.83,300.00 L123.25,300.00 L124.67,300.00 L126.08,300.00 L127.50,300.00 L128.92,300.00 L130.33,300.00 L131.75,300.00 L133.17,300.00 L134.58,300.00 L136.00,300.00 L137.42,300.00 L138.83,300.00 L140.25,300.00 L141.67,300.00 L143.08,300.00 L144.50,300.00 L145.92,300.00 L147.33,300.00 L148.75,300.00 L150.17,300.00 L151.58,300.00 L153.00,300.00 L154.42,300.00 L155.83,300.00 L157.25,300.00 L158.67,300.00 L160.08,300.00 L161.50,300.00 L162.92,300.00 L164.33,300.00 L165.75,300.00 L167.17,300.00 L168.58,300.00 L170.00,300.00 L171.42,300.00 L172.83,300.00 L174.25,300.00 L175.67,300.00 L177.08,300.00 L178.50,300.00 L179.92,300.00 L181.33,300.00 L182.75,300.00 L184.17,300.00 L185.58,300.00 L187.00,300.00 L188.42,300.00 L189.83,300.00 L191.25,300.00 L192.67,300.00 L194.08,300.00 L195.50,300.00 L196.92,300.00 L198.33,300.00 L199.75,300.00 L201.17,300.00 L202.58,300.00 L204.00,300.00 L205.42,300.00 L206.83,300.00 L208.25,300.00 L209.67,300.00 L211.08,300.00 L212.50,300.00 L213.92,300.00 L215.33,300.00 L216.75,300.00 L218.17,300.00 L219.58,300.00 L221.00,300.00 L222.42,300.00 L223.83,300.00 L225.25,300.00 L226.67,300.00 L228.08,300.00 L229.50,300.00 L230.92,300.00 L232.33,300.00 L233.75,300.00 L235.17,300.00 L236.58,300.00 L238.00,300.00 L239.42,300.00 L240.83,300.00 L242.25,300.00 L243.67,300.00 L245.08,300.00 L246.50,300.00 L247.92,300.00 L249.33,300.00 L250.75,300.00 L252.17,300.00 L253.58,300.00 L255.00,300.00 L256.42,300.00 L257.83,300.00 L259.25,300.00 L260.67,300.00 L262.08,300.00 L263.50,300.00 L264.92,300.00 L266.33,300.00 L267.75,300.00 L269.17,300.00 L270.58,300.00 L272.00,300.00 L273.42,300.00 L274.83,300.00 L276.25,300.00 L277.67,300.00 L279.08,300.00 L280.50,300.00 L281.92,300.00 L283.33,300.00 L284.75,300.00 L286.17,300.00 L287.58,300.00 L289.00,300.00 L290.42,300.00 L291.83,300.00 L293.25,300.00 L294.67,300.00 L296.08,300.00 L297.50,300.00 L298.92,300.00 L300.33,300.00 L301.75,300.00 L303.17,300.00 L304.58,300.00 L306.00,300.00 L307.42,300.00 L308.83,300.00 L310.25,300.00 L311.67,300.00 L313.08,300.00 L314.50,300.00 L315.92,300.00 L317.33,300.00 L318.75,300.00 L320.17,300.00 L321.58,300.00 L323.00,300.00 L324.42,300.00 L325.83,300.00 L327.25,300.00 L328.67,300.00 L330.08,300.00 L331.50,300.00 L332.92,300.00 L334.33,300.00 L335.75,300.00 L337.17,300.00 L338.58,300.00 L340.00,300.00 L341.42,300.00 L342.83,300.00 L344.25,300.00 L345.67,300.00 L347.08,300.00 L348.50,300.00 L349.92,300.00 L351.33,300.00 L352.75,300.00 L354.17,300.00 L355.58,300.00 L357.00,300.00 L358.42,300.00 L359.83,300.00 L361.25,300.00 L362.67,300.00 L364.08,300.00 L365.50,300.00 L366.92,300.00 L368.33,300.00 L369.75,300.00 L371.17,300.00 L372.58,300.00 L374.00,300.00 L375.42,300.00 L376.83,300.00 L378.25,300.00 L379.67,300.00 L381.08,300.00 L382.50,300.00 L383.92,300.00 L385.33,300.00 L386.75,300.00 L388.17,300.00 L389.58,300.00 L391.00,300.00 L392.42,300.00 L393.83,300.00 L395.25,300.00 L396.67,300.00 L398.08,300.00 L399.50,300.00 L400.92,300.00 L402.33,300.00 L403.75,300.00 L405.17,300.00 L406.58,300.00 L408.00,300.00 L409.42,300.00 L410.83,300.00 L412.25,300.00 L413.67,300.00 L415.08,300.00 L416.50,300.00 L417.92,300.00 L419.33,300.00 L420.75,300.00 L422.17,300.00 L423.58,300.00 L425.00,300.00 L426.42,300.00 L427.83,300.00 L429.25,300.00 L430.67,300.00 L432.08,300.00 L433.50,300.00 L434.92,300.00 L436.33,300.00 L437.75,300.00 L439.17,300.00 L440.58,300.00 L442.00,300.00 L443.42,300.00 L444.83,300.00 L446.25,300.00 L447.67,300.00 L449.08,300.00 L450.50,300.00 L451.92,300.00 L453.33,300.00 L454.75,300.00 L456.17,300.00 L457.58,300.00 L459.00,300.00 L460.42,300.00 L461.83,300.00 L463.25,300.00 L464.67,300.00 L466.08,300.00 L467.50,300.00 L468.92,300.00 L470.33,300.00 L471.75,300.00 L473.17,300.00 L474.58,300.00 L476.00,300.00 L477.42,300.00 L478.83,300.00 L480.25,300.00 L481.67,300.00 L483.08,300.00 L484.50,300.00 L485.92,300.00 L487.33,300.00 L488.75,300.00 L490.17,300.00 L491.58,300.00 L493.00,300.00 L494.42,300.00 L495.83,300.00 L497.25,300.00 L498.67,300.00 L500.08,300.00 L501.50,300.00 L502.92,300.00 L504.33,300.00 L505.75,300.00 L507.17,300.00 L508.58,300.00 L510.00,300.00" stroke="#4e73df" fill="none" stroke-width="2" stroke-linejoin="round"/></g><text x="300" y="20" text-anchor="middle" font-size="16" fill="#333">CPU Utilization for postgres</text><text x="10" y="200" text-anchor="middle" transform="rotate(-90,10,200)" font-size="12" fill="#666">CPU Time (s)</text><g font-size="12"><circle cx="20" cy="375" r="5" fill="#4e73df"/><text x="30" y="380" fill="#333">total: 0.0 at 21:10:20</text></g></svg>