<svg viewBox="0 0 800 450" xmlns="http://www.w3.org/2000/svg" style="font-family: -apple-system, BlinkMacSystemFont, 'Segoe UI', Roboto, sans-serif; width: 100%; height: 100%;" preserveAspectRatio="xMidYMid meet"><rect width="100%" height="100%" fill="#ffffff"/><g transform="translate(75,45)"><rect width="685" height="325" fill="#ffffff" stroke="#e2e8f0" stroke-width="1"/><line x1="0" y1="325.00" x2="685" y2="325.00" stroke="#e2e8f0" stroke-width="1" opacity="0.5"/><text x="-10" y="329.00" text-anchor="end" font-size="11" fill="#4a5568">0.00</text><line x1="0" y1="260.00" x2="685" y2="260.00" stroke="#e2e8f0" stroke-width="1" opacity="0.5"/><text x="-10" y="264.00" text-anchor="end" font-size="11" fill="#4a5568">289.14</text><line x1="0" y1="195.00" x2="685" y2="195.00" stroke="#e2e8f0" stroke-width="1" opacity="0.5"/><text x="-10" y="199.00" text-anchor="end" font-size="11" fill="#4a5568">578.29</text><line x1="0" y1="130.00" x2="685" y2="130.00" stroke="#e2e8f0" stroke-width="1" opacity="0.5"/><text x="-10" y="134.00" text-anchor="end" font-size="11" fill="#4a5568">867.43</text><line x1="0" y1="65.00" x2="685" y2="65.00" stroke="#e2e8f0" stroke-width="1" opacity="0.5"/><text x="-10" y="69.00" text-anchor="end" font-size="11" fill="#4a5568">1156.57</text><line x1="0" y1="0.00" x2="685" y2="0.00" stroke="#e2e8f0" stroke-width="1" opacity="0.5"/><text x="-10" y="4.00" text-anchor="end" font-size="11" fill="#4a5568">1445.71</text><line x1="0.00" y1="0" x2="0.00" y2="325" stroke="#e2e8f0" stroke-width="1" opacity="0.5"/><text x="0.00" y="345" text-anchor="middle" font-size="11" fill="#4a5568">14:33:45</text><line x1="114.17" y1="0" x2="114.17" y2="325" stroke="#e2e8f0" stroke-width="1" opacity="0.5"/><text x="114.17" y="345" text-anchor="middle" font-size="11" fill="#4a5568">14:43:40</text><line x1="228.33" y1="0" x2="228.33" y2="325" stroke="#e2e8f0" stroke-width="1" opacity="0.5"/><text x="228.33" y="345" text-anchor="middle" font-size="11" fill="#4a5568">14:53:35</text><line x1="342.50" y1="0" x2="342.50" y2="325" stroke="#e2e8f0" stroke-width="1" opacity="0.5"/><text x="342.50" y="345" text-anchor="middle" font-size="11" fill="#4a5568">15:03:30</text><line x1="456.67" y1="0" x2="456.67" y2="325" stroke="#e2e8f0" stroke-width="1" opacity="0.5"/><text x="456.67" y="345" text-anchor="middle" font-size="11" fill="#4a5568">15:13:25</text><line x1="570.83" y1="0" x2="570.83" y2="325" stroke="#e2e8f0" stroke-width="1" opacity="0.5"/><text x="570.83" y="345" text-anchor="middle" font-size="11" fill="#4a5568">15:23:20</text><line x1="685.00" y1="0" x2="685.00" y2="325" stroke="#e2e8f0" stroke-width="1" opacity="0.5"/><text x="685.00" y="345" text-anchor="middle" font-size="11" fill="#4a5568">15:33:15</text><defs><linearGradient id="g0-0" x1="0%" y1="0%" x2="0%" y2="100%"><stop offset="0%" style="stop-color:#3b82f6;stop-opacity:0.3"/><stop offset="100%" style="stop-color:#3b82f6;stop-opacity:0.05"/></linearGradient></defs><path d="M0.00,325 L0.00,260.77 L6.72,325.00 L13.43,325.00 L20.15,325.00 L26.86,325.00 L33.58,325.00 L40.29,325.00 L47.01,325.00 L53.73,325.00 L60.44,325.00 L67.16,325.00 L73.87,325.00 L80.59,325.00 L87.30,325.00 L94.02,325.00 L100.74,325.00 L107.45,325.00 L114.17,325.00 L120.88,325.00 L127.60,325.00 L134.31,325.00 L141.03,325.00 L147.75,325.00 L154.46,325.00 L161.18,325.00 L167.89,325.00 L174.61,325.00 L181.32,325.00 L188.04,325.00 L194.75,325.00 L201.47,325.00 L208.19,325.00 L214.90,325.00 L221.62,325.00 L228.33,325.00 L235.05,325.00 L241.76,325.00 L248.48,325.00 L255.20,325.00 L261.91,325.00 L268.63,325.00 L275.34,325.00 L282.06,325.00 L288.77,325.00 L295.49,325.00 L302.21,325.00 L308.92,325.00 L315.64,325.00 L322.35,325.00 L329.07,132.31 L335.78,325.00 L342.50,325.00 L349.22,325.00 L355.93,325.00 L362.65,325.00 L369.36,325.00 L376.08,325.00 L382.79,260.77 L389.51,260.77 L396.23,196.54 L402.94,325.00 L409.66,325.00 L416.37,325.00 L423.09,325.00 L429.80,325.00 L436.52,325.00 L443.24,325.00 L449.95,260.77 L456.67,325.00 L463.38,325.00 L470.10,325.00 L476.81,325.00 L483.53,325.00 L490.25,325.00 L496.96,325.00 L503.68,132.31 L510.39,325.00 L517.11,325.00 L523.82,325.00 L530.54,325.00 L537.25,325.00 L543.97,196.54 L550.69,260.77 L557.40,325.00 L564.12,260.77 L570.83,325.00 L577.55,325.00 L584.26,325.00 L590.98,325.00 L597.70,325.00 L604.41,325.00 L611.13,325.00 L617.84,325.00 L624.56,325.00 L631.27,260.77 L637.99,260.77 L644.71,325.00 L651.42,325.00 L658.14,325.00 L664.85,325.00 L671.57,29.55 L678.28,299.31 L685.00,325.00 L685.00,325 Z" fill="url(#g0-0)"/><path d="M0.00,260.77 L6.72,325.00 L13.43,325.00 L20.15,325.00 L26.86,325.00 L33.58,325.00 L40.29,325.00 L47.01,325.00 L53.73,325.00 L60.44,325.00 L67.16,325.00 L73.87,325.00 L80.59,325.00 L87.30,325.00 L94.02,325.00 L100.74,325.00 L107.45,325.00 L114.17,325.00 L120.88,325.00 L127.60,325.00 L134.31,325.00 L141.03,325.00 L147.75,325.00 L154.46,325.00 L161.18,325.00 L167.89,325.00 L174.61,325.00 L181.32,325.00 L188.04,325.00 L194.75,325.00 L201.47,325.00 L208.19,325.00 L214.90,325.00 L221.62,325.00 L228.33,325.00 L235.05,325.00 L241.76,325.00 L248.48,325.00 L255.20,325.00 L261.91,325.00 L268.63,325.00 L275.34,325.00 L282.06,325.00 L288.77,325.00 L295.49,325.00 L302.21,325.00 L308.92,325.00 L315.64,325.00 L322.35,325.00 L329.07,132.31 L335.78,325.00 L342.50,325.00 L349.22,325.00 L355.93,325.00 L362.65,325.00 L369.36,325.00 L376.08,325.00 L382.79,260.77 L389.51,260.77 L396.23,196.54 L402.94,325.00 L409.66,325.00 L416.37,325.00 L423.09,325.00 L429.80,325.00 L436.52,325.00 L443.24,325.00 L449.95,260.77 L456.67,325.00 L463.38,325.00 L470.10,325.00 L476.81,325.00 L483.53,325.00 L490.25,325.00 L496.96,325.00 L503.68,132.31 L510.39,325.00 L517.11,325.00 L523.82,325.00 L530.54,325.00 L537.25,325.00 L543.97,196.54 L550.69,260.77 L557.40,325.00 L564.12,260.77 L570.83,325.00 L577.55,325.00 L584.26,325.00 L590.98,325.00 L597.70,325.00 L604.41,325.00 L611.13,325.00 L617.84,325.00 L624.56,325.00 L631.27,260.77 L637.99,260.77 L644.71,325.00 L651.42,325.00 L658.14,325.00 L664.85,325.00 L671.57,29.55 L678.28,299.31 L685.00,325.00" stroke="#3b82f6" fill="none" stroke-width="2" stroke-linejoin="round" stroke-linecap="round"/><circle id="p-total-0" cx="0.00" cy="260.77" r="4" fill="#3b82f6" opacity="0" style="cursor: pointer;" onmouseover="showTooltip(evt, 'total', '285.71', '14:33:45', 0.00, 260.77)" onmouseout="hideTooltip()"/><circle id="p-total-1" cx="6.72" cy="325.00" r="4" fill="#3b82f6" opacity="0" style="cursor: pointer;" onmouseover="showTooltip(evt, 'total', '0.00', '14:34:20', 6.72, 325.00)" onmouseout="hideTooltip()"/><circle id="p-total-2" cx="13.43" cy="325.00" r="4" fill="#3b82f6" opacity="0" style="cursor: pointer;" onmouseover="showTooltip(evt, 'total', '0.00', '14:34:55', 13.43, 325.00)" onmouseout="hideTooltip()"/><circle id="p-total-3" cx="20.15" cy="325.00" r="4" fill="#3b82f6" opacity="0" style="cursor: pointer;" onmouseover="showTooltip(evt, 'total', '0.00', '14:35:30', 20.15, 325.00)" onmouseout="hideTooltip()"/><circle id="p-total-4" cx="26.86" cy="325.00" r="4" fill="#3b82f6" opacity="0" style="cursor: pointer;" onmouseover="showTooltip(evt, 'total', '0.00', '14:36:05', 26.86, 325.00)" onmouseout="hideTooltip()"/><circle id="p-total-5" cx="33.58" cy="325.00" r="4" fill="#3b82f6" opacity="0" style="cursor: pointer;" onmouseover="showTooltip(evt, 'total', '0.00', '14:36:40', 33.58, 325.00)" onmouseout="hideTooltip()"/><circle id="p-total-6" cx="40.29" cy="325.00" r="4" fill="#3b82f6" opacity="0" style="cursor: pointer;" onmouseover="showTooltip(evt, 'total', '0.00', '14:37:15', 40.29, 325.00)" onmouseout="hideTooltip()"/><circle id="p-total-7" cx="47.01" cy="325.00" r="4" fill="#3b82f6" opacity="0" style="cursor: pointer;" onmouseover="showTooltip(evt, 'total', '0.00', '14:37:50', 47.01, 325.00)" onmouseout="hideTooltip()"/><circle id="p-total-8" cx="53.73" cy="325.00" r="4" fill="#3b82f6" opacity="0" style="cursor: pointer;" onmouseover="showTooltip(evt, 'total', '0.00', '14:38:25', 53.73, 325.00)" onmouseout="hideTooltip()"/><circle id="p-total-9" cx="60.44" cy="325.00" r="4" fill="#3b82f6" opacity="0" style="cursor: pointer;" onmouseover="showTooltip(evt, 'total', '0.00', '14:39:00', 60.44, 325.00)" onmouseout="hideTooltip()"/><circle id="p-total-10" cx="67.16" cy="325.00" r="4" fill="#3b82f6" opacity="0" style="cursor: pointer;" onmouseover="showTooltip(evt, 'total', '0.00', '14:39:35', 67.16, 325.00)" onmouseout="hideTooltip()"/><circle id="p-total-11" cx="73.87" cy="325.00" r="4" fill="#3b82f6" opacity="0" style="cursor: pointer;" onmouseover="showTooltip(evt, 'total', '0.00', '14:40:10', 73.87, 325.00)" onmouseout="hideTooltip()"/><circle id="p-total-12" cx="80.59" cy="325.00" r="4" fill="#3b82f6" opacity="0" style="cursor: pointer;" onmouseover="showTooltip(evt, 'total', '0.00', '14:40:45', 80.59, 325.00)" onmouseout="hideTooltip()"/><circle id="p-total-13" cx="87.30" cy="325.00" r="4" fill="#3b82f6" opacity="0" style="cursor: pointer;" onmouseover="showTooltip(evt, 'total', '0.00', '14:41:20', 87.30, 325.00)" onmouseout="hideTooltip()"/><circle id="p-total-14" cx="94.02" cy="325.00" r="4" fill="#3b82f6" opacity="0" style="cursor: pointer;" onmouseover="showTooltip(evt, 'total', '0.00', '14:41:55', 94.02, 325.00)" onmouseout="hideTooltip()"/><circle id="p-total-15" cx="100.74" cy="325.00" r="4" fill="#3b82f6" opacity="0" style="cursor: pointer;" onmouseover="showTooltip(evt, 'total', '0.00', '14:42:30', 100.74, 325.00)" onmouseout="hideTooltip()"/><circle id="p-total-16" cx="107.45" cy="325.00" r="4" fill="#3b82f6" opacity="0" style="cursor: pointer;" onmouseover="showTooltip(evt, 'total', '0.00', '14:43:05', 107.45, 325.00)" onmouseout="hideTooltip()"/><circle id="p-total-17" cx="114.17" cy="325.00" r="4" fill="#3b82f6" opacity="0" style="cursor: pointer;" onmouseover="showTooltip(evt, 'total', '0.00', '14:43:40', 114.17, 325.00)" onmouseout="hideTooltip()"/><circle id="p-total-18" cx="120.88" cy="325.00" r="4" fill="#3b82f6" opacity="0" style="cursor: pointer;" onmouseover="showTooltip(evt, 'total', '0.00', '14:44:15', 120.88, 325.00)" onmouseout="hideTooltip()"/><circle id="p-total-19" cx="127.60" cy="325.00" r="4" fill="#3b82f6" opacity="0" style="cursor: pointer;" onmouseover="showTooltip(evt, 'total', '0.00', '14:44:50', 127.60, 325.00)" onmouseout="hideTooltip()"/><circle id="p-total-20" cx="134.31" cy="325.00" r="4" fill="#3b82f6" opacity="0" style="cursor: pointer;" onmouseover="showTooltip(evt, 'total', '0.00', '14:45:25', 134.31, 325.00)" onmouseout="hideTooltip()"/><circle id="p-total-21" cx="141.03" cy="325.00" r="4" fill="#3b82f6" opacity="0" style="cursor: pointer;" onmouseover="showTooltip(evt, 'total', '0.00', '14:46:00', 141.03, 325.00)" onmouseout="hideTooltip()"/><circle id="p-total-22" cx="147.75" cy="325.00" r="4" fill="#3b82f6" opacity="0" style="cursor: pointer;" onmouseover="showTooltip(evt, 'total', '0.00', '14:46:35', 147.75, 325.00)" onmouseout="hideTooltip()"/><circle id="p-total-23" cx="154.46" cy="325.00" r="4" fill="#3b82f6" opacity="0" style="cursor: pointer;" onmouseover="showTooltip(evt, 'total', '0.00', '14:47:10', 154.46, 325.00)" onmouseout="hideTooltip()"/><circle id="p-total-24" cx="161.18" cy="325.00" r="4" fill="#3b82f6" opacity="0" style="cursor: pointer;" onmouseover="showTooltip(evt, 'total', '0.00', '14:47:45', 161.18, 325.00)" onmouseout="hideTooltip()"/><circle id="p-total-25" cx="167.89" cy="325.00" r="4" fill="#3b82f6" opacity="0" style="cursor: pointer;" onmouseover="showTooltip(evt, 'total', '0.00', '14:48:20', 167.89, 325.00)" onmouseout="hideTooltip()"/><circle id="p-total-26" cx="174.61" cy="325.00" r="4" fill="#3b82f6" opacity="0" style="cursor: pointer;" onmouseover="showTooltip(evt, 'total', '0.00', '14:48:55', 174.61, 325.00)" onmouseout="hideTooltip()"/><circle id="p-total-27" cx="181.32" cy="325.00" r="4" fill="#3b82f6" opacity="0" style="cursor: pointer;" onmouseover="showTooltip(evt, 'total', '0.00', '14:49:30', 181.32, 325.00)" onmouseout="hideTooltip()"/><circle id="p-total-28" cx="188.04" cy="325.00" r="4" fill="#3b82f6" opacity="0" style="cursor: pointer;" onmouseover="showTooltip(evt, 'total', '0.00', '14:50:05', 188.04, 325.00)" onmouseout="hideTooltip()"/><circle id="p-total-29" cx="194.75" cy="325.00" r="4" fill="#3b82f6" opacity="0" style="cursor: pointer;" onmouseover="showTooltip(evt, 'total', '0.00', '14:50:40', 194.75, 325.00)" onmouseout="hideTooltip()"/><circle id="p-total-30" cx="201.47" cy="325.00" r="4" fill="#3b82f6" opacity="0" style="cursor: pointer;" onmouseover="showTooltip(evt, 'total', '0.00', '14:51:15', 201.47, 325.00)" onmouseout="hideTooltip()"/><circle id="p-total-31" cx="208.19" cy="325.00" r="4" fill="#3b82f6" opacity="0" style="cursor: pointer;" onmouseover="showTooltip(evt, 'total', '0.00', '14:51:50', 208.19, 325.00)" onmouseout="hideTooltip()"/><circle id="p-total-32" cx="214.90" cy="325.00" r="4" fill="#3b82f6" opacity="0" style="cursor: pointer;" onmouseover="showTooltip(evt, 'total', '0.00', '14:52:25', 214.90, 325.00)" onmouseout="hideTooltip()"/><circle id="p-total-33" cx="221.62" cy="325.00" r="4" fill="#3b82f6" opacity="0" style="cursor: pointer;" onmouseover="showTooltip(evt, 'total', '0.00', '14:53:00', 221.62, 325.00)" onmouseout="hideTooltip()"/><circle id="p-total-34" cx="228.33" cy="325.00" r="4" fill="#3b82f6" opacity="0" style="cursor: pointer;" onmouseover="showTooltip(evt, 'total', '0.00', '14:53:35', 228.33, 325.00)" onmouseout="hideTooltip()"/><circle id="p-total-35" cx="235.05" cy="325.00" r="4" fill="#3b82f6" opacity="0" style="cursor: pointer;" onmouseover="showTooltip(evt, 'total', '0.00', '14:54:10', 235.05, 325.00)" onmouseout="hideTooltip()"/><circle id="p-total-36" cx="241.76" cy="325.00" r="4" fill="#3b82f6" opacity="0" style="cursor: pointer;" onmouseover="showTooltip(evt, 'total', '0.00', '14:54:45', 241.76, 325.00)" onmouseout="hideTooltip()"/><circle id="p-total-37" cx="248.48" cy="325.00" r="4" fill="#3b82f6" opacity="0" style="cursor: pointer;" onmouseover="showTooltip(evt, 'total', '0.00', '14:55:20', 248.48, 325.00)" onmouseout="hideTooltip()"/><circle id="p-total-38" cx="255.20" cy="325.00" r="4" fill="#3b82f6" opacity="0" style="cursor: pointer;" onmouseover="showTooltip(evt, 'total', '0.00', '14:55:55', 255.20, 325.00)" onmouseout="hideTooltip()"/><circle id="p-total-39" cx="261.91" cy="325.00" r="4" fill="#3b82f6" opacity="0" style="cursor: pointer;" onmouseover="showTooltip(evt, 'total', '0.00', '14:56:30', 261.91, 325.00)" onmouseout="hideTooltip()"/><circle id="p-total-40" cx="268.63" cy="325.00" r="4" fill="#3b82f6" opacity="0" style="cursor: pointer;" onmouseover="showTooltip(evt, 'total', '0.00', '14:57:05', 268.63, 325.00)" onmouseout="hideTooltip()"/><circle id="p-total-41" cx="275.34" cy="325.00" r="4" fill="#3b82f6" opacity="0" style="cursor: pointer;" onmouseover="showTooltip(evt, 'total', '0.00', '14:57:40', 275.34, 325.00)" onmouseout="hideTooltip()"/><circle id="p-total-42" cx="282.06" cy="325.00" r="4" fill="#3b82f6" opacity="0" style="cursor: pointer;" onmouseover="showTooltip(evt, 'total', '0.00', '14:58:15', 282.06, 325.00)" onmouseout="hideTooltip()"/><circle id="p-total-43" cx="288.77" cy="325.00" r="4" fill="#3b82f6" opacity="0" style="cursor: pointer;" onmouseover="showTooltip(evt, 'total', '0.00', '14:58:50', 288.77, 325.00)" onmouseout="hideTooltip()"/><circle id="p-total-44" cx="295.49" cy="325.00" r="4" fill="#3b82f6" opacity="0" style="cursor: pointer;" onmouseover="showTooltip(evt, 'total', '0.00', '14:59:25', 295.49, 325.00)" onmouseout="hideTooltip()"/><circle id="p-total-45" cx="302.21" cy="325.00" r="4" fill="#3b82f6" opacity="0" style="cursor: pointer;" onmouseover="showTooltip(evt, 'total', '0.00', '15:00:00', 302.21, 325.00)" onmouseout="hideTooltip()"/><circle id="p-total-46" cx="308.92" cy="325.00" r="4" fill="#3b82f6" opacity="0" style="cursor: pointer;" onmouseover="showTooltip(evt, 'total', '0.00', '15:00:35', 308.92, 325.00)" onmouseout="hideTooltip()"/><circle id="p-total-47" cx="315.64" cy="325.00" r="4" fill="#3b82f6" opacity="0" style="cursor: pointer;" onmouseover="showTooltip(evt, 'total', '0.00', '15:01:10', 315.64, 325.00)" onmouseout="hideTooltip()"/><circle id="p-total-48" cx="322.35" cy="325.00" r="4" fill="#3b82f6" opacity="0" style="cursor: pointer;" onmouseover="showTooltip(evt, 'total', '0.00', '15:01:45', 322.35, 325.00)" onmouseout="hideTooltip()"/><circle id="p-total-49" cx="329.07" cy="132.31" r="4" fill="#3b82f6" opacity="0" style="cursor: pointer;" onmouseover="showTooltip(evt, 'total', '857.14', '15:02:20', 329.07, 132.31)" onmouseout="hideTooltip()"/><circle id="p-total-50" cx="335.78" cy="325.00" r="4" fill="#3b82f6" opacity="0" style="cursor: pointer;" onmouseover="showTooltip(evt, 'total', '0.00', '15:02:55', 335.78, 325.00)" onmouseout="hideTooltip()"/><circle id="p-total-51" cx="342.50" cy="325.00" r="4" fill="#3b82f6" opacity="0" style="cursor: pointer;" onmouseover="showTooltip(evt, 'total', '0.00', '15:03:30', 342.50, 325.00)" onmouseout="hideTooltip()"/><circle id="p-total-52" cx="349.22" cy="325.00" r="4" fill="#3b82f6" opacity="0" style="cursor: pointer;" onmouseover="showTooltip(evt, 'total', '0.00', '15:04:05', 349.22, 325.00)" onmouseout="hideTooltip()"/><circle id="p-total-53" cx="355.93" cy="325.00" r="4" fill="#3b82f6" opacity="0" style="cursor: pointer;" onmouseover="showTooltip(evt, 'total', '0.00', '15:04:40', 355.93, 325.00)" onmouseout="hideTooltip()"/><circle id="p-total-54" cx="362.65" cy="325.00" r="4" fill="#3b82f6" opacity="0" style="cursor: pointer;" onmouseover="showTooltip(evt, 'total', '0.00', '15:05:15', 362.65, 325.00)" onmouseout="hideTooltip()"/><circle id="p-total-55" cx="369.36" cy="325.00" r="4" fill="#3b82f6" opacity="0" style="cursor: pointer;" onmouseover="showTooltip(evt, 'total', '0.00', '15:05:50', 369.36, 325.00)" onmouseout="hideTooltip()"/><circle id="p-total-56" cx="376.08" cy="325.00" r="4" fill="#3b82f6" opacity="0" style="cursor: pointer;" onmouseover="showTooltip(evt, 'total', '0.00', '15:06:25', 376.08, 325.00)" onmouseout="hideTooltip()"/><circle id="p-total-57" cx="382.79" cy="260.77" r="4" fill="#3b82f6" opacity="0" style="cursor: pointer;" onmouseover="showTooltip(evt, 'total', '285.71', '15:07:00', 382.79, 260.77)" onmouseout="hideTooltip()"/><circle id="p-total-58" cx="389.51" cy="260.77" r="4" fill="#3b82f6" opacity="0" style="cursor: pointer;" onmouseover="showTooltip(evt, 'total', '285.71', '15:07:35', 389.51, 260.77)" onmouseout="hideTooltip()"/><circle id="p-total-59" cx="396.23" cy="196.54" r="4" fill="#3b82f6" opacity="0" style="cursor: pointer;" onmouseover="showTooltip(evt, 'total', '571.43', '15:08:10', 396.23, 196.54)" onmouseout="hideTooltip()"/><circle id="p-total-60" cx="402.94" cy="325.00" r="4" fill="#3b82f6" opacity="0" style="cursor: pointer;" onmouseover="showTooltip(evt, 'total', '0.00', '15:08:45', 402.94, 325.00)" onmouseout="hideTooltip()"/><circle id="p-total-61" cx="409.66" cy="325.00" r="4" fill="#3b82f6" opacity="0" style="cursor: pointer;" onmouseover="showTooltip(evt, 'total', '0.00', '15:09:20', 409.66, 325.00)" onmouseout="hideTooltip()"/><circle id="p-total-62" cx="416.37" cy="325.00" r="4" fill="#3b82f6" opacity="0" style="cursor: pointer;" onmouseover="showTooltip(evt, 'total', '0.00', '15:09:55', 416.37, 325.00)" onmouseout="hideTooltip()"/><circle id="p-total-63" cx="423.09" cy="325.00" r="4" fill="#3b82f6" opacity="0" style="cursor: pointer;" onmouseover="showTooltip(evt, 'total', '0.00', '15:10:30', 423.09, 325.00)" onmouseout="hideTooltip()"/><circle id="p-total-64" cx="429.80" cy="325.00" r="4" fill="#3b82f6" opacity="0" style="cursor: pointer;" onmouseover="showTooltip(evt, 'total', '0.00', '15:11:05', 429.80, 325.00)" onmouseout="hideTooltip()"/><circle id="p-total-65" cx="436.52" cy="325.00" r="4" fill="#3b82f6" opacity="0" style="cursor: pointer;" onmouseover="showTooltip(evt, 'total', '0.00', '15:11:40', 436.52, 325.00)" onmouseout="hideTooltip()"/><circle id="p-total-66" cx="443.24" cy="325.00" r="4" fill="#3b82f6" opacity="0" style="cursor: pointer;" onmouseover="showTooltip(evt, 'total', '0.00', '15:12:15', 443.24, 325.00)" onmouseout="hideTooltip()"/><circle id="p-total-67" cx="449.95" cy="260.77" r="4" fill="#3b82f6" opacity="0" style="cursor: pointer;" onmouseover="showTooltip(evt, 'total', '285.71', '15:12:50', 449.95, 260.77)" onmouseout="hideTooltip()"/><circle id="p-total-68" cx="456.67" cy="325.00" r="4" fill="#3b82f6" opacity="0" style="cursor: pointer;" onmouseover="showTooltip(evt, 'total', '0.00', '15:13:25', 456.67, 325.00)" onmouseout="hideTooltip()"/><circle id="p-total-69" cx="463.38" cy="325.00" r="4" fill="#3b82f6" opacity="0" style="cursor: pointer;" onmouseover="showTooltip(evt, 'total', '0.00', '15:14:00', 463.38, 325.00)" onmouseout="hideTooltip()"/><circle id="p-total-70" cx="470.10" cy="325.00" r="4" fill="#3b82f6" opacity="0" style="cursor: pointer;" onmouseover="showTooltip(evt, 'total', '0.00', '15:14:35', 470.10, 325.00)" onmouseout="hideTooltip()"/><circle id="p-total-71" cx="476.81" cy="325.00" r="4" fill="#3b82f6" opacity="0" style="cursor: pointer;" onmouseover="showTooltip(evt, 'total', '0.00', '15:15:10', 476.81, 325.00)" onmouseout="hideTooltip()"/><circle id="p-total-72" cx="483.53" cy="325.00" r="4" fill="#3b82f6" opacity="0" style="cursor: pointer;" onmouseover="showTooltip(evt, 'total', '0.00', '15:15:45', 483.53, 325.00)" onmouseout="hideTooltip()"/><circle id="p-total-73" cx="490.25" cy="325.00" r="4" fill="#3b82f6" opacity="0" style="cursor: pointer;" onmouseover="showTooltip(evt, 'total', '0.00', '15:16:20', 490.25, 325.00)" onmouseout="hideTooltip()"/><circle id="p-total-74" cx="496.96" cy="325.00" r="4" fill="#3b82f6" opacity="0" style="cursor: pointer;" onmouseover="showTooltip(evt, 'total', '0.00', '15:16:55', 496.96, 325.00)" onmouseout="hideTooltip()"/><circle id="p-total-75" cx="503.68" cy="132.31" r="4" fill="#3b82f6" opacity="0" style="cursor: pointer;" onmouseover="showTooltip(evt, 'total', '857.14', '15:17:30', 503.68, 132.31)" onmouseout="hideTooltip()"/><circle id="p-total-76" cx="510.39" cy="325.00" r="4" fill="#3b82f6" opacity="0" style="cursor: pointer;" onmouseover="showTooltip(evt, 'total', '0.00', '15:18:05', 510.39, 325.00)" onmouseout="hideTooltip()"/><circle id="p-total-77" cx="517.11" cy="325.00" r="4" fill="#3b82f6" opacity="0" style="cursor: pointer;" onmouseover="showTooltip(evt, 'total', '0.00', '15:18:40', 517.11, 325.00)" onmouseout="hideTooltip()"/><circle id="p-total-78" cx="523.82" cy="325.00" r="4" fill="#3b82f6" opacity="0" style="cursor: pointer;" onmouseover="showTooltip(evt, 'total', '0.00', '15:19:15', 523.82, 325.00)" onmouseout="hideTooltip()"/><circle id="p-total-79" cx="530.54" cy="325.00" r="4" fill="#3b82f6" opacity="0" style="cursor: pointer;" onmouseover="showTooltip(evt, 'total', '0.00', '15:19:50', 530.54, 325.00)" onmouseout="hideTooltip()"/><circle id="p-total-80" cx="537.25" cy="325.00" r="4" fill="#3b82f6" opacity="0" style="cursor: pointer;" onmouseover="showTooltip(evt, 'total', '0.00', '15:20:25', 537.25, 325.00)" onmouseout="hideTooltip()"/><circle id="p-total-81" cx="543.97" cy="196.54" r="4" fill="#3b82f6" opacity="0" style="cursor: pointer;" onmouseover="showTooltip(evt, 'total', '571.43', '15:21:00', 543.97, 196.54)" onmouseout="hideTooltip()"/><circle id="p-total-82" cx="550.69" cy="260.77" r="4" fill="#3b82f6" opacity="0" style="cursor: pointer;" onmouseover="showTooltip(evt, 'total', '285.71', '15:21:35', 550.69, 260.77)" onmouseout="hideTooltip()"/><circle id="p-total-83" cx="557.40" cy="325.00" r="4" fill="#3b82f6" opacity="0" style="cursor: pointer;" onmouseover="showTooltip(evt, 'total', '0.00', '15:22:10', 557.40, 325.00)" onmouseout="hideTooltip()"/><circle id="p-total-84" cx="564.12" cy="260.77" r="4" fill="#3b82f6" opacity="0" style="cursor: pointer;" onmouseover="showTooltip(evt, 'total', '285.71', '15:22:45', 564.12, 260.77)" onmouseout="hideTooltip()"/><circle id="p-total-85" cx="570.83" cy="325.00" r="4" fill="#3b82f6" opacity="0" style="cursor: pointer;" onmouseover="showTooltip(evt, 'total', '0.00', '15:23:20', 570.83, 325.00)" onmouseout="hideTooltip()"/><circle id="p-total-86" cx="577.55" cy="325.00" r="4" fill="#3b82f6" opacity="0" style="cursor: pointer;" onmouseover="showTooltip(evt, 'total', '0.00', '15:23:55', 577.55, 325.00)" onmouseout="hideTooltip()"/><circle id="p-total-87" cx="584.26" cy="325.00" r="4" fill="#3b82f6" opacity="0" style="cursor: pointer;" onmouseover="showTooltip(evt, 'total', '0.00', '15:24:30', 584.26, 325.00)" onmouseout="hideTooltip()"/><circle id="p-total-88" cx="590.98" cy="325.00" r="4" fill="#3b82f6" opacity="0" style="cursor: pointer;" onmouseover="showTooltip(evt, 'total', '0.00', '15:25:05', 590.98, 325.00)" onmouseout="hideTooltip()"/><circle id="p-total-89" cx="597.70" cy="325.00" r="4" fill="#3b82f6" opacity="0" style="cursor: pointer;" onmouseover="showTooltip(evt, 'total', '0.00', '15:25:40', 597.70, 325.00)" onmouseout="hideTooltip()"/><circle id="p-total-90" cx="604.41" cy="325.00" r="4" fill="#3b82f6" opacity="0" style="cursor: pointer;" onmouseover="showTooltip(evt, 'total', '0.00', '15:26:15', 604.41, 325.00)" onmouseout="hideTooltip()"/><circle id="p-total-91" cx="611.13" cy="325.00" r="4" fill="#3b82f6" opacity="0" style="cursor: pointer;" onmouseover="showTooltip(evt, 'total', '0.00', '15:26:50', 611.13, 325.00)" onmouseout="hideTooltip()"/><circle id="p-total-92" cx="617.84" cy="325.00" r="4" fill="#3b82f6" opacity="0" style="cursor: pointer;" onmouseover="showTooltip(evt, 'total', '0.00', '15:27:25', 617.84, 325.00)" onmouseout="hideTooltip()"/><circle id="p-total-93" cx="624.56" cy="325.00" r="4" fill="#3b82f6" opacity="0" style="cursor: pointer;" onmouseover="showTooltip(evt, 'total', '0.00', '15:28:00', 624.56, 325.00)" onmouseout="hideTooltip()"/><circle id="p-total-94" cx="631.27" cy="260.77" r="4" fill="#3b82f6" opacity="0" style="cursor: pointer;" onmouseover="showTooltip(evt, 'total', '285.71', '15:28:35', 631.27, 260.77)" onmouseout="hideTooltip()"/><circle id="p-total-95" cx="637.99" cy="260.77" r="4" fill="#3b82f6" opacity="0" style="cursor: pointer;" onmouseover="showTooltip(evt, 'total', '285.71', '15:29:10', 637.99, 260.77)" onmouseout="hideTooltip()"/><circle id="p-total-96" cx="644.71" cy="325.00" r="4" fill="#3b82f6" opacity="0" style="cursor: pointer;" onmouseover="showTooltip(evt, 'total', '0.00', '15:29:45', 644.71, 325.00)" onmouseout="hideTooltip()"/><circle id="p-total-97" cx="651.42" cy="325.00" r="4" fill="#3b82f6" opacity="0" style="cursor: pointer;" onmouseover="showTooltip(evt, 'total', '0.00', '15:30:20', 651.42, 325.00)" onmouseout="hideTooltip()"/><circle id="p-total-98" cx="658.14" cy="325.00" r="4" fill="#3b82f6" opacity="0" style="cursor: pointer;" onmouseover="showTooltip(evt, 'total', '0.00', '15:30:55', 658.14, 325.00)" onmouseout="hideTooltip()"/><circle id="p-total-99" cx="664.85" cy="325.00" r="4" fill="#3b82f6" opacity="0" style="cursor: pointer;" onmouseover="showTooltip(evt, 'total', '0.00', '15:31:30', 664.85, 325.00)" onmouseout="hideTooltip()"/><circle id="p-total-100" cx="671.57" cy="29.55" r="4" fill="#3b82f6" opacity="0" style="cursor: pointer;" onmouseover="showTooltip(evt, 'total', '1314.29', '15:32:05', 671.57, 29.55)" onmouseout="hideTooltip()"/><circle id="p-total-101" cx="678.28" cy="299.31" r="4" fill="#3b82f6" opacity="0" style="cursor: pointer;" onmouseover="showTooltip(evt, 'total', '114.29', '15:32:40', 678.28, 299.31)" onmouseout="hideTooltip()"/><circle id="p-total-102" cx="685.00" cy="325.00" r="4" fill="#3b82f6" opacity="0" style="cursor: pointer;" onmouseover="showTooltip(evt, 'total', '0.00', '15:33:15', 685.00, 325.00)" onmouseout="hideTooltip()"/></g><text x="400" y="25" text-anchor="middle" font-size="16" font-weight="600" fill="#1a202c">CPU Time</text><text x="20" y="225" text-anchor="middle" transform="rotate(-90,20,225)" font-size="12" font-weight="500" fill="#4a5568">CPU Time (seconds)</text><g font-size="11"><rect x="75" y="403" width="180" height="18" fill="#e2e8f0" opacity="0.3" rx="3"/><rect x="80" y="408" width="10" height="10" fill="#3b82f6" rx="2"/><text x="95" y="417" fill="#1a202c" font-weight="500">total:</text><text x="165" y="417" fill="#3b82f6" font-weight="600">0.00</text></g><g id="tooltip" visibility="hidden"><rect x="0" y="0" width="160" height="50" fill="#ffffff" opacity="0.98" rx="6" stroke="#e2e8f0" stroke-width="1" style="filter: drop-shadow(0px 2px 4px rgba(0,0,0,0.1))"/><text x="8" y="18" font-size="11" fill="#4a5568" id="tooltip-series"></text><text x="8" y="35" font-size="12" font-weight="600" fill="#1a202c" id="tooltip-value"></text></g></svg>