<svg width="600" height="400" xmlns="http://www.w3.org/2000/svg" style="font-family: Arial, sans-serif;"><rect width="600" height="400" fill="#ffffff"/><g transform="translate(60,30)"><rect width="510" height="300" fill="#f8f9fc" stroke="#ddd"/><g stroke-width="1"><line x1="0" y1="300" x2="510" y2="300" stroke="#eee" /><text x="-5" y="304" text-anchor="end" font-size="10" fill="#666">0.0</text><line x1="0" y1="240" x2="510" y2="240" stroke="#eee" /><text x="-5" y="244" text-anchor="end" font-size="10" fill="#666">28.6</text><line x1="0" y1="180" x2="510" y2="180" stroke="#eee" /><text x="-5" y="184" text-anchor="end" font-size="10" fill="#666">57.1</text><line x1="0" y1="120" x2="510" y2="120" stroke="#eee" /><text x="-5" y="124" text-anchor="end" font-size="10" fill="#666">85.7</text><line x1="0" y1="59.999999999999986" x2="510" y2="59.999999999999986" stroke="#eee" /><text x="-5" y="63.999999999999986" text-anchor="end" font-size="10" fill="#666">114.3</text><line x1="0" y1="0" x2="510" y2="0" stroke="#eee" /><text x="-5" y="4" text-anchor="end" font-size="10" fill="#666">142.9</text></g><g stroke-width="1"><line x1="0" y1="0" x2="0" y2="300" stroke="#eee"/><text x="0" y="320" text-anchor="middle" font-size="10" fill="#666">21:41:10</text><line x1="102" y1="0" x2="102" y2="300" stroke="#eee"/><text x="102" y="320" text-anchor="middle" font-size="10" fill="#666">21:53:04</text><line x1="204" y1="0" x2="204" y2="300" stroke="#eee"/><text x="204" y="320" text-anchor="middle" font-size="10" fill="#666">22:04:58</text><line x1="306" y1="0" x2="306" y2="300" stroke="#eee"/><text x="306" y="320" text-anchor="middle" font-size="10" fill="#666">22:16:52</text><line x1="408" y1="0" x2="408" y2="300" stroke="#eee"/><text x="408" y="320" text-anchor="middle" font-size="10" fill="#666">22:28:46</text><line x1="510" y1="0" x2="510" y2="300" stroke="#eee"/><text x="510" y="320" text-anchor="middle" font-size="10" fill="#666">22:40:40</text></g><path d="M0.00,0.00 L10.00,300.00 L20.00,300.00 L30.00,300.00 L40.00,0.00 L50.00,300.00 L60.00,300.00 L70.00,300.00 L80.00,300.00 L90.00,0.00 L100.00,300.00 L110.00,300.00 L120.00,300.00 L130.00,300.00 L140.00,300.00 L150.00,300.00 L160.00,300.00 L170.00,300.00 L180.00,300.00 L190.00,300.00 L200.00,300.00 L210.00,300.00 L220.00,300.00 L230.00,300.00 L240.00,300.00 L250.00,300.00 L260.00,300.00 L270.00,0.00 L280.00,300.00 L290.00,300.00 L300.00,300.00 L310.00,0.00 L320.00,300.00 L330.00,300.00 L340.00,300.00 L350.00,300.00 L360.00,300.00 L370.00,300.00 L380.00,300.00 L390.00,300.00 L400.00,300.00 L410.00,300.00 L420.00,300.00 L430.00,75.00 L440.00,225.00 L450.00,300.00 L460.00,300.00 L470.00,300.00 L480.00,300.00 L490.00,300.00 L500.00,300.00 L510.00,300.00" stroke="#4e73df" fill="none" stroke-width="2" stroke-linejoin="round"/><circle id="point-total-0" cx="0.00" cy="0.00" r="5" fill="#4e73df" opacity="0" onmouseover="showTooltip(evt, 'total', '142.9', '21:41:10', 0.00, 0.00)" onmouseout="hideTooltip()"/><circle id="point-total-1" cx="10.00" cy="300.00" r="5" fill="#4e73df" opacity="0" onmouseover="showTooltip(evt, 'total', '0.0', '21:42:20', 10.00, 300.00)" onmouseout="hideTooltip()"/><circle id="point-total-2" cx="20.00" cy="300.00" r="5" fill="#4e73df" opacity="0" onmouseover="showTooltip(evt, 'total', '0.0', '21:43:30', 20.00, 300.00)" onmouseout="hideTooltip()"/><circle id="point-total-3" cx="30.00" cy="300.00" r="5" fill="#4e73df" opacity="0" onmouseover="showTooltip(evt, 'total', '0.0', '21:44:40', 30.00, 300.00)" onmouseout="hideTooltip()"/><circle id="point-total-4" cx="40.00" cy="0.00" r="5" fill="#4e73df" opacity="0" onmouseover="showTooltip(evt, 'total', '142.9', '21:45:50', 40.00, 0.00)" onmouseout="hideTooltip()"/><circle id="point-total-5" cx="50.00" cy="300.00" r="5" fill="#4e73df" opacity="0" onmouseover="showTooltip(evt, 'total', '0.0', '21:47:00', 50.00, 300.00)" onmouseout="hideTooltip()"/><circle id="point-total-6" cx="60.00" cy="300.00" r="5" fill="#4e73df" opacity="0" onmouseover="showTooltip(evt, 'total', '0.0', '21:48:10', 60.00, 300.00)" onmouseout="hideTooltip()"/><circle id="point-total-7" cx="70.00" cy="300.00" r="5" fill="#4e73df" opacity="0" onmouseover="showTooltip(evt, 'total', '0.0', '21:49:20', 70.00, 300.00)" onmouseout="hideTooltip()"/><circle id="point-total-8" cx="80.00" cy="300.00" r="5" fill="#4e73df" opacity="0" onmouseover="showTooltip(evt, 'total', '0.0', '21:50:30', 80.00, 300.00)" onmouseout="hideTooltip()"/><circle id="point-total-9" cx="90.00" cy="0.00" r="5" fill="#4e73df" opacity="0" onmouseover="showTooltip(evt, 'total', '142.9', '21:51:40', 90.00, 0.00)" onmouseout="hideTooltip()"/><circle id="point-total-10" cx="100.00" cy="300.00" r="5" fill="#4e73df" opacity="0" onmouseover="showTooltip(evt, 'total', '0.0', '21:52:50', 100.00, 300.00)" onmouseout="hideTooltip()"/><circle id="point-total-11" cx="110.00" cy="300.00" r="5" fill="#4e73df" opacity="0" onmouseover="showTooltip(evt, 'total', '0.0', '21:54:00', 110.00, 300.00)" onmouseout="hideTooltip()"/><circle id="point-total-12" cx="120.00" cy="300.00" r="5" fill="#4e73df" opacity="0" onmouseover="showTooltip(evt, 'total', '0.0', '21:55:10', 120.00, 300.00)" onmouseout="hideTooltip()"/><circle id="point-total-13" cx="130.00" cy="300.00" r="5" fill="#4e73df" opacity="0" onmouseover="showTooltip(evt, 'total', '0.0', '21:56:20', 130.00, 300.00)" onmouseout="hideTooltip()"/><circle id="point-total-14" cx="140.00" cy="300.00" r="5" fill="#4e73df" opacity="0" onmouseover="showTooltip(evt, 'total', '0.0', '21:57:30', 140.00, 300.00)" onmouseout="hideTooltip()"/><circle id="point-total-15" cx="150.00" cy="300.00" r="5" fill="#4e73df" opacity="0" onmouseover="showTooltip(evt, 'total', '0.0', '21:58:40', 150.00, 300.00)" onmouseout="hideTooltip()"/><circle id="point-total-16" cx="160.00" cy="300.00" r="5" fill="#4e73df" opacity="0" onmouseover="showTooltip(evt, 'total', '0.0', '21:59:50', 160.00, 300.00)" onmouseout="hideTooltip()"/><circle id="point-total-17" cx="170.00" cy="300.00" r="5" fill="#4e73df" opacity="0" onmouseover="showTooltip(evt, 'total', '0.0', '22:01:00', 170.00, 300.00)" onmouseout="hideTooltip()"/><circle id="point-total-18" cx="180.00" cy="300.00" r="5" fill="#4e73df" opacity="0" onmouseover="showTooltip(evt, 'total', '0.0', '22:02:10', 180.00, 300.00)" onmouseout="hideTooltip()"/><circle id="point-total-19" cx="190.00" cy="300.00" r="5" fill="#4e73df" opacity="0" onmouseover="showTooltip(evt, 'total', '0.0', '22:03:20', 190.00, 300.00)" onmouseout="hideTooltip()"/><circle id="point-total-20" cx="200.00" cy="300.00" r="5" fill="#4e73df" opacity="0" onmouseover="showTooltip(evt, 'total', '0.0', '22:04:30', 200.00, 300.00)" onmouseout="hideTooltip()"/><circle id="point-total-21" cx="210.00" cy="300.00" r="5" fill="#4e73df" opacity="0" onmouseover="showTooltip(evt, 'total', '0.0', '22:05:40', 210.00, 300.00)" onmouseout="hideTooltip()"/><circle id="point-total-22" cx="220.00" cy="300.00" r="5" fill="#4e73df" opacity="0" onmouseover="showTooltip(evt, 'total', '0.0', '22:06:50', 220.00, 300.00)" onmouseout="hideTooltip()"/><circle id="point-total-23" cx="230.00" cy="300.00" r="5" fill="#4e73df" opacity="0" onmouseover="showTooltip(evt, 'total', '0.0', '22:08:00', 230.00, 300.00)" onmouseout="hideTooltip()"/><circle id="point-total-24" cx="240.00" cy="300.00" r="5" fill="#4e73df" opacity="0" onmouseover="showTooltip(evt, 'total', '0.0', '22:09:10', 240.00, 300.00)" onmouseout="hideTooltip()"/><circle id="point-total-25" cx="250.00" cy="300.00" r="5" fill="#4e73df" opacity="0" onmouseover="showTooltip(evt, 'total', '0.0', '22:10:20', 250.00, 300.00)" onmouseout="hideTooltip()"/><circle id="point-total-26" cx="260.00" cy="300.00" r="5" fill="#4e73df" opacity="0" onmouseover="showTooltip(evt, 'total', '0.0', '22:11:30', 260.00, 300.00)" onmouseout="hideTooltip()"/><circle id="point-total-27" cx="270.00" cy="0.00" r="5" fill="#4e73df" opacity="0" onmouseover="showTooltip(evt, 'total', '142.9', '22:12:40', 270.00, 0.00)" onmouseout="hideTooltip()"/><circle id="point-total-28" cx="280.00" cy="300.00" r="5" fill="#4e73df" opacity="0" onmouseover="showTooltip(evt, 'total', '0.0', '22:13:50', 280.00, 300.00)" onmouseout="hideTooltip()"/><circle id="point-total-29" cx="290.00" cy="300.00" r="5" fill="#4e73df" opacity="0" onmouseover="showTooltip(evt, 'total', '0.0', '22:15:00', 290.00, 300.00)" onmouseout="hideTooltip()"/><circle id="point-total-30" cx="300.00" cy="300.00" r="5" fill="#4e73df" opacity="0" onmouseover="showTooltip(evt, 'total', '0.0', '22:16:10', 300.00, 300.00)" onmouseout="hideTooltip()"/><circle id="point-total-31" cx="310.00" cy="0.00" r="5" fill="#4e73df" opacity="0" onmouseover="showTooltip(evt, 'total', '142.9', '22:17:20', 310.00, 0.00)" onmouseout="hideTooltip()"/><circle id="point-total-32" cx="320.00" cy="300.00" r="5" fill="#4e73df" opacity="0" onmouseover="showTooltip(evt, 'total', '0.0', '22:18:30', 320.00, 300.00)" onmouseout="hideTooltip()"/><circle id="point-total-33" cx="330.00" cy="300.00" r="5" fill="#4e73df" opacity="0" onmouseover="showTooltip(evt, 'total', '0.0', '22:19:40', 330.00, 300.00)" onmouseout="hideTooltip()"/><circle id="point-total-34" cx="340.00" cy="300.00" r="5" fill="#4e73df" opacity="0" onmouseover="showTooltip(evt, 'total', '0.0', '22:20:50', 340.00, 300.00)" onmouseout="hideTooltip()"/><circle id="point-total-35" cx="350.00" cy="300.00" r="5" fill="#4e73df" opacity="0" onmouseover="showTooltip(evt, 'total', '0.0', '22:22:00', 350.00, 300.00)" onmouseout="hideTooltip()"/><circle id="point-total-36" cx="360.00" cy="300.00" r="5" fill="#4e73df" opacity="0" onmouseover="showTooltip(evt, 'total', '0.0', '22:23:10', 360.00, 300.00)" onmouseout="hideTooltip()"/><circle id="point-total-37" cx="370.00" cy="300.00" r="5" fill="#4e73df" opacity="0" onmouseover="showTooltip(evt, 'total', '0.0', '22:24:20', 370.00, 300.00)" onmouseout="hideTooltip()"/><circle id="point-total-38" cx="380.00" cy="300.00" r="5" fill="#4e73df" opacity="0" onmouseover="showTooltip(evt, 'total', '0.0', '22:25:30', 380.00, 300.00)" onmouseout="hideTooltip()"/><circle id="point-total-39" cx="390.00" cy="300.00" r="5" fill="#4e73df" opacity="0" onmouseover="showTooltip(evt, 'total', '0.0', '22:26:40', 390.00, 300.00)" onmouseout="hideTooltip()"/><circle id="point-total-40" cx="400.00" cy="300.00" r="5" fill="#4e73df" opacity="0" onmouseover="showTooltip(evt, 'total', '0.0', '22:27:50', 400.00, 300.00)" onmouseout="hideTooltip()"/><circle id="point-total-41" cx="410.00" cy="300.00" r="5" fill="#4e73df" opacity="0" onmouseover="showTooltip(evt, 'total', '0.0', '22:29:00', 410.00, 300.00)" onmouseout="hideTooltip()"/><circle id="point-total-42" cx="420.00" cy="300.00" r="5" fill="#4e73df" opacity="0" onmouseover="showTooltip(evt, 'total', '0.0', '22:30:10', 420.00, 300.00)" onmouseout="hideTooltip()"/><circle id="point-total-43" cx="430.00" cy="75.00" r="5" fill="#4e73df" opacity="0" onmouseover="showTooltip(evt, 'total', '107.1', '22:31:20', 430.00, 75.00)" onmouseout="hideTooltip()"/><circle id="point-total-44" cx="440.00" cy="225.00" r="5" fill="#4e73df" opacity="0" onmouseover="showTooltip(evt, 'total', '35.7', '22:32:30', 440.00, 225.00)" onmouseout="hideTooltip()"/><circle id="point-total-45" cx="450.00" cy="300.00" r="5" fill="#4e73df" opacity="0" onmouseover="showTooltip(evt, 'total', '0.0', '22:33:40', 450.00, 300.00)" onmouseout="hideTooltip()"/><circle id="point-total-46" cx="460.00" cy="300.00" r="5" fill="#4e73df" opacity="0" onmouseover="showTooltip(evt, 'total', '0.0', '22:34:50', 460.00, 300.00)" onmouseout="hideTooltip()"/><circle id="point-total-47" cx="470.00" cy="300.00" r="5" fill="#4e73df" opacity="0" onmouseover="showTooltip(evt, 'total', '0.0', '22:36:00', 470.00, 300.00)" onmouseout="hideTooltip()"/><circle id="point-total-48" cx="480.00" cy="300.00" r="5" fill="#4e73df" opacity="0" onmouseover="showTooltip(evt, 'total', '0.0', '22:37:10', 480.00, 300.00)" onmouseout="hideTooltip()"/><circle id="point-total-49" cx="490.00" cy="300.00" r="5" fill="#4e73df" opacity="0" onmouseover="showTooltip(evt, 'total', '0.0', '22:38:20', 490.00, 300.00)" onmouseout="hideTooltip()"/><circle id="point-total-50" cx="500.00" cy="300.00" r="5" fill="#4e73df" opacity="0" onmouseover="showTooltip(evt, 'total', '0.0', '22:39:30', 500.00, 300.00)" onmouseout="hideTooltip()"/><circle id="point-total-51" cx="510.00" cy="300.00" r="5" fill="#4e73df" opacity="0" onmouseover="showTooltip(evt, 'total', '0.0', '22:40:40', 510.00, 300.00)" onmouseout="hideTooltip()"/></g><g id="tooltip" visibility="hidden"><rect x="0" y="0" width="150" height="40" fill="#333" opacity="0.8" rx="5"/><text x="5" y="15" font-size="10" fill="#fff" id="tooltip-series"></text><text x="5" y="30" font-size="10" fill="#fff" id="tooltip-value"></text></g><script><![CDATA[function showTooltip(evt, series, value, time, x, y) {  var tooltip = document.getElementById("tooltip");  var seriesText = document.getElementById("tooltip-series");  var valueText = document.getElementById("tooltip-value");  seriesText.textContent = "Series: " + series;  valueText.textContent = value + " at " + time;  tooltip.setAttribute("transform", "translate(" + (x + 10) + "," + (y - 50) + ")");  tooltip.setAttribute("visibility", "visible");  evt.target.setAttribute("r", "7");  evt.target.setAttribute("opacity", "1");}function hideTooltip() {  var tooltip = document.getElementById("tooltip");  tooltip.setAttribute("visibility", "hidden");  var circles = document.getElementsByTagName("circle");  for (var i = 0; i < circles.length; i++) {    circles[i].setAttribute("r", "5");    circles[i].setAttribute("opacity", "0");  }}]]></script><text x="300" y="20" text-anchor="middle" font-size="16" fill="#333">CPU Utilization for postgres</text><text x="10" y="200" text-anchor="middle" transform="rotate(-90,10,200)" font-size="12" fill="#666">CPU Time (s)</text><g font-size="12"><circle cx="20" cy="375" r="5" fill="#4e73df"/><text x="30" y="380" fill="#333">total: 0.0 at 22:40:40</text></g></svg>