<svg width="600" height="400" xmlns="http://www.w3.org/2000/svg" style="font-family: Arial, sans-serif;"><rect width="600" height="400" fill="#ffffff"/><g transform="translate(60,30)"><rect width="510" height="300" fill="#f8f9fc" stroke="#ddd"/><g stroke-width="1"><line x1="0" y1="300" x2="510" y2="300" stroke="#eee" /><text x="-5" y="304" text-anchor="end" font-size="10" fill="#666">0.0</text><line x1="0" y1="240" x2="510" y2="240" stroke="#eee" /><text x="-5" y="244" text-anchor="end" font-size="10" fill="#666">0.2</text><line x1="0" y1="180" x2="510" y2="180" stroke="#eee" /><text x="-5" y="184" text-anchor="end" font-size="10" fill="#666">0.4</text><line x1="0" y1="120" x2="510" y2="120" stroke="#eee" /><text x="-5" y="124" text-anchor="end" font-size="10" fill="#666">0.6</text><line x1="0" y1="59.999999999999986" x2="510" y2="59.999999999999986" stroke="#eee" /><text x="-5" y="63.999999999999986" text-anchor="end" font-size="10" fill="#666">0.8</text><line x1="0" y1="0" x2="510" y2="0" stroke="#eee" /><text x="-5" y="4" text-anchor="end" font-size="10" fill="#666">1.0</text></g><g stroke-width="1"><line x1="0" y1="0" x2="0" y2="300" stroke="#eee"/><text x="0" y="320" text-anchor="middle" font-size="10" fill="#666">20:21:40</text><line x1="102" y1="0" x2="102" y2="300" stroke="#eee"/><text x="102" y="320" text-anchor="middle" font-size="10" fill="#666">20:33:40</text><line x1="204" y1="0" x2="204" y2="300" stroke="#eee"/><text x="204" y="320" text-anchor="middle" font-size="10" fill="#666">20:45:40</text><line x1="306" y1="0" x2="306" y2="300" stroke="#eee"/><text x="306" y="320" text-anchor="middle" font-size="10" fill="#666">20:57:40</text><line x1="408" y1="0" x2="408" y2="300" stroke="#eee"/><text x="408" y="320" text-anchor="middle" font-size="10" fill="#666">21:09:40</text><line x1="510" y1="0" x2="510" y2="300" stroke="#eee"/><text x="510" y="320" text-anchor="middle" font-size="10" fill="#666">21:21:40</text></g><path d="M0.00,300.00" stroke="#4e73df" fill="none" stroke-width="2" stroke-linejoin="round"/><circle id="point-read-0" cx="0.00" cy="300.00" r="5" fill="#4e73df" opacity="0" onmouseover="showTooltip(evt, 'read', '0.0', '20:21:40', 0.00, 300.00)" onmouseout="hideTooltip()"/><path d="M0.00,300.00" stroke="#1cc88a" fill="none" stroke-width="2" stroke-linejoin="round"/><circle id="point-write-0" cx="0.00" cy="300.00" r="5" fill="#1cc88a" opacity="0" onmouseover="showTooltip(evt, 'write', '0.0', '20:21:40', 0.00, 300.00)" onmouseout="hideTooltip()"/></g><g id="tooltip" visibility="hidden"><rect x="0" y="0" width="150" height="40" fill="#333" opacity="0.8" rx="5"/><text x="5" y="15" font-size="10" fill="#fff" id="tooltip-series"></text><text x="5" y="30" font-size="10" fill="#fff" id="tooltip-value"></text></g><script><![CDATA[function showTooltip(evt, series, value, time, x, y) {  var tooltip = document.getElementById("tooltip");  var seriesText = document.getElementById("tooltip-series");  var valueText = document.getElementById("tooltip-value");  seriesText.textContent = "Series: " + series;  valueText.textContent = value + " at " + time;  tooltip.setAttribute("transform", "translate(" + (x + 10) + "," + (y - 50) + ")");  tooltip.setAttribute("visibility", "visible");  evt.target.setAttribute("r", "7");  evt.target.setAttribute("opacity", "1");}function hideTooltip() {  var tooltip = document.getElementById("tooltip");  tooltip.setAttribute("visibility", "hidden");  var circles = document.getElementsByTagName("circle");  for (var i = 0; i < circles.length; i++) {    circles[i].setAttribute("r", "5");    circles[i].setAttribute("opacity", "0");  }}]]></script><text x="300" y="20" text-anchor="middle" font-size="16" fill="#333">Disk Operations for sdc</text><text x="10" y="200" text-anchor="middle" transform="rotate(-90,10,200)" font-size="12" fill="#666">Operations/s</text><g font-size="12"><circle cx="20" cy="375" r="5" fill="#4e73df"/><text x="30" y="380" fill="#333">read: 0.0 at 20:21:40</text><circle cx="240" cy="375" r="5" fill="#1cc88a"/><text x="250" y="380" fill="#333">write: 0.0 at 20:21:40</text></g></svg>