<svg width="600" height="400" xmlns="http://www.w3.org/2000/svg" style="font-family: Arial, sans-serif;"><rect width="600" height="400" fill="#ffffff"/><g transform="translate(60,30)"><rect width="510" height="300" fill="#f8f9fc" stroke="#ddd"/><g stroke-width="1"><line x1="0" y1="300" x2="510" y2="300" stroke="#eee" /><text x="-5" y="304" text-anchor="end" font-size="10" fill="#666">0.0</text><line x1="0" y1="240" x2="510" y2="240" stroke="#eee" /><text x="-5" y="244" text-anchor="end" font-size="10" fill="#666">26.4</text><line x1="0" y1="180" x2="510" y2="180" stroke="#eee" /><text x="-5" y="184" text-anchor="end" font-size="10" fill="#666">52.9</text><line x1="0" y1="120" x2="510" y2="120" stroke="#eee" /><text x="-5" y="124" text-anchor="end" font-size="10" fill="#666">79.3</text><line x1="0" y1="59.999999999999986" x2="510" y2="59.999999999999986" stroke="#eee" /><text x="-5" y="63.999999999999986" text-anchor="end" font-size="10" fill="#666">105.7</text><line x1="0" y1="0" x2="510" y2="0" stroke="#eee" /><text x="-5" y="4" text-anchor="end" font-size="10" fill="#666">132.2</text></g><g stroke-width="1"><line x1="0" y1="0" x2="0" y2="300" stroke="#eee"/><text x="0" y="320" text-anchor="middle" font-size="10" fill="#666">21:55:00</text><line x1="102" y1="0" x2="102" y2="300" stroke="#eee"/><text x="102" y="320" text-anchor="middle" font-size="10" fill="#666">22:06:54</text><line x1="204" y1="0" x2="204" y2="300" stroke="#eee"/><text x="204" y="320" text-anchor="middle" font-size="10" fill="#666">22:18:48</text><line x1="306" y1="0" x2="306" y2="300" stroke="#eee"/><text x="306" y="320" text-anchor="middle" font-size="10" fill="#666">22:30:42</text><line x1="408" y1="0" x2="408" y2="300" stroke="#eee"/><text x="408" y="320" text-anchor="middle" font-size="10" fill="#666">22:42:36</text><line x1="510" y1="0" x2="510" y2="300" stroke="#eee"/><text x="510" y="320" text-anchor="middle" font-size="10" fill="#666">22:54:30</text></g><path d="M0.00,296.19 L1.43,300.00 L2.86,300.00 L4.29,300.00 L5.71,300.00 L7.14,300.00 L8.57,299.00 L10.00,298.23 L11.43,299.14 L12.86,299.32 L14.29,300.00 L15.71,299.91 L17.14,299.86 L18.57,299.91 L20.00,299.86 L21.43,299.91 L22.86,299.77 L24.29,299.68 L25.71,273.76 L27.14,260.87 L28.57,299.18 L30.00,297.91 L31.43,297.82 L32.86,297.05 L34.29,295.64 L35.71,296.46 L37.14,295.64 L38.57,298.50 L40.00,298.37 L41.43,297.19 L42.86,263.73 L44.29,251.93 L45.71,300.00 L47.14,300.00 L48.57,299.73 L50.00,299.14 L51.43,299.32 L52.86,300.00 L54.29,300.00 L55.71,300.00 L57.14,299.91 L58.57,299.68 L60.00,299.73 L61.43,300.00 L62.86,299.64 L64.29,299.46 L65.71,300.00 L67.14,300.00 L68.57,299.82 L70.00,298.82 L71.43,298.64 L72.86,299.91 L74.29,299.86 L75.71,300.00 L77.14,300.00 L78.57,300.00 L80.00,300.00 L81.43,300.00 L82.86,300.00 L84.29,300.00 L85.71,300.00 L87.14,300.00 L88.57,299.36 L90.00,293.69 L91.43,291.97 L92.86,296.64 L94.29,293.15 L95.71,296.01 L97.14,296.64 L98.57,297.82 L100.00,300.00 L101.43,297.09 L102.86,295.64 L104.29,300.00 L105.71,300.00 L107.14,299.91 L108.57,293.33 L110.00,263.50 L111.43,259.96 L112.86,299.64 L114.29,299.46 L115.71,299.91 L117.14,299.86 L118.57,300.00 L120.00,300.00 L121.43,300.00 L122.86,300.00 L124.29,300.00 L125.71,300.00 L127.14,300.00 L128.57,299.64 L130.00,299.36 L131.43,299.77 L132.86,299.86 L134.29,300.00 L135.71,299.91 L137.14,299.86 L138.57,299.91 L140.00,299.77 L141.43,299.77 L142.86,299.68 L144.29,299.73 L145.71,300.00 L147.14,299.36 L148.57,298.96 L150.00,299.59 L151.43,299.41 L152.86,299.73 L154.29,300.00 L155.71,299.91 L157.14,299.86 L158.57,300.00 L160.00,300.00 L161.43,300.00 L162.86,299.82 L164.29,299.73 L165.71,300.00 L167.14,299.46 L168.57,299.18 L170.00,299.73 L171.43,299.59 L172.86,300.00 L174.29,300.00 L175.71,299.91 L177.14,299.86 L178.57,300.00 L180.00,300.00 L181.43,299.91 L182.86,296.96 L184.29,293.65 L185.71,296.37 L187.14,116.48 L188.57,0.00 L190.00,260.05 L191.43,298.91 L192.86,300.00 L194.29,300.00 L195.71,299.91 L197.14,299.86 L198.57,300.00 L200.00,299.91 L201.43,299.86 L202.86,300.00 L204.29,300.00 L205.71,299.55 L207.14,299.32 L208.57,300.00 L210.00,299.55 L211.43,299.32 L212.86,300.00 L214.29,300.00 L215.71,300.00 L217.14,300.00 L218.57,300.00 L220.00,299.91 L221.43,299.86 L222.86,299.82 L224.29,299.55 L225.71,298.91 L227.14,268.00 L228.57,253.74 L230.00,299.59 L231.43,299.59 L232.86,300.00 L234.29,298.55 L235.71,297.55 L237.14,299.59 L238.57,300.00 L240.00,300.00 L241.43,299.00 L242.86,298.41 L244.29,299.50 L245.71,299.46 L247.14,299.64 L248.57,299.27 L250.00,298.28 L251.43,297.82 L252.86,300.00 L254.29,300.00 L255.71,300.00 L257.14,300.00 L258.57,300.00 L260.00,299.91 L261.43,299.86 L262.86,299.09 L264.29,298.64 L265.71,300.00 L267.14,292.56 L268.57,288.65 L270.00,299.55 L271.43,299.73 L272.86,300.00 L274.29,300.00 L275.71,284.02 L277.14,275.76 L278.57,299.41 L280.00,299.73 L281.43,299.64 L282.86,299.36 L284.29,299.86 L285.71,299.82 L287.14,299.73 L288.57,299.73 L290.00,299.59 L291.43,300.00 L292.86,300.00 L294.29,300.00 L295.71,300.00 L297.14,299.91 L298.57,299.86 L300.00,300.00 L301.43,299.64 L302.86,299.46 L304.29,299.73 L305.71,299.59 L307.14,299.91 L308.57,299.86 L310.00,299.91 L311.43,299.77 L312.86,299.86 L314.29,300.00 L315.71,300.00 L317.14,299.73 L318.57,299.59 L320.00,299.27 L321.43,298.91 L322.86,300.00 L324.29,299.82 L325.71,299.64 L327.14,299.50 L328.57,299.46 L330.00,300.00 L331.43,300.00 L332.86,300.00 L334.29,300.00 L335.71,300.00 L337.14,299.91 L338.57,299.86 L340.00,299.64 L341.43,298.91 L342.86,298.73 L344.29,299.32 L345.71,299.36 L347.14,299.05 L348.57,299.64 L350.00,272.86 L351.43,259.92 L352.86,299.73 L354.29,299.73 L355.71,299.32 L357.14,299.41 L358.57,299.46 L360.00,297.78 L361.43,297.00 L362.86,299.59 L364.29,299.91 L365.71,299.68 L367.14,299.73 L368.57,300.00 L370.00,300.00 L371.43,300.00 L372.86,300.00 L374.29,300.00 L375.71,299.91 L377.14,299.86 L378.57,299.82 L380.00,299.36 L381.43,299.46 L382.86,300.00 L384.29,299.82 L385.71,299.73 L387.14,299.73 L388.57,299.59 L390.00,300.00 L391.43,300.00 L392.86,299.91 L394.29,299.86 L395.71,300.00 L397.14,299.91 L398.57,299.14 L400.00,298.91 L401.43,300.00 L402.86,300.00 L404.29,299.73 L405.71,299.59 L407.14,300.00 L408.57,300.00 L410.00,300.00 L411.43,300.00 L412.86,300.00 L414.29,299.91 L415.71,299.68 L417.14,299.09 L418.57,299.05 L420.00,300.00 L421.43,300.00 L422.86,299.91 L424.29,299.86 L425.71,300.00 L427.14,300.00 L428.57,299.82 L430.00,299.73 L431.43,300.00 L432.86,300.00 L434.29,299.91 L435.71,299.50 L437.14,299.09 L438.57,299.46 L440.00,299.91 L441.43,299.86 L442.86,299.82 L444.29,299.73 L445.71,300.00 L447.14,300.00 L448.57,299.91 L450.00,299.86 L451.43,300.00 L452.86,300.00 L454.29,300.00 L455.71,299.27 L457.14,298.91 L458.57,300.00 L460.00,299.82 L461.43,299.64 L462.86,299.77 L464.29,299.86 L465.71,300.00 L467.14,299.91 L468.57,299.77 L470.00,299.86 L471.43,299.73 L472.86,299.59 L474.29,299.82 L475.71,299.09 L477.14,299.05 L478.57,300.00 L480.00,300.00 L481.43,299.91 L482.86,299.59 L484.29,299.59 L485.71,300.00 L487.14,300.00 L488.57,299.91 L490.00,299.59 L491.43,299.41 L492.86,299.46 L494.29,299.32 L495.71,299.41 L497.14,299.73 L498.57,300.00 L500.00,287.93 L501.43,281.89 L502.86,300.00 L504.29,300.00 L505.71,300.00 L507.14,299.27 L508.57,298.73 L510.00,295.46" stroke="#4e73df" fill="none" stroke-width="2" stroke-linejoin="round"/><path d="M0.00,288.33 L1.43,299.00 L2.86,291.60 L4.29,287.61 L5.71,298.41 L7.14,298.09 L8.57,295.14 L10.00,293.78 L11.43,294.46 L12.86,292.83 L14.29,281.80 L15.71,259.19 L17.14,253.97 L18.57,277.98 L20.00,299.09 L21.43,295.19 L22.86,291.24 L24.29,295.91 L25.71,291.01 L27.14,285.38 L28.57,295.28 L30.00,288.70 L31.43,284.43 L32.86,296.37 L34.29,245.76 L35.71,221.97 L37.14,291.10 L38.57,270.45 L40.00,273.22 L41.43,295.96 L42.86,293.65 L44.29,296.32 L45.71,297.73 L47.14,295.51 L48.57,288.88 L50.00,290.56 L51.43,292.83 L52.86,288.06 L54.29,268.27 L55.71,252.29 L57.14,279.89 L58.57,283.98 L60.00,298.82 L61.43,295.60 L62.86,292.19 L64.29,295.51 L65.71,298.46 L67.14,294.28 L68.57,292.69 L70.00,299.09 L71.43,287.83 L72.86,281.39 L74.29,263.64 L75.71,245.30 L77.14,289.42 L78.57,290.10 L80.00,298.46 L81.43,292.78 L82.86,291.06 L84.29,297.00 L85.71,293.87 L87.14,290.33 L88.57,289.65 L90.00,286.16 L91.43,281.93 L92.86,291.83 L94.29,256.24 L95.71,250.70 L97.14,282.71 L98.57,269.09 L100.00,289.06 L101.43,297.82 L102.86,294.10 L104.29,287.70 L105.71,290.33 L107.14,294.33 L108.57,282.16 L110.00,279.89 L111.43,291.24 L112.86,231.77 L114.29,205.04 L115.71,290.79 L117.14,286.34 L118.57,289.33 L120.00,284.25 L121.43,291.87 L122.86,294.10 L124.29,285.79 L125.71,284.52 L127.14,289.29 L128.57,266.41 L130.00,256.15 L131.43,275.90 L132.86,282.71 L134.29,297.14 L135.71,290.79 L137.14,284.93 L138.57,295.01 L140.00,298.64 L141.43,293.33 L142.86,290.65 L144.29,297.87 L145.71,287.29 L147.14,280.84 L148.57,298.00 L150.00,268.72 L151.43,251.43 L152.86,295.01 L154.29,291.74 L155.71,276.08 L157.14,280.94 L158.57,298.28 L160.00,294.10 L161.43,290.92 L162.86,295.87 L164.29,294.83 L165.71,293.33 L167.14,293.37 L168.57,286.75 L170.00,273.31 L171.43,261.19 L172.86,278.44 L174.29,281.25 L175.71,276.99 L177.14,276.21 L178.57,281.03 L180.00,276.76 L181.43,277.94 L182.86,270.59 L184.29,287.06 L185.71,256.51 L187.14,239.76 L188.57,288.33 L190.00,276.99 L191.43,268.95 L192.86,286.56 L194.29,291.47 L195.71,290.29 L197.14,291.56 L198.57,298.41 L200.00,285.20 L201.43,277.98 L202.86,290.33 L204.29,284.38 L205.71,270.86 L207.14,252.84 L208.57,283.70 L210.00,281.21 L211.43,274.99 L212.86,291.65 L214.29,285.75 L215.71,288.47 L217.14,298.28 L218.57,297.87 L220.00,295.55 L221.43,286.34 L222.86,279.57 L224.29,286.20 L225.71,277.85 L227.14,267.95 L228.57,293.15 L230.00,275.58 L231.43,274.17 L232.86,276.03 L234.29,270.63 L235.71,298.73 L237.14,294.64 L238.57,288.52 L240.00,281.93 L241.43,283.34 L242.86,289.33 L244.29,256.01 L245.71,252.56 L247.14,283.34 L248.57,269.63 L250.00,277.62 L251.43,286.65 L252.86,291.97 L254.29,288.02 L255.71,286.56 L257.14,289.38 L258.57,294.83 L260.00,289.01 L261.43,279.44 L262.86,262.05 L264.29,255.97 L265.71,294.92 L267.14,286.65 L268.57,284.93 L270.00,295.28 L271.43,284.38 L272.86,285.61 L274.29,287.93 L275.71,280.44 L277.14,296.23 L278.57,298.82 L280.00,284.70 L281.43,257.33 L282.86,267.91 L284.29,291.83 L285.71,280.94 L287.14,281.57 L288.57,281.71 L290.00,287.93 L291.43,299.09 L292.86,297.64 L294.29,294.01 L295.71,294.46 L297.14,296.78 L298.57,293.33 L300.00,294.55 L301.43,288.02 L302.86,281.62 L304.29,259.78 L305.71,241.08 L307.14,295.14 L308.57,287.29 L310.00,277.58 L311.43,280.16 L312.86,284.61 L314.29,295.55 L315.71,294.19 L317.14,296.73 L318.57,277.58 L320.00,272.13 L321.43,299.09 L322.86,258.06 L324.29,237.54 L325.71,298.91 L327.14,290.83 L328.57,276.85 L330.00,283.16 L331.43,286.84 L332.86,281.75 L334.29,298.82 L335.71,299.09 L337.14,293.01 L338.57,289.88 L340.00,293.15 L341.43,260.51 L342.86,254.02 L344.29,298.68 L345.71,283.66 L347.14,272.76 L348.57,293.78 L350.00,298.28 L351.43,290.83 L352.86,278.44 L354.29,284.52 L355.71,292.01 L357.14,291.92 L358.57,284.84 L360.00,268.63 L361.43,270.95 L362.86,273.31 L364.29,269.54 L365.71,264.41 L367.14,272.27 L368.57,294.60 L370.00,298.73 L371.43,298.55 L372.86,287.47 L374.29,279.39 L375.71,295.69 L377.14,297.46 L378.57,288.83 L380.00,275.58 L381.43,249.07 L382.86,250.61 L384.29,299.09 L385.71,292.01 L387.14,286.29 L388.57,288.65 L390.00,278.53 L391.43,284.38 L392.86,299.00 L394.29,298.99 L395.71,292.61 L397.14,277.58 L398.57,232.68 L400.00,218.47 L401.43,298.37 L402.86,296.37 L404.29,287.83 L405.71,276.08 L407.14,277.49 L408.57,286.38 L410.00,295.19 L411.43,296.82 L412.86,295.32 L414.29,288.15 L415.71,278.98 L417.14,289.56 L418.57,299.09 L420.00,272.58 L421.43,256.42 L422.86,294.73 L424.29,289.11 L425.71,283.11 L427.14,294.14 L428.57,291.28 L430.00,292.24 L431.43,294.46 L432.86,296.78 L434.29,292.69 L435.71,271.27 L437.14,244.17 L438.57,260.37 L440.00,288.79 L441.43,292.74 L442.86,281.71 L444.29,287.56 L445.71,295.10 L447.14,290.74 L448.57,291.87 L450.00,295.23 L451.43,297.00 L452.86,286.56 L454.29,281.84 L455.71,263.32 L457.14,249.43 L458.57,295.87 L460.00,288.06 L461.43,283.98 L462.86,298.82 L464.29,290.88 L465.71,280.30 L467.14,287.56 L468.57,294.55 L470.00,276.62 L471.43,261.46 L472.86,279.12 L474.29,282.98 L475.71,245.17 L477.14,236.04 L478.57,288.47 L480.00,299.09 L481.43,296.37 L482.86,294.92 L484.29,298.50 L485.71,289.79 L487.14,280.07 L488.57,287.97 L490.00,293.65 L491.43,284.61 L492.86,266.73 L494.29,274.85 L495.71,299.00 L497.14,263.64 L498.57,240.76 L500.00,282.16 L501.43,277.85 L502.86,284.52 L504.29,295.01 L505.71,299.09 L507.14,296.55 L508.57,288.11 L510.00,280.25" stroke="#1cc88a" fill="none" stroke-width="2" stroke-linejoin="round"/></g><text x="300" y="20" text-anchor="middle" font-size="16" fill="#333">Disk Operations for sdc</text><text x="10" y="200" text-anchor="middle" transform="rotate(-90,10,200)" font-size="12" fill="#666">Operations/s</text><g font-size="12"><circle cx="20" cy="375" r="5" fill="#4e73df"/><text x="30" y="380" fill="#333">read: 2.0 at 22:54:30</text><circle cx="240" cy="375" r="5" fill="#1cc88a"/><text x="250" y="380" fill="#333">write: 8.7 at 22:54:30</text></g></svg>