<svg width="600" height="400" xmlns="http://www.w3.org/2000/svg" style="font-family: Arial, sans-serif;"><rect width="600" height="400" fill="#ffffff"/><g transform="translate(60,30)"><rect width="510" height="300" fill="#f8f9fc" stroke="#ddd"/><g stroke-width="1"><line x1="0" y1="300" x2="510" y2="300" stroke="#eee" /><text x="-5" y="304" text-anchor="end" font-size="10" fill="#666">0.0</text><line x1="0" y1="240" x2="510" y2="240" stroke="#eee" /><text x="-5" y="244" text-anchor="end" font-size="10" fill="#666">4.2</text><line x1="0" y1="180" x2="510" y2="180" stroke="#eee" /><text x="-5" y="184" text-anchor="end" font-size="10" fill="#666">8.4</text><line x1="0" y1="120" x2="510" y2="120" stroke="#eee" /><text x="-5" y="124" text-anchor="end" font-size="10" fill="#666">12.6</text><line x1="0" y1="59.999999999999986" x2="510" y2="59.999999999999986" stroke="#eee" /><text x="-5" y="63.999999999999986" text-anchor="end" font-size="10" fill="#666">16.8</text><line x1="0" y1="0" x2="510" y2="0" stroke="#eee" /><text x="-5" y="4" text-anchor="end" font-size="10" fill="#666">21.0</text></g><g stroke-width="1"><line x1="0" y1="0" x2="0" y2="300" stroke="#eee"/><text x="0" y="320" text-anchor="middle" font-size="10" fill="#666">23:56:50</text><line x1="102" y1="0" x2="102" y2="300" stroke="#eee"/><text x="102" y="320" text-anchor="middle" font-size="10" fill="#666">00:08:44</text><line x1="204" y1="0" x2="204" y2="300" stroke="#eee"/><text x="204" y="320" text-anchor="middle" font-size="10" fill="#666">00:20:38</text><line x1="306" y1="0" x2="306" y2="300" stroke="#eee"/><text x="306" y="320" text-anchor="middle" font-size="10" fill="#666">00:32:32</text><line x1="408" y1="0" x2="408" y2="300" stroke="#eee"/><text x="408" y="320" text-anchor="middle" font-size="10" fill="#666">00:44:26</text><line x1="510" y1="0" x2="510" y2="300" stroke="#eee"/><text x="510" y="320" text-anchor="middle" font-size="10" fill="#666">00:56:20</text></g><path d="M0.00,297.35 L10.00,276.76 L20.00,251.57 L30.00,294.30 L40.00,295.25 L50.00,297.82 L60.00,299.39 L70.00,298.78 L80.00,299.39 L90.00,297.56 L100.00,299.19 L110.00,298.78 L120.00,297.94 L130.00,297.58 L140.00,297.15 L150.00,0.00 L160.00,283.50 L170.00,297.92 L180.00,298.62 L190.00,298.57 L200.00,298.57 L210.00,297.74 L220.00,298.35 L230.00,297.39 L240.00,294.77 L250.00,286.29 L260.00,299.76 L270.00,299.43 L280.00,297.35 L290.00,299.19 L300.00,298.94 L310.00,298.72 L320.00,298.68 L330.00,299.10 L340.00,298.25 L350.00,298.13 L360.00,298.41 L370.00,298.37 L380.00,215.07 L390.00,297.76 L400.00,299.39 L410.00,298.78 L420.00,299.59 L430.00,298.78 L440.00,299.39 L450.00,298.98 L460.00,298.57 L470.00,299.59 L480.00,287.37 L490.00,298.78 L500.00,298.98 L510.00,300.00" stroke="#4e73df" fill="none" stroke-width="2" stroke-linejoin="round"/><circle id="point-read-0" cx="0.00" cy="297.35" r="5" fill="#4e73df" opacity="0" onmouseover="showTooltip(evt, 'read', '0.2', '23:56:50', 0.00, 297.35)" onmouseout="hideTooltip()"/><circle id="point-read-1" cx="10.00" cy="276.76" r="5" fill="#4e73df" opacity="0" onmouseover="showTooltip(evt, 'read', '1.6', '23:58:00', 10.00, 276.76)" onmouseout="hideTooltip()"/><circle id="point-read-2" cx="20.00" cy="251.57" r="5" fill="#4e73df" opacity="0" onmouseover="showTooltip(evt, 'read', '3.4', '23:59:10', 20.00, 251.57)" onmouseout="hideTooltip()"/><circle id="point-read-3" cx="30.00" cy="294.30" r="5" fill="#4e73df" opacity="0" onmouseover="showTooltip(evt, 'read', '0.4', '00:00:20', 30.00, 294.30)" onmouseout="hideTooltip()"/><circle id="point-read-4" cx="40.00" cy="295.25" r="5" fill="#4e73df" opacity="0" onmouseover="showTooltip(evt, 'read', '0.3', '00:01:30', 40.00, 295.25)" onmouseout="hideTooltip()"/><circle id="point-read-5" cx="50.00" cy="297.82" r="5" fill="#4e73df" opacity="0" onmouseover="showTooltip(evt, 'read', '0.2', '00:02:40', 50.00, 297.82)" onmouseout="hideTooltip()"/><circle id="point-read-6" cx="60.00" cy="299.39" r="5" fill="#4e73df" opacity="0" onmouseover="showTooltip(evt, 'read', '0.0', '00:03:50', 60.00, 299.39)" onmouseout="hideTooltip()"/><circle id="point-read-7" cx="70.00" cy="298.78" r="5" fill="#4e73df" opacity="0" onmouseover="showTooltip(evt, 'read', '0.1', '00:05:00', 70.00, 298.78)" onmouseout="hideTooltip()"/><circle id="point-read-8" cx="80.00" cy="299.39" r="5" fill="#4e73df" opacity="0" onmouseover="showTooltip(evt, 'read', '0.0', '00:06:10', 80.00, 299.39)" onmouseout="hideTooltip()"/><circle id="point-read-9" cx="90.00" cy="297.56" r="5" fill="#4e73df" opacity="0" onmouseover="showTooltip(evt, 'read', '0.2', '00:07:20', 90.00, 297.56)" onmouseout="hideTooltip()"/><circle id="point-read-10" cx="100.00" cy="299.19" r="5" fill="#4e73df" opacity="0" onmouseover="showTooltip(evt, 'read', '0.1', '00:08:30', 100.00, 299.19)" onmouseout="hideTooltip()"/><circle id="point-read-11" cx="110.00" cy="298.78" r="5" fill="#4e73df" opacity="0" onmouseover="showTooltip(evt, 'read', '0.1', '00:09:40', 110.00, 298.78)" onmouseout="hideTooltip()"/><circle id="point-read-12" cx="120.00" cy="297.94" r="5" fill="#4e73df" opacity="0" onmouseover="showTooltip(evt, 'read', '0.1', '00:10:50', 120.00, 297.94)" onmouseout="hideTooltip()"/><circle id="point-read-13" cx="130.00" cy="297.58" r="5" fill="#4e73df" opacity="0" onmouseover="showTooltip(evt, 'read', '0.2', '00:12:00', 130.00, 297.58)" onmouseout="hideTooltip()"/><circle id="point-read-14" cx="140.00" cy="297.15" r="5" fill="#4e73df" opacity="0" onmouseover="showTooltip(evt, 'read', '0.2', '00:13:10', 140.00, 297.15)" onmouseout="hideTooltip()"/><circle id="point-read-15" cx="150.00" cy="0.00" r="5" fill="#4e73df" opacity="0" onmouseover="showTooltip(evt, 'read', '21.0', '00:14:20', 150.00, 0.00)" onmouseout="hideTooltip()"/><circle id="point-read-16" cx="160.00" cy="283.50" r="5" fill="#4e73df" opacity="0" onmouseover="showTooltip(evt, 'read', '1.2', '00:15:30', 160.00, 283.50)" onmouseout="hideTooltip()"/><circle id="point-read-17" cx="170.00" cy="297.92" r="5" fill="#4e73df" opacity="0" onmouseover="showTooltip(evt, 'read', '0.1', '00:16:40', 170.00, 297.92)" onmouseout="hideTooltip()"/><circle id="point-read-18" cx="180.00" cy="298.62" r="5" fill="#4e73df" opacity="0" onmouseover="showTooltip(evt, 'read', '0.1', '00:17:50', 180.00, 298.62)" onmouseout="hideTooltip()"/><circle id="point-read-19" cx="190.00" cy="298.57" r="5" fill="#4e73df" opacity="0" onmouseover="showTooltip(evt, 'read', '0.1', '00:19:00', 190.00, 298.57)" onmouseout="hideTooltip()"/><circle id="point-read-20" cx="200.00" cy="298.57" r="5" fill="#4e73df" opacity="0" onmouseover="showTooltip(evt, 'read', '0.1', '00:20:10', 200.00, 298.57)" onmouseout="hideTooltip()"/><circle id="point-read-21" cx="210.00" cy="297.74" r="5" fill="#4e73df" opacity="0" onmouseover="showTooltip(evt, 'read', '0.2', '00:21:20', 210.00, 297.74)" onmouseout="hideTooltip()"/><circle id="point-read-22" cx="220.00" cy="298.35" r="5" fill="#4e73df" opacity="0" onmouseover="showTooltip(evt, 'read', '0.1', '00:22:30', 220.00, 298.35)" onmouseout="hideTooltip()"/><circle id="point-read-23" cx="230.00" cy="297.39" r="5" fill="#4e73df" opacity="0" onmouseover="showTooltip(evt, 'read', '0.2', '00:23:40', 230.00, 297.39)" onmouseout="hideTooltip()"/><circle id="point-read-24" cx="240.00" cy="294.77" r="5" fill="#4e73df" opacity="0" onmouseover="showTooltip(evt, 'read', '0.4', '00:24:50', 240.00, 294.77)" onmouseout="hideTooltip()"/><circle id="point-read-25" cx="250.00" cy="286.29" r="5" fill="#4e73df" opacity="0" onmouseover="showTooltip(evt, 'read', '1.0', '00:26:00', 250.00, 286.29)" onmouseout="hideTooltip()"/><circle id="point-read-26" cx="260.00" cy="299.76" r="5" fill="#4e73df" opacity="0" onmouseover="showTooltip(evt, 'read', '0.0', '00:27:10', 260.00, 299.76)" onmouseout="hideTooltip()"/><circle id="point-read-27" cx="270.00" cy="299.43" r="5" fill="#4e73df" opacity="0" onmouseover="showTooltip(evt, 'read', '0.0', '00:28:20', 270.00, 299.43)" onmouseout="hideTooltip()"/><circle id="point-read-28" cx="280.00" cy="297.35" r="5" fill="#4e73df" opacity="0" onmouseover="showTooltip(evt, 'read', '0.2', '00:29:30', 280.00, 297.35)" onmouseout="hideTooltip()"/><circle id="point-read-29" cx="290.00" cy="299.19" r="5" fill="#4e73df" opacity="0" onmouseover="showTooltip(evt, 'read', '0.1', '00:30:40', 290.00, 299.19)" onmouseout="hideTooltip()"/><circle id="point-read-30" cx="300.00" cy="298.94" r="5" fill="#4e73df" opacity="0" onmouseover="showTooltip(evt, 'read', '0.1', '00:31:50', 300.00, 298.94)" onmouseout="hideTooltip()"/><circle id="point-read-31" cx="310.00" cy="298.72" r="5" fill="#4e73df" opacity="0" onmouseover="showTooltip(evt, 'read', '0.1', '00:33:00', 310.00, 298.72)" onmouseout="hideTooltip()"/><circle id="point-read-32" cx="320.00" cy="298.68" r="5" fill="#4e73df" opacity="0" onmouseover="showTooltip(evt, 'read', '0.1', '00:34:10', 320.00, 298.68)" onmouseout="hideTooltip()"/><circle id="point-read-33" cx="330.00" cy="299.10" r="5" fill="#4e73df" opacity="0" onmouseover="showTooltip(evt, 'read', '0.1', '00:35:20', 330.00, 299.10)" onmouseout="hideTooltip()"/><circle id="point-read-34" cx="340.00" cy="298.25" r="5" fill="#4e73df" opacity="0" onmouseover="showTooltip(evt, 'read', '0.1', '00:36:30', 340.00, 298.25)" onmouseout="hideTooltip()"/><circle id="point-read-35" cx="350.00" cy="298.13" r="5" fill="#4e73df" opacity="0" onmouseover="showTooltip(evt, 'read', '0.1', '00:37:40', 350.00, 298.13)" onmouseout="hideTooltip()"/><circle id="point-read-36" cx="360.00" cy="298.41" r="5" fill="#4e73df" opacity="0" onmouseover="showTooltip(evt, 'read', '0.1', '00:38:50', 360.00, 298.41)" onmouseout="hideTooltip()"/><circle id="point-read-37" cx="370.00" cy="298.37" r="5" fill="#4e73df" opacity="0" onmouseover="showTooltip(evt, 'read', '0.1', '00:40:00', 370.00, 298.37)" onmouseout="hideTooltip()"/><circle id="point-read-38" cx="380.00" cy="215.07" r="5" fill="#4e73df" opacity="0" onmouseover="showTooltip(evt, 'read', '6.0', '00:41:10', 380.00, 215.07)" onmouseout="hideTooltip()"/><circle id="point-read-39" cx="390.00" cy="297.76" r="5" fill="#4e73df" opacity="0" onmouseover="showTooltip(evt, 'read', '0.2', '00:42:20', 390.00, 297.76)" onmouseout="hideTooltip()"/><circle id="point-read-40" cx="400.00" cy="299.39" r="5" fill="#4e73df" opacity="0" onmouseover="showTooltip(evt, 'read', '0.0', '00:43:30', 400.00, 299.39)" onmouseout="hideTooltip()"/><circle id="point-read-41" cx="410.00" cy="298.78" r="5" fill="#4e73df" opacity="0" onmouseover="showTooltip(evt, 'read', '0.1', '00:44:40', 410.00, 298.78)" onmouseout="hideTooltip()"/><circle id="point-read-42" cx="420.00" cy="299.59" r="5" fill="#4e73df" opacity="0" onmouseover="showTooltip(evt, 'read', '0.0', '00:45:50', 420.00, 299.59)" onmouseout="hideTooltip()"/><circle id="point-read-43" cx="430.00" cy="298.78" r="5" fill="#4e73df" opacity="0" onmouseover="showTooltip(evt, 'read', '0.1', '00:47:00', 430.00, 298.78)" onmouseout="hideTooltip()"/><circle id="point-read-44" cx="440.00" cy="299.39" r="5" fill="#4e73df" opacity="0" onmouseover="showTooltip(evt, 'read', '0.0', '00:48:10', 440.00, 299.39)" onmouseout="hideTooltip()"/><circle id="point-read-45" cx="450.00" cy="298.98" r="5" fill="#4e73df" opacity="0" onmouseover="showTooltip(evt, 'read', '0.1', '00:49:20', 450.00, 298.98)" onmouseout="hideTooltip()"/><circle id="point-read-46" cx="460.00" cy="298.57" r="5" fill="#4e73df" opacity="0" onmouseover="showTooltip(evt, 'read', '0.1', '00:50:30', 460.00, 298.57)" onmouseout="hideTooltip()"/><circle id="point-read-47" cx="470.00" cy="299.59" r="5" fill="#4e73df" opacity="0" onmouseover="showTooltip(evt, 'read', '0.0', '00:51:40', 470.00, 299.59)" onmouseout="hideTooltip()"/><circle id="point-read-48" cx="480.00" cy="287.37" r="5" fill="#4e73df" opacity="0" onmouseover="showTooltip(evt, 'read', '0.9', '00:52:50', 480.00, 287.37)" onmouseout="hideTooltip()"/><circle id="point-read-49" cx="490.00" cy="298.78" r="5" fill="#4e73df" opacity="0" onmouseover="showTooltip(evt, 'read', '0.1', '00:54:00', 490.00, 298.78)" onmouseout="hideTooltip()"/><circle id="point-read-50" cx="500.00" cy="298.98" r="5" fill="#4e73df" opacity="0" onmouseover="showTooltip(evt, 'read', '0.1', '00:55:10', 500.00, 298.98)" onmouseout="hideTooltip()"/><circle id="point-read-51" cx="510.00" cy="300.00" r="5" fill="#4e73df" opacity="0" onmouseover="showTooltip(evt, 'read', '0.0', '00:56:20', 510.00, 300.00)" onmouseout="hideTooltip()"/><path d="M0.00,167.45 L10.00,146.40 L20.00,136.23 L30.00,139.78 L40.00,90.96 L50.00,123.67 L60.00,170.08 L70.00,162.91 L80.00,196.99 L90.00,180.61 L100.00,185.80 L110.00,72.61 L120.00,186.27 L130.00,88.47 L140.00,144.03 L150.00,134.95 L160.00,190.02 L170.00,133.52 L180.00,159.84 L190.00,183.97 L200.00,165.52 L210.00,164.99 L220.00,159.19 L230.00,159.02 L240.00,150.20 L250.00,106.29 L260.00,180.67 L270.00,150.92 L280.00,110.39 L290.00,196.13 L300.00,127.29 L310.00,152.38 L320.00,108.35 L330.00,158.72 L340.00,187.33 L350.00,162.46 L360.00,164.64 L370.00,164.87 L380.00,136.21 L390.00,156.46 L400.00,150.47 L410.00,142.93 L420.00,171.59 L430.00,184.32 L440.00,177.60 L450.00,171.89 L460.00,137.07 L470.00,181.45 L480.00,70.86 L490.00,234.22 L500.00,81.43 L510.00,250.63" stroke="#1cc88a" fill="none" stroke-width="2" stroke-linejoin="round"/><circle id="point-write-0" cx="0.00" cy="167.45" r="5" fill="#1cc88a" opacity="0" onmouseover="showTooltip(evt, 'write', '9.3', '23:56:50', 0.00, 167.45)" onmouseout="hideTooltip()"/><circle id="point-write-1" cx="10.00" cy="146.40" r="5" fill="#1cc88a" opacity="0" onmouseover="showTooltip(evt, 'write', '10.8', '23:58:00', 10.00, 146.40)" onmouseout="hideTooltip()"/><circle id="point-write-2" cx="20.00" cy="136.23" r="5" fill="#1cc88a" opacity="0" onmouseover="showTooltip(evt, 'write', '11.5', '23:59:10', 20.00, 136.23)" onmouseout="hideTooltip()"/><circle id="point-write-3" cx="30.00" cy="139.78" r="5" fill="#1cc88a" opacity="0" onmouseover="showTooltip(evt, 'write', '11.2', '00:00:20', 30.00, 139.78)" onmouseout="hideTooltip()"/><circle id="point-write-4" cx="40.00" cy="90.96" r="5" fill="#1cc88a" opacity="0" onmouseover="showTooltip(evt, 'write', '14.7', '00:01:30', 40.00, 90.96)" onmouseout="hideTooltip()"/><circle id="point-write-5" cx="50.00" cy="123.67" r="5" fill="#1cc88a" opacity="0" onmouseover="showTooltip(evt, 'write', '12.4', '00:02:40', 50.00, 123.67)" onmouseout="hideTooltip()"/><circle id="point-write-6" cx="60.00" cy="170.08" r="5" fill="#1cc88a" opacity="0" onmouseover="showTooltip(evt, 'write', '9.1', '00:03:50', 60.00, 170.08)" onmouseout="hideTooltip()"/><circle id="point-write-7" cx="70.00" cy="162.91" r="5" fill="#1cc88a" opacity="0" onmouseover="showTooltip(evt, 'write', '9.6', '00:05:00', 70.00, 162.91)" onmouseout="hideTooltip()"/><circle id="point-write-8" cx="80.00" cy="196.99" r="5" fill="#1cc88a" opacity="0" onmouseover="showTooltip(evt, 'write', '7.2', '00:06:10', 80.00, 196.99)" onmouseout="hideTooltip()"/><circle id="point-write-9" cx="90.00" cy="180.61" r="5" fill="#1cc88a" opacity="0" onmouseover="showTooltip(evt, 'write', '8.4', '00:07:20', 90.00, 180.61)" onmouseout="hideTooltip()"/><circle id="point-write-10" cx="100.00" cy="185.80" r="5" fill="#1cc88a" opacity="0" onmouseover="showTooltip(evt, 'write', '8.0', '00:08:30', 100.00, 185.80)" onmouseout="hideTooltip()"/><circle id="point-write-11" cx="110.00" cy="72.61" r="5" fill="#1cc88a" opacity="0" onmouseover="showTooltip(evt, 'write', '16.0', '00:09:40', 110.00, 72.61)" onmouseout="hideTooltip()"/><circle id="point-write-12" cx="120.00" cy="186.27" r="5" fill="#1cc88a" opacity="0" onmouseover="showTooltip(evt, 'write', '8.0', '00:10:50', 120.00, 186.27)" onmouseout="hideTooltip()"/><circle id="point-write-13" cx="130.00" cy="88.47" r="5" fill="#1cc88a" opacity="0" onmouseover="showTooltip(evt, 'write', '14.8', '00:12:00', 130.00, 88.47)" onmouseout="hideTooltip()"/><circle id="point-write-14" cx="140.00" cy="144.03" r="5" fill="#1cc88a" opacity="0" onmouseover="showTooltip(evt, 'write', '10.9', '00:13:10', 140.00, 144.03)" onmouseout="hideTooltip()"/><circle id="point-write-15" cx="150.00" cy="134.95" r="5" fill="#1cc88a" opacity="0" onmouseover="showTooltip(evt, 'write', '11.6', '00:14:20', 150.00, 134.95)" onmouseout="hideTooltip()"/><circle id="point-write-16" cx="160.00" cy="190.02" r="5" fill="#1cc88a" opacity="0" onmouseover="showTooltip(evt, 'write', '7.7', '00:15:30', 160.00, 190.02)" onmouseout="hideTooltip()"/><circle id="point-write-17" cx="170.00" cy="133.52" r="5" fill="#1cc88a" opacity="0" onmouseover="showTooltip(evt, 'write', '11.7', '00:16:40', 170.00, 133.52)" onmouseout="hideTooltip()"/><circle id="point-write-18" cx="180.00" cy="159.84" r="5" fill="#1cc88a" opacity="0" onmouseover="showTooltip(evt, 'write', '9.8', '00:17:50', 180.00, 159.84)" onmouseout="hideTooltip()"/><circle id="point-write-19" cx="190.00" cy="183.97" r="5" fill="#1cc88a" opacity="0" onmouseover="showTooltip(evt, 'write', '8.1', '00:19:00', 190.00, 183.97)" onmouseout="hideTooltip()"/><circle id="point-write-20" cx="200.00" cy="165.52" r="5" fill="#1cc88a" opacity="0" onmouseover="showTooltip(evt, 'write', '9.4', '00:20:10', 200.00, 165.52)" onmouseout="hideTooltip()"/><circle id="point-write-21" cx="210.00" cy="164.99" r="5" fill="#1cc88a" opacity="0" onmouseover="showTooltip(evt, 'write', '9.5', '00:21:20', 210.00, 164.99)" onmouseout="hideTooltip()"/><circle id="point-write-22" cx="220.00" cy="159.19" r="5" fill="#1cc88a" opacity="0" onmouseover="showTooltip(evt, 'write', '9.9', '00:22:30', 220.00, 159.19)" onmouseout="hideTooltip()"/><circle id="point-write-23" cx="230.00" cy="159.02" r="5" fill="#1cc88a" opacity="0" onmouseover="showTooltip(evt, 'write', '9.9', '00:23:40', 230.00, 159.02)" onmouseout="hideTooltip()"/><circle id="point-write-24" cx="240.00" cy="150.20" r="5" fill="#1cc88a" opacity="0" onmouseover="showTooltip(evt, 'write', '10.5', '00:24:50', 240.00, 150.20)" onmouseout="hideTooltip()"/><circle id="point-write-25" cx="250.00" cy="106.29" r="5" fill="#1cc88a" opacity="0" onmouseover="showTooltip(evt, 'write', '13.6', '00:26:00', 250.00, 106.29)" onmouseout="hideTooltip()"/><circle id="point-write-26" cx="260.00" cy="180.67" r="5" fill="#1cc88a" opacity="0" onmouseover="showTooltip(evt, 'write', '8.4', '00:27:10', 260.00, 180.67)" onmouseout="hideTooltip()"/><circle id="point-write-27" cx="270.00" cy="150.92" r="5" fill="#1cc88a" opacity="0" onmouseover="showTooltip(evt, 'write', '10.5', '00:28:20', 270.00, 150.92)" onmouseout="hideTooltip()"/><circle id="point-write-28" cx="280.00" cy="110.39" r="5" fill="#1cc88a" opacity="0" onmouseover="showTooltip(evt, 'write', '13.3', '00:29:30', 280.00, 110.39)" onmouseout="hideTooltip()"/><circle id="point-write-29" cx="290.00" cy="196.13" r="5" fill="#1cc88a" opacity="0" onmouseover="showTooltip(evt, 'write', '7.3', '00:30:40', 290.00, 196.13)" onmouseout="hideTooltip()"/><circle id="point-write-30" cx="300.00" cy="127.29" r="5" fill="#1cc88a" opacity="0" onmouseover="showTooltip(evt, 'write', '12.1', '00:31:50', 300.00, 127.29)" onmouseout="hideTooltip()"/><circle id="point-write-31" cx="310.00" cy="152.38" r="5" fill="#1cc88a" opacity="0" onmouseover="showTooltip(evt, 'write', '10.4', '00:33:00', 310.00, 152.38)" onmouseout="hideTooltip()"/><circle id="point-write-32" cx="320.00" cy="108.35" r="5" fill="#1cc88a" opacity="0" onmouseover="showTooltip(evt, 'write', '13.4', '00:34:10', 320.00, 108.35)" onmouseout="hideTooltip()"/><circle id="point-write-33" cx="330.00" cy="158.72" r="5" fill="#1cc88a" opacity="0" onmouseover="showTooltip(evt, 'write', '9.9', '00:35:20', 330.00, 158.72)" onmouseout="hideTooltip()"/><circle id="point-write-34" cx="340.00" cy="187.33" r="5" fill="#1cc88a" opacity="0" onmouseover="showTooltip(evt, 'write', '7.9', '00:36:30', 340.00, 187.33)" onmouseout="hideTooltip()"/><circle id="point-write-35" cx="350.00" cy="162.46" r="5" fill="#1cc88a" opacity="0" onmouseover="showTooltip(evt, 'write', '9.6', '00:37:40', 350.00, 162.46)" onmouseout="hideTooltip()"/><circle id="point-write-36" cx="360.00" cy="164.64" r="5" fill="#1cc88a" opacity="0" onmouseover="showTooltip(evt, 'write', '9.5', '00:38:50', 360.00, 164.64)" onmouseout="hideTooltip()"/><circle id="point-write-37" cx="370.00" cy="164.87" r="5" fill="#1cc88a" opacity="0" onmouseover="showTooltip(evt, 'write', '9.5', '00:40:00', 370.00, 164.87)" onmouseout="hideTooltip()"/><circle id="point-write-38" cx="380.00" cy="136.21" r="5" fill="#1cc88a" opacity="0" onmouseover="showTooltip(evt, 'write', '11.5', '00:41:10', 380.00, 136.21)" onmouseout="hideTooltip()"/><circle id="point-write-39" cx="390.00" cy="156.46" r="5" fill="#1cc88a" opacity="0" onmouseover="showTooltip(evt, 'write', '10.1', '00:42:20', 390.00, 156.46)" onmouseout="hideTooltip()"/><circle id="point-write-40" cx="400.00" cy="150.47" r="5" fill="#1cc88a" opacity="0" onmouseover="showTooltip(evt, 'write', '10.5', '00:43:30', 400.00, 150.47)" onmouseout="hideTooltip()"/><circle id="point-write-41" cx="410.00" cy="142.93" r="5" fill="#1cc88a" opacity="0" onmouseover="showTooltip(evt, 'write', '11.0', '00:44:40', 410.00, 142.93)" onmouseout="hideTooltip()"/><circle id="point-write-42" cx="420.00" cy="171.59" r="5" fill="#1cc88a" opacity="0" onmouseover="showTooltip(evt, 'write', '9.0', '00:45:50', 420.00, 171.59)" onmouseout="hideTooltip()"/><circle id="point-write-43" cx="430.00" cy="184.32" r="5" fill="#1cc88a" opacity="0" onmouseover="showTooltip(evt, 'write', '8.1', '00:47:00', 430.00, 184.32)" onmouseout="hideTooltip()"/><circle id="point-write-44" cx="440.00" cy="177.60" r="5" fill="#1cc88a" opacity="0" onmouseover="showTooltip(evt, 'write', '8.6', '00:48:10', 440.00, 177.60)" onmouseout="hideTooltip()"/><circle id="point-write-45" cx="450.00" cy="171.89" r="5" fill="#1cc88a" opacity="0" onmouseover="showTooltip(evt, 'write', '9.0', '00:49:20', 450.00, 171.89)" onmouseout="hideTooltip()"/><circle id="point-write-46" cx="460.00" cy="137.07" r="5" fill="#1cc88a" opacity="0" onmouseover="showTooltip(evt, 'write', '11.4', '00:50:30', 460.00, 137.07)" onmouseout="hideTooltip()"/><circle id="point-write-47" cx="470.00" cy="181.45" r="5" fill="#1cc88a" opacity="0" onmouseover="showTooltip(evt, 'write', '8.3', '00:51:40', 470.00, 181.45)" onmouseout="hideTooltip()"/><circle id="point-write-48" cx="480.00" cy="70.86" r="5" fill="#1cc88a" opacity="0" onmouseover="showTooltip(evt, 'write', '16.1', '00:52:50', 480.00, 70.86)" onmouseout="hideTooltip()"/><circle id="point-write-49" cx="490.00" cy="234.22" r="5" fill="#1cc88a" opacity="0" onmouseover="showTooltip(evt, 'write', '4.6', '00:54:00', 490.00, 234.22)" onmouseout="hideTooltip()"/><circle id="point-write-50" cx="500.00" cy="81.43" r="5" fill="#1cc88a" opacity="0" onmouseover="showTooltip(evt, 'write', '15.3', '00:55:10', 500.00, 81.43)" onmouseout="hideTooltip()"/><circle id="point-write-51" cx="510.00" cy="250.63" r="5" fill="#1cc88a" opacity="0" onmouseover="showTooltip(evt, 'write', '3.5', '00:56:20', 510.00, 250.63)" onmouseout="hideTooltip()"/></g><g id="tooltip" visibility="hidden"><rect x="0" y="0" width="150" height="40" fill="#333" opacity="0.8" rx="5"/><text x="5" y="15" font-size="10" fill="#fff" id="tooltip-series"></text><text x="5" y="30" font-size="10" fill="#fff" id="tooltip-value"></text></g><script><![CDATA[function showTooltip(evt, series, value, time, x, y) {  var tooltip = document.getElementById("tooltip");  var seriesText = document.getElementById("tooltip-series");  var valueText = document.getElementById("tooltip-value");  seriesText.textContent = "Series: " + series;  valueText.textContent = value + " at " + time;  tooltip.setAttribute("transform", "translate(" + (x + 10) + "," + (y - 50) + ")");  tooltip.setAttribute("visibility", "visible");  evt.target.setAttribute("r", "7");  evt.target.setAttribute("opacity", "1");}function hideTooltip() {  var tooltip = document.getElementById("tooltip");  tooltip.setAttribute("visibility", "hidden");  var circles = document.getElementsByTagName("circle");  for (var i = 0; i < circles.length; i++) {    circles[i].setAttribute("r", "5");    circles[i].setAttribute("opacity", "0");  }}]]></script><text x="300" y="20" text-anchor="middle" font-size="16" fill="#333">Disk Operations for sdc</text><text x="10" y="200" text-anchor="middle" transform="rotate(-90,10,200)" font-size="12" fill="#666">Operations/s</text><g font-size="12"><circle cx="20" cy="375" r="5" fill="#4e73df"/><text x="30" y="380" fill="#333">read: 0.0 at 00:56:20</text><circle cx="240" cy="375" r="5" fill="#1cc88a"/><text x="250" y="380" fill="#333">write: 3.5 at 00:56:20</text></g></svg>