<svg width="600" height="400" xmlns="http://www.w3.org/2000/svg" style="font-family: Arial, sans-serif;"><rect width="600" height="400" fill="#ffffff"/><g transform="translate(60,30)"><rect width="510" height="300" fill="#f8f9fc" stroke="#ddd"/><g stroke-width="1"><line x1="0" y1="300" x2="510" y2="300" stroke="#eee" /><text x="-5" y="304" text-anchor="end" font-size="10" fill="#666">0.0</text><line x1="0" y1="240" x2="510" y2="240" stroke="#eee" /><text x="-5" y="244" text-anchor="end" font-size="10" fill="#666">6.4</text><line x1="0" y1="180" x2="510" y2="180" stroke="#eee" /><text x="-5" y="184" text-anchor="end" font-size="10" fill="#666">12.7</text><line x1="0" y1="120" x2="510" y2="120" stroke="#eee" /><text x="-5" y="124" text-anchor="end" font-size="10" fill="#666">19.1</text><line x1="0" y1="59.999999999999986" x2="510" y2="59.999999999999986" stroke="#eee" /><text x="-5" y="63.999999999999986" text-anchor="end" font-size="10" fill="#666">25.5</text><line x1="0" y1="0" x2="510" y2="0" stroke="#eee" /><text x="-5" y="4" text-anchor="end" font-size="10" fill="#666">31.9</text></g><g stroke-width="1"><line x1="0" y1="0" x2="0" y2="300" stroke="#eee"/><text x="0" y="320" text-anchor="middle" font-size="10" fill="#666">20:10:20</text><line x1="102" y1="0" x2="102" y2="300" stroke="#eee"/><text x="102" y="320" text-anchor="middle" font-size="10" fill="#666">20:22:08</text><line x1="204" y1="0" x2="204" y2="300" stroke="#eee"/><text x="204" y="320" text-anchor="middle" font-size="10" fill="#666">20:33:56</text><line x1="306" y1="0" x2="306" y2="300" stroke="#eee"/><text x="306" y="320" text-anchor="middle" font-size="10" fill="#666">20:45:44</text><line x1="408" y1="0" x2="408" y2="300" stroke="#eee"/><text x="408" y="320" text-anchor="middle" font-size="10" fill="#666">20:57:32</text><line x1="510" y1="0" x2="510" y2="300" stroke="#eee"/><text x="510" y="320" text-anchor="middle" font-size="10" fill="#666">21:09:20</text></g><path d="M0.00,300.00 L1.44,299.71 L2.88,299.35 L4.32,300.00 L5.76,300.00 L7.20,300.00 L8.64,299.62 L10.08,299.44 L11.53,299.25 L12.97,298.49 L14.41,299.44 L15.85,300.00 L17.29,300.00 L18.73,300.00 L20.17,300.00 L21.61,300.00 L23.05,300.00 L24.49,300.00 L25.93,300.00 L27.37,299.62 L28.81,299.44 L30.25,299.71 L31.69,299.35 L33.14,300.00 L34.58,300.00 L36.02,300.00 L37.46,300.00 L38.90,300.00 L40.34,300.00 L41.78,299.62 L43.22,299.44 L44.66,300.00 L46.10,300.00 L47.54,300.00 L48.98,300.00 L50.42,300.00 L51.86,300.00 L53.31,300.00 L54.75,300.00 L56.19,300.00 L57.63,300.00 L59.07,300.00 L60.51,299.87 L61.95,299.19 L63.39,300.00 L64.83,299.62 L66.27,299.44 L67.71,300.00 L69.15,300.00 L70.59,300.00 L72.03,300.00 L73.47,300.00 L74.92,300.00 L76.36,300.00 L77.80,299.62 L79.24,299.44 L80.68,300.00 L82.12,300.00 L83.56,300.00 L85.00,299.25 L86.44,298.87 L87.88,300.00 L89.32,300.00 L90.76,300.00 L92.20,300.00 L93.64,299.62 L95.08,299.44 L96.53,300.00 L97.97,300.00 L99.41,300.00 L100.85,300.00 L102.29,300.00 L103.73,299.73 L105.17,298.39 L106.61,300.00 L108.05,300.00 L109.49,300.00 L110.93,300.00 L112.37,300.00 L113.81,300.00 L115.25,300.00 L116.69,300.00 L118.14,300.00 L119.58,300.00 L121.02,300.00 L122.46,299.62 L123.90,299.06 L125.34,299.44 L126.78,300.00 L128.22,300.00 L129.66,300.00 L131.10,300.00 L132.54,300.00 L133.98,300.00 L135.42,300.00 L136.86,300.00 L138.31,300.00 L139.75,300.00 L141.19,300.00 L142.63,300.00 L144.07,299.25 L145.51,298.87 L146.95,300.00 L148.39,300.00 L149.83,300.00 L151.27,298.87 L152.71,298.31 L154.15,300.00 L155.59,300.00 L157.03,300.00 L158.47,300.00 L159.92,300.00 L161.36,299.87 L162.80,299.19 L164.24,299.62 L165.68,299.44 L167.12,300.00 L168.56,300.00 L170.00,300.00 L171.44,300.00 L172.88,300.00 L174.32,300.00 L175.76,300.00 L177.20,300.00 L178.64,300.00 L180.08,300.00 L181.53,299.62 L182.97,299.44 L184.41,300.00 L185.85,300.00 L187.29,300.00 L188.73,300.00 L190.17,300.00 L191.61,300.00 L193.05,300.00 L194.49,300.00 L195.93,300.00 L197.37,300.00 L198.81,300.00 L200.25,300.00 L201.69,299.62 L203.14,299.44 L204.58,299.87 L206.02,299.19 L207.46,300.00 L208.90,300.00 L210.34,300.00 L211.78,300.00 L213.22,300.00 L214.66,300.00 L216.10,300.00 L217.54,300.00 L218.98,300.00 L220.42,300.00 L221.86,300.00 L223.31,300.00 L224.75,300.00 L226.19,300.00 L227.63,299.62 L229.07,299.44 L230.51,300.00 L231.95,300.00 L233.39,300.00 L234.83,299.62 L236.27,299.44 L237.71,300.00 L239.15,300.00 L240.59,300.00 L242.03,300.00 L243.47,300.00 L244.92,300.00 L246.36,300.00 L247.80,300.00 L249.24,300.00 L250.68,300.00 L252.12,300.00 L253.56,300.00 L255.00,300.00 L256.44,300.00 L257.88,300.00 L259.32,300.00 L260.76,300.00 L262.20,300.00 L263.64,300.00 L265.08,300.00 L266.53,300.00 L267.97,299.62 L269.41,299.44 L270.85,300.00 L272.29,300.00 L273.73,299.62 L275.17,299.44 L276.61,299.87 L278.05,299.19 L279.49,300.00 L280.93,300.00 L282.37,300.00 L283.81,299.62 L285.25,299.44 L286.69,300.00 L288.14,300.00 L289.58,300.00 L291.02,300.00 L292.46,300.00 L293.90,300.00 L295.34,299.62 L296.78,299.44 L298.22,300.00 L299.66,300.00 L301.10,300.00 L302.54,300.00 L303.98,300.00 L305.42,300.00 L306.86,300.00 L308.31,300.00 L309.75,300.00 L311.19,300.00 L312.63,300.00 L314.07,299.62 L315.51,299.44 L316.95,300.00 L318.39,300.00 L319.83,300.00 L321.27,300.00 L322.71,300.00 L324.15,300.00 L325.59,300.00 L327.03,300.00 L328.47,300.00 L329.92,300.00 L331.36,300.00 L332.80,299.71 L334.24,299.35 L335.68,300.00 L337.12,300.00 L338.56,300.00 L340.00,300.00 L341.44,300.00 L342.88,300.00 L344.32,300.00 L345.76,300.00 L347.20,300.00 L348.64,300.00 L350.08,300.00 L351.53,300.00 L352.97,300.00 L354.41,300.00 L355.85,300.00 L357.29,300.00 L358.73,300.00 L360.17,300.00 L361.61,300.00 L363.05,300.00 L364.49,299.62 L365.93,299.44 L367.37,300.00 L368.81,300.00 L370.25,300.00 L371.69,300.00 L373.14,300.00 L374.58,299.62 L376.02,299.44 L377.46,300.00 L378.90,300.00 L380.34,300.00 L381.78,300.00 L383.22,300.00 L384.66,300.00 L386.10,300.00 L387.54,300.00 L388.98,300.00 L390.42,300.00 L391.86,300.00 L393.31,300.00 L394.75,300.00 L396.19,300.00 L397.63,300.00 L399.07,300.00 L400.51,300.00 L401.95,300.00 L403.39,300.00 L404.83,299.71 L406.27,299.35 L407.71,300.00 L409.15,300.00 L410.59,300.00 L412.03,300.00 L413.47,300.00 L414.92,300.00 L416.36,300.00 L417.80,300.00 L419.24,300.00 L420.68,300.00 L422.12,300.00 L423.56,300.00 L425.00,300.00 L426.44,300.00 L427.88,300.00 L429.32,300.00 L430.76,299.62 L432.20,299.44 L433.64,300.00 L435.08,300.00 L436.53,300.00 L437.97,300.00 L439.41,300.00 L440.85,300.00 L442.29,299.62 L443.73,299.44 L445.17,300.00 L446.61,300.00 L448.05,300.00 L449.49,300.00 L450.93,300.00 L452.37,300.00 L453.81,299.62 L455.25,299.44 L456.69,300.00 L458.14,300.00 L459.58,300.00 L461.02,300.00 L462.46,300.00 L463.90,300.00 L465.34,299.62 L466.78,299.44 L468.22,300.00 L469.66,300.00 L471.10,299.62 L472.54,299.44 L473.98,300.00 L475.42,300.00 L476.86,300.00 L478.31,300.00 L479.75,300.00 L481.19,300.00 L482.63,300.00 L484.07,300.00 L485.51,299.62 L486.95,299.44 L488.39,300.00 L489.83,300.00 L491.27,300.00 L492.71,300.00 L494.15,300.00 L495.59,300.00 L497.03,300.00 L498.47,299.62 L499.92,299.44 L501.36,300.00 L502.80,300.00 L504.24,300.00 L505.68,300.00 L507.12,300.00 L508.56,300.00 L510.00,299.62" stroke="#4e73df" fill="none" stroke-width="2" stroke-linejoin="round"/><path d="M0.00,293.22 L1.44,292.64 L2.88,263.60 L4.32,84.92 L5.76,287.20 L7.20,197.60 L8.64,155.81 L10.08,203.43 L11.53,163.71 L12.97,260.47 L14.41,217.55 L15.85,262.15 L17.29,281.89 L18.73,197.65 L20.17,219.06 L21.61,181.22 L23.05,202.49 L24.49,96.70 L25.93,211.15 L27.37,256.33 L28.81,229.41 L30.25,256.24 L31.69,214.60 L33.14,236.59 L34.58,277.41 L36.02,272.52 L37.46,217.93 L38.90,170.30 L40.34,276.66 L41.78,297.36 L43.22,296.24 L44.66,260.38 L46.10,215.41 L47.54,173.66 L48.98,89.74 L50.42,260.85 L51.86,297.36 L53.31,296.24 L54.75,290.96 L56.19,288.33 L57.63,260.47 L59.07,236.27 L60.51,281.20 L61.95,236.27 L63.39,213.79 L64.83,272.52 L66.27,184.99 L67.71,169.93 L69.15,202.49 L70.59,184.42 L72.03,273.27 L73.47,252.00 L74.92,274.32 L76.36,262.62 L77.80,244.85 L79.24,227.34 L80.68,192.89 L82.12,281.55 L83.56,274.96 L85.00,291.72 L86.44,199.67 L87.88,164.44 L89.32,247.64 L90.76,0.00 L92.20,295.86 L93.64,267.06 L95.08,253.32 L96.53,286.45 L97.97,282.31 L99.41,237.50 L100.85,200.80 L102.29,288.11 L103.73,275.21 L105.17,165.38 L106.61,293.98 L108.05,292.85 L109.49,196.47 L110.93,115.71 L112.37,250.68 L113.81,232.99 L115.25,199.29 L116.69,296.02 L118.14,296.18 L119.58,291.23 L121.02,261.22 L122.46,243.34 L123.90,234.30 L125.34,202.30 L126.78,294.16 L128.22,189.69 L129.66,134.73 L131.10,296.29 L132.54,296.47 L133.98,272.41 L135.42,249.74 L136.86,281.55 L138.31,234.87 L139.75,204.19 L141.19,296.61 L142.63,229.41 L144.07,195.15 L145.51,290.50 L146.95,283.44 L148.39,173.77 L149.83,108.18 L151.27,291.15 L152.71,255.20 L154.15,234.68 L155.59,288.71 L157.03,284.94 L158.47,219.06 L159.92,180.53 L161.36,296.47 L162.80,205.77 L164.24,159.57 L165.68,290.59 L167.12,287.76 L168.56,238.26 L170.00,154.30 L171.44,213.79 L172.88,281.55 L174.32,274.56 L175.76,281.26 L177.20,182.86 L178.64,268.00 L180.08,280.05 L181.53,271.95 L182.97,244.66 L184.41,219.62 L185.85,261.60 L187.29,186.12 L188.73,211.87 L190.17,283.54 L191.61,215.40 L193.05,287.95 L194.49,242.40 L195.93,234.12 L197.37,272.14 L198.81,260.85 L200.25,291.72 L201.69,236.56 L203.14,219.78 L204.58,277.76 L206.02,180.71 L207.46,210.40 L208.90,167.48 L210.34,236.75 L211.78,194.96 L213.22,278.92 L214.66,284.19 L216.10,276.47 L217.54,296.58 L218.98,297.12 L220.42,296.88 L221.86,218.30 L223.31,179.34 L224.75,159.20 L226.19,90.68 L227.63,288.33 L229.07,284.38 L230.51,175.01 L231.95,106.06 L233.39,277.58 L234.83,233.63 L236.27,201.36 L237.71,254.82 L239.15,234.12 L240.59,236.75 L242.03,207.76 L243.47,297.36 L244.92,296.24 L246.36,296.58 L247.80,285.43 L249.24,155.92 L250.68,190.07 L252.12,278.92 L253.56,270.26 L255.00,244.28 L256.44,219.06 L257.88,202.87 L259.32,136.04 L260.76,268.91 L262.20,287.98 L263.64,242.02 L265.08,277.41 L266.53,268.00 L267.97,225.46 L269.41,190.07 L270.85,284.56 L272.29,210.59 L273.73,194.02 L275.17,278.34 L276.61,256.07 L278.05,167.37 L279.49,101.97 L280.93,262.73 L282.37,245.98 L283.81,255.20 L285.25,219.62 L286.69,273.65 L288.14,204.37 L289.58,158.79 L291.02,272.25 L292.46,129.19 L293.90,268.56 L295.34,165.97 L296.78,100.84 L298.22,275.53 L299.66,265.93 L301.10,272.89 L302.54,259.53 L303.98,273.41 L305.42,225.37 L306.86,179.10 L308.31,274.02 L309.75,262.92 L311.19,246.16 L312.63,221.13 L314.07,258.21 L315.51,239.20 L316.95,228.09 L318.39,180.47 L319.83,265.85 L321.27,269.02 L322.71,254.45 L324.15,296.24 L325.59,296.24 L327.03,296.24 L328.47,252.94 L329.92,231.29 L331.36,252.19 L332.80,230.51 L334.24,296.99 L335.68,242.99 L337.12,216.61 L338.56,200.23 L340.00,152.23 L341.44,271.39 L342.88,259.72 L344.32,228.09 L345.76,170.87 L347.20,264.39 L348.64,281.53 L350.08,203.30 L351.53,278.92 L352.97,270.26 L354.41,204.37 L355.85,158.82 L357.29,296.80 L358.73,296.24 L360.17,296.24 L361.61,278.92 L363.05,257.38 L364.49,288.22 L365.93,264.80 L367.37,269.32 L368.81,138.49 L370.25,57.92 L371.69,296.24 L373.14,296.24 L374.58,296.24 L376.02,253.43 L377.46,200.04 L378.90,189.21 L380.34,134.35 L381.78,296.42 L383.22,278.16 L384.66,267.43 L386.10,283.06 L387.54,276.47 L388.98,231.10 L390.42,163.84 L391.86,218.28 L393.31,229.11 L394.75,194.59 L396.19,236.00 L397.63,205.88 L399.07,273.65 L400.51,262.35 L401.95,225.83 L403.39,188.75 L404.83,293.76 L406.27,297.12 L407.71,296.88 L409.15,267.25 L410.59,217.74 L412.03,243.72 L413.47,296.24 L414.92,296.99 L416.36,224.33 L417.80,181.41 L419.24,288.68 L420.68,278.97 L422.12,187.97 L423.56,296.24 L425.00,296.24 L426.44,210.40 L427.88,158.44 L429.32,283.43 L430.76,260.47 L432.20,240.89 L433.64,172.92 L435.08,18.89 L436.53,296.88 L437.97,296.24 L439.41,296.24 L440.85,268.38 L442.29,254.45 L443.73,296.99 L445.17,203.62 L446.61,155.62 L448.05,271.97 L449.49,241.74 L450.93,262.62 L452.37,202.68 L453.81,232.99 L455.25,228.09 L456.69,194.02 L458.14,208.14 L459.58,164.09 L461.02,296.24 L462.46,296.58 L463.90,297.12 L465.34,227.98 L466.78,192.89 L468.22,296.24 L469.66,258.59 L471.10,239.76 L472.54,240.14 L473.98,212.09 L475.42,210.02 L476.86,163.79 L478.31,289.04 L479.75,217.34 L481.19,179.34 L482.63,244.66 L484.07,218.87 L485.51,279.67 L486.95,272.14 L488.39,240.52 L489.83,191.39 L491.27,267.22 L492.71,271.85 L494.15,145.21 L495.59,296.24 L497.03,296.99 L498.47,219.06 L499.92,155.43 L501.36,261.98 L502.80,242.40 L504.24,211.15 L505.68,289.15 L507.12,288.36 L508.56,182.05 L510.00,118.16" stroke="#1cc88a" fill="none" stroke-width="2" stroke-linejoin="round"/></g><text x="300" y="20" text-anchor="middle" font-size="16" fill="#333">Disk Operations for sdc</text><text x="10" y="200" text-anchor="middle" transform="rotate(-90,10,200)" font-size="12" fill="#666">Operations/s</text><g font-size="12"><circle cx="20" cy="375" r="5" fill="#4e73df"/><text x="30" y="380" fill="#333">read: 0.0 at 21:09:20</text><circle cx="240" cy="375" r="5" fill="#1cc88a"/><text x="250" y="380" fill="#333">write: 19.3 at 21:09:20</text></g></svg>