<svg width="600" height="400" xmlns="http://www.w3.org/2000/svg" style="font-family: Arial, sans-serif;"><rect width="600" height="400" fill="#ffffff"/><g transform="translate(60,30)"><rect width="510" height="300" fill="#f8f9fc" stroke="#ddd"/><g stroke-width="1"><line x1="0" y1="300" x2="510" y2="300" stroke="#eee" /><text x="-5" y="304" text-anchor="end" font-size="10" fill="#666">0.0</text><line x1="0" y1="240" x2="510" y2="240" stroke="#eee" /><text x="-5" y="244" text-anchor="end" font-size="10" fill="#666">6.2</text><line x1="0" y1="180" x2="510" y2="180" stroke="#eee" /><text x="-5" y="184" text-anchor="end" font-size="10" fill="#666">12.3</text><line x1="0" y1="120" x2="510" y2="120" stroke="#eee" /><text x="-5" y="124" text-anchor="end" font-size="10" fill="#666">18.4</text><line x1="0" y1="59.999999999999986" x2="510" y2="59.999999999999986" stroke="#eee" /><text x="-5" y="63.999999999999986" text-anchor="end" font-size="10" fill="#666">24.6</text><line x1="0" y1="0" x2="510" y2="0" stroke="#eee" /><text x="-5" y="4" text-anchor="end" font-size="10" fill="#666">30.7</text></g><g stroke-width="1"><line x1="0" y1="0" x2="0" y2="300" stroke="#eee"/><text x="0" y="320" text-anchor="middle" font-size="10" fill="#666">22:19:40</text><line x1="102" y1="0" x2="102" y2="300" stroke="#eee"/><text x="102" y="320" text-anchor="middle" font-size="10" fill="#666">22:31:20</text><line x1="204" y1="0" x2="204" y2="300" stroke="#eee"/><text x="204" y="320" text-anchor="middle" font-size="10" fill="#666">22:43:00</text><line x1="306" y1="0" x2="306" y2="300" stroke="#eee"/><text x="306" y="320" text-anchor="middle" font-size="10" fill="#666">22:54:40</text><line x1="408" y1="0" x2="408" y2="300" stroke="#eee"/><text x="408" y="320" text-anchor="middle" font-size="10" fill="#666">23:06:20</text><line x1="510" y1="0" x2="510" y2="300" stroke="#eee"/><text x="510" y="320" text-anchor="middle" font-size="10" fill="#666">23:18:00</text></g><path d="M0.00,224.80 L10.20,289.81 L20.40,266.38 L30.60,297.10 L40.80,298.21 L51.00,299.19 L61.20,298.77 L71.40,298.63 L81.60,297.79 L91.80,297.79 L102.00,296.92 L112.20,298.25 L122.40,297.85 L132.60,298.44 L142.80,298.24 L153.00,298.60 L163.20,298.77 L173.40,297.51 L183.60,298.35 L193.80,298.91 L204.00,298.35 L214.20,299.33 L224.40,299.47 L234.60,298.66 L244.80,115.99 L255.00,297.24 L265.20,298.63 L275.40,297.51 L285.60,298.97 L295.80,298.91 L306.00,296.34 L316.20,299.52 L326.40,299.28 L336.60,296.57 L346.80,299.16 L357.00,290.73 L367.20,298.30 L377.40,297.28 L387.60,299.70 L397.80,299.22 L408.00,299.44 L418.20,299.50 L428.40,300.00 L438.60,298.52 L448.80,299.19 L459.00,299.75 L469.20,298.05 L479.40,299.33 L489.60,299.08 L499.80,299.33 L510.00,299.19" stroke="#4e73df" fill="none" stroke-width="2" stroke-linejoin="round"/><circle id="point-read-0" cx="0.00" cy="224.80" r="5" fill="#4e73df" opacity="0" onmouseover="showTooltip(evt, 'read', '7.7', '22:19:40', 0.00, 224.80)" onmouseout="hideTooltip()"/><circle id="point-read-1" cx="10.20" cy="289.81" r="5" fill="#4e73df" opacity="0" onmouseover="showTooltip(evt, 'read', '1.1', '22:20:50', 10.20, 289.81)" onmouseout="hideTooltip()"/><circle id="point-read-2" cx="20.40" cy="266.38" r="5" fill="#4e73df" opacity="0" onmouseover="showTooltip(evt, 'read', '3.5', '22:22:00', 20.40, 266.38)" onmouseout="hideTooltip()"/><circle id="point-read-3" cx="30.60" cy="297.10" r="5" fill="#4e73df" opacity="0" onmouseover="showTooltip(evt, 'read', '0.3', '22:23:10', 30.60, 297.10)" onmouseout="hideTooltip()"/><circle id="point-read-4" cx="40.80" cy="298.21" r="5" fill="#4e73df" opacity="0" onmouseover="showTooltip(evt, 'read', '0.2', '22:24:20', 40.80, 298.21)" onmouseout="hideTooltip()"/><circle id="point-read-5" cx="51.00" cy="299.19" r="5" fill="#4e73df" opacity="0" onmouseover="showTooltip(evt, 'read', '0.1', '22:25:30', 51.00, 299.19)" onmouseout="hideTooltip()"/><circle id="point-read-6" cx="61.20" cy="298.77" r="5" fill="#4e73df" opacity="0" onmouseover="showTooltip(evt, 'read', '0.1', '22:26:40', 61.20, 298.77)" onmouseout="hideTooltip()"/><circle id="point-read-7" cx="71.40" cy="298.63" r="5" fill="#4e73df" opacity="0" onmouseover="showTooltip(evt, 'read', '0.2', '22:27:50', 71.40, 298.63)" onmouseout="hideTooltip()"/><circle id="point-read-8" cx="81.60" cy="297.79" r="5" fill="#4e73df" opacity="0" onmouseover="showTooltip(evt, 'read', '0.2', '22:29:00', 81.60, 297.79)" onmouseout="hideTooltip()"/><circle id="point-read-9" cx="91.80" cy="297.79" r="5" fill="#4e73df" opacity="0" onmouseover="showTooltip(evt, 'read', '0.2', '22:30:10', 91.80, 297.79)" onmouseout="hideTooltip()"/><circle id="point-read-10" cx="102.00" cy="296.92" r="5" fill="#4e73df" opacity="0" onmouseover="showTooltip(evt, 'read', '0.3', '22:31:20', 102.00, 296.92)" onmouseout="hideTooltip()"/><circle id="point-read-11" cx="112.20" cy="298.25" r="5" fill="#4e73df" opacity="0" onmouseover="showTooltip(evt, 'read', '0.2', '22:32:30', 112.20, 298.25)" onmouseout="hideTooltip()"/><circle id="point-read-12" cx="122.40" cy="297.85" r="5" fill="#4e73df" opacity="0" onmouseover="showTooltip(evt, 'read', '0.2', '22:33:40', 122.40, 297.85)" onmouseout="hideTooltip()"/><circle id="point-read-13" cx="132.60" cy="298.44" r="5" fill="#4e73df" opacity="0" onmouseover="showTooltip(evt, 'read', '0.2', '22:34:50', 132.60, 298.44)" onmouseout="hideTooltip()"/><circle id="point-read-14" cx="142.80" cy="298.24" r="5" fill="#4e73df" opacity="0" onmouseover="showTooltip(evt, 'read', '0.2', '22:36:00', 142.80, 298.24)" onmouseout="hideTooltip()"/><circle id="point-read-15" cx="153.00" cy="298.60" r="5" fill="#4e73df" opacity="0" onmouseover="showTooltip(evt, 'read', '0.2', '22:37:10', 153.00, 298.60)" onmouseout="hideTooltip()"/><circle id="point-read-16" cx="163.20" cy="298.77" r="5" fill="#4e73df" opacity="0" onmouseover="showTooltip(evt, 'read', '0.1', '22:38:20', 163.20, 298.77)" onmouseout="hideTooltip()"/><circle id="point-read-17" cx="173.40" cy="297.51" r="5" fill="#4e73df" opacity="0" onmouseover="showTooltip(evt, 'read', '0.3', '22:39:30', 173.40, 297.51)" onmouseout="hideTooltip()"/><circle id="point-read-18" cx="183.60" cy="298.35" r="5" fill="#4e73df" opacity="0" onmouseover="showTooltip(evt, 'read', '0.2', '22:40:40', 183.60, 298.35)" onmouseout="hideTooltip()"/><circle id="point-read-19" cx="193.80" cy="298.91" r="5" fill="#4e73df" opacity="0" onmouseover="showTooltip(evt, 'read', '0.1', '22:41:50', 193.80, 298.91)" onmouseout="hideTooltip()"/><circle id="point-read-20" cx="204.00" cy="298.35" r="5" fill="#4e73df" opacity="0" onmouseover="showTooltip(evt, 'read', '0.2', '22:43:00', 204.00, 298.35)" onmouseout="hideTooltip()"/><circle id="point-read-21" cx="214.20" cy="299.33" r="5" fill="#4e73df" opacity="0" onmouseover="showTooltip(evt, 'read', '0.1', '22:44:10', 214.20, 299.33)" onmouseout="hideTooltip()"/><circle id="point-read-22" cx="224.40" cy="299.47" r="5" fill="#4e73df" opacity="0" onmouseover="showTooltip(evt, 'read', '0.1', '22:45:20', 224.40, 299.47)" onmouseout="hideTooltip()"/><circle id="point-read-23" cx="234.60" cy="298.66" r="5" fill="#4e73df" opacity="0" onmouseover="showTooltip(evt, 'read', '0.2', '22:46:30', 234.60, 298.66)" onmouseout="hideTooltip()"/><circle id="point-read-24" cx="244.80" cy="115.99" r="5" fill="#4e73df" opacity="0" onmouseover="showTooltip(evt, 'read', '18.8', '22:47:40', 244.80, 115.99)" onmouseout="hideTooltip()"/><circle id="point-read-25" cx="255.00" cy="297.24" r="5" fill="#4e73df" opacity="0" onmouseover="showTooltip(evt, 'read', '0.3', '22:48:50', 255.00, 297.24)" onmouseout="hideTooltip()"/><circle id="point-read-26" cx="265.20" cy="298.63" r="5" fill="#4e73df" opacity="0" onmouseover="showTooltip(evt, 'read', '0.2', '22:50:00', 265.20, 298.63)" onmouseout="hideTooltip()"/><circle id="point-read-27" cx="275.40" cy="297.51" r="5" fill="#4e73df" opacity="0" onmouseover="showTooltip(evt, 'read', '0.3', '22:51:10', 275.40, 297.51)" onmouseout="hideTooltip()"/><circle id="point-read-28" cx="285.60" cy="298.97" r="5" fill="#4e73df" opacity="0" onmouseover="showTooltip(evt, 'read', '0.1', '22:52:20', 285.60, 298.97)" onmouseout="hideTooltip()"/><circle id="point-read-29" cx="295.80" cy="298.91" r="5" fill="#4e73df" opacity="0" onmouseover="showTooltip(evt, 'read', '0.1', '22:53:30', 295.80, 298.91)" onmouseout="hideTooltip()"/><circle id="point-read-30" cx="306.00" cy="296.34" r="5" fill="#4e73df" opacity="0" onmouseover="showTooltip(evt, 'read', '0.4', '22:54:40', 306.00, 296.34)" onmouseout="hideTooltip()"/><circle id="point-read-31" cx="316.20" cy="299.52" r="5" fill="#4e73df" opacity="0" onmouseover="showTooltip(evt, 'read', '0.1', '22:55:50', 316.20, 299.52)" onmouseout="hideTooltip()"/><circle id="point-read-32" cx="326.40" cy="299.28" r="5" fill="#4e73df" opacity="0" onmouseover="showTooltip(evt, 'read', '0.1', '22:57:00', 326.40, 299.28)" onmouseout="hideTooltip()"/><circle id="point-read-33" cx="336.60" cy="296.57" r="5" fill="#4e73df" opacity="0" onmouseover="showTooltip(evt, 'read', '0.4', '22:58:10', 336.60, 296.57)" onmouseout="hideTooltip()"/><circle id="point-read-34" cx="346.80" cy="299.16" r="5" fill="#4e73df" opacity="0" onmouseover="showTooltip(evt, 'read', '0.1', '22:59:20', 346.80, 299.16)" onmouseout="hideTooltip()"/><circle id="point-read-35" cx="357.00" cy="290.73" r="5" fill="#4e73df" opacity="0" onmouseover="showTooltip(evt, 'read', '1.0', '23:00:30', 357.00, 290.73)" onmouseout="hideTooltip()"/><circle id="point-read-36" cx="367.20" cy="298.30" r="5" fill="#4e73df" opacity="0" onmouseover="showTooltip(evt, 'read', '0.2', '23:01:40', 367.20, 298.30)" onmouseout="hideTooltip()"/><circle id="point-read-37" cx="377.40" cy="297.28" r="5" fill="#4e73df" opacity="0" onmouseover="showTooltip(evt, 'read', '0.3', '23:02:50', 377.40, 297.28)" onmouseout="hideTooltip()"/><circle id="point-read-38" cx="387.60" cy="299.70" r="5" fill="#4e73df" opacity="0" onmouseover="showTooltip(evt, 'read', '0.0', '23:04:00', 387.60, 299.70)" onmouseout="hideTooltip()"/><circle id="point-read-39" cx="397.80" cy="299.22" r="5" fill="#4e73df" opacity="0" onmouseover="showTooltip(evt, 'read', '0.1', '23:05:10', 397.80, 299.22)" onmouseout="hideTooltip()"/><circle id="point-read-40" cx="408.00" cy="299.44" r="5" fill="#4e73df" opacity="0" onmouseover="showTooltip(evt, 'read', '0.1', '23:06:20', 408.00, 299.44)" onmouseout="hideTooltip()"/><circle id="point-read-41" cx="418.20" cy="299.50" r="5" fill="#4e73df" opacity="0" onmouseover="showTooltip(evt, 'read', '0.1', '23:07:30', 418.20, 299.50)" onmouseout="hideTooltip()"/><circle id="point-read-42" cx="428.40" cy="300.00" r="5" fill="#4e73df" opacity="0" onmouseover="showTooltip(evt, 'read', '0.0', '23:08:40', 428.40, 300.00)" onmouseout="hideTooltip()"/><circle id="point-read-43" cx="438.60" cy="298.52" r="5" fill="#4e73df" opacity="0" onmouseover="showTooltip(evt, 'read', '0.2', '23:09:50', 438.60, 298.52)" onmouseout="hideTooltip()"/><circle id="point-read-44" cx="448.80" cy="299.19" r="5" fill="#4e73df" opacity="0" onmouseover="showTooltip(evt, 'read', '0.1', '23:11:00', 448.80, 299.19)" onmouseout="hideTooltip()"/><circle id="point-read-45" cx="459.00" cy="299.75" r="5" fill="#4e73df" opacity="0" onmouseover="showTooltip(evt, 'read', '0.0', '23:12:10', 459.00, 299.75)" onmouseout="hideTooltip()"/><circle id="point-read-46" cx="469.20" cy="298.05" r="5" fill="#4e73df" opacity="0" onmouseover="showTooltip(evt, 'read', '0.2', '23:13:20', 469.20, 298.05)" onmouseout="hideTooltip()"/><circle id="point-read-47" cx="479.40" cy="299.33" r="5" fill="#4e73df" opacity="0" onmouseover="showTooltip(evt, 'read', '0.1', '23:14:30', 479.40, 299.33)" onmouseout="hideTooltip()"/><circle id="point-read-48" cx="489.60" cy="299.08" r="5" fill="#4e73df" opacity="0" onmouseover="showTooltip(evt, 'read', '0.1', '23:15:40', 489.60, 299.08)" onmouseout="hideTooltip()"/><circle id="point-read-49" cx="499.80" cy="299.33" r="5" fill="#4e73df" opacity="0" onmouseover="showTooltip(evt, 'read', '0.1', '23:16:50', 499.80, 299.33)" onmouseout="hideTooltip()"/><circle id="point-read-50" cx="510.00" cy="299.19" r="5" fill="#4e73df" opacity="0" onmouseover="showTooltip(evt, 'read', '0.1', '23:18:00', 510.00, 299.19)" onmouseout="hideTooltip()"/><path d="M0.00,91.75 L10.20,110.74 L20.40,107.50 L30.60,95.80 L40.80,127.27 L51.00,75.59 L61.20,141.87 L71.40,82.06 L81.60,113.84 L91.80,112.00 L102.00,41.01 L112.20,82.74 L122.40,118.39 L132.60,90.33 L142.80,78.88 L153.00,92.42 L163.20,61.51 L173.40,127.24 L183.60,101.78 L193.80,83.35 L204.00,40.21 L214.20,141.19 L224.40,67.26 L234.60,102.00 L244.80,71.84 L255.00,123.81 L265.20,62.41 L275.40,75.31 L285.60,121.55 L295.80,129.78 L306.00,75.17 L316.20,125.64 L326.40,113.79 L336.60,0.00 L346.80,118.81 L357.00,101.25 L367.20,133.50 L377.40,119.07 L387.60,124.64 L397.80,56.96 L408.00,113.73 L418.20,104.32 L428.40,108.79 L438.60,107.08 L448.80,131.26 L459.00,84.72 L469.20,154.91 L479.40,104.91 L489.60,64.28 L499.80,92.23 L510.00,110.15" stroke="#1cc88a" fill="none" stroke-width="2" stroke-linejoin="round"/><circle id="point-write-0" cx="0.00" cy="91.75" r="5" fill="#1cc88a" opacity="0" onmouseover="showTooltip(evt, 'write', '21.3', '22:19:40', 0.00, 91.75)" onmouseout="hideTooltip()"/><circle id="point-write-1" cx="10.20" cy="110.74" r="5" fill="#1cc88a" opacity="0" onmouseover="showTooltip(evt, 'write', '19.4', '22:20:50', 10.20, 110.74)" onmouseout="hideTooltip()"/><circle id="point-write-2" cx="20.40" cy="107.50" r="5" fill="#1cc88a" opacity="0" onmouseover="showTooltip(evt, 'write', '19.7', '22:22:00', 20.40, 107.50)" onmouseout="hideTooltip()"/><circle id="point-write-3" cx="30.60" cy="95.80" r="5" fill="#1cc88a" opacity="0" onmouseover="showTooltip(evt, 'write', '20.9', '22:23:10', 30.60, 95.80)" onmouseout="hideTooltip()"/><circle id="point-write-4" cx="40.80" cy="127.27" r="5" fill="#1cc88a" opacity="0" onmouseover="showTooltip(evt, 'write', '17.7', '22:24:20', 40.80, 127.27)" onmouseout="hideTooltip()"/><circle id="point-write-5" cx="51.00" cy="75.59" r="5" fill="#1cc88a" opacity="0" onmouseover="showTooltip(evt, 'write', '23.0', '22:25:30', 51.00, 75.59)" onmouseout="hideTooltip()"/><circle id="point-write-6" cx="61.20" cy="141.87" r="5" fill="#1cc88a" opacity="0" onmouseover="showTooltip(evt, 'write', '16.2', '22:26:40', 61.20, 141.87)" onmouseout="hideTooltip()"/><circle id="point-write-7" cx="71.40" cy="82.06" r="5" fill="#1cc88a" opacity="0" onmouseover="showTooltip(evt, 'write', '22.3', '22:27:50', 71.40, 82.06)" onmouseout="hideTooltip()"/><circle id="point-write-8" cx="81.60" cy="113.84" r="5" fill="#1cc88a" opacity="0" onmouseover="showTooltip(evt, 'write', '19.1', '22:29:00', 81.60, 113.84)" onmouseout="hideTooltip()"/><circle id="point-write-9" cx="91.80" cy="112.00" r="5" fill="#1cc88a" opacity="0" onmouseover="showTooltip(evt, 'write', '19.3', '22:30:10', 91.80, 112.00)" onmouseout="hideTooltip()"/><circle id="point-write-10" cx="102.00" cy="41.01" r="5" fill="#1cc88a" opacity="0" onmouseover="showTooltip(evt, 'write', '26.5', '22:31:20', 102.00, 41.01)" onmouseout="hideTooltip()"/><circle id="point-write-11" cx="112.20" cy="82.74" r="5" fill="#1cc88a" opacity="0" onmouseover="showTooltip(evt, 'write', '22.2', '22:32:30', 112.20, 82.74)" onmouseout="hideTooltip()"/><circle id="point-write-12" cx="122.40" cy="118.39" r="5" fill="#1cc88a" opacity="0" onmouseover="showTooltip(evt, 'write', '18.6', '22:33:40', 122.40, 118.39)" onmouseout="hideTooltip()"/><circle id="point-write-13" cx="132.60" cy="90.33" r="5" fill="#1cc88a" opacity="0" onmouseover="showTooltip(evt, 'write', '21.5', '22:34:50', 132.60, 90.33)" onmouseout="hideTooltip()"/><circle id="point-write-14" cx="142.80" cy="78.88" r="5" fill="#1cc88a" opacity="0" onmouseover="showTooltip(evt, 'write', '22.6', '22:36:00', 142.80, 78.88)" onmouseout="hideTooltip()"/><circle id="point-write-15" cx="153.00" cy="92.42" r="5" fill="#1cc88a" opacity="0" onmouseover="showTooltip(evt, 'write', '21.3', '22:37:10', 153.00, 92.42)" onmouseout="hideTooltip()"/><circle id="point-write-16" cx="163.20" cy="61.51" r="5" fill="#1cc88a" opacity="0" onmouseover="showTooltip(evt, 'write', '24.4', '22:38:20', 163.20, 61.51)" onmouseout="hideTooltip()"/><circle id="point-write-17" cx="173.40" cy="127.24" r="5" fill="#1cc88a" opacity="0" onmouseover="showTooltip(evt, 'write', '17.7', '22:39:30', 173.40, 127.24)" onmouseout="hideTooltip()"/><circle id="point-write-18" cx="183.60" cy="101.78" r="5" fill="#1cc88a" opacity="0" onmouseover="showTooltip(evt, 'write', '20.3', '22:40:40', 183.60, 101.78)" onmouseout="hideTooltip()"/><circle id="point-write-19" cx="193.80" cy="83.35" r="5" fill="#1cc88a" opacity="0" onmouseover="showTooltip(evt, 'write', '22.2', '22:41:50', 193.80, 83.35)" onmouseout="hideTooltip()"/><circle id="point-write-20" cx="204.00" cy="40.21" r="5" fill="#1cc88a" opacity="0" onmouseover="showTooltip(evt, 'write', '26.6', '22:43:00', 204.00, 40.21)" onmouseout="hideTooltip()"/><circle id="point-write-21" cx="214.20" cy="141.19" r="5" fill="#1cc88a" opacity="0" onmouseover="showTooltip(evt, 'write', '16.3', '22:44:10', 214.20, 141.19)" onmouseout="hideTooltip()"/><circle id="point-write-22" cx="224.40" cy="67.26" r="5" fill="#1cc88a" opacity="0" onmouseover="showTooltip(evt, 'write', '23.8', '22:45:20', 224.40, 67.26)" onmouseout="hideTooltip()"/><circle id="point-write-23" cx="234.60" cy="102.00" r="5" fill="#1cc88a" opacity="0" onmouseover="showTooltip(evt, 'write', '20.3', '22:46:30', 234.60, 102.00)" onmouseout="hideTooltip()"/><circle id="point-write-24" cx="244.80" cy="71.84" r="5" fill="#1cc88a" opacity="0" onmouseover="showTooltip(evt, 'write', '23.4', '22:47:40', 244.80, 71.84)" onmouseout="hideTooltip()"/><circle id="point-write-25" cx="255.00" cy="123.81" r="5" fill="#1cc88a" opacity="0" onmouseover="showTooltip(evt, 'write', '18.0', '22:48:50', 255.00, 123.81)" onmouseout="hideTooltip()"/><circle id="point-write-26" cx="265.20" cy="62.41" r="5" fill="#1cc88a" opacity="0" onmouseover="showTooltip(evt, 'write', '24.3', '22:50:00', 265.20, 62.41)" onmouseout="hideTooltip()"/><circle id="point-write-27" cx="275.40" cy="75.31" r="5" fill="#1cc88a" opacity="0" onmouseover="showTooltip(evt, 'write', '23.0', '22:51:10', 275.40, 75.31)" onmouseout="hideTooltip()"/><circle id="point-write-28" cx="285.60" cy="121.55" r="5" fill="#1cc88a" opacity="0" onmouseover="showTooltip(evt, 'write', '18.3', '22:52:20', 285.60, 121.55)" onmouseout="hideTooltip()"/><circle id="point-write-29" cx="295.80" cy="129.78" r="5" fill="#1cc88a" opacity="0" onmouseover="showTooltip(evt, 'write', '17.4', '22:53:30', 295.80, 129.78)" onmouseout="hideTooltip()"/><circle id="point-write-30" cx="306.00" cy="75.17" r="5" fill="#1cc88a" opacity="0" onmouseover="showTooltip(evt, 'write', '23.0', '22:54:40', 306.00, 75.17)" onmouseout="hideTooltip()"/><circle id="point-write-31" cx="316.20" cy="125.64" r="5" fill="#1cc88a" opacity="0" onmouseover="showTooltip(evt, 'write', '17.9', '22:55:50', 316.20, 125.64)" onmouseout="hideTooltip()"/><circle id="point-write-32" cx="326.40" cy="113.79" r="5" fill="#1cc88a" opacity="0" onmouseover="showTooltip(evt, 'write', '19.1', '22:57:00', 326.40, 113.79)" onmouseout="hideTooltip()"/><circle id="point-write-33" cx="336.60" cy="0.00" r="5" fill="#1cc88a" opacity="0" onmouseover="showTooltip(evt, 'write', '30.7', '22:58:10', 336.60, 0.00)" onmouseout="hideTooltip()"/><circle id="point-write-34" cx="346.80" cy="118.81" r="5" fill="#1cc88a" opacity="0" onmouseover="showTooltip(evt, 'write', '18.6', '22:59:20', 346.80, 118.81)" onmouseout="hideTooltip()"/><circle id="point-write-35" cx="357.00" cy="101.25" r="5" fill="#1cc88a" opacity="0" onmouseover="showTooltip(evt, 'write', '20.4', '23:00:30', 357.00, 101.25)" onmouseout="hideTooltip()"/><circle id="point-write-36" cx="367.20" cy="133.50" r="5" fill="#1cc88a" opacity="0" onmouseover="showTooltip(evt, 'write', '17.1', '23:01:40', 367.20, 133.50)" onmouseout="hideTooltip()"/><circle id="point-write-37" cx="377.40" cy="119.07" r="5" fill="#1cc88a" opacity="0" onmouseover="showTooltip(evt, 'write', '18.5', '23:02:50', 377.40, 119.07)" onmouseout="hideTooltip()"/><circle id="point-write-38" cx="387.60" cy="124.64" r="5" fill="#1cc88a" opacity="0" onmouseover="showTooltip(evt, 'write', '18.0', '23:04:00', 387.60, 124.64)" onmouseout="hideTooltip()"/><circle id="point-write-39" cx="397.80" cy="56.96" r="5" fill="#1cc88a" opacity="0" onmouseover="showTooltip(evt, 'write', '24.9', '23:05:10', 397.80, 56.96)" onmouseout="hideTooltip()"/><circle id="point-write-40" cx="408.00" cy="113.73" r="5" fill="#1cc88a" opacity="0" onmouseover="showTooltip(evt, 'write', '19.1', '23:06:20', 408.00, 113.73)" onmouseout="hideTooltip()"/><circle id="point-write-41" cx="418.20" cy="104.32" r="5" fill="#1cc88a" opacity="0" onmouseover="showTooltip(evt, 'write', '20.0', '23:07:30', 418.20, 104.32)" onmouseout="hideTooltip()"/><circle id="point-write-42" cx="428.40" cy="108.79" r="5" fill="#1cc88a" opacity="0" onmouseover="showTooltip(evt, 'write', '19.6', '23:08:40', 428.40, 108.79)" onmouseout="hideTooltip()"/><circle id="point-write-43" cx="438.60" cy="107.08" r="5" fill="#1cc88a" opacity="0" onmouseover="showTooltip(evt, 'write', '19.8', '23:09:50', 438.60, 107.08)" onmouseout="hideTooltip()"/><circle id="point-write-44" cx="448.80" cy="131.26" r="5" fill="#1cc88a" opacity="0" onmouseover="showTooltip(evt, 'write', '17.3', '23:11:00', 448.80, 131.26)" onmouseout="hideTooltip()"/><circle id="point-write-45" cx="459.00" cy="84.72" r="5" fill="#1cc88a" opacity="0" onmouseover="showTooltip(evt, 'write', '22.0', '23:12:10', 459.00, 84.72)" onmouseout="hideTooltip()"/><circle id="point-write-46" cx="469.20" cy="154.91" r="5" fill="#1cc88a" opacity="0" onmouseover="showTooltip(evt, 'write', '14.9', '23:13:20', 469.20, 154.91)" onmouseout="hideTooltip()"/><circle id="point-write-47" cx="479.40" cy="104.91" r="5" fill="#1cc88a" opacity="0" onmouseover="showTooltip(evt, 'write', '20.0', '23:14:30', 479.40, 104.91)" onmouseout="hideTooltip()"/><circle id="point-write-48" cx="489.60" cy="64.28" r="5" fill="#1cc88a" opacity="0" onmouseover="showTooltip(evt, 'write', '24.1', '23:15:40', 489.60, 64.28)" onmouseout="hideTooltip()"/><circle id="point-write-49" cx="499.80" cy="92.23" r="5" fill="#1cc88a" opacity="0" onmouseover="showTooltip(evt, 'write', '21.3', '23:16:50', 499.80, 92.23)" onmouseout="hideTooltip()"/><circle id="point-write-50" cx="510.00" cy="110.15" r="5" fill="#1cc88a" opacity="0" onmouseover="showTooltip(evt, 'write', '19.4', '23:18:00', 510.00, 110.15)" onmouseout="hideTooltip()"/></g><g id="tooltip" visibility="hidden"><rect x="0" y="0" width="150" height="40" fill="#333" opacity="0.8" rx="5"/><text x="5" y="15" font-size="10" fill="#fff" id="tooltip-series"></text><text x="5" y="30" font-size="10" fill="#fff" id="tooltip-value"></text></g><script><![CDATA[function showTooltip(evt, series, value, time, x, y) {  var tooltip = document.getElementById("tooltip");  var seriesText = document.getElementById("tooltip-series");  var valueText = document.getElementById("tooltip-value");  seriesText.textContent = "Series: " + series;  valueText.textContent = value + " at " + time;  tooltip.setAttribute("transform", "translate(" + (x + 10) + "," + (y - 50) + ")");  tooltip.setAttribute("visibility", "visible");  evt.target.setAttribute("r", "7");  evt.target.setAttribute("opacity", "1");}function hideTooltip() {  var tooltip = document.getElementById("tooltip");  tooltip.setAttribute("visibility", "hidden");  var circles = document.getElementsByTagName("circle");  for (var i = 0; i < circles.length; i++) {    circles[i].setAttribute("r", "5");    circles[i].setAttribute("opacity", "0");  }}]]></script><text x="300" y="20" text-anchor="middle" font-size="16" fill="#333">Disk Operations for sdc</text><text x="10" y="200" text-anchor="middle" transform="rotate(-90,10,200)" font-size="12" fill="#666">Operations/s</text><g font-size="12"><circle cx="20" cy="375" r="5" fill="#4e73df"/><text x="30" y="380" fill="#333">read: 0.1 at 23:18:00</text><circle cx="240" cy="375" r="5" fill="#1cc88a"/><text x="250" y="380" fill="#333">write: 19.4 at 23:18:00</text></g></svg>