<svg width="600" height="400" xmlns="http://www.w3.org/2000/svg" style="font-family: Arial, sans-serif;"><rect width="600" height="400" fill="#ffffff"/><g transform="translate(60,30)"><rect width="510" height="300" fill="#f8f9fc" stroke="#ddd"/><g stroke-width="1"><line x1="0" y1="300" x2="510" y2="300" stroke="#eee" /><text x="-5" y="304" text-anchor="end" font-size="10" fill="#666">0.0</text><line x1="0" y1="240" x2="510" y2="240" stroke="#eee" /><text x="-5" y="244" text-anchor="end" font-size="10" fill="#666">83.3</text><line x1="0" y1="180" x2="510" y2="180" stroke="#eee" /><text x="-5" y="184" text-anchor="end" font-size="10" fill="#666">166.6</text><line x1="0" y1="120" x2="510" y2="120" stroke="#eee" /><text x="-5" y="124" text-anchor="end" font-size="10" fill="#666">250.0</text><line x1="0" y1="59.999999999999986" x2="510" y2="59.999999999999986" stroke="#eee" /><text x="-5" y="63.999999999999986" text-anchor="end" font-size="10" fill="#666">333.3</text><line x1="0" y1="0" x2="510" y2="0" stroke="#eee" /><text x="-5" y="4" text-anchor="end" font-size="10" fill="#666">416.6</text></g><g stroke-width="1"><line x1="0" y1="0" x2="0" y2="300" stroke="#eee"/><text x="0" y="320" text-anchor="middle" font-size="10" fill="#666">22:19:50</text><line x1="102" y1="0" x2="102" y2="300" stroke="#eee"/><text x="102" y="320" text-anchor="middle" font-size="10" fill="#666">22:31:50</text><line x1="204" y1="0" x2="204" y2="300" stroke="#eee"/><text x="204" y="320" text-anchor="middle" font-size="10" fill="#666">22:43:50</text><line x1="306" y1="0" x2="306" y2="300" stroke="#eee"/><text x="306" y="320" text-anchor="middle" font-size="10" fill="#666">22:55:50</text><line x1="408" y1="0" x2="408" y2="300" stroke="#eee"/><text x="408" y="320" text-anchor="middle" font-size="10" fill="#666">23:07:50</text><line x1="510" y1="0" x2="510" y2="300" stroke="#eee"/><text x="510" y="320" text-anchor="middle" font-size="10" fill="#666">23:19:50</text></g><path d="M0.00,300.00 L1.42,300.00 L2.83,300.00 L4.25,300.00 L5.67,300.00 L7.08,300.00 L8.50,300.00 L9.92,300.00 L11.33,300.00 L12.75,300.00 L14.17,300.00 L15.58,300.00 L17.00,0.00 L18.42,298.43 L19.83,286.12 L21.25,205.67 L22.67,280.97 L24.08,299.03 L25.50,299.89 L26.92,298.11 L28.33,291.77 L29.75,299.90 L31.17,298.61 L32.58,276.09 L34.00,123.73 L35.42,298.38 L36.83,298.70 L38.25,288.33 L39.67,300.00 L41.08,299.60 L42.50,290.93 L43.92,250.73 L45.33,296.95 L46.75,296.92 L48.17,272.25 L49.58,299.78 L51.00,298.57 L52.42,299.99 L53.83,299.94 L55.25,300.00 L56.67,300.00 L58.08,300.00 L59.50,300.00 L60.92,300.00 L62.33,300.00 L63.75,292.86 L65.17,235.71 L66.58,300.00 L68.00,300.00 L69.42,300.00 L70.83,300.00 L72.25,300.00 L73.67,300.00 L75.08,300.00 L76.50,300.00 L77.92,300.00 L79.33,300.00 L80.75,300.00 L82.17,300.00 L83.58,299.99 L85.00,299.94 L86.42,300.00 L87.83,300.00 L89.25,300.00 L90.67,300.00 L92.08,300.00 L93.50,300.00 L94.92,300.00 L96.33,300.00 L97.75,299.43 L99.17,270.89 L100.58,80.56 L102.00,242.90 L103.42,68.38 L104.83,293.47 L106.25,292.56 L107.67,292.94 L109.08,280.98 L110.50,275.61 L111.92,206.22 L113.33,276.62 L114.75,299.55 L116.17,300.00 L117.58,300.00 L119.00,299.99 L120.42,299.94 L121.83,299.98 L123.25,299.80 L124.67,299.94 L126.08,300.00 L127.50,299.75 L128.92,297.72 L130.33,299.87 L131.75,298.41 L133.17,285.68 L134.58,300.00 L136.00,295.86 L137.42,262.73 L138.83,299.93 L140.25,299.81 L141.67,298.89 L143.08,299.63 L144.50,295.64 L145.92,268.62 L147.33,144.87 L148.75,296.11 L150.17,299.96 L151.58,298.48 L153.00,289.82 L154.42,299.94 L155.83,300.00 L157.25,299.99 L158.67,299.94 L160.08,300.00 L161.50,299.68 L162.92,297.08 L164.33,300.00 L165.75,299.99 L167.17,299.86 L168.58,299.94 L170.00,296.51 L171.42,268.62 L172.83,299.75 L174.25,298.89 L175.67,299.94 L177.08,300.00 L178.50,299.99 L179.92,299.91 L181.33,299.78 L182.75,299.81 L184.17,300.00 L185.58,299.94 L187.00,299.38 L188.42,299.06 L189.83,299.69 L191.25,299.55 L192.67,300.00 L194.08,300.00 L195.50,300.00 L196.92,299.92 L198.33,299.26 L199.75,299.50 L201.17,297.86 L202.58,300.00 L204.00,297.15 L205.42,274.20 L206.83,298.77 L208.25,300.00 L209.67,299.96 L211.08,299.61 L212.50,299.99 L213.92,299.94 L215.33,300.00 L216.75,299.95 L218.17,299.51 L219.58,299.65 L221.00,299.71 L222.42,299.15 L223.83,299.92 L225.25,299.86 L226.67,299.87 L228.08,299.96 L229.50,299.64 L230.92,299.68 L232.33,300.00 L233.75,300.00 L235.17,300.00 L236.58,299.98 L238.00,299.81 L239.42,300.00 L240.83,300.00 L242.25,299.96 L243.67,299.65 L245.08,299.73 L246.50,299.86 L247.92,299.86 L249.33,299.94 L250.75,299.94 L252.17,298.78 L253.58,293.71 L255.00,300.00 L256.42,299.99 L257.83,299.87 L259.25,300.00 L260.67,299.99 L262.08,299.93 L263.50,299.92 L264.92,299.83 L266.33,299.58 L267.75,299.73 L269.17,299.91 L270.58,299.74 L272.00,300.00 L273.42,300.00 L274.83,299.98 L276.25,299.78 L277.67,299.74 L279.08,300.00 L280.50,300.00 L281.92,299.94 L283.33,299.40 L284.75,299.81 L286.17,299.48 L287.58,300.00 L289.00,300.00 L290.42,300.00 L291.83,299.99 L293.25,299.91 L294.67,299.73 L296.08,299.85 L297.50,299.81 L298.92,300.00 L300.33,299.98 L301.75,299.74 L303.17,299.36 L304.58,299.48 L306.00,299.96 L307.42,299.68 L308.83,299.95 L310.25,299.55 L311.67,300.00 L313.08,299.96 L314.50,299.61 L315.92,299.99 L317.33,299.94 L318.75,299.89 L320.17,298.36 L321.58,293.95 L323.00,298.80 L324.42,289.92 L325.83,299.98 L327.25,299.80 L328.67,299.66 L330.08,297.52 L331.50,299.58 L332.92,297.93 L334.33,300.00 L335.75,300.00 L337.17,299.99 L338.58,299.91 L340.00,299.79 L341.42,299.87 L342.83,299.94 L344.25,299.42 L345.67,300.00 L347.08,300.00 L348.50,300.00 L349.92,299.99 L351.33,299.94 L352.75,299.95 L354.17,299.55 L355.58,300.00 L357.00,299.99 L358.42,299.89 L359.83,299.60 L361.25,299.94 L362.67,299.96 L364.08,299.61 L365.50,300.00 L366.92,300.00 L368.33,300.00 L369.75,299.99 L371.17,299.94 L372.58,300.00 L374.00,300.00 L375.42,300.00 L376.83,300.00 L378.25,299.96 L379.67,299.67 L381.08,299.89 L382.50,299.60 L383.92,299.94 L385.33,300.00 L386.75,300.00 L388.17,299.99 L389.58,299.94 L391.00,300.00 L392.42,300.00 L393.83,300.00 L395.25,300.00 L396.67,300.00 L398.08,299.97 L399.50,299.74 L400.92,299.98 L402.33,299.81 L403.75,300.00 L405.17,299.98 L406.58,299.81 L408.00,299.98 L409.42,299.79 L410.83,299.87 L412.25,300.00 L413.67,300.00 L415.08,299.99 L416.50,299.91 L417.92,299.74 L419.33,299.99 L420.75,299.87 L422.17,300.00 L423.58,300.00 L425.00,300.00 L426.42,299.99 L427.83,299.94 L429.25,299.98 L430.67,299.81 L432.08,300.00 L433.50,300.00 L434.92,300.00 L436.33,299.95 L437.75,299.50 L439.17,299.55 L440.58,299.99 L442.00,299.87 L443.42,299.97 L444.83,299.74 L446.25,299.99 L447.67,299.94 L449.08,300.00 L450.50,300.00 L451.92,300.00 L453.33,300.00 L454.75,299.99 L456.17,299.91 L457.58,299.78 L459.00,299.81 L460.42,300.00 L461.83,300.00 L463.25,300.00 L464.67,299.96 L466.08,299.61 L467.50,300.00 L468.92,300.00 L470.33,300.00 L471.75,300.00 L473.17,300.00 L474.58,299.78 L476.00,299.98 L477.42,299.75 L478.83,299.41 L480.25,299.92 L481.67,299.94 L483.08,300.00 L484.50,299.96 L485.92,299.67 L487.33,299.94 L488.75,300.00 L490.17,299.99 L491.58,299.94 L493.00,300.00 L494.42,300.00 L495.83,300.00 L497.25,300.00 L498.67,300.00 L500.08,300.00 L501.50,300.00 L502.92,300.00 L504.33,300.00 L505.75,300.00 L507.17,300.00 L508.58,300.00 L510.00,300.00" stroke="#4e73df" fill="none" stroke-width="2" stroke-linejoin="round"/><path d="M0.00,300.00 L1.42,300.00 L2.83,300.00 L4.25,300.00 L5.67,300.00 L7.08,300.00 L8.50,300.00 L9.92,300.00 L11.33,300.00 L12.75,300.00 L14.17,300.00 L15.58,300.00 L17.00,293.53 L18.42,259.79 L19.83,299.46 L21.25,296.04 L22.67,286.51 L24.08,294.59 L25.50,299.47 L26.92,294.43 L28.33,271.92 L29.75,298.37 L31.17,290.89 L32.58,292.64 L34.00,294.07 L35.42,249.27 L36.83,297.75 L38.25,299.06 L39.67,294.14 L41.08,291.55 L42.50,299.38 L43.92,295.74 L45.33,290.83 L46.75,299.02 L48.17,292.22 L49.58,288.24 L51.00,299.03 L52.42,291.61 L53.83,282.16 L55.25,296.18 L56.67,271.97 L58.08,299.71 L59.50,299.12 L60.92,294.40 L62.33,299.71 L63.75,298.06 L65.17,284.87 L66.58,299.73 L68.00,299.26 L69.42,294.46 L70.83,298.35 L72.25,282.75 L73.67,257.26 L75.08,298.83 L76.50,291.46 L77.92,296.60 L79.33,298.98 L80.75,292.88 L82.17,297.12 L83.58,299.50 L85.00,296.93 L86.42,290.62 L87.83,291.35 L89.25,299.36 L90.67,296.33 L92.08,293.77 L93.50,263.14 L94.92,298.48 L96.33,290.38 L97.75,299.71 L99.17,298.19 L100.58,284.83 L102.00,289.14 L103.42,296.73 L104.83,298.67 L106.25,289.05 L107.67,288.37 L109.08,299.70 L110.50,299.40 L111.92,297.44 L113.33,295.73 L114.75,263.46 L116.17,295.95 L117.58,298.91 L119.00,292.22 L120.42,297.57 L121.83,298.85 L123.25,291.22 L124.67,293.30 L126.08,299.71 L127.50,298.11 L128.92,284.29 L130.33,290.54 L131.75,295.89 L133.17,297.11 L134.58,275.20 L136.00,290.25 L137.42,299.52 L138.83,297.59 L140.25,296.32 L141.67,297.47 L143.08,286.20 L144.50,297.05 L145.92,298.96 L147.33,290.22 L148.75,274.95 L150.17,299.21 L151.58,291.74 L153.00,268.59 L154.42,297.83 L155.83,299.47 L157.25,296.74 L158.67,292.78 L160.08,299.31 L161.50,294.73 L162.92,287.53 L164.33,299.68 L165.75,297.16 L167.17,279.69 L168.58,299.71 L170.00,296.67 L171.42,272.36 L172.83,299.32 L174.25,295.72 L175.67,295.30 L177.08,299.50 L178.50,297.43 L179.92,296.67 L181.33,298.17 L182.75,285.84 L184.17,299.71 L185.58,297.58 L187.00,280.51 L188.42,298.50 L189.83,288.19 L191.25,283.51 L192.67,299.11 L194.08,293.94 L195.50,296.21 L196.92,299.42 L198.33,296.21 L199.75,292.06 L201.17,299.50 L202.58,297.24 L204.00,294.19 L205.42,292.56 L206.83,296.77 L208.25,274.74 L209.67,297.78 L211.08,297.84 L212.50,280.86 L213.92,292.19 L215.33,299.70 L216.75,298.42 L218.17,288.63 L219.58,299.70 L221.00,298.37 L222.42,288.18 L223.83,299.02 L225.25,291.03 L226.67,277.61 L228.08,296.82 L229.50,273.72 L230.92,299.73 L232.33,297.57 L233.75,279.23 L235.17,299.71 L236.58,298.60 L238.00,289.73 L239.42,299.24 L240.83,295.08 L242.25,295.95 L243.67,299.40 L245.08,294.61 L246.50,279.43 L247.92,299.50 L249.33,295.97 L250.75,282.62 L252.17,295.57 L253.58,292.48 L255.00,297.05 L256.42,298.73 L257.83,290.83 L259.25,299.41 L260.67,296.33 L262.08,293.75 L263.50,299.33 L264.92,294.25 L266.33,281.50 L267.75,299.40 L269.17,294.84 L270.58,281.50 L272.00,299.50 L273.42,297.45 L274.83,296.12 L276.25,293.04 L277.67,298.78 L279.08,290.82 L280.50,295.50 L281.92,299.71 L283.33,297.17 L284.75,276.83 L286.17,299.71 L287.58,296.48 L289.00,270.58 L290.42,299.08 L291.83,295.73 L293.25,293.28 L294.67,291.19 L296.08,296.54 L297.50,289.81 L298.92,299.33 L300.33,294.15 L301.75,291.03 L303.17,299.13 L304.58,290.20 L306.00,260.96 L307.42,296.00 L308.83,297.49 L310.25,296.54 L311.67,292.81 L313.08,294.79 L314.50,299.39 L315.92,295.86 L317.33,291.21 L318.75,298.42 L320.17,291.46 L321.58,277.94 L323.00,299.21 L324.42,294.70 L325.83,265.38 L327.25,294.98 L328.67,299.47 L330.08,296.80 L331.50,293.38 L332.92,299.84 L334.33,298.11 L335.75,285.26 L337.17,299.71 L338.58,297.98 L340.00,284.16 L341.42,299.04 L342.83,290.89 L344.25,274.57 L345.67,299.42 L347.08,296.75 L348.50,296.93 L349.92,299.23 L351.33,294.68 L352.75,293.25 L354.17,297.31 L355.58,297.64 L357.00,297.38 L358.42,296.93 L359.83,274.70 L361.25,299.40 L362.67,293.03 L364.08,264.65 L365.50,299.01 L366.92,293.09 L368.33,296.62 L369.75,298.42 L371.17,291.50 L372.58,293.60 L374.00,295.61 L375.42,296.26 L376.83,295.83 L378.25,296.86 L379.67,298.01 L381.08,281.88 L382.50,277.50 L383.92,299.84 L385.33,297.90 L386.75,283.38 L388.17,299.71 L389.58,298.26 L391.00,286.69 L392.42,299.27 L393.83,295.25 L395.25,295.76 L396.67,299.02 L398.08,291.81 L399.50,284.61 L400.92,299.24 L402.33,293.12 L403.75,278.33 L405.17,298.62 L406.58,289.86 L408.00,299.68 L409.42,298.34 L410.83,290.31 L412.25,299.03 L413.67,293.00 L415.08,294.72 L416.50,299.39 L417.92,294.92 L419.33,282.80 L420.75,299.26 L422.17,293.06 L423.58,276.58 L425.00,299.40 L426.42,295.91 L427.83,290.49 L429.25,293.68 L430.67,299.38 L432.08,296.41 L433.50,296.54 L434.92,296.19 L436.33,291.06 L437.75,276.06 L439.17,299.71 L440.58,296.16 L442.00,267.76 L443.42,299.66 L444.83,297.89 L446.25,287.40 L447.67,298.64 L449.08,290.06 L450.50,299.64 L451.92,297.49 L453.33,285.58 L454.75,299.71 L456.17,297.52 L457.58,279.95 L459.00,299.71 L460.42,296.67 L461.83,272.36 L463.25,299.41 L464.67,296.19 L466.08,292.52 L467.50,299.11 L468.92,293.94 L470.33,296.73 L471.75,299.44 L473.17,296.99 L474.58,285.07 L476.00,298.99 L477.42,291.40 L478.83,281.41 L480.25,294.71 L481.67,287.33 L483.08,298.78 L484.50,290.50 L485.92,292.53 L487.33,298.01 L488.75,292.76 L490.17,291.35 L491.58,299.27 L493.00,300.00 L494.42,300.00 L495.83,300.00 L497.25,300.00 L498.67,300.00 L500.08,300.00 L501.50,300.00 L502.92,300.00 L504.33,300.00 L505.75,300.00 L507.17,300.00 L508.58,300.00 L510.00,300.00" stroke="#1cc88a" fill="none" stroke-width="2" stroke-linejoin="round"/></g><text x="300" y="20" text-anchor="middle" font-size="16" fill="#333">Disk Operations for sdc</text><text x="10" y="200" text-anchor="middle" transform="rotate(-90,10,200)" font-size="12" fill="#666">Operations/s</text><g font-size="12"><circle cx="20" cy="375" r="5" fill="#4e73df"/><text x="30" y="380" fill="#333">read: 0.0 at 23:19:50</text><circle cx="240" cy="375" r="5" fill="#1cc88a"/><text x="250" y="380" fill="#333">write: 0.0 at 23:19:50</text></g></svg>