<svg width="600" height="400" xmlns="http://www.w3.org/2000/svg" style="font-family: Arial, sans-serif;"><rect width="600" height="400" fill="#ffffff"/><g transform="translate(60,30)"><rect width="510" height="300" fill="#f8f9fc" stroke="#ddd"/><g stroke-width="1"><line x1="0" y1="300" x2="510" y2="300" stroke="#eee" /><text x="-5" y="304" text-anchor="end" font-size="10" fill="#666">3.8</text><line x1="0" y1="240" x2="510" y2="240" stroke="#eee" /><text x="-5" y="244" text-anchor="end" font-size="10" fill="#666">80.1</text><line x1="0" y1="180" x2="510" y2="180" stroke="#eee" /><text x="-5" y="184" text-anchor="end" font-size="10" fill="#666">156.4</text><line x1="0" y1="120" x2="510" y2="120" stroke="#eee" /><text x="-5" y="124" text-anchor="end" font-size="10" fill="#666">232.7</text><line x1="0" y1="59.999999999999986" x2="510" y2="59.999999999999986" stroke="#eee" /><text x="-5" y="63.999999999999986" text-anchor="end" font-size="10" fill="#666">309.0</text><line x1="0" y1="0" x2="510" y2="0" stroke="#eee" /><text x="-5" y="4" text-anchor="end" font-size="10" fill="#666">385.3</text></g><g stroke-width="1"><line x1="0" y1="0" x2="0" y2="300" stroke="#eee"/><text x="0" y="320" text-anchor="middle" font-size="10" fill="#666">22:19:40</text><line x1="102" y1="0" x2="102" y2="300" stroke="#eee"/><text x="102" y="320" text-anchor="middle" font-size="10" fill="#666">22:31:20</text><line x1="204" y1="0" x2="204" y2="300" stroke="#eee"/><text x="204" y="320" text-anchor="middle" font-size="10" fill="#666">22:43:00</text><line x1="306" y1="0" x2="306" y2="300" stroke="#eee"/><text x="306" y="320" text-anchor="middle" font-size="10" fill="#666">22:54:40</text><line x1="408" y1="0" x2="408" y2="300" stroke="#eee"/><text x="408" y="320" text-anchor="middle" font-size="10" fill="#666">23:06:20</text><line x1="510" y1="0" x2="510" y2="300" stroke="#eee"/><text x="510" y="320" text-anchor="middle" font-size="10" fill="#666">23:18:00</text></g><path d="M0.00,294.07 L10.20,288.83 L20.40,82.40 L30.60,289.31 L40.80,299.53 L51.00,297.57 L61.20,181.64 L71.40,272.24 L81.60,298.34 L91.80,163.54 L102.00,283.86 L112.20,162.63 L122.40,290.27 L132.60,133.22 L142.80,160.03 L153.00,209.81 L163.20,80.91 L173.40,299.53 L183.60,188.68 L193.80,264.04 L204.00,293.06 L214.20,300.00 L224.40,153.64 L234.60,218.20 L244.80,83.30 L255.00,218.55 L265.20,151.72 L275.40,299.19 L285.60,299.80 L295.80,161.76 L306.00,214.90 L316.20,163.23 L326.40,291.26 L336.60,189.94 L346.80,273.18 L357.00,290.25 L367.20,0.00 L377.40,298.52 L387.60,164.88 L397.80,289.78 L408.00,299.53 L418.20,284.72 L428.40,161.70 L438.60,298.85 L448.80,297.96 L459.00,75.94 L469.20,298.89 L479.40,164.70 L489.60,298.61 L499.80,291.17 L510.00,161.86" stroke="#4e73df" fill="none" stroke-width="2" stroke-linejoin="round"/><circle id="point-rx-0" cx="0.00" cy="294.07" r="5" fill="#4e73df" opacity="0" onmouseover="showTooltip(evt, 'rx', '11.3', '22:19:40', 0.00, 294.07)" onmouseout="hideTooltip()"/><circle id="point-rx-1" cx="10.20" cy="288.83" r="5" fill="#4e73df" opacity="0" onmouseover="showTooltip(evt, 'rx', '18.0', '22:20:50', 10.20, 288.83)" onmouseout="hideTooltip()"/><circle id="point-rx-2" cx="20.40" cy="82.40" r="5" fill="#4e73df" opacity="0" onmouseover="showTooltip(evt, 'rx', '280.5', '22:22:00', 20.40, 82.40)" onmouseout="hideTooltip()"/><circle id="point-rx-3" cx="30.60" cy="289.31" r="5" fill="#4e73df" opacity="0" onmouseover="showTooltip(evt, 'rx', '17.4', '22:23:10', 30.60, 289.31)" onmouseout="hideTooltip()"/><circle id="point-rx-4" cx="40.80" cy="299.53" r="5" fill="#4e73df" opacity="0" onmouseover="showTooltip(evt, 'rx', '4.4', '22:24:20', 40.80, 299.53)" onmouseout="hideTooltip()"/><circle id="point-rx-5" cx="51.00" cy="297.57" r="5" fill="#4e73df" opacity="0" onmouseover="showTooltip(evt, 'rx', '6.9', '22:25:30', 51.00, 297.57)" onmouseout="hideTooltip()"/><circle id="point-rx-6" cx="61.20" cy="181.64" r="5" fill="#4e73df" opacity="0" onmouseover="showTooltip(evt, 'rx', '154.3', '22:26:40', 61.20, 181.64)" onmouseout="hideTooltip()"/><circle id="point-rx-7" cx="71.40" cy="272.24" r="5" fill="#4e73df" opacity="0" onmouseover="showTooltip(evt, 'rx', '39.1', '22:27:50', 71.40, 272.24)" onmouseout="hideTooltip()"/><circle id="point-rx-8" cx="81.60" cy="298.34" r="5" fill="#4e73df" opacity="0" onmouseover="showTooltip(evt, 'rx', '5.9', '22:29:00', 81.60, 298.34)" onmouseout="hideTooltip()"/><circle id="point-rx-9" cx="91.80" cy="163.54" r="5" fill="#4e73df" opacity="0" onmouseover="showTooltip(evt, 'rx', '177.3', '22:30:10', 91.80, 163.54)" onmouseout="hideTooltip()"/><circle id="point-rx-10" cx="102.00" cy="283.86" r="5" fill="#4e73df" opacity="0" onmouseover="showTooltip(evt, 'rx', '24.3', '22:31:20', 102.00, 283.86)" onmouseout="hideTooltip()"/><circle id="point-rx-11" cx="112.20" cy="162.63" r="5" fill="#4e73df" opacity="0" onmouseover="showTooltip(evt, 'rx', '178.5', '22:32:30', 112.20, 162.63)" onmouseout="hideTooltip()"/><circle id="point-rx-12" cx="122.40" cy="290.27" r="5" fill="#4e73df" opacity="0" onmouseover="showTooltip(evt, 'rx', '16.1', '22:33:40', 122.40, 290.27)" onmouseout="hideTooltip()"/><circle id="point-rx-13" cx="132.60" cy="133.22" r="5" fill="#4e73df" opacity="0" onmouseover="showTooltip(evt, 'rx', '215.9', '22:34:50', 132.60, 133.22)" onmouseout="hideTooltip()"/><circle id="point-rx-14" cx="142.80" cy="160.03" r="5" fill="#4e73df" opacity="0" onmouseover="showTooltip(evt, 'rx', '181.8', '22:36:00', 142.80, 160.03)" onmouseout="hideTooltip()"/><circle id="point-rx-15" cx="153.00" cy="209.81" r="5" fill="#4e73df" opacity="0" onmouseover="showTooltip(evt, 'rx', '118.5', '22:37:10', 153.00, 209.81)" onmouseout="hideTooltip()"/><circle id="point-rx-16" cx="163.20" cy="80.91" r="5" fill="#4e73df" opacity="0" onmouseover="showTooltip(evt, 'rx', '282.4', '22:38:20', 163.20, 80.91)" onmouseout="hideTooltip()"/><circle id="point-rx-17" cx="173.40" cy="299.53" r="5" fill="#4e73df" opacity="0" onmouseover="showTooltip(evt, 'rx', '4.4', '22:39:30', 173.40, 299.53)" onmouseout="hideTooltip()"/><circle id="point-rx-18" cx="183.60" cy="188.68" r="5" fill="#4e73df" opacity="0" onmouseover="showTooltip(evt, 'rx', '145.3', '22:40:40', 183.60, 188.68)" onmouseout="hideTooltip()"/><circle id="point-rx-19" cx="193.80" cy="264.04" r="5" fill="#4e73df" opacity="0" onmouseover="showTooltip(evt, 'rx', '49.5', '22:41:50', 193.80, 264.04)" onmouseout="hideTooltip()"/><circle id="point-rx-20" cx="204.00" cy="293.06" r="5" fill="#4e73df" opacity="0" onmouseover="showTooltip(evt, 'rx', '12.6', '22:43:00', 204.00, 293.06)" onmouseout="hideTooltip()"/><circle id="point-rx-21" cx="214.20" cy="300.00" r="5" fill="#4e73df" opacity="0" onmouseover="showTooltip(evt, 'rx', '3.8', '22:44:10', 214.20, 300.00)" onmouseout="hideTooltip()"/><circle id="point-rx-22" cx="224.40" cy="153.64" r="5" fill="#4e73df" opacity="0" onmouseover="showTooltip(evt, 'rx', '189.9', '22:45:20', 224.40, 153.64)" onmouseout="hideTooltip()"/><circle id="point-rx-23" cx="234.60" cy="218.20" r="5" fill="#4e73df" opacity="0" onmouseover="showTooltip(evt, 'rx', '107.8', '22:46:30', 234.60, 218.20)" onmouseout="hideTooltip()"/><circle id="point-rx-24" cx="244.80" cy="83.30" r="5" fill="#4e73df" opacity="0" onmouseover="showTooltip(evt, 'rx', '279.4', '22:47:40', 244.80, 83.30)" onmouseout="hideTooltip()"/><circle id="point-rx-25" cx="255.00" cy="218.55" r="5" fill="#4e73df" opacity="0" onmouseover="showTooltip(evt, 'rx', '107.4', '22:48:50', 255.00, 218.55)" onmouseout="hideTooltip()"/><circle id="point-rx-26" cx="265.20" cy="151.72" r="5" fill="#4e73df" opacity="0" onmouseover="showTooltip(evt, 'rx', '192.3', '22:50:00', 265.20, 151.72)" onmouseout="hideTooltip()"/><circle id="point-rx-27" cx="275.40" cy="299.19" r="5" fill="#4e73df" opacity="0" onmouseover="showTooltip(evt, 'rx', '4.8', '22:51:10', 275.40, 299.19)" onmouseout="hideTooltip()"/><circle id="point-rx-28" cx="285.60" cy="299.80" r="5" fill="#4e73df" opacity="0" onmouseover="showTooltip(evt, 'rx', '4.0', '22:52:20', 285.60, 299.80)" onmouseout="hideTooltip()"/><circle id="point-rx-29" cx="295.80" cy="161.76" r="5" fill="#4e73df" opacity="0" onmouseover="showTooltip(evt, 'rx', '179.6', '22:53:30', 295.80, 161.76)" onmouseout="hideTooltip()"/><circle id="point-rx-30" cx="306.00" cy="214.90" r="5" fill="#4e73df" opacity="0" onmouseover="showTooltip(evt, 'rx', '112.0', '22:54:40', 306.00, 214.90)" onmouseout="hideTooltip()"/><circle id="point-rx-31" cx="316.20" cy="163.23" r="5" fill="#4e73df" opacity="0" onmouseover="showTooltip(evt, 'rx', '177.7', '22:55:50', 316.20, 163.23)" onmouseout="hideTooltip()"/><circle id="point-rx-32" cx="326.40" cy="291.26" r="5" fill="#4e73df" opacity="0" onmouseover="showTooltip(evt, 'rx', '14.9', '22:57:00', 326.40, 291.26)" onmouseout="hideTooltip()"/><circle id="point-rx-33" cx="336.60" cy="189.94" r="5" fill="#4e73df" opacity="0" onmouseover="showTooltip(evt, 'rx', '143.7', '22:58:10', 336.60, 189.94)" onmouseout="hideTooltip()"/><circle id="point-rx-34" cx="346.80" cy="273.18" r="5" fill="#4e73df" opacity="0" onmouseover="showTooltip(evt, 'rx', '37.9', '22:59:20', 346.80, 273.18)" onmouseout="hideTooltip()"/><circle id="point-rx-35" cx="357.00" cy="290.25" r="5" fill="#4e73df" opacity="0" onmouseover="showTooltip(evt, 'rx', '16.2', '23:00:30', 357.00, 290.25)" onmouseout="hideTooltip()"/><circle id="point-rx-36" cx="367.20" cy="0.00" r="5" fill="#4e73df" opacity="0" onmouseover="showTooltip(evt, 'rx', '385.3', '23:01:40', 367.20, 0.00)" onmouseout="hideTooltip()"/><circle id="point-rx-37" cx="377.40" cy="298.52" r="5" fill="#4e73df" opacity="0" onmouseover="showTooltip(evt, 'rx', '5.7', '23:02:50', 377.40, 298.52)" onmouseout="hideTooltip()"/><circle id="point-rx-38" cx="387.60" cy="164.88" r="5" fill="#4e73df" opacity="0" onmouseover="showTooltip(evt, 'rx', '175.6', '23:04:00', 387.60, 164.88)" onmouseout="hideTooltip()"/><circle id="point-rx-39" cx="397.80" cy="289.78" r="5" fill="#4e73df" opacity="0" onmouseover="showTooltip(evt, 'rx', '16.8', '23:05:10', 397.80, 289.78)" onmouseout="hideTooltip()"/><circle id="point-rx-40" cx="408.00" cy="299.53" r="5" fill="#4e73df" opacity="0" onmouseover="showTooltip(evt, 'rx', '4.4', '23:06:20', 408.00, 299.53)" onmouseout="hideTooltip()"/><circle id="point-rx-41" cx="418.20" cy="284.72" r="5" fill="#4e73df" opacity="0" onmouseover="showTooltip(evt, 'rx', '23.2', '23:07:30', 418.20, 284.72)" onmouseout="hideTooltip()"/><circle id="point-rx-42" cx="428.40" cy="161.70" r="5" fill="#4e73df" opacity="0" onmouseover="showTooltip(evt, 'rx', '179.7', '23:08:40', 428.40, 161.70)" onmouseout="hideTooltip()"/><circle id="point-rx-43" cx="438.60" cy="298.85" r="5" fill="#4e73df" opacity="0" onmouseover="showTooltip(evt, 'rx', '5.2', '23:09:50', 438.60, 298.85)" onmouseout="hideTooltip()"/><circle id="point-rx-44" cx="448.80" cy="297.96" r="5" fill="#4e73df" opacity="0" onmouseover="showTooltip(evt, 'rx', '6.4', '23:11:00', 448.80, 297.96)" onmouseout="hideTooltip()"/><circle id="point-rx-45" cx="459.00" cy="75.94" r="5" fill="#4e73df" opacity="0" onmouseover="showTooltip(evt, 'rx', '288.7', '23:12:10', 459.00, 75.94)" onmouseout="hideTooltip()"/><circle id="point-rx-46" cx="469.20" cy="298.89" r="5" fill="#4e73df" opacity="0" onmouseover="showTooltip(evt, 'rx', '5.2', '23:13:20', 469.20, 298.89)" onmouseout="hideTooltip()"/><circle id="point-rx-47" cx="479.40" cy="164.70" r="5" fill="#4e73df" opacity="0" onmouseover="showTooltip(evt, 'rx', '175.8', '23:14:30', 479.40, 164.70)" onmouseout="hideTooltip()"/><circle id="point-rx-48" cx="489.60" cy="298.61" r="5" fill="#4e73df" opacity="0" onmouseover="showTooltip(evt, 'rx', '5.5', '23:15:40', 489.60, 298.61)" onmouseout="hideTooltip()"/><circle id="point-rx-49" cx="499.80" cy="291.17" r="5" fill="#4e73df" opacity="0" onmouseover="showTooltip(evt, 'rx', '15.0', '23:16:50', 499.80, 291.17)" onmouseout="hideTooltip()"/><circle id="point-rx-50" cx="510.00" cy="161.86" r="5" fill="#4e73df" opacity="0" onmouseover="showTooltip(evt, 'rx', '179.4', '23:18:00', 510.00, 161.86)" onmouseout="hideTooltip()"/><path d="M0.00,299.53 L10.20,297.57 L20.40,159.13 L30.60,298.05 L40.80,299.53 L51.00,297.57 L61.20,256.15 L71.40,287.67 L81.60,298.34 L91.80,246.49 L102.00,298.06 L112.20,245.69 L122.40,298.14 L132.60,251.93 L142.80,244.83 L153.00,212.35 L163.20,156.57 L173.40,299.53 L183.60,255.00 L193.80,289.36 L204.00,298.52 L214.20,300.00 L224.40,245.30 L234.60,211.92 L244.80,159.45 L255.00,211.63 L265.20,244.50 L275.40,299.19 L285.60,299.80 L295.80,244.89 L306.00,248.89 L316.20,244.16 L326.40,300.00 L336.60,254.12 L346.80,290.71 L357.00,298.99 L367.20,200.02 L377.40,298.52 L387.60,246.32 L397.80,298.52 L408.00,298.74 L418.20,298.05 L428.40,245.51 L438.60,298.85 L448.80,297.96 L459.00,159.91 L469.20,298.89 L479.40,247.49 L489.60,298.61 L499.80,299.91 L510.00,243.55" stroke="#1cc88a" fill="none" stroke-width="2" stroke-linejoin="round"/><circle id="point-tx-0" cx="0.00" cy="299.53" r="5" fill="#1cc88a" opacity="0" onmouseover="showTooltip(evt, 'tx', '4.4', '22:19:40', 0.00, 299.53)" onmouseout="hideTooltip()"/><circle id="point-tx-1" cx="10.20" cy="297.57" r="5" fill="#1cc88a" opacity="0" onmouseover="showTooltip(evt, 'tx', '6.9', '22:20:50', 10.20, 297.57)" onmouseout="hideTooltip()"/><circle id="point-tx-2" cx="20.40" cy="159.13" r="5" fill="#1cc88a" opacity="0" onmouseover="showTooltip(evt, 'tx', '182.9', '22:22:00', 20.40, 159.13)" onmouseout="hideTooltip()"/><circle id="point-tx-3" cx="30.60" cy="298.05" r="5" fill="#1cc88a" opacity="0" onmouseover="showTooltip(evt, 'tx', '6.3', '22:23:10', 30.60, 298.05)" onmouseout="hideTooltip()"/><circle id="point-tx-4" cx="40.80" cy="299.53" r="5" fill="#1cc88a" opacity="0" onmouseover="showTooltip(evt, 'tx', '4.4', '22:24:20', 40.80, 299.53)" onmouseout="hideTooltip()"/><circle id="point-tx-5" cx="51.00" cy="297.57" r="5" fill="#1cc88a" opacity="0" onmouseover="showTooltip(evt, 'tx', '6.9', '22:25:30', 51.00, 297.57)" onmouseout="hideTooltip()"/><circle id="point-tx-6" cx="61.20" cy="256.15" r="5" fill="#1cc88a" opacity="0" onmouseover="showTooltip(evt, 'tx', '59.5', '22:26:40', 61.20, 256.15)" onmouseout="hideTooltip()"/><circle id="point-tx-7" cx="71.40" cy="287.67" r="5" fill="#1cc88a" opacity="0" onmouseover="showTooltip(evt, 'tx', '19.4', '22:27:50', 71.40, 287.67)" onmouseout="hideTooltip()"/><circle id="point-tx-8" cx="81.60" cy="298.34" r="5" fill="#1cc88a" opacity="0" onmouseover="showTooltip(evt, 'tx', '5.9', '22:29:00', 81.60, 298.34)" onmouseout="hideTooltip()"/><circle id="point-tx-9" cx="91.80" cy="246.49" r="5" fill="#1cc88a" opacity="0" onmouseover="showTooltip(evt, 'tx', '71.8', '22:30:10', 91.80, 246.49)" onmouseout="hideTooltip()"/><circle id="point-tx-10" cx="102.00" cy="298.06" r="5" fill="#1cc88a" opacity="0" onmouseover="showTooltip(evt, 'tx', '6.2', '22:31:20', 102.00, 298.06)" onmouseout="hideTooltip()"/><circle id="point-tx-11" cx="112.20" cy="245.69" r="5" fill="#1cc88a" opacity="0" onmouseover="showTooltip(evt, 'tx', '72.8', '22:32:30', 112.20, 245.69)" onmouseout="hideTooltip()"/><circle id="point-tx-12" cx="122.40" cy="298.14" r="5" fill="#1cc88a" opacity="0" onmouseover="showTooltip(evt, 'tx', '6.1', '22:33:40', 122.40, 298.14)" onmouseout="hideTooltip()"/><circle id="point-tx-13" cx="132.60" cy="251.93" r="5" fill="#1cc88a" opacity="0" onmouseover="showTooltip(evt, 'tx', '64.9', '22:34:50', 132.60, 251.93)" onmouseout="hideTooltip()"/><circle id="point-tx-14" cx="142.80" cy="244.83" r="5" fill="#1cc88a" opacity="0" onmouseover="showTooltip(evt, 'tx', '73.9', '22:36:00', 142.80, 244.83)" onmouseout="hideTooltip()"/><circle id="point-tx-15" cx="153.00" cy="212.35" r="5" fill="#1cc88a" opacity="0" onmouseover="showTooltip(evt, 'tx', '115.2', '22:37:10', 153.00, 212.35)" onmouseout="hideTooltip()"/><circle id="point-tx-16" cx="163.20" cy="156.57" r="5" fill="#1cc88a" opacity="0" onmouseover="showTooltip(evt, 'tx', '186.2', '22:38:20', 163.20, 156.57)" onmouseout="hideTooltip()"/><circle id="point-tx-17" cx="173.40" cy="299.53" r="5" fill="#1cc88a" opacity="0" onmouseover="showTooltip(evt, 'tx', '4.4', '22:39:30', 173.40, 299.53)" onmouseout="hideTooltip()"/><circle id="point-tx-18" cx="183.60" cy="255.00" r="5" fill="#1cc88a" opacity="0" onmouseover="showTooltip(evt, 'tx', '61.0', '22:40:40', 183.60, 255.00)" onmouseout="hideTooltip()"/><circle id="point-tx-19" cx="193.80" cy="289.36" r="5" fill="#1cc88a" opacity="0" onmouseover="showTooltip(evt, 'tx', '17.3', '22:41:50', 193.80, 289.36)" onmouseout="hideTooltip()"/><circle id="point-tx-20" cx="204.00" cy="298.52" r="5" fill="#1cc88a" opacity="0" onmouseover="showTooltip(evt, 'tx', '5.7', '22:43:00', 204.00, 298.52)" onmouseout="hideTooltip()"/><circle id="point-tx-21" cx="214.20" cy="300.00" r="5" fill="#1cc88a" opacity="0" onmouseover="showTooltip(evt, 'tx', '3.8', '22:44:10', 214.20, 300.00)" onmouseout="hideTooltip()"/><circle id="point-tx-22" cx="224.40" cy="245.30" r="5" fill="#1cc88a" opacity="0" onmouseover="showTooltip(evt, 'tx', '73.3', '22:45:20', 224.40, 245.30)" onmouseout="hideTooltip()"/><circle id="point-tx-23" cx="234.60" cy="211.92" r="5" fill="#1cc88a" opacity="0" onmouseover="showTooltip(evt, 'tx', '115.8', '22:46:30', 234.60, 211.92)" onmouseout="hideTooltip()"/><circle id="point-tx-24" cx="244.80" cy="159.45" r="5" fill="#1cc88a" opacity="0" onmouseover="showTooltip(evt, 'tx', '182.5', '22:47:40', 244.80, 159.45)" onmouseout="hideTooltip()"/><circle id="point-tx-25" cx="255.00" cy="211.63" r="5" fill="#1cc88a" opacity="0" onmouseover="showTooltip(evt, 'tx', '116.2', '22:48:50', 255.00, 211.63)" onmouseout="hideTooltip()"/><circle id="point-tx-26" cx="265.20" cy="244.50" r="5" fill="#1cc88a" opacity="0" onmouseover="showTooltip(evt, 'tx', '74.4', '22:50:00', 265.20, 244.50)" onmouseout="hideTooltip()"/><circle id="point-tx-27" cx="275.40" cy="299.19" r="5" fill="#1cc88a" opacity="0" onmouseover="showTooltip(evt, 'tx', '4.8', '22:51:10', 275.40, 299.19)" onmouseout="hideTooltip()"/><circle id="point-tx-28" cx="285.60" cy="299.80" r="5" fill="#1cc88a" opacity="0" onmouseover="showTooltip(evt, 'tx', '4.0', '22:52:20', 285.60, 299.80)" onmouseout="hideTooltip()"/><circle id="point-tx-29" cx="295.80" cy="244.89" r="5" fill="#1cc88a" opacity="0" onmouseover="showTooltip(evt, 'tx', '73.9', '22:53:30', 295.80, 244.89)" onmouseout="hideTooltip()"/><circle id="point-tx-30" cx="306.00" cy="248.89" r="5" fill="#1cc88a" opacity="0" onmouseover="showTooltip(evt, 'tx', '68.8', '22:54:40', 306.00, 248.89)" onmouseout="hideTooltip()"/><circle id="point-tx-31" cx="316.20" cy="244.16" r="5" fill="#1cc88a" opacity="0" onmouseover="showTooltip(evt, 'tx', '74.8', '22:55:50', 316.20, 244.16)" onmouseout="hideTooltip()"/><circle id="point-tx-32" cx="326.40" cy="300.00" r="5" fill="#1cc88a" opacity="0" onmouseover="showTooltip(evt, 'tx', '3.8', '22:57:00', 326.40, 300.00)" onmouseout="hideTooltip()"/><circle id="point-tx-33" cx="336.60" cy="254.12" r="5" fill="#1cc88a" opacity="0" onmouseover="showTooltip(evt, 'tx', '62.1', '22:58:10', 336.60, 254.12)" onmouseout="hideTooltip()"/><circle id="point-tx-34" cx="346.80" cy="290.71" r="5" fill="#1cc88a" opacity="0" onmouseover="showTooltip(evt, 'tx', '15.6', '22:59:20', 346.80, 290.71)" onmouseout="hideTooltip()"/><circle id="point-tx-35" cx="357.00" cy="298.99" r="5" fill="#1cc88a" opacity="0" onmouseover="showTooltip(evt, 'tx', '5.1', '23:00:30', 357.00, 298.99)" onmouseout="hideTooltip()"/><circle id="point-tx-36" cx="367.20" cy="200.02" r="5" fill="#1cc88a" opacity="0" onmouseover="showTooltip(evt, 'tx', '130.9', '23:01:40', 367.20, 200.02)" onmouseout="hideTooltip()"/><circle id="point-tx-37" cx="377.40" cy="298.52" r="5" fill="#1cc88a" opacity="0" onmouseover="showTooltip(evt, 'tx', '5.7', '23:02:50', 377.40, 298.52)" onmouseout="hideTooltip()"/><circle id="point-tx-38" cx="387.60" cy="246.32" r="5" fill="#1cc88a" opacity="0" onmouseover="showTooltip(evt, 'tx', '72.0', '23:04:00', 387.60, 246.32)" onmouseout="hideTooltip()"/><circle id="point-tx-39" cx="397.80" cy="298.52" r="5" fill="#1cc88a" opacity="0" onmouseover="showTooltip(evt, 'tx', '5.7', '23:05:10', 397.80, 298.52)" onmouseout="hideTooltip()"/><circle id="point-tx-40" cx="408.00" cy="298.74" r="5" fill="#1cc88a" opacity="0" onmouseover="showTooltip(evt, 'tx', '5.4', '23:06:20', 408.00, 298.74)" onmouseout="hideTooltip()"/><circle id="point-tx-41" cx="418.20" cy="298.05" r="5" fill="#1cc88a" opacity="0" onmouseover="showTooltip(evt, 'tx', '6.3', '23:07:30', 418.20, 298.05)" onmouseout="hideTooltip()"/><circle id="point-tx-42" cx="428.40" cy="245.51" r="5" fill="#1cc88a" opacity="0" onmouseover="showTooltip(evt, 'tx', '73.1', '23:08:40', 428.40, 245.51)" onmouseout="hideTooltip()"/><circle id="point-tx-43" cx="438.60" cy="298.85" r="5" fill="#1cc88a" opacity="0" onmouseover="showTooltip(evt, 'tx', '5.2', '23:09:50', 438.60, 298.85)" onmouseout="hideTooltip()"/><circle id="point-tx-44" cx="448.80" cy="297.96" r="5" fill="#1cc88a" opacity="0" onmouseover="showTooltip(evt, 'tx', '6.4', '23:11:00', 448.80, 297.96)" onmouseout="hideTooltip()"/><circle id="point-tx-45" cx="459.00" cy="159.91" r="5" fill="#1cc88a" opacity="0" onmouseover="showTooltip(evt, 'tx', '181.9', '23:12:10', 459.00, 159.91)" onmouseout="hideTooltip()"/><circle id="point-tx-46" cx="469.20" cy="298.89" r="5" fill="#1cc88a" opacity="0" onmouseover="showTooltip(evt, 'tx', '5.2', '23:13:20', 469.20, 298.89)" onmouseout="hideTooltip()"/><circle id="point-tx-47" cx="479.40" cy="247.49" r="5" fill="#1cc88a" opacity="0" onmouseover="showTooltip(evt, 'tx', '70.5', '23:14:30', 479.40, 247.49)" onmouseout="hideTooltip()"/><circle id="point-tx-48" cx="489.60" cy="298.61" r="5" fill="#1cc88a" opacity="0" onmouseover="showTooltip(evt, 'tx', '5.5', '23:15:40', 489.60, 298.61)" onmouseout="hideTooltip()"/><circle id="point-tx-49" cx="499.80" cy="299.91" r="5" fill="#1cc88a" opacity="0" onmouseover="showTooltip(evt, 'tx', '3.9', '23:16:50', 499.80, 299.91)" onmouseout="hideTooltip()"/><circle id="point-tx-50" cx="510.00" cy="243.55" r="5" fill="#1cc88a" opacity="0" onmouseover="showTooltip(evt, 'tx', '75.6', '23:18:00', 510.00, 243.55)" onmouseout="hideTooltip()"/></g><g id="tooltip" visibility="hidden"><rect x="0" y="0" width="150" height="40" fill="#333" opacity="0.8" rx="5"/><text x="5" y="15" font-size="10" fill="#fff" id="tooltip-series"></text><text x="5" y="30" font-size="10" fill="#fff" id="tooltip-value"></text></g><script><![CDATA[function showTooltip(evt, series, value, time, x, y) {  var tooltip = document.getElementById("tooltip");  var seriesText = document.getElementById("tooltip-series");  var valueText = document.getElementById("tooltip-value");  seriesText.textContent = "Series: " + series;  valueText.textContent = value + " at " + time;  tooltip.setAttribute("transform", "translate(" + (x + 10) + "," + (y - 50) + ")");  tooltip.setAttribute("visibility", "visible");  evt.target.setAttribute("r", "7");  evt.target.setAttribute("opacity", "1");}function hideTooltip() {  var tooltip = document.getElementById("tooltip");  tooltip.setAttribute("visibility", "hidden");  var circles = document.getElementsByTagName("circle");  for (var i = 0; i < circles.length; i++) {    circles[i].setAttribute("r", "5");    circles[i].setAttribute("opacity", "0");  }}]]></script><text x="300" y="20" text-anchor="middle" font-size="16" fill="#333">Network Traffic for eth0</text><text x="10" y="200" text-anchor="middle" transform="rotate(-90,10,200)" font-size="12" fill="#666">Traffic (bytes/s)</text><g font-size="12"><circle cx="20" cy="375" r="5" fill="#4e73df"/><text x="30" y="380" fill="#333">rx: 179.4 at 23:18:00</text><circle cx="240" cy="375" r="5" fill="#1cc88a"/><text x="250" y="380" fill="#333">tx: 75.6 at 23:18:00</text></g></svg>