<svg width="600" height="400" xmlns="http://www.w3.org/2000/svg" style="font-family: Arial, sans-serif;"><rect width="600" height="400" fill="#ffffff"/><g transform="translate(60,30)"><rect width="510" height="300" fill="#f8f9fc" stroke="#ddd"/><g stroke-width="1"><line x1="0" y1="300" x2="510" y2="300" stroke="#eee" /><text x="-5" y="304" text-anchor="end" font-size="10" fill="#666">4.3</text><line x1="0" y1="240" x2="510" y2="240" stroke="#eee" /><text x="-5" y="244" text-anchor="end" font-size="10" fill="#666">6141.8</text><line x1="0" y1="180" x2="510" y2="180" stroke="#eee" /><text x="-5" y="184" text-anchor="end" font-size="10" fill="#666">12279.4</text><line x1="0" y1="120" x2="510" y2="120" stroke="#eee" /><text x="-5" y="124" text-anchor="end" font-size="10" fill="#666">18416.9</text><line x1="0" y1="59.999999999999986" x2="510" y2="59.999999999999986" stroke="#eee" /><text x="-5" y="63.999999999999986" text-anchor="end" font-size="10" fill="#666">24554.4</text><line x1="0" y1="0" x2="510" y2="0" stroke="#eee" /><text x="-5" y="4" text-anchor="end" font-size="10" fill="#666">30692.0</text></g><g stroke-width="1"><line x1="0" y1="0" x2="0" y2="300" stroke="#eee"/><text x="0" y="320" text-anchor="middle" font-size="10" fill="#666">10/22 0:10</text><line x1="102" y1="0" x2="102" y2="300" stroke="#eee"/><text x="102" y="320" text-anchor="middle" font-size="10" fill="#666">10/22 9:33</text><line x1="204" y1="0" x2="204" y2="300" stroke="#eee"/><text x="204" y="320" text-anchor="middle" font-size="10" fill="#666">10/22 18:56</text><line x1="306" y1="0" x2="306" y2="300" stroke="#eee"/><text x="306" y="320" text-anchor="middle" font-size="10" fill="#666">10/23 4:20</text><line x1="408" y1="0" x2="408" y2="300" stroke="#eee"/><text x="408" y="320" text-anchor="middle" font-size="10" fill="#666">10/23 13:43</text><line x1="510" y1="0" x2="510" y2="300" stroke="#eee"/><text x="510" y="320" text-anchor="middle" font-size="10" fill="#666">10/23 23:06</text></g><path d="M0.00,297.88 L1.51,299.21 L3.02,298.35 L4.53,0.00 L6.04,299.29 L7.54,299.28 L9.05,298.71 L10.56,299.38 L12.07,299.28 L13.58,298.94 L15.09,299.17 L16.60,296.74 L18.11,299.01 L19.62,299.91 L21.12,299.98 L22.63,299.79 L24.14,299.38 L25.65,299.98 L27.16,299.97 L28.67,298.97 L30.18,299.37 L31.69,299.28" stroke="#4e73df" fill="none" stroke-width="2" stroke-linejoin="round"/><path d="M162.96,298.50 L164.47,299.05 L165.98,299.59 L167.49,299.38 L168.99,299.62 L170.50,299.62 L172.01,299.47 L173.52,299.62 L175.03,299.62 L176.54,299.49 L178.05,299.62 L179.56,299.62 L181.07,299.61 L182.57,299.48 L184.08,299.62 L185.59,299.62 L187.10,299.48 L188.61,299.63 L190.12,299.62 L191.63,299.46 L193.14,299.58" stroke="#4e73df" fill="none" stroke-width="2" stroke-linejoin="round"/><path d="M226.33,299.96 L227.84,299.97 L229.35,299.90 L230.86,299.80 L232.37,299.96 L233.88,299.96 L235.38,299.13 L236.89,296.04 L238.40,294.87 L239.91,299.11 L241.42,299.81 L242.93,299.60 L244.44,299.45 L245.95,299.10 L247.46,285.43 L248.96,299.09 L250.47,298.98 L251.98,299.10 L253.49,299.09 L255.00,299.00 L256.51,299.11 L258.02,295.37 L259.53,299.49 L261.04,299.35 L262.54,292.62 L264.05,299.13 L265.56,297.66 L267.07,299.01 L268.58,295.91 L270.09,299.11 L271.60,299.48 L273.11,299.97 L274.62,299.97 L276.12,299.55 L277.63,299.82 L279.14,296.66 L280.65,299.81 L282.16,299.83 L283.67,299.20 L285.18,298.93 L286.69,299.13 L288.20,299.51 L289.70,299.29 L291.21,292.45 L292.72,298.95" stroke="#4e73df" fill="none" stroke-width="2" stroke-linejoin="round"/><path d="M479.82,299.51 L481.33,299.50 L482.84,53.48 L484.35,299.25 L485.86,299.47 L487.37,299.24 L488.88,298.84 L490.38,299.48 L491.89,299.24 L493.40,298.67 L494.91,299.13 L496.42,298.96 L497.93,298.82 L499.44,299.33 L500.95,299.10 L502.46,299.48 L503.96,298.67 L505.47,298.82 L506.98,299.10 L508.49,298.97 L510.00,299.34" stroke="#4e73df" fill="none" stroke-width="2" stroke-linejoin="round"/><circle id="point-rx-0" cx="0.00" cy="297.88" r="5" fill="#4e73df" opacity="0" onmouseover="showTooltip(evt, 'rx', '220.9', '00:10:00', 0.00, 297.88)" onmouseout="hideTooltip()"/><circle id="point-rx-1" cx="1.51" cy="299.21" r="5" fill="#4e73df" opacity="0" onmouseover="showTooltip(evt, 'rx', '84.8', '00:18:20', 1.51, 299.21)" onmouseout="hideTooltip()"/><circle id="point-rx-2" cx="3.02" cy="298.35" r="5" fill="#4e73df" opacity="0" onmouseover="showTooltip(evt, 'rx', '172.9', '00:26:40', 3.02, 298.35)" onmouseout="hideTooltip()"/><circle id="point-rx-3" cx="4.53" cy="0.00" r="5" fill="#4e73df" opacity="0" onmouseover="showTooltip(evt, 'rx', '30692.0', '00:35:00', 4.53, 0.00)" onmouseout="hideTooltip()"/><circle id="point-rx-4" cx="6.04" cy="299.29" r="5" fill="#4e73df" opacity="0" onmouseover="showTooltip(evt, 'rx', '77.4', '00:43:20', 6.04, 299.29)" onmouseout="hideTooltip()"/><circle id="point-rx-5" cx="7.54" cy="299.28" r="5" fill="#4e73df" opacity="0" onmouseover="showTooltip(evt, 'rx', '77.6', '00:51:40', 7.54, 299.28)" onmouseout="hideTooltip()"/><circle id="point-rx-6" cx="9.05" cy="298.71" r="5" fill="#4e73df" opacity="0" onmouseover="showTooltip(evt, 'rx', '136.7', '01:00:00', 9.05, 298.71)" onmouseout="hideTooltip()"/><circle id="point-rx-7" cx="10.56" cy="299.38" r="5" fill="#4e73df" opacity="0" onmouseover="showTooltip(evt, 'rx', '68.0', '01:08:20', 10.56, 299.38)" onmouseout="hideTooltip()"/><circle id="point-rx-8" cx="12.07" cy="299.28" r="5" fill="#4e73df" opacity="0" onmouseover="showTooltip(evt, 'rx', '77.5', '01:16:40', 12.07, 299.28)" onmouseout="hideTooltip()"/><circle id="point-rx-9" cx="13.58" cy="298.94" r="5" fill="#4e73df" opacity="0" onmouseover="showTooltip(evt, 'rx', '112.9', '01:25:00', 13.58, 298.94)" onmouseout="hideTooltip()"/><circle id="point-rx-10" cx="15.09" cy="299.17" r="5" fill="#4e73df" opacity="0" onmouseover="showTooltip(evt, 'rx', '89.5', '01:33:20', 15.09, 299.17)" onmouseout="hideTooltip()"/><circle id="point-rx-11" cx="16.60" cy="296.74" r="5" fill="#4e73df" opacity="0" onmouseover="showTooltip(evt, 'rx', '338.0', '01:41:40', 16.60, 296.74)" onmouseout="hideTooltip()"/><circle id="point-rx-12" cx="18.11" cy="299.01" r="5" fill="#4e73df" opacity="0" onmouseover="showTooltip(evt, 'rx', '105.9', '01:50:00', 18.11, 299.01)" onmouseout="hideTooltip()"/><circle id="point-rx-13" cx="19.62" cy="299.91" r="5" fill="#4e73df" opacity="0" onmouseover="showTooltip(evt, 'rx', '13.8', '01:58:20', 19.62, 299.91)" onmouseout="hideTooltip()"/><circle id="point-rx-14" cx="21.12" cy="299.98" r="5" fill="#4e73df" opacity="0" onmouseover="showTooltip(evt, 'rx', '6.0', '02:06:40', 21.12, 299.98)" onmouseout="hideTooltip()"/><circle id="point-rx-15" cx="22.63" cy="299.79" r="5" fill="#4e73df" opacity="0" onmouseover="showTooltip(evt, 'rx', '26.0', '02:15:00', 22.63, 299.79)" onmouseout="hideTooltip()"/><circle id="point-rx-16" cx="24.14" cy="299.38" r="5" fill="#4e73df" opacity="0" onmouseover="showTooltip(evt, 'rx', '67.4', '02:23:20', 24.14, 299.38)" onmouseout="hideTooltip()"/><circle id="point-rx-17" cx="25.65" cy="299.98" r="5" fill="#4e73df" opacity="0" onmouseover="showTooltip(evt, 'rx', '6.3', '02:31:40', 25.65, 299.98)" onmouseout="hideTooltip()"/><circle id="point-rx-18" cx="27.16" cy="299.97" r="5" fill="#4e73df" opacity="0" onmouseover="showTooltip(evt, 'rx', '7.1', '02:40:00', 27.16, 299.97)" onmouseout="hideTooltip()"/><circle id="point-rx-19" cx="28.67" cy="298.97" r="5" fill="#4e73df" opacity="0" onmouseover="showTooltip(evt, 'rx', '109.2', '02:48:20', 28.67, 298.97)" onmouseout="hideTooltip()"/><circle id="point-rx-20" cx="30.18" cy="299.37" r="5" fill="#4e73df" opacity="0" onmouseover="showTooltip(evt, 'rx', '68.5', '02:56:40', 30.18, 299.37)" onmouseout="hideTooltip()"/><circle id="point-rx-21" cx="31.69" cy="299.28" r="5" fill="#4e73df" opacity="0" onmouseover="showTooltip(evt, 'rx', '77.8', '03:05:00', 31.69, 299.28)" onmouseout="hideTooltip()"/><circle id="point-rx-22" cx="162.96" cy="298.50" r="5" fill="#4e73df" opacity="0" onmouseover="showTooltip(evt, 'rx', '158.1', '15:10:00', 162.96, 298.50)" onmouseout="hideTooltip()"/><circle id="point-rx-23" cx="164.47" cy="299.05" r="5" fill="#4e73df" opacity="0" onmouseover="showTooltip(evt, 'rx', '101.9', '15:18:20', 164.47, 299.05)" onmouseout="hideTooltip()"/><circle id="point-rx-24" cx="165.98" cy="299.59" r="5" fill="#4e73df" opacity="0" onmouseover="showTooltip(evt, 'rx', '46.6', '15:26:40', 165.98, 299.59)" onmouseout="hideTooltip()"/><circle id="point-rx-25" cx="167.49" cy="299.38" r="5" fill="#4e73df" opacity="0" onmouseover="showTooltip(evt, 'rx', '67.6', '15:35:00', 167.49, 299.38)" onmouseout="hideTooltip()"/><circle id="point-rx-26" cx="168.99" cy="299.62" r="5" fill="#4e73df" opacity="0" onmouseover="showTooltip(evt, 'rx', '43.0', '15:43:20', 168.99, 299.62)" onmouseout="hideTooltip()"/><circle id="point-rx-27" cx="170.50" cy="299.62" r="5" fill="#4e73df" opacity="0" onmouseover="showTooltip(evt, 'rx', '43.5', '15:51:40', 170.50, 299.62)" onmouseout="hideTooltip()"/><circle id="point-rx-28" cx="172.01" cy="299.47" r="5" fill="#4e73df" opacity="0" onmouseover="showTooltip(evt, 'rx', '58.1', '16:00:00', 172.01, 299.47)" onmouseout="hideTooltip()"/><circle id="point-rx-29" cx="173.52" cy="299.62" r="5" fill="#4e73df" opacity="0" onmouseover="showTooltip(evt, 'rx', '43.5', '16:08:20', 173.52, 299.62)" onmouseout="hideTooltip()"/><circle id="point-rx-30" cx="175.03" cy="299.62" r="5" fill="#4e73df" opacity="0" onmouseover="showTooltip(evt, 'rx', '43.1', '16:16:40', 175.03, 299.62)" onmouseout="hideTooltip()"/><circle id="point-rx-31" cx="176.54" cy="299.49" r="5" fill="#4e73df" opacity="0" onmouseover="showTooltip(evt, 'rx', '57.0', '16:25:00', 176.54, 299.49)" onmouseout="hideTooltip()"/><circle id="point-rx-32" cx="178.05" cy="299.62" r="5" fill="#4e73df" opacity="0" onmouseover="showTooltip(evt, 'rx', '43.0', '16:33:20', 178.05, 299.62)" onmouseout="hideTooltip()"/><circle id="point-rx-33" cx="179.56" cy="299.62" r="5" fill="#4e73df" opacity="0" onmouseover="showTooltip(evt, 'rx', '43.1', '16:41:40', 179.56, 299.62)" onmouseout="hideTooltip()"/><circle id="point-rx-34" cx="181.07" cy="299.61" r="5" fill="#4e73df" opacity="0" onmouseover="showTooltip(evt, 'rx', '44.0', '16:50:00', 181.07, 299.61)" onmouseout="hideTooltip()"/><circle id="point-rx-35" cx="182.57" cy="299.48" r="5" fill="#4e73df" opacity="0" onmouseover="showTooltip(evt, 'rx', '57.6', '16:58:20', 182.57, 299.48)" onmouseout="hideTooltip()"/><circle id="point-rx-36" cx="184.08" cy="299.62" r="5" fill="#4e73df" opacity="0" onmouseover="showTooltip(evt, 'rx', '43.2', '17:06:40', 184.08, 299.62)" onmouseout="hideTooltip()"/><circle id="point-rx-37" cx="185.59" cy="299.62" r="5" fill="#4e73df" opacity="0" onmouseover="showTooltip(evt, 'rx', '42.8', '17:15:00', 185.59, 299.62)" onmouseout="hideTooltip()"/><circle id="point-rx-38" cx="187.10" cy="299.48" r="5" fill="#4e73df" opacity="0" onmouseover="showTooltip(evt, 'rx', '57.4', '17:23:20', 187.10, 299.48)" onmouseout="hideTooltip()"/><circle id="point-rx-39" cx="188.61" cy="299.63" r="5" fill="#4e73df" opacity="0" onmouseover="showTooltip(evt, 'rx', '42.6', '17:31:40', 188.61, 299.63)" onmouseout="hideTooltip()"/><circle id="point-rx-40" cx="190.12" cy="299.62" r="5" fill="#4e73df" opacity="0" onmouseover="showTooltip(evt, 'rx', '43.3', '17:40:00', 190.12, 299.62)" onmouseout="hideTooltip()"/><circle id="point-rx-41" cx="191.63" cy="299.46" r="5" fill="#4e73df" opacity="0" onmouseover="showTooltip(evt, 'rx', '59.4', '17:48:20', 191.63, 299.46)" onmouseout="hideTooltip()"/><circle id="point-rx-42" cx="193.14" cy="299.58" r="5" fill="#4e73df" opacity="0" onmouseover="showTooltip(evt, 'rx', '46.9', '17:56:40', 193.14, 299.58)" onmouseout="hideTooltip()"/><circle id="point-rx-43" cx="226.33" cy="299.96" r="5" fill="#4e73df" opacity="0" onmouseover="showTooltip(evt, 'rx', '8.8', '21:00:00', 226.33, 299.96)" onmouseout="hideTooltip()"/><circle id="point-rx-44" cx="227.84" cy="299.97" r="5" fill="#4e73df" opacity="0" onmouseover="showTooltip(evt, 'rx', '7.8', '21:08:20', 227.84, 299.97)" onmouseout="hideTooltip()"/><circle id="point-rx-45" cx="229.35" cy="299.90" r="5" fill="#4e73df" opacity="0" onmouseover="showTooltip(evt, 'rx', '14.0', '21:16:40', 229.35, 299.90)" onmouseout="hideTooltip()"/><circle id="point-rx-46" cx="230.86" cy="299.80" r="5" fill="#4e73df" opacity="0" onmouseover="showTooltip(evt, 'rx', '24.6', '21:25:00', 230.86, 299.80)" onmouseout="hideTooltip()"/><circle id="point-rx-47" cx="232.37" cy="299.96" r="5" fill="#4e73df" opacity="0" onmouseover="showTooltip(evt, 'rx', '8.1', '21:33:20', 232.37, 299.96)" onmouseout="hideTooltip()"/><circle id="point-rx-48" cx="233.88" cy="299.96" r="5" fill="#4e73df" opacity="0" onmouseover="showTooltip(evt, 'rx', '7.9', '21:41:40', 233.88, 299.96)" onmouseout="hideTooltip()"/><circle id="point-rx-49" cx="235.38" cy="299.13" r="5" fill="#4e73df" opacity="0" onmouseover="showTooltip(evt, 'rx', '93.5', '21:50:00', 235.38, 299.13)" onmouseout="hideTooltip()"/><circle id="point-rx-50" cx="236.89" cy="296.04" r="5" fill="#4e73df" opacity="0" onmouseover="showTooltip(evt, 'rx', '409.1', '21:58:20', 236.89, 296.04)" onmouseout="hideTooltip()"/><circle id="point-rx-51" cx="238.40" cy="294.87" r="5" fill="#4e73df" opacity="0" onmouseover="showTooltip(evt, 'rx', '528.9', '22:06:40', 238.40, 294.87)" onmouseout="hideTooltip()"/><circle id="point-rx-52" cx="239.91" cy="299.11" r="5" fill="#4e73df" opacity="0" onmouseover="showTooltip(evt, 'rx', '95.2', '22:15:00', 239.91, 299.11)" onmouseout="hideTooltip()"/><circle id="point-rx-53" cx="241.42" cy="299.81" r="5" fill="#4e73df" opacity="0" onmouseover="showTooltip(evt, 'rx', '23.9', '22:23:20', 241.42, 299.81)" onmouseout="hideTooltip()"/><circle id="point-rx-54" cx="242.93" cy="299.60" r="5" fill="#4e73df" opacity="0" onmouseover="showTooltip(evt, 'rx', '45.7', '22:31:40', 242.93, 299.60)" onmouseout="hideTooltip()"/><circle id="point-rx-55" cx="244.44" cy="299.45" r="5" fill="#4e73df" opacity="0" onmouseover="showTooltip(evt, 'rx', '61.0', '22:40:00', 244.44, 299.45)" onmouseout="hideTooltip()"/><circle id="point-rx-56" cx="245.95" cy="299.10" r="5" fill="#4e73df" opacity="0" onmouseover="showTooltip(evt, 'rx', '96.3', '22:48:20', 245.95, 299.10)" onmouseout="hideTooltip()"/><circle id="point-rx-57" cx="247.46" cy="285.43" r="5" fill="#4e73df" opacity="0" onmouseover="showTooltip(evt, 'rx', '1495.0', '22:56:40', 247.46, 285.43)" onmouseout="hideTooltip()"/><circle id="point-rx-58" cx="248.96" cy="299.09" r="5" fill="#4e73df" opacity="0" onmouseover="showTooltip(evt, 'rx', '97.6', '23:05:00', 248.96, 299.09)" onmouseout="hideTooltip()"/><circle id="point-rx-59" cx="250.47" cy="298.98" r="5" fill="#4e73df" opacity="0" onmouseover="showTooltip(evt, 'rx', '108.5', '23:13:20', 250.47, 298.98)" onmouseout="hideTooltip()"/><circle id="point-rx-60" cx="251.98" cy="299.10" r="5" fill="#4e73df" opacity="0" onmouseover="showTooltip(evt, 'rx', '96.8', '23:21:40', 251.98, 299.10)" onmouseout="hideTooltip()"/><circle id="point-rx-61" cx="253.49" cy="299.09" r="5" fill="#4e73df" opacity="0" onmouseover="showTooltip(evt, 'rx', '96.9', '23:30:00', 253.49, 299.09)" onmouseout="hideTooltip()"/><circle id="point-rx-62" cx="255.00" cy="299.00" r="5" fill="#4e73df" opacity="0" onmouseover="showTooltip(evt, 'rx', '106.8', '23:38:20', 255.00, 299.00)" onmouseout="hideTooltip()"/><circle id="point-rx-63" cx="256.51" cy="299.11" r="5" fill="#4e73df" opacity="0" onmouseover="showTooltip(evt, 'rx', '95.7', '23:46:40', 256.51, 299.11)" onmouseout="hideTooltip()"/><circle id="point-rx-64" cx="258.02" cy="295.37" r="5" fill="#4e73df" opacity="0" onmouseover="showTooltip(evt, 'rx', '477.5', '23:55:00', 258.02, 295.37)" onmouseout="hideTooltip()"/><circle id="point-rx-65" cx="259.53" cy="299.49" r="5" fill="#4e73df" opacity="0" onmouseover="showTooltip(evt, 'rx', '56.1', '00:03:20', 259.53, 299.49)" onmouseout="hideTooltip()"/><circle id="point-rx-66" cx="261.04" cy="299.35" r="5" fill="#4e73df" opacity="0" onmouseover="showTooltip(evt, 'rx', '71.0', '00:11:40', 261.04, 299.35)" onmouseout="hideTooltip()"/><circle id="point-rx-67" cx="262.54" cy="292.62" r="5" fill="#4e73df" opacity="0" onmouseover="showTooltip(evt, 'rx', '758.8', '00:20:00', 262.54, 292.62)" onmouseout="hideTooltip()"/><circle id="point-rx-68" cx="264.05" cy="299.13" r="5" fill="#4e73df" opacity="0" onmouseover="showTooltip(evt, 'rx', '92.8', '00:28:20', 264.05, 299.13)" onmouseout="hideTooltip()"/><circle id="point-rx-69" cx="265.56" cy="297.66" r="5" fill="#4e73df" opacity="0" onmouseover="showTooltip(evt, 'rx', '243.6', '00:36:40', 265.56, 297.66)" onmouseout="hideTooltip()"/><circle id="point-rx-70" cx="267.07" cy="299.01" r="5" fill="#4e73df" opacity="0" onmouseover="showTooltip(evt, 'rx', '105.4', '00:45:00', 267.07, 299.01)" onmouseout="hideTooltip()"/><circle id="point-rx-71" cx="268.58" cy="295.91" r="5" fill="#4e73df" opacity="0" onmouseover="showTooltip(evt, 'rx', '422.9', '00:53:20', 268.58, 295.91)" onmouseout="hideTooltip()"/><circle id="point-rx-72" cx="270.09" cy="299.11" r="5" fill="#4e73df" opacity="0" onmouseover="showTooltip(evt, 'rx', '95.9', '01:01:40', 270.09, 299.11)" onmouseout="hideTooltip()"/><circle id="point-rx-73" cx="271.60" cy="299.48" r="5" fill="#4e73df" opacity="0" onmouseover="showTooltip(evt, 'rx', '57.4', '01:10:00', 271.60, 299.48)" onmouseout="hideTooltip()"/><circle id="point-rx-74" cx="273.11" cy="299.97" r="5" fill="#4e73df" opacity="0" onmouseover="showTooltip(evt, 'rx', '7.7', '01:18:20', 273.11, 299.97)" onmouseout="hideTooltip()"/><circle id="point-rx-75" cx="274.62" cy="299.97" r="5" fill="#4e73df" opacity="0" onmouseover="showTooltip(evt, 'rx', '6.9', '01:26:40', 274.62, 299.97)" onmouseout="hideTooltip()"/><circle id="point-rx-76" cx="276.12" cy="299.55" r="5" fill="#4e73df" opacity="0" onmouseover="showTooltip(evt, 'rx', '50.4', '01:35:00', 276.12, 299.55)" onmouseout="hideTooltip()"/><circle id="point-rx-77" cx="277.63" cy="299.82" r="5" fill="#4e73df" opacity="0" onmouseover="showTooltip(evt, 'rx', '22.5', '01:43:20', 277.63, 299.82)" onmouseout="hideTooltip()"/><circle id="point-rx-78" cx="279.14" cy="296.66" r="5" fill="#4e73df" opacity="0" onmouseover="showTooltip(evt, 'rx', '346.4', '01:51:40', 279.14, 296.66)" onmouseout="hideTooltip()"/><circle id="point-rx-79" cx="280.65" cy="299.81" r="5" fill="#4e73df" opacity="0" onmouseover="showTooltip(evt, 'rx', '23.8', '02:00:00', 280.65, 299.81)" onmouseout="hideTooltip()"/><circle id="point-rx-80" cx="282.16" cy="299.83" r="5" fill="#4e73df" opacity="0" onmouseover="showTooltip(evt, 'rx', '21.7', '02:08:20', 282.16, 299.83)" onmouseout="hideTooltip()"/><circle id="point-rx-81" cx="283.67" cy="299.20" r="5" fill="#4e73df" opacity="0" onmouseover="showTooltip(evt, 'rx', '86.5', '02:16:40', 283.67, 299.20)" onmouseout="hideTooltip()"/><circle id="point-rx-82" cx="285.18" cy="298.93" r="5" fill="#4e73df" opacity="0" onmouseover="showTooltip(evt, 'rx', '113.9', '02:25:00', 285.18, 298.93)" onmouseout="hideTooltip()"/><circle id="point-rx-83" cx="286.69" cy="299.13" r="5" fill="#4e73df" opacity="0" onmouseover="showTooltip(evt, 'rx', '93.7', '02:33:20', 286.69, 299.13)" onmouseout="hideTooltip()"/><circle id="point-rx-84" cx="288.20" cy="299.51" r="5" fill="#4e73df" opacity="0" onmouseover="showTooltip(evt, 'rx', '54.7', '02:41:40', 288.20, 299.51)" onmouseout="hideTooltip()"/><circle id="point-rx-85" cx="289.70" cy="299.29" r="5" fill="#4e73df" opacity="0" onmouseover="showTooltip(evt, 'rx', '77.3', '02:50:00', 289.70, 299.29)" onmouseout="hideTooltip()"/><circle id="point-rx-86" cx="291.21" cy="292.45" r="5" fill="#4e73df" opacity="0" onmouseover="showTooltip(evt, 'rx', '777.0', '02:58:20', 291.21, 292.45)" onmouseout="hideTooltip()"/><circle id="point-rx-87" cx="292.72" cy="298.95" r="5" fill="#4e73df" opacity="0" onmouseover="showTooltip(evt, 'rx', '112.1', '03:06:40', 292.72, 298.95)" onmouseout="hideTooltip()"/><circle id="point-rx-88" cx="479.82" cy="299.51" r="5" fill="#4e73df" opacity="0" onmouseover="showTooltip(evt, 'rx', '54.2', '20:20:00', 479.82, 299.51)" onmouseout="hideTooltip()"/><circle id="point-rx-89" cx="481.33" cy="299.50" r="5" fill="#4e73df" opacity="0" onmouseover="showTooltip(evt, 'rx', '55.6', '20:28:20', 481.33, 299.50)" onmouseout="hideTooltip()"/><circle id="point-rx-90" cx="482.84" cy="53.48" r="5" fill="#4e73df" opacity="0" onmouseover="showTooltip(evt, 'rx', '25221.6', '20:36:40', 482.84, 53.48)" onmouseout="hideTooltip()"/><circle id="point-rx-91" cx="484.35" cy="299.25" r="5" fill="#4e73df" opacity="0" onmouseover="showTooltip(evt, 'rx', '81.1', '20:45:00', 484.35, 299.25)" onmouseout="hideTooltip()"/><circle id="point-rx-92" cx="485.86" cy="299.47" r="5" fill="#4e73df" opacity="0" onmouseover="showTooltip(evt, 'rx', '58.3', '20:53:20', 485.86, 299.47)" onmouseout="hideTooltip()"/><circle id="point-rx-93" cx="487.37" cy="299.24" r="5" fill="#4e73df" opacity="0" onmouseover="showTooltip(evt, 'rx', '82.1', '21:01:40', 487.37, 299.24)" onmouseout="hideTooltip()"/><circle id="point-rx-94" cx="488.88" cy="298.84" r="5" fill="#4e73df" opacity="0" onmouseover="showTooltip(evt, 'rx', '123.3', '21:10:00', 488.88, 298.84)" onmouseout="hideTooltip()"/><circle id="point-rx-95" cx="490.38" cy="299.48" r="5" fill="#4e73df" opacity="0" onmouseover="showTooltip(evt, 'rx', '57.9', '21:18:20', 490.38, 299.48)" onmouseout="hideTooltip()"/><circle id="point-rx-96" cx="491.89" cy="299.24" r="5" fill="#4e73df" opacity="0" onmouseover="showTooltip(evt, 'rx', '81.7', '21:26:40', 491.89, 299.24)" onmouseout="hideTooltip()"/><circle id="point-rx-97" cx="493.40" cy="298.67" r="5" fill="#4e73df" opacity="0" onmouseover="showTooltip(evt, 'rx', '140.0', '21:35:00', 493.40, 298.67)" onmouseout="hideTooltip()"/><circle id="point-rx-98" cx="494.91" cy="299.13" r="5" fill="#4e73df" opacity="0" onmouseover="showTooltip(evt, 'rx', '92.9', '21:43:20', 494.91, 299.13)" onmouseout="hideTooltip()"/><circle id="point-rx-99" cx="496.42" cy="298.96" r="5" fill="#4e73df" opacity="0" onmouseover="showTooltip(evt, 'rx', '110.7', '21:51:40', 496.42, 298.96)" onmouseout="hideTooltip()"/><circle id="point-rx-100" cx="497.93" cy="298.82" r="5" fill="#4e73df" opacity="0" onmouseover="showTooltip(evt, 'rx', '125.5', '22:00:00', 497.93, 298.82)" onmouseout="hideTooltip()"/><circle id="point-rx-101" cx="499.44" cy="299.33" r="5" fill="#4e73df" opacity="0" onmouseover="showTooltip(evt, 'rx', '72.4', '22:08:20', 499.44, 299.33)" onmouseout="hideTooltip()"/><circle id="point-rx-102" cx="500.95" cy="299.10" r="5" fill="#4e73df" opacity="0" onmouseover="showTooltip(evt, 'rx', '96.8', '22:16:40', 500.95, 299.10)" onmouseout="hideTooltip()"/><circle id="point-rx-103" cx="502.46" cy="299.48" r="5" fill="#4e73df" opacity="0" onmouseover="showTooltip(evt, 'rx', '57.7', '22:25:00', 502.46, 299.48)" onmouseout="hideTooltip()"/><circle id="point-rx-104" cx="503.96" cy="298.67" r="5" fill="#4e73df" opacity="0" onmouseover="showTooltip(evt, 'rx', '140.1', '22:33:20', 503.96, 298.67)" onmouseout="hideTooltip()"/><circle id="point-rx-105" cx="505.47" cy="298.82" r="5" fill="#4e73df" opacity="0" onmouseover="showTooltip(evt, 'rx', '124.6', '22:41:40', 505.47, 298.82)" onmouseout="hideTooltip()"/><circle id="point-rx-106" cx="506.98" cy="299.10" r="5" fill="#4e73df" opacity="0" onmouseover="showTooltip(evt, 'rx', '96.2', '22:50:00', 506.98, 299.10)" onmouseout="hideTooltip()"/><circle id="point-rx-107" cx="508.49" cy="298.97" r="5" fill="#4e73df" opacity="0" onmouseover="showTooltip(evt, 'rx', '109.4', '22:58:20', 508.49, 298.97)" onmouseout="hideTooltip()"/><circle id="point-rx-108" cx="510.00" cy="299.34" r="5" fill="#4e73df" opacity="0" onmouseover="showTooltip(evt, 'rx', '71.8', '23:06:40', 510.00, 299.34)" onmouseout="hideTooltip()"/><path d="M0.00,299.45 L1.51,299.65 L3.02,299.41 L4.53,294.94 L6.04,299.72 L7.54,299.72 L9.05,299.56 L10.56,299.75 L12.07,299.72 L13.58,299.65 L15.09,299.68 L16.60,298.84 L18.11,299.67 L19.62,299.97 L21.12,299.99 L22.63,300.00 L24.14,299.83 L25.65,300.00 L27.16,300.00 L28.67,299.70 L30.18,299.75 L31.69,299.72" stroke="#1cc88a" fill="none" stroke-width="2" stroke-linejoin="round"/><path d="M162.96,299.70 L164.47,299.76 L165.98,299.85 L167.49,299.77 L168.99,299.86 L170.50,299.86 L172.01,299.81 L173.52,299.85 L175.03,299.86 L176.54,299.82 L178.05,299.86 L179.56,299.86 L181.07,299.86 L182.57,299.82 L184.08,299.86 L185.59,299.86 L187.10,299.81 L188.61,299.86 L190.12,299.85 L191.63,299.82 L193.14,299.86" stroke="#1cc88a" fill="none" stroke-width="2" stroke-linejoin="round"/><path d="M226.33,299.99 L227.84,299.99 L229.35,299.93 L230.86,299.94 L232.37,299.99 L233.88,299.99 L235.38,299.64 L236.89,299.46 L238.40,296.31 L239.91,299.68 L241.42,299.95 L242.93,299.87 L244.44,299.79 L245.95,299.67 L247.46,298.88 L248.96,299.66 L250.47,299.58 L251.98,299.67 L253.49,299.68 L255.00,299.57 L256.51,299.68 L258.02,299.18 L259.53,299.81 L261.04,299.77 L262.54,299.51 L264.05,299.63 L265.56,299.48 L267.07,299.61 L268.58,299.34 L270.09,299.68 L271.60,299.85 L273.11,299.99 L274.62,300.00 L276.12,299.84 L277.63,299.95 L279.14,299.71 L280.65,299.95 L282.16,299.96 L283.67,299.68 L285.18,299.60 L286.69,299.67 L288.20,299.81 L289.70,299.72 L291.21,297.85 L292.72,299.72" stroke="#1cc88a" fill="none" stroke-width="2" stroke-linejoin="round"/><path d="M479.82,299.70 L481.33,299.80 L482.84,295.81 L484.35,299.71 L485.86,299.80 L487.37,299.71 L488.88,299.52 L490.38,299.80 L491.89,299.71 L493.40,299.32 L494.91,299.62 L496.42,299.41 L497.93,299.48 L499.44,299.65 L500.95,299.56 L502.46,299.80 L503.96,299.32 L505.47,299.26 L506.98,299.62 L508.49,299.64 L510.00,299.65" stroke="#1cc88a" fill="none" stroke-width="2" stroke-linejoin="round"/><circle id="point-tx-0" cx="0.00" cy="299.45" r="5" fill="#1cc88a" opacity="0" onmouseover="showTooltip(evt, 'tx', '61.1', '00:10:00', 0.00, 299.45)" onmouseout="hideTooltip()"/><circle id="point-tx-1" cx="1.51" cy="299.65" r="5" fill="#1cc88a" opacity="0" onmouseover="showTooltip(evt, 'tx', '39.9', '00:18:20', 1.51, 299.65)" onmouseout="hideTooltip()"/><circle id="point-tx-2" cx="3.02" cy="299.41" r="5" fill="#1cc88a" opacity="0" onmouseover="showTooltip(evt, 'tx', '65.1', '00:26:40', 3.02, 299.41)" onmouseout="hideTooltip()"/><circle id="point-tx-3" cx="4.53" cy="294.94" r="5" fill="#1cc88a" opacity="0" onmouseover="showTooltip(evt, 'tx', '521.8', '00:35:00', 4.53, 294.94)" onmouseout="hideTooltip()"/><circle id="point-tx-4" cx="6.04" cy="299.72" r="5" fill="#1cc88a" opacity="0" onmouseover="showTooltip(evt, 'tx', '33.1', '00:43:20', 6.04, 299.72)" onmouseout="hideTooltip()"/><circle id="point-tx-5" cx="7.54" cy="299.72" r="5" fill="#1cc88a" opacity="0" onmouseover="showTooltip(evt, 'tx', '32.6', '00:51:40', 7.54, 299.72)" onmouseout="hideTooltip()"/><circle id="point-tx-6" cx="9.05" cy="299.56" r="5" fill="#1cc88a" opacity="0" onmouseover="showTooltip(evt, 'tx', '49.5', '01:00:00', 9.05, 299.56)" onmouseout="hideTooltip()"/><circle id="point-tx-7" cx="10.56" cy="299.75" r="5" fill="#1cc88a" opacity="0" onmouseover="showTooltip(evt, 'tx', '29.4', '01:08:20', 10.56, 299.75)" onmouseout="hideTooltip()"/><circle id="point-tx-8" cx="12.07" cy="299.72" r="5" fill="#1cc88a" opacity="0" onmouseover="showTooltip(evt, 'tx', '32.7', '01:16:40', 12.07, 299.72)" onmouseout="hideTooltip()"/><circle id="point-tx-9" cx="13.58" cy="299.65" r="5" fill="#1cc88a" opacity="0" onmouseover="showTooltip(evt, 'tx', '40.2', '01:25:00', 13.58, 299.65)" onmouseout="hideTooltip()"/><circle id="point-tx-10" cx="15.09" cy="299.68" r="5" fill="#1cc88a" opacity="0" onmouseover="showTooltip(evt, 'tx', '37.4', '01:33:20', 15.09, 299.68)" onmouseout="hideTooltip()"/><circle id="point-tx-11" cx="16.60" cy="298.84" r="5" fill="#1cc88a" opacity="0" onmouseover="showTooltip(evt, 'tx', '123.2', '01:41:40', 16.60, 298.84)" onmouseout="hideTooltip()"/><circle id="point-tx-12" cx="18.11" cy="299.67" r="5" fill="#1cc88a" opacity="0" onmouseover="showTooltip(evt, 'tx', '38.4', '01:50:00', 18.11, 299.67)" onmouseout="hideTooltip()"/><circle id="point-tx-13" cx="19.62" cy="299.97" r="5" fill="#1cc88a" opacity="0" onmouseover="showTooltip(evt, 'tx', '7.2', '01:58:20', 19.62, 299.97)" onmouseout="hideTooltip()"/><circle id="point-tx-14" cx="21.12" cy="299.99" r="5" fill="#1cc88a" opacity="0" onmouseover="showTooltip(evt, 'tx', '5.2', '02:06:40', 21.12, 299.99)" onmouseout="hideTooltip()"/><circle id="point-tx-15" cx="22.63" cy="300.00" r="5" fill="#1cc88a" opacity="0" onmouseover="showTooltip(evt, 'tx', '4.3', '02:15:00', 22.63, 300.00)" onmouseout="hideTooltip()"/><circle id="point-tx-16" cx="24.14" cy="299.83" r="5" fill="#1cc88a" opacity="0" onmouseover="showTooltip(evt, 'tx', '21.3', '02:23:20', 24.14, 299.83)" onmouseout="hideTooltip()"/><circle id="point-tx-17" cx="25.65" cy="300.00" r="5" fill="#1cc88a" opacity="0" onmouseover="showTooltip(evt, 'tx', '4.7', '02:31:40', 25.65, 300.00)" onmouseout="hideTooltip()"/><circle id="point-tx-18" cx="27.16" cy="300.00" r="5" fill="#1cc88a" opacity="0" onmouseover="showTooltip(evt, 'tx', '4.5', '02:40:00', 27.16, 300.00)" onmouseout="hideTooltip()"/><circle id="point-tx-19" cx="28.67" cy="299.70" r="5" fill="#1cc88a" opacity="0" onmouseover="showTooltip(evt, 'tx', '35.2', '02:48:20', 28.67, 299.70)" onmouseout="hideTooltip()"/><circle id="point-tx-20" cx="30.18" cy="299.75" r="5" fill="#1cc88a" opacity="0" onmouseover="showTooltip(evt, 'tx', '29.4', '02:56:40', 30.18, 299.75)" onmouseout="hideTooltip()"/><circle id="point-tx-21" cx="31.69" cy="299.72" r="5" fill="#1cc88a" opacity="0" onmouseover="showTooltip(evt, 'tx', '32.9', '03:05:00', 31.69, 299.72)" onmouseout="hideTooltip()"/><circle id="point-tx-22" cx="162.96" cy="299.70" r="5" fill="#1cc88a" opacity="0" onmouseover="showTooltip(evt, 'tx', '35.2', '15:10:00', 162.96, 299.70)" onmouseout="hideTooltip()"/><circle id="point-tx-23" cx="164.47" cy="299.76" r="5" fill="#1cc88a" opacity="0" onmouseover="showTooltip(evt, 'tx', '29.0', '15:18:20', 164.47, 299.76)" onmouseout="hideTooltip()"/><circle id="point-tx-24" cx="165.98" cy="299.85" r="5" fill="#1cc88a" opacity="0" onmouseover="showTooltip(evt, 'tx', '20.1', '15:26:40', 165.98, 299.85)" onmouseout="hideTooltip()"/><circle id="point-tx-25" cx="167.49" cy="299.77" r="5" fill="#1cc88a" opacity="0" onmouseover="showTooltip(evt, 'tx', '28.0', '15:35:00', 167.49, 299.77)" onmouseout="hideTooltip()"/><circle id="point-tx-26" cx="168.99" cy="299.86" r="5" fill="#1cc88a" opacity="0" onmouseover="showTooltip(evt, 'tx', '18.9', '15:43:20', 168.99, 299.86)" onmouseout="hideTooltip()"/><circle id="point-tx-27" cx="170.50" cy="299.86" r="5" fill="#1cc88a" opacity="0" onmouseover="showTooltip(evt, 'tx', '18.5', '15:51:40', 170.50, 299.86)" onmouseout="hideTooltip()"/><circle id="point-tx-28" cx="172.01" cy="299.81" r="5" fill="#1cc88a" opacity="0" onmouseover="showTooltip(evt, 'tx', '23.4', '16:00:00', 172.01, 299.81)" onmouseout="hideTooltip()"/><circle id="point-tx-29" cx="173.52" cy="299.85" r="5" fill="#1cc88a" opacity="0" onmouseover="showTooltip(evt, 'tx', '19.4', '16:08:20', 173.52, 299.85)" onmouseout="hideTooltip()"/><circle id="point-tx-30" cx="175.03" cy="299.86" r="5" fill="#1cc88a" opacity="0" onmouseover="showTooltip(evt, 'tx', '18.7', '16:16:40', 175.03, 299.86)" onmouseout="hideTooltip()"/><circle id="point-tx-31" cx="176.54" cy="299.82" r="5" fill="#1cc88a" opacity="0" onmouseover="showTooltip(evt, 'tx', '22.9', '16:25:00', 176.54, 299.82)" onmouseout="hideTooltip()"/><circle id="point-tx-32" cx="178.05" cy="299.86" r="5" fill="#1cc88a" opacity="0" onmouseover="showTooltip(evt, 'tx', '18.9', '16:33:20', 178.05, 299.86)" onmouseout="hideTooltip()"/><circle id="point-tx-33" cx="179.56" cy="299.86" r="5" fill="#1cc88a" opacity="0" onmouseover="showTooltip(evt, 'tx', '18.4', '16:41:40', 179.56, 299.86)" onmouseout="hideTooltip()"/><circle id="point-tx-34" cx="181.07" cy="299.86" r="5" fill="#1cc88a" opacity="0" onmouseover="showTooltip(evt, 'tx', '18.9', '16:50:00', 181.07, 299.86)" onmouseout="hideTooltip()"/><circle id="point-tx-35" cx="182.57" cy="299.82" r="5" fill="#1cc88a" opacity="0" onmouseover="showTooltip(evt, 'tx', '22.6', '16:58:20', 182.57, 299.82)" onmouseout="hideTooltip()"/><circle id="point-tx-36" cx="184.08" cy="299.86" r="5" fill="#1cc88a" opacity="0" onmouseover="showTooltip(evt, 'tx', '19.0', '17:06:40', 184.08, 299.86)" onmouseout="hideTooltip()"/><circle id="point-tx-37" cx="185.59" cy="299.86" r="5" fill="#1cc88a" opacity="0" onmouseover="showTooltip(evt, 'tx', '18.8', '17:15:00', 185.59, 299.86)" onmouseout="hideTooltip()"/><circle id="point-tx-38" cx="187.10" cy="299.81" r="5" fill="#1cc88a" opacity="0" onmouseover="showTooltip(evt, 'tx', '23.4', '17:23:20', 187.10, 299.81)" onmouseout="hideTooltip()"/><circle id="point-tx-39" cx="188.61" cy="299.86" r="5" fill="#1cc88a" opacity="0" onmouseover="showTooltip(evt, 'tx', '18.7', '17:31:40', 188.61, 299.86)" onmouseout="hideTooltip()"/><circle id="point-tx-40" cx="190.12" cy="299.85" r="5" fill="#1cc88a" opacity="0" onmouseover="showTooltip(evt, 'tx', '19.5', '17:40:00', 190.12, 299.85)" onmouseout="hideTooltip()"/><circle id="point-tx-41" cx="191.63" cy="299.82" r="5" fill="#1cc88a" opacity="0" onmouseover="showTooltip(evt, 'tx', '23.2', '17:48:20', 191.63, 299.82)" onmouseout="hideTooltip()"/><circle id="point-tx-42" cx="193.14" cy="299.86" r="5" fill="#1cc88a" opacity="0" onmouseover="showTooltip(evt, 'tx', '18.9', '17:56:40', 193.14, 299.86)" onmouseout="hideTooltip()"/><circle id="point-tx-43" cx="226.33" cy="299.99" r="5" fill="#1cc88a" opacity="0" onmouseover="showTooltip(evt, 'tx', '5.6', '21:00:00', 226.33, 299.99)" onmouseout="hideTooltip()"/><circle id="point-tx-44" cx="227.84" cy="299.99" r="5" fill="#1cc88a" opacity="0" onmouseover="showTooltip(evt, 'tx', '5.5', '21:08:20', 227.84, 299.99)" onmouseout="hideTooltip()"/><circle id="point-tx-45" cx="229.35" cy="299.93" r="5" fill="#1cc88a" opacity="0" onmouseover="showTooltip(evt, 'tx', '11.9', '21:16:40', 229.35, 299.93)" onmouseout="hideTooltip()"/><circle id="point-tx-46" cx="230.86" cy="299.94" r="5" fill="#1cc88a" opacity="0" onmouseover="showTooltip(evt, 'tx', '10.9', '21:25:00', 230.86, 299.94)" onmouseout="hideTooltip()"/><circle id="point-tx-47" cx="232.37" cy="299.99" r="5" fill="#1cc88a" opacity="0" onmouseover="showTooltip(evt, 'tx', '5.5', '21:33:20', 232.37, 299.99)" onmouseout="hideTooltip()"/><circle id="point-tx-48" cx="233.88" cy="299.99" r="5" fill="#1cc88a" opacity="0" onmouseover="showTooltip(evt, 'tx', '5.5', '21:41:40', 233.88, 299.99)" onmouseout="hideTooltip()"/><circle id="point-tx-49" cx="235.38" cy="299.64" r="5" fill="#1cc88a" opacity="0" onmouseover="showTooltip(evt, 'tx', '40.9', '21:50:00', 235.38, 299.64)" onmouseout="hideTooltip()"/><circle id="point-tx-50" cx="236.89" cy="299.46" r="5" fill="#1cc88a" opacity="0" onmouseover="showTooltip(evt, 'tx', '59.8', '21:58:20', 236.89, 299.46)" onmouseout="hideTooltip()"/><circle id="point-tx-51" cx="238.40" cy="296.31" r="5" fill="#1cc88a" opacity="0" onmouseover="showTooltip(evt, 'tx', '381.9', '22:06:40', 238.40, 296.31)" onmouseout="hideTooltip()"/><circle id="point-tx-52" cx="239.91" cy="299.68" r="5" fill="#1cc88a" opacity="0" onmouseover="showTooltip(evt, 'tx', '37.4', '22:15:00', 239.91, 299.68)" onmouseout="hideTooltip()"/><circle id="point-tx-53" cx="241.42" cy="299.95" r="5" fill="#1cc88a" opacity="0" onmouseover="showTooltip(evt, 'tx', '9.4', '22:23:20', 241.42, 299.95)" onmouseout="hideTooltip()"/><circle id="point-tx-54" cx="242.93" cy="299.87" r="5" fill="#1cc88a" opacity="0" onmouseover="showTooltip(evt, 'tx', '17.8', '22:31:40', 242.93, 299.87)" onmouseout="hideTooltip()"/><circle id="point-tx-55" cx="244.44" cy="299.79" r="5" fill="#1cc88a" opacity="0" onmouseover="showTooltip(evt, 'tx', '25.4', '22:40:00', 244.44, 299.79)" onmouseout="hideTooltip()"/><circle id="point-tx-56" cx="245.95" cy="299.67" r="5" fill="#1cc88a" opacity="0" onmouseover="showTooltip(evt, 'tx', '37.6', '22:48:20', 245.95, 299.67)" onmouseout="hideTooltip()"/><circle id="point-tx-57" cx="247.46" cy="298.88" r="5" fill="#1cc88a" opacity="0" onmouseover="showTooltip(evt, 'tx', '118.7', '22:56:40', 247.46, 298.88)" onmouseout="hideTooltip()"/><circle id="point-tx-58" cx="248.96" cy="299.66" r="5" fill="#1cc88a" opacity="0" onmouseover="showTooltip(evt, 'tx', '38.9', '23:05:00', 248.96, 299.66)" onmouseout="hideTooltip()"/><circle id="point-tx-59" cx="250.47" cy="299.58" r="5" fill="#1cc88a" opacity="0" onmouseover="showTooltip(evt, 'tx', '47.4', '23:13:20', 250.47, 299.58)" onmouseout="hideTooltip()"/><circle id="point-tx-60" cx="251.98" cy="299.67" r="5" fill="#1cc88a" opacity="0" onmouseover="showTooltip(evt, 'tx', '37.6', '23:21:40', 251.98, 299.67)" onmouseout="hideTooltip()"/><circle id="point-tx-61" cx="253.49" cy="299.68" r="5" fill="#1cc88a" opacity="0" onmouseover="showTooltip(evt, 'tx', '37.2', '23:30:00', 253.49, 299.68)" onmouseout="hideTooltip()"/><circle id="point-tx-62" cx="255.00" cy="299.57" r="5" fill="#1cc88a" opacity="0" onmouseover="showTooltip(evt, 'tx', '48.3', '23:38:20', 255.00, 299.57)" onmouseout="hideTooltip()"/><circle id="point-tx-63" cx="256.51" cy="299.68" r="5" fill="#1cc88a" opacity="0" onmouseover="showTooltip(evt, 'tx', '37.3', '23:46:40', 256.51, 299.68)" onmouseout="hideTooltip()"/><circle id="point-tx-64" cx="258.02" cy="299.18" r="5" fill="#1cc88a" opacity="0" onmouseover="showTooltip(evt, 'tx', '88.6', '23:55:00', 258.02, 299.18)" onmouseout="hideTooltip()"/><circle id="point-tx-65" cx="259.53" cy="299.81" r="5" fill="#1cc88a" opacity="0" onmouseover="showTooltip(evt, 'tx', '23.4', '00:03:20', 259.53, 299.81)" onmouseout="hideTooltip()"/><circle id="point-tx-66" cx="261.04" cy="299.77" r="5" fill="#1cc88a" opacity="0" onmouseover="showTooltip(evt, 'tx', '27.7', '00:11:40', 261.04, 299.77)" onmouseout="hideTooltip()"/><circle id="point-tx-67" cx="262.54" cy="299.51" r="5" fill="#1cc88a" opacity="0" onmouseover="showTooltip(evt, 'tx', '54.0', '00:20:00', 262.54, 299.51)" onmouseout="hideTooltip()"/><circle id="point-tx-68" cx="264.05" cy="299.63" r="5" fill="#1cc88a" opacity="0" onmouseover="showTooltip(evt, 'tx', '42.0', '00:28:20', 264.05, 299.63)" onmouseout="hideTooltip()"/><circle id="point-tx-69" cx="265.56" cy="299.48" r="5" fill="#1cc88a" opacity="0" onmouseover="showTooltip(evt, 'tx', '57.4', '00:36:40', 265.56, 299.48)" onmouseout="hideTooltip()"/><circle id="point-tx-70" cx="267.07" cy="299.61" r="5" fill="#1cc88a" opacity="0" onmouseover="showTooltip(evt, 'tx', '43.8', '00:45:00', 267.07, 299.61)" onmouseout="hideTooltip()"/><circle id="point-tx-71" cx="268.58" cy="299.34" r="5" fill="#1cc88a" opacity="0" onmouseover="showTooltip(evt, 'tx', '72.1', '00:53:20', 268.58, 299.34)" onmouseout="hideTooltip()"/><circle id="point-tx-72" cx="270.09" cy="299.68" r="5" fill="#1cc88a" opacity="0" onmouseover="showTooltip(evt, 'tx', '36.8', '01:01:40', 270.09, 299.68)" onmouseout="hideTooltip()"/><circle id="point-tx-73" cx="271.60" cy="299.85" r="5" fill="#1cc88a" opacity="0" onmouseover="showTooltip(evt, 'tx', '19.9', '01:10:00', 271.60, 299.85)" onmouseout="hideTooltip()"/><circle id="point-tx-74" cx="273.11" cy="299.99" r="5" fill="#1cc88a" opacity="0" onmouseover="showTooltip(evt, 'tx', '5.1', '01:18:20', 273.11, 299.99)" onmouseout="hideTooltip()"/><circle id="point-tx-75" cx="274.62" cy="300.00" r="5" fill="#1cc88a" opacity="0" onmouseover="showTooltip(evt, 'tx', '4.8', '01:26:40', 274.62, 300.00)" onmouseout="hideTooltip()"/><circle id="point-tx-76" cx="276.12" cy="299.84" r="5" fill="#1cc88a" opacity="0" onmouseover="showTooltip(evt, 'tx', '21.0', '01:35:00', 276.12, 299.84)" onmouseout="hideTooltip()"/><circle id="point-tx-77" cx="277.63" cy="299.95" r="5" fill="#1cc88a" opacity="0" onmouseover="showTooltip(evt, 'tx', '9.2', '01:43:20', 277.63, 299.95)" onmouseout="hideTooltip()"/><circle id="point-tx-78" cx="279.14" cy="299.71" r="5" fill="#1cc88a" opacity="0" onmouseover="showTooltip(evt, 'tx', '34.4', '01:51:40', 279.14, 299.71)" onmouseout="hideTooltip()"/><circle id="point-tx-79" cx="280.65" cy="299.95" r="5" fill="#1cc88a" opacity="0" onmouseover="showTooltip(evt, 'tx', '9.2', '02:00:00', 280.65, 299.95)" onmouseout="hideTooltip()"/><circle id="point-tx-80" cx="282.16" cy="299.96" r="5" fill="#1cc88a" opacity="0" onmouseover="showTooltip(evt, 'tx', '8.6', '02:08:20', 282.16, 299.96)" onmouseout="hideTooltip()"/><circle id="point-tx-81" cx="283.67" cy="299.68" r="5" fill="#1cc88a" opacity="0" onmouseover="showTooltip(evt, 'tx', '37.2', '02:16:40', 283.67, 299.68)" onmouseout="hideTooltip()"/><circle id="point-tx-82" cx="285.18" cy="299.60" r="5" fill="#1cc88a" opacity="0" onmouseover="showTooltip(evt, 'tx', '45.7', '02:25:00', 285.18, 299.60)" onmouseout="hideTooltip()"/><circle id="point-tx-83" cx="286.69" cy="299.67" r="5" fill="#1cc88a" opacity="0" onmouseover="showTooltip(evt, 'tx', '37.8', '02:33:20', 286.69, 299.67)" onmouseout="hideTooltip()"/><circle id="point-tx-84" cx="288.20" cy="299.81" r="5" fill="#1cc88a" opacity="0" onmouseover="showTooltip(evt, 'tx', '24.2', '02:41:40', 288.20, 299.81)" onmouseout="hideTooltip()"/><circle id="point-tx-85" cx="289.70" cy="299.72" r="5" fill="#1cc88a" opacity="0" onmouseover="showTooltip(evt, 'tx', '33.2', '02:50:00', 289.70, 299.72)" onmouseout="hideTooltip()"/><circle id="point-tx-86" cx="291.21" cy="297.85" r="5" fill="#1cc88a" opacity="0" onmouseover="showTooltip(evt, 'tx', '223.9', '02:58:20', 291.21, 297.85)" onmouseout="hideTooltip()"/><circle id="point-tx-87" cx="292.72" cy="299.72" r="5" fill="#1cc88a" opacity="0" onmouseover="showTooltip(evt, 'tx', '32.8', '03:06:40', 292.72, 299.72)" onmouseout="hideTooltip()"/><circle id="point-tx-88" cx="479.82" cy="299.70" r="5" fill="#1cc88a" opacity="0" onmouseover="showTooltip(evt, 'tx', '34.6', '20:20:00', 479.82, 299.70)" onmouseout="hideTooltip()"/><circle id="point-tx-89" cx="481.33" cy="299.80" r="5" fill="#1cc88a" opacity="0" onmouseover="showTooltip(evt, 'tx', '24.9', '20:28:20', 481.33, 299.80)" onmouseout="hideTooltip()"/><circle id="point-tx-90" cx="482.84" cy="295.81" r="5" fill="#1cc88a" opacity="0" onmouseover="showTooltip(evt, 'tx', '432.9', '20:36:40', 482.84, 295.81)" onmouseout="hideTooltip()"/><circle id="point-tx-91" cx="484.35" cy="299.71" r="5" fill="#1cc88a" opacity="0" onmouseover="showTooltip(evt, 'tx', '34.4', '20:45:00', 484.35, 299.71)" onmouseout="hideTooltip()"/><circle id="point-tx-92" cx="485.86" cy="299.80" r="5" fill="#1cc88a" opacity="0" onmouseover="showTooltip(evt, 'tx', '24.8', '20:53:20', 485.86, 299.80)" onmouseout="hideTooltip()"/><circle id="point-tx-93" cx="487.37" cy="299.71" r="5" fill="#1cc88a" opacity="0" onmouseover="showTooltip(evt, 'tx', '34.0', '21:01:40', 487.37, 299.71)" onmouseout="hideTooltip()"/><circle id="point-tx-94" cx="488.88" cy="299.52" r="5" fill="#1cc88a" opacity="0" onmouseover="showTooltip(evt, 'tx', '53.5', '21:10:00', 488.88, 299.52)" onmouseout="hideTooltip()"/><circle id="point-tx-95" cx="490.38" cy="299.80" r="5" fill="#1cc88a" opacity="0" onmouseover="showTooltip(evt, 'tx', '24.5', '21:18:20', 490.38, 299.80)" onmouseout="hideTooltip()"/><circle id="point-tx-96" cx="491.89" cy="299.71" r="5" fill="#1cc88a" opacity="0" onmouseover="showTooltip(evt, 'tx', '34.0', '21:26:40', 491.89, 299.71)" onmouseout="hideTooltip()"/><circle id="point-tx-97" cx="493.40" cy="299.32" r="5" fill="#1cc88a" opacity="0" onmouseover="showTooltip(evt, 'tx', '73.6', '21:35:00', 493.40, 299.32)" onmouseout="hideTooltip()"/><circle id="point-tx-98" cx="494.91" cy="299.62" r="5" fill="#1cc88a" opacity="0" onmouseover="showTooltip(evt, 'tx', '43.3', '21:43:20', 494.91, 299.62)" onmouseout="hideTooltip()"/><circle id="point-tx-99" cx="496.42" cy="299.41" r="5" fill="#1cc88a" opacity="0" onmouseover="showTooltip(evt, 'tx', '65.2', '21:51:40', 496.42, 299.41)" onmouseout="hideTooltip()"/><circle id="point-tx-100" cx="497.93" cy="299.48" r="5" fill="#1cc88a" opacity="0" onmouseover="showTooltip(evt, 'tx', '58.0', '22:00:00', 497.93, 299.48)" onmouseout="hideTooltip()"/><circle id="point-tx-101" cx="499.44" cy="299.65" r="5" fill="#1cc88a" opacity="0" onmouseover="showTooltip(evt, 'tx', '40.3', '22:08:20', 499.44, 299.65)" onmouseout="hideTooltip()"/><circle id="point-tx-102" cx="500.95" cy="299.56" r="5" fill="#1cc88a" opacity="0" onmouseover="showTooltip(evt, 'tx', '49.8', '22:16:40', 500.95, 299.56)" onmouseout="hideTooltip()"/><circle id="point-tx-103" cx="502.46" cy="299.80" r="5" fill="#1cc88a" opacity="0" onmouseover="showTooltip(evt, 'tx', '24.4', '22:25:00', 502.46, 299.80)" onmouseout="hideTooltip()"/><circle id="point-tx-104" cx="503.96" cy="299.32" r="5" fill="#1cc88a" opacity="0" onmouseover="showTooltip(evt, 'tx', '73.7', '22:33:20', 503.96, 299.32)" onmouseout="hideTooltip()"/><circle id="point-tx-105" cx="505.47" cy="299.26" r="5" fill="#1cc88a" opacity="0" onmouseover="showTooltip(evt, 'tx', '79.8', '22:41:40', 505.47, 299.26)" onmouseout="hideTooltip()"/><circle id="point-tx-106" cx="506.98" cy="299.62" r="5" fill="#1cc88a" opacity="0" onmouseover="showTooltip(evt, 'tx', '42.9', '22:50:00', 506.98, 299.62)" onmouseout="hideTooltip()"/><circle id="point-tx-107" cx="508.49" cy="299.64" r="5" fill="#1cc88a" opacity="0" onmouseover="showTooltip(evt, 'tx', '41.6', '22:58:20', 508.49, 299.64)" onmouseout="hideTooltip()"/><circle id="point-tx-108" cx="510.00" cy="299.65" r="5" fill="#1cc88a" opacity="0" onmouseover="showTooltip(evt, 'tx', '39.7', '23:06:40', 510.00, 299.65)" onmouseout="hideTooltip()"/></g><g id="tooltip" visibility="hidden"><rect x="0" y="0" width="150" height="40" fill="#333" opacity="0.8" rx="5"/><text x="5" y="15" font-size="10" fill="#fff" id="tooltip-series"></text><text x="5" y="30" font-size="10" fill="#fff" id="tooltip-value"></text></g><script><![CDATA[function showTooltip(evt, series, value, time, x, y) {  var tooltip = document.getElementById("tooltip");  var seriesText = document.getElementById("tooltip-series");  var valueText = document.getElementById("tooltip-value");  seriesText.textContent = "Series: " + series;  valueText.textContent = value + " at " + time;  tooltip.setAttribute("transform", "translate(" + (x + 10) + "," + (y - 50) + ")");  tooltip.setAttribute("visibility", "visible");  evt.target.setAttribute("r", "7");  evt.target.setAttribute("opacity", "1");}function hideTooltip() {  var tooltip = document.getElementById("tooltip");  tooltip.setAttribute("visibility", "hidden");  var circles = document.getElementsByTagName("circle");  for (var i = 0; i < circles.length; i++) {    circles[i].setAttribute("r", "5");    circles[i].setAttribute("opacity", "0");  }}]]></script><text x="300" y="20" text-anchor="middle" font-size="16" fill="#333">Network Traffic for eth0</text><text x="10" y="200" text-anchor="middle" transform="rotate(-90,10,200)" font-size="12" fill="#666">Traffic (bytes/s)</text><g font-size="12"><circle cx="20" cy="375" r="5" fill="#4e73df"/><text x="30" y="380" fill="#333">rx: 71.8 at 23:06:40</text><circle cx="240" cy="375" r="5" fill="#1cc88a"/><text x="250" y="380" fill="#333">tx: 39.7 at 23:06:40</text></g></svg>