<svg width="600" height="400" xmlns="http://www.w3.org/2000/svg" style="font-family: Arial, sans-serif;"><rect width="600" height="400" fill="#ffffff"/><g transform="translate(60,30)"><rect width="510" height="300" fill="#f8f9fc" stroke="#ddd"/><g stroke-width="1"><line x1="0" y1="300" x2="510" y2="300" stroke="#eee" /><text x="-5" y="304" text-anchor="end" font-size="10" fill="#666">0.0</text><line x1="0" y1="240" x2="510" y2="240" stroke="#eee" /><text x="-5" y="244" text-anchor="end" font-size="10" fill="#666">206.8</text><line x1="0" y1="180" x2="510" y2="180" stroke="#eee" /><text x="-5" y="184" text-anchor="end" font-size="10" fill="#666">413.5</text><line x1="0" y1="120" x2="510" y2="120" stroke="#eee" /><text x="-5" y="124" text-anchor="end" font-size="10" fill="#666">620.3</text><line x1="0" y1="59.999999999999986" x2="510" y2="59.999999999999986" stroke="#eee" /><text x="-5" y="63.999999999999986" text-anchor="end" font-size="10" fill="#666">827.1</text><line x1="0" y1="0" x2="510" y2="0" stroke="#eee" /><text x="-5" y="4" text-anchor="end" font-size="10" fill="#666">1033.9</text></g><g stroke-width="1"><line x1="0" y1="0" x2="0" y2="300" stroke="#eee"/><text x="0" y="320" text-anchor="middle" font-size="10" fill="#666">20:10:20</text><line x1="102" y1="0" x2="102" y2="300" stroke="#eee"/><text x="102" y="320" text-anchor="middle" font-size="10" fill="#666">20:22:00</text><line x1="204" y1="0" x2="204" y2="300" stroke="#eee"/><text x="204" y="320" text-anchor="middle" font-size="10" fill="#666">20:33:40</text><line x1="306" y1="0" x2="306" y2="300" stroke="#eee"/><text x="306" y="320" text-anchor="middle" font-size="10" fill="#666">20:45:20</text><line x1="408" y1="0" x2="408" y2="300" stroke="#eee"/><text x="408" y="320" text-anchor="middle" font-size="10" fill="#666">20:57:00</text><line x1="510" y1="0" x2="510" y2="300" stroke="#eee"/><text x="510" y="320" text-anchor="middle" font-size="10" fill="#666">21:08:40</text></g><path d="M0.00,299.27 L1.46,299.20 L2.91,298.02 L4.37,298.96 L5.83,300.00 L7.29,298.96 L8.74,297.46 L10.20,298.54 L11.66,298.96 L13.11,297.95 L14.57,299.27 L16.03,299.20 L17.49,295.83 L18.94,285.82 L20.40,300.00 L21.86,298.96 L23.31,297.95 L24.77,299.27 L26.23,298.96 L27.69,202.94 L29.14,156.76 L30.60,299.20 L32.06,298.19 L33.51,300.00 L34.97,300.00 L36.43,298.96 L37.89,297.46 L39.34,298.54 L40.80,298.96 L42.26,298.43 L43.71,300.00 L45.17,299.20 L46.63,297.84 L48.09,297.91 L49.54,300.00 L51.00,298.96 L52.46,298.43 L53.91,300.00 L55.37,298.96 L56.83,202.43 L58.29,156.00 L59.74,299.20 L61.20,298.19 L62.66,300.00 L64.11,300.00 L65.57,298.96 L67.03,297.46 L68.49,298.54 L69.94,298.96 L71.40,298.43 L72.86,300.00 L74.31,299.20 L75.77,297.84 L77.23,297.91 L78.69,300.00 L80.14,298.96 L81.60,297.95 L83.06,299.27 L84.51,298.96 L85.97,203.44 L87.43,157.51 L88.89,299.20 L90.34,298.02 L91.80,298.96 L93.26,300.00 L94.71,298.96 L96.17,297.46 L97.63,298.54 L99.09,298.96 L100.54,297.95 L102.00,299.27 L103.46,299.20 L104.91,297.84 L106.37,297.91 L107.83,300.00 L109.29,298.96 L110.74,297.95 L112.20,299.27 L113.66,298.96 L115.11,202.35 L116.57,155.88 L118.03,299.20 L119.49,298.02 L120.94,293.31 L122.40,291.54 L123.86,298.96 L125.31,297.46 L126.77,298.54 L128.23,298.96 L129.69,298.43 L131.14,300.00 L132.60,299.20 L134.06,297.84 L135.51,297.91 L136.97,300.00 L138.43,298.96 L139.89,298.43 L141.34,300.00 L142.80,298.96 L144.26,297.46 L145.71,298.54 L147.17,299.20 L148.63,298.19 L150.09,300.00 L151.54,300.00 L153.00,102.83 L154.46,0.00 L155.91,293.63 L157.37,298.96 L158.83,297.95 L160.29,299.27 L161.74,299.20 L163.20,298.02 L164.66,298.96 L166.11,300.00 L167.57,298.96 L169.03,297.95 L170.49,299.27 L171.94,298.96 L173.40,297.95 L174.86,299.27 L176.31,299.20 L177.77,298.02 L179.23,298.96 L180.69,300.00 L182.14,298.96 L183.60,297.46 L185.06,298.54 L186.51,298.96 L187.97,297.95 L189.43,299.27 L190.89,299.20 L192.34,297.84 L193.80,297.91 L195.26,300.00 L196.71,298.96 L198.17,297.95 L199.63,299.27 L201.09,298.96 L202.54,297.46 L204.00,298.54 L205.46,299.20 L206.91,298.02 L208.37,298.96 L209.83,300.00 L211.29,298.96 L212.74,297.46 L214.20,298.54 L215.66,298.96 L217.11,297.95 L218.57,299.27 L220.03,299.20 L221.49,297.84 L222.94,297.91 L224.40,300.00 L225.86,293.31 L227.31,289.48 L228.77,299.27 L230.23,287.71 L231.69,244.97 L233.14,243.03 L234.60,296.08 L236.06,298.02 L237.51,298.96 L238.97,300.00 L240.43,298.96 L241.89,297.95 L243.34,299.27 L244.80,298.96 L246.26,297.95 L247.71,299.27 L249.17,299.20 L250.63,298.02 L252.09,298.96 L253.54,300.00 L255.00,298.96 L256.46,297.95 L257.91,299.27 L259.37,298.96 L260.83,297.95 L262.29,299.27 L263.74,299.20 L265.20,298.02 L266.66,298.96 L268.11,300.00 L269.57,298.96 L271.03,297.95 L272.49,299.27 L273.94,298.96 L275.40,297.95 L276.86,299.27 L278.31,299.20 L279.77,298.02 L281.23,298.96 L282.69,300.00 L284.14,298.96 L285.60,297.95 L287.06,299.27 L288.51,298.96 L289.97,297.95 L291.43,299.27 L292.89,299.20 L294.34,298.02 L295.80,298.96 L297.26,300.00 L298.71,298.96 L300.17,297.95 L301.63,299.27 L303.09,298.96 L304.54,297.95 L306.00,299.27 L307.46,299.20 L308.91,298.02 L310.37,298.96 L311.83,300.00 L313.29,298.96 L314.74,297.95 L316.20,299.27 L317.66,298.96 L319.11,297.95 L320.57,299.27 L322.03,299.20 L323.49,298.02 L324.94,298.96 L326.40,300.00 L327.86,298.96 L329.31,297.95 L330.77,296.45 L332.23,294.72 L333.69,297.95 L335.14,299.27 L336.60,299.20 L338.06,298.02 L339.51,298.96 L340.97,300.00 L342.43,298.96 L343.89,297.95 L345.34,299.27 L346.80,298.96 L348.26,297.95 L349.71,299.27 L351.17,299.20 L352.63,298.02 L354.09,298.96 L355.54,300.00 L357.00,298.96 L358.46,297.95 L359.91,299.27 L361.37,298.96 L362.83,297.95 L364.29,299.27 L365.74,299.20 L367.20,298.02 L368.66,298.96 L370.11,300.00 L371.57,298.96 L373.03,297.95 L374.49,299.27 L375.94,298.96 L377.40,297.95 L378.86,299.27 L380.31,299.20 L381.77,298.02 L383.23,298.96 L384.69,300.00 L386.14,298.96 L387.60,297.95 L389.06,299.27 L390.51,298.96 L391.97,297.95 L393.43,299.27 L394.89,299.20 L396.34,298.02 L397.80,298.96 L399.26,300.00 L400.71,298.96 L402.17,297.95 L403.63,299.27 L405.09,298.96 L406.54,297.95 L408.00,299.27 L409.46,299.20 L410.91,298.02 L412.37,298.96 L413.83,300.00 L415.29,298.96 L416.74,297.95 L418.20,299.27 L419.66,298.96 L421.11,297.95 L422.57,299.27 L424.03,299.20 L425.49,298.02 L426.94,298.96 L428.40,300.00 L429.86,298.96 L431.31,297.95 L432.77,299.27 L434.23,298.96 L435.69,297.95 L437.14,296.45 L438.60,294.97 L440.06,298.02 L441.51,298.96 L442.97,300.00 L444.43,103.48 L445.89,0.97 L447.34,293.63 L448.80,203.82 L450.26,155.74 L451.71,300.00 L453.17,299.20 L454.63,297.84 L456.09,297.91 L457.54,300.00 L459.00,298.96 L460.46,298.43 L461.91,299.04 L463.37,297.51 L464.83,297.46 L466.29,298.54 L467.74,299.20 L469.20,298.19 L470.66,300.00 L472.11,300.00 L473.57,298.96 L475.03,297.46 L476.49,298.54 L477.94,203.84 L479.40,155.75 L480.86,300.00 L482.31,299.20 L483.77,297.84 L485.23,297.91 L486.69,300.00 L488.14,298.96 L489.60,264.68 L491.06,245.22 L492.51,292.72 L493.97,297.46 L495.43,298.54 L496.89,299.20 L498.34,298.02 L499.80,298.96 L501.26,300.00 L502.71,298.96 L504.17,297.46 L505.63,298.54 L507.09,203.91 L508.54,155.86 L510.00,300.00" stroke="#4e73df" fill="none" stroke-width="2" stroke-linejoin="round"/><path d="M0.00,299.27 L1.46,299.20 L2.91,298.02 L4.37,298.96 L5.83,300.00 L7.29,298.96 L8.74,297.46 L10.20,298.54 L11.66,298.96 L13.11,297.95 L14.57,299.27 L16.03,299.20 L17.49,297.84 L18.94,297.91 L20.40,300.00 L21.86,298.96 L23.31,297.95 L24.77,299.27 L26.23,298.96 L27.69,268.72 L29.14,255.43 L30.60,299.20 L32.06,298.19 L33.51,300.00 L34.97,300.00 L36.43,298.96 L37.89,297.46 L39.34,298.54 L40.80,298.96 L42.26,298.43 L43.71,300.00 L45.17,299.20 L46.63,297.84 L48.09,297.91 L49.54,300.00 L51.00,298.96 L52.46,298.43 L53.91,300.00 L55.37,298.96 L56.83,269.00 L58.29,255.85 L59.74,299.20 L61.20,298.19 L62.66,300.00 L64.11,300.00 L65.57,298.96 L67.03,297.46 L68.49,298.54 L69.94,298.96 L71.40,298.43 L72.86,300.00 L74.31,299.20 L75.77,297.84 L77.23,297.91 L78.69,300.00 L80.14,298.96 L81.60,297.95 L83.06,299.27 L84.51,298.96 L85.97,269.76 L87.43,257.00 L88.89,299.20 L90.34,298.02 L91.80,298.96 L93.26,300.00 L94.71,298.96 L96.17,297.46 L97.63,298.54 L99.09,298.96 L100.54,297.95 L102.00,299.27 L103.46,299.20 L104.91,297.84 L106.37,297.91 L107.83,300.00 L109.29,298.96 L110.74,297.95 L112.20,299.27 L113.66,298.96 L115.11,269.00 L116.57,255.85 L118.03,299.20 L119.49,298.02 L120.94,298.96 L122.40,300.00 L123.86,298.96 L125.31,297.46 L126.77,298.54 L128.23,298.96 L129.69,298.43 L131.14,300.00 L132.60,299.20 L134.06,297.84 L135.51,297.91 L136.97,300.00 L138.43,298.96 L139.89,298.43 L141.34,300.00 L142.80,298.96 L144.26,297.46 L145.71,298.54 L147.17,299.20 L148.63,298.19 L150.09,300.00 L151.54,300.00 L153.00,252.35 L154.46,225.54 L155.91,295.51 L157.37,298.96 L158.83,297.95 L160.29,299.27 L161.74,299.20 L163.20,298.02 L164.66,298.96 L166.11,300.00 L167.57,298.96 L169.03,297.95 L170.49,299.27 L171.94,298.96 L173.40,297.95 L174.86,299.27 L176.31,299.20 L177.77,298.02 L179.23,298.96 L180.69,300.00 L182.14,298.96 L183.60,297.46 L185.06,298.54 L186.51,298.96 L187.97,297.95 L189.43,299.27 L190.89,299.20 L192.34,297.84 L193.80,297.91 L195.26,300.00 L196.71,298.96 L198.17,297.95 L199.63,299.27 L201.09,298.96 L202.54,297.46 L204.00,298.54 L205.46,299.20 L206.91,298.02 L208.37,298.96 L209.83,300.00 L211.29,298.96 L212.74,297.46 L214.20,298.54 L215.66,298.96 L217.11,297.95 L218.57,299.27 L220.03,299.20 L221.49,297.84 L222.94,297.91 L224.40,300.00 L225.86,298.96 L227.31,297.95 L228.77,299.27 L230.23,298.96 L231.69,297.95 L233.14,299.27 L234.60,299.20 L236.06,298.02 L237.51,298.96 L238.97,300.00 L240.43,298.96 L241.89,297.95 L243.34,299.27 L244.80,298.96 L246.26,297.95 L247.71,299.27 L249.17,299.20 L250.63,298.02 L252.09,298.96 L253.54,300.00 L255.00,298.96 L256.46,297.95 L257.91,299.27 L259.37,298.96 L260.83,297.95 L262.29,299.27 L263.74,299.20 L265.20,298.02 L266.66,298.96 L268.11,300.00 L269.57,298.96 L271.03,297.95 L272.49,299.27 L273.94,298.96 L275.40,297.95 L276.86,299.27 L278.31,299.20 L279.77,298.02 L281.23,298.96 L282.69,300.00 L284.14,298.96 L285.60,297.95 L287.06,299.27 L288.51,298.96 L289.97,297.95 L291.43,298.46 L292.89,297.98 L294.34,298.02 L295.80,298.96 L297.26,300.00 L298.71,298.96 L300.17,297.95 L301.63,299.27 L303.09,298.96 L304.54,297.95 L306.00,299.27 L307.46,299.20 L308.91,298.02 L310.37,298.96 L311.83,300.00 L313.29,298.96 L314.74,297.95 L316.20,299.27 L317.66,298.96 L319.11,297.95 L320.57,299.27 L322.03,299.20 L323.49,298.02 L324.94,298.96 L326.40,300.00 L327.86,298.96 L329.31,297.95 L330.77,299.27 L332.23,298.96 L333.69,297.95 L335.14,299.27 L336.60,299.20 L338.06,298.02 L339.51,298.96 L340.97,300.00 L342.43,298.96 L343.89,297.95 L345.34,299.27 L346.80,298.96 L348.26,297.95 L349.71,299.27 L351.17,299.20 L352.63,298.02 L354.09,298.96 L355.54,300.00 L357.00,298.96 L358.46,297.95 L359.91,299.27 L361.37,298.96 L362.83,297.95 L364.29,299.27 L365.74,299.20 L367.20,298.02 L368.66,298.96 L370.11,300.00 L371.57,298.96 L373.03,297.95 L374.49,299.27 L375.94,298.96 L377.40,297.95 L378.86,299.27 L380.31,299.20 L381.77,298.02 L383.23,298.96 L384.69,300.00 L386.14,298.96 L387.60,297.95 L389.06,299.27 L390.51,298.96 L391.97,297.95 L393.43,299.27 L394.89,299.20 L396.34,298.02 L397.80,298.96 L399.26,300.00 L400.71,298.96 L402.17,297.95 L403.63,299.27 L405.09,298.96 L406.54,297.95 L408.00,299.27 L409.46,299.20 L410.91,298.02 L412.37,298.96 L413.83,300.00 L415.29,298.96 L416.74,297.95 L418.20,299.27 L419.66,298.96 L421.11,297.95 L422.57,299.27 L424.03,299.20 L425.49,298.02 L426.94,298.96 L428.40,300.00 L429.86,298.96 L431.31,297.95 L432.77,299.27 L434.23,298.96 L435.69,297.95 L437.14,299.27 L438.60,299.20 L440.06,298.02 L441.51,298.96 L442.97,300.00 L444.43,252.35 L445.89,225.54 L447.34,295.51 L448.80,270.50 L450.26,255.74 L451.71,300.00 L453.17,299.20 L454.63,297.84 L456.09,297.91 L457.54,300.00 L459.00,298.96 L460.46,298.43 L461.91,300.00 L463.37,298.96 L464.83,297.46 L466.29,298.54 L467.74,299.20 L469.20,298.19 L470.66,300.00 L472.11,300.00 L473.57,298.96 L475.03,297.46 L476.49,298.54 L477.94,270.50 L479.40,255.74 L480.86,300.00 L482.31,299.20 L483.77,297.84 L485.23,297.91 L486.69,300.00 L488.14,298.96 L489.60,297.95 L491.06,299.27 L492.51,298.96 L493.97,297.46 L495.43,298.54 L496.89,299.20 L498.34,298.02 L499.80,298.96 L501.26,300.00 L502.71,298.96 L504.17,297.46 L505.63,298.54 L507.09,270.50 L508.54,255.74 L510.00,300.00" stroke="#1cc88a" fill="none" stroke-width="2" stroke-linejoin="round"/></g><text x="300" y="20" text-anchor="middle" font-size="16" fill="#333">Network Traffic for eth0</text><text x="10" y="200" text-anchor="middle" transform="rotate(-90,10,200)" font-size="12" fill="#666">Traffic (bytes/s)</text><g font-size="12"><circle cx="20" cy="375" r="5" fill="#4e73df"/><text x="30" y="380" fill="#333">rx: 0.0 at 21:08:40</text><circle cx="240" cy="375" r="5" fill="#1cc88a"/><text x="250" y="380" fill="#333">tx: 0.0 at 21:08:40</text></g></svg>