<svg width="600" height="400" xmlns="http://www.w3.org/2000/svg" style="font-family: Arial, sans-serif;"><rect width="600" height="400" fill="#ffffff"/><g transform="translate(60,30)"><rect width="510" height="300" fill="#f8f9fc" stroke="#ddd"/><g stroke-width="1"><line x1="0" y1="300" x2="510" y2="300" stroke="#eee" /><text x="-5" y="304" text-anchor="end" font-size="10" fill="#666">0.0</text><line x1="0" y1="240" x2="510" y2="240" stroke="#eee" /><text x="-5" y="244" text-anchor="end" font-size="10" fill="#666">7361.3</text><line x1="0" y1="180" x2="510" y2="180" stroke="#eee" /><text x="-5" y="184" text-anchor="end" font-size="10" fill="#666">14722.6</text><line x1="0" y1="120" x2="510" y2="120" stroke="#eee" /><text x="-5" y="124" text-anchor="end" font-size="10" fill="#666">22083.9</text><line x1="0" y1="59.999999999999986" x2="510" y2="59.999999999999986" stroke="#eee" /><text x="-5" y="63.999999999999986" text-anchor="end" font-size="10" fill="#666">29445.2</text><line x1="0" y1="0" x2="510" y2="0" stroke="#eee" /><text x="-5" y="4" text-anchor="end" font-size="10" fill="#666">36806.5</text></g><g stroke-width="1"><line x1="0" y1="0" x2="0" y2="300" stroke="#eee"/><text x="0" y="320" text-anchor="middle" font-size="10" fill="#666">21:55:00</text><line x1="102" y1="0" x2="102" y2="300" stroke="#eee"/><text x="102" y="320" text-anchor="middle" font-size="10" fill="#666">22:06:38</text><line x1="204" y1="0" x2="204" y2="300" stroke="#eee"/><text x="204" y="320" text-anchor="middle" font-size="10" fill="#666">22:18:16</text><line x1="306" y1="0" x2="306" y2="300" stroke="#eee"/><text x="306" y="320" text-anchor="middle" font-size="10" fill="#666">22:29:54</text><line x1="408" y1="0" x2="408" y2="300" stroke="#eee"/><text x="408" y="320" text-anchor="middle" font-size="10" fill="#666">22:41:32</text><line x1="510" y1="0" x2="510" y2="300" stroke="#eee"/><text x="510" y="320" text-anchor="middle" font-size="10" fill="#666">22:53:10</text></g><path d="M0.00,299.77 L1.46,299.88 L2.92,299.92 L4.38,299.96 L5.85,299.94 L7.31,300.00 L8.77,299.96 L10.23,299.94 L11.69,300.00 L13.15,299.94 L14.61,299.91 L16.07,300.00 L17.54,299.96 L19.00,299.81 L20.46,293.17 L21.92,289.99 L23.38,299.94 L24.84,300.00 L26.30,299.94 L27.77,299.91 L29.23,300.00 L30.69,299.94 L32.15,299.91 L33.61,300.00 L35.07,299.94 L36.53,299.91 L37.99,300.00 L39.46,299.94 L40.92,299.91 L42.38,300.00 L43.84,299.94 L45.30,293.24 L46.76,289.99 L48.22,300.00 L49.68,299.97 L51.15,299.93 L52.61,299.96 L54.07,299.97 L55.53,299.93 L56.99,299.80 L58.45,299.73 L59.91,299.93 L61.38,299.96 L62.84,300.00 L64.30,299.99 L65.76,299.94 L67.22,299.94 L68.68,295.96 L70.14,291.29 L71.60,296.03 L73.07,300.00 L74.53,299.94 L75.99,299.91 L77.45,300.00 L78.91,299.94 L80.37,299.91 L81.83,300.00 L83.30,299.94 L84.76,299.91 L86.22,300.00 L87.68,299.94 L89.14,299.91 L90.60,300.00 L92.06,299.94 L93.52,293.21 L94.99,287.97 L96.45,294.85 L97.91,291.07 L99.37,291.50 L100.83,299.94 L102.29,299.98 L103.75,291.76 L105.21,287.60 L106.68,299.94 L108.14,300.00 L109.60,299.94 L111.06,277.79 L112.52,66.84 L113.98,0.00 L115.44,299.94 L116.91,300.00 L118.37,293.36 L119.83,290.04 L121.29,299.98 L122.75,299.92 L124.21,299.91 L125.67,300.00 L127.13,299.94 L128.60,299.91 L130.06,300.00 L131.52,299.94 L132.98,299.91 L134.44,300.00 L135.90,299.94 L137.36,299.91 L138.83,300.00 L140.29,295.29 L141.75,286.12 L143.21,289.78 L144.67,300.00 L146.13,299.97 L147.59,299.93 L149.05,299.96 L150.52,299.97 L151.98,299.93 L153.44,299.96 L154.90,291.06 L156.36,281.58 L157.82,292.48 L159.28,299.97 L160.74,299.93 L162.21,299.80 L163.67,299.76 L165.13,299.94 L166.59,297.94 L168.05,292.37 L169.51,292.96 L170.97,299.94 L172.44,300.00 L173.90,299.94 L175.36,299.91 L176.82,300.00 L178.28,299.96 L179.74,297.96 L181.20,297.04 L182.66,299.96 L184.13,299.94 L185.59,300.00 L187.05,299.94 L188.51,299.91 L189.97,300.00 L191.43,296.51 L192.89,293.54 L194.36,298.17 L195.82,299.96 L197.28,299.94 L198.74,300.00 L200.20,299.94 L201.66,299.91 L203.12,300.00 L204.58,295.25 L206.05,290.45 L207.51,296.37 L208.97,299.96 L210.43,299.94 L211.89,300.00 L213.35,299.97 L214.81,299.93 L216.28,295.29 L217.74,292.97 L219.20,299.94 L220.66,299.98 L222.12,299.97 L223.58,299.93 L225.04,299.96 L226.50,300.00 L227.97,297.98 L229.43,296.97 L230.89,300.00 L232.35,299.96 L233.81,299.94 L235.27,300.00 L236.73,299.94 L238.19,299.91 L239.66,300.00 L241.12,295.29 L242.58,292.93 L244.04,300.00 L245.50,299.96 L246.96,299.94 L248.42,300.00 L249.89,299.94 L251.35,299.91 L252.81,300.00 L254.27,297.98 L255.73,296.97 L257.19,300.00 L258.65,299.94 L260.11,299.91 L261.58,300.00 L263.04,299.94 L264.50,299.91 L265.96,300.00 L267.42,299.78 L268.88,299.68 L270.34,300.00 L271.81,295.29 L273.27,292.93 L274.73,300.00 L276.19,299.94 L277.65,297.94 L279.11,297.04 L280.57,299.97 L282.03,299.93 L283.50,299.96 L284.96,299.97 L286.42,299.93 L287.88,299.96 L289.34,299.97 L290.80,299.93 L292.26,299.96 L293.72,300.00 L295.19,299.94 L296.65,295.25 L298.11,293.00 L299.57,299.96 L301.03,299.94 L302.49,298.07 L303.95,297.06 L305.42,299.94 L306.88,300.00 L308.34,299.94 L309.80,299.91 L311.26,300.00 L312.72,299.94 L314.18,299.91 L315.64,300.00 L317.11,299.94 L318.57,299.91 L320.03,300.00 L321.49,295.29 L322.95,292.93 L324.41,300.00 L325.87,297.99 L327.34,296.98 L328.80,299.98 L330.26,299.97 L331.72,299.93 L333.18,299.96 L334.64,300.00 L336.10,299.94 L337.56,299.91 L339.03,300.00 L340.49,299.96 L341.95,299.94 L343.41,300.00 L344.87,295.36 L346.33,293.04 L347.79,300.00 L349.26,299.96 L350.72,299.89 L352.18,299.93 L353.64,299.83 L355.10,299.75 L356.56,300.00 L358.02,299.94 L359.48,299.89 L360.95,299.97 L362.41,299.96 L363.87,299.94 L365.33,300.00 L366.79,299.94 L368.25,299.89 L369.71,294.87 L371.17,292.32 L372.64,299.94 L374.10,299.84 L375.56,299.68 L377.02,299.88 L378.48,300.00 L379.94,299.97 L381.40,299.82 L382.87,299.79 L384.33,299.95 L385.79,299.90 L387.25,299.96 L388.71,299.97 L390.17,299.94 L391.63,299.98 L393.09,299.94 L394.56,294.91 L396.02,292.38 L397.48,299.81 L398.94,297.21 L400.40,295.77 L401.86,299.92 L403.32,299.96 L404.79,299.94 L406.25,300.00 L407.71,299.94 L409.17,299.91 L410.63,300.00 L412.09,299.96 L413.55,299.81 L415.01,299.81 L416.48,299.94 L417.94,299.91 L419.40,300.00 L420.86,299.96 L422.32,299.94 L423.78,300.00 L425.24,299.94 L426.70,299.91 L428.17,300.00 L429.63,299.97 L431.09,299.94 L432.55,299.98 L434.01,299.97 L435.47,299.93 L436.93,299.96 L438.40,299.97 L439.86,299.94 L441.32,293.40 L442.78,290.10 L444.24,299.94 L445.70,299.98 L447.16,300.00 L448.62,297.16 L450.09,295.74 L451.55,300.00 L453.01,299.96 L454.47,299.94 L455.93,300.00 L457.39,299.94 L458.85,299.91 L460.32,300.00 L461.78,299.96 L463.24,299.94 L464.70,300.00 L466.16,299.97 L467.62,299.93 L469.08,293.36 L470.54,290.07 L472.01,299.94 L473.47,299.98 L474.93,299.97 L476.39,299.93 L477.85,299.96 L479.31,299.81 L480.77,299.58 L482.23,299.79 L483.70,299.97 L485.16,299.93 L486.62,299.96 L488.08,299.97 L489.54,299.94 L491.00,299.98 L492.46,300.00 L493.93,293.31 L495.39,289.97 L496.85,300.00 L498.31,299.96 L499.77,299.94 L501.23,300.00 L502.69,299.94 L504.15,299.91 L505.62,300.00 L507.08,299.96 L508.54,299.81 L510.00,299.81" stroke="#4e73df" fill="none" stroke-width="2" stroke-linejoin="round"/><path d="M0.00,299.96 L1.46,299.94 L2.92,300.00 L4.38,299.96 L5.85,299.94 L7.31,300.00 L8.77,299.96 L10.23,299.94 L11.69,300.00 L13.15,299.94 L14.61,299.91 L16.07,300.00 L17.54,299.96 L19.00,299.94 L20.46,297.65 L21.92,296.43 L23.38,299.94 L24.84,300.00 L26.30,299.94 L27.77,299.91 L29.23,300.00 L30.69,299.94 L32.15,299.91 L33.61,300.00 L35.07,299.94 L36.53,299.91 L37.99,300.00 L39.46,299.94 L40.92,299.91 L42.38,300.00 L43.84,299.94 L45.30,297.54 L46.76,296.44 L48.22,299.97 L49.68,299.93 L51.15,299.93 L52.61,299.96 L54.07,299.97 L55.53,299.93 L56.99,299.96 L58.45,299.97 L59.91,299.93 L61.38,299.96 L62.84,299.97 L64.30,299.94 L65.76,299.94 L67.22,299.94 L68.68,298.57 L70.14,296.89 L71.60,298.55 L73.07,300.00 L74.53,299.94 L75.99,299.91 L77.45,300.00 L78.91,299.94 L80.37,299.91 L81.83,300.00 L83.30,299.94 L84.76,299.91 L86.22,300.00 L87.68,299.94 L89.14,299.91 L90.60,300.00 L92.06,299.94 L93.52,297.53 L94.99,295.58 L96.45,296.42 L97.91,288.38 L99.37,287.79 L100.83,299.94 L102.29,299.98 L103.75,298.07 L105.21,297.06 L106.68,299.94 L108.14,300.00 L109.60,299.94 L111.06,298.48 L112.52,285.46 L113.98,281.37 L115.44,299.94 L116.91,300.00 L118.37,297.62 L119.83,296.44 L121.29,300.00 L122.75,299.94 L124.21,299.91 L125.67,300.00 L127.13,299.94 L128.60,299.91 L130.06,300.00 L131.52,299.94 L132.98,299.91 L134.44,300.00 L135.90,299.94 L137.36,299.91 L138.83,300.00 L140.29,298.45 L141.75,293.85 L143.21,294.25 L144.67,299.97 L146.13,299.93 L147.59,299.93 L149.05,299.96 L150.52,299.97 L151.98,299.93 L153.44,299.96 L154.90,296.76 L156.36,292.68 L157.82,296.31 L159.28,299.97 L160.74,299.93 L162.21,299.96 L163.67,300.00 L165.13,299.94 L166.59,299.13 L168.05,297.24 L169.51,297.57 L170.97,299.94 L172.44,300.00 L173.90,299.94 L175.36,299.91 L176.82,300.00 L178.28,299.96 L179.74,299.17 L181.20,298.85 L182.66,299.96 L184.13,299.94 L185.59,300.00 L187.05,299.94 L188.51,299.91 L189.97,300.00 L191.43,298.68 L192.89,297.71 L194.36,299.53 L195.82,299.96 L197.28,299.94 L198.74,300.00 L200.20,299.94 L201.66,299.91 L203.12,300.00 L204.58,298.54 L206.05,295.14 L207.51,296.00 L208.97,299.96 L210.43,299.94 L211.89,300.00 L213.35,299.97 L214.81,299.93 L216.28,298.41 L217.74,297.65 L219.20,299.94 L220.66,299.98 L222.12,299.97 L223.58,299.93 L225.04,299.96 L226.50,300.00 L227.97,299.19 L229.43,298.79 L230.89,299.97 L232.35,299.94 L233.81,299.98 L235.27,299.97 L236.73,299.93 L238.19,299.96 L239.66,300.00 L241.12,298.39 L242.58,297.58 L244.04,300.00 L245.50,299.96 L246.96,299.94 L248.42,300.00 L249.89,299.94 L251.35,299.91 L252.81,300.00 L254.27,299.21 L255.73,298.82 L257.19,300.00 L258.65,299.94 L260.11,299.91 L261.58,300.00 L263.04,299.94 L264.50,299.91 L265.96,300.00 L267.42,299.94 L268.88,299.91 L270.34,300.00 L271.81,298.39 L273.27,297.58 L274.73,300.00 L276.19,299.94 L277.65,299.15 L279.11,298.85 L280.57,299.97 L282.03,299.93 L283.50,299.96 L284.96,299.97 L286.42,299.93 L287.88,299.96 L289.34,299.97 L290.80,299.93 L292.26,299.96 L293.72,300.00 L295.19,299.94 L296.65,298.35 L298.11,297.65 L299.57,299.96 L301.03,299.94 L302.49,299.23 L303.95,298.81 L305.42,299.94 L306.88,300.00 L308.34,299.94 L309.80,299.91 L311.26,300.00 L312.72,299.94 L314.18,299.91 L315.64,300.00 L317.11,299.94 L318.57,299.91 L320.03,300.00 L321.49,298.39 L322.95,297.58 L324.41,300.00 L325.87,299.20 L327.34,298.79 L328.80,299.98 L330.26,299.97 L331.72,299.93 L333.18,299.96 L334.64,300.00 L336.10,299.94 L337.56,299.91 L339.03,300.00 L340.49,299.96 L341.95,299.94 L343.41,300.00 L344.87,298.35 L346.33,297.53 L347.79,300.00 L349.26,299.96 L350.72,299.72 L352.18,299.67 L353.64,299.96 L355.10,299.94 L356.56,300.00 L358.02,299.94 L359.48,299.89 L360.95,299.97 L362.41,299.96 L363.87,299.94 L365.33,300.00 L366.79,299.94 L368.25,299.89 L369.71,298.34 L371.17,297.51 L372.64,299.94 L374.10,300.00 L375.56,299.92 L377.02,299.88 L378.48,300.00 L379.94,299.97 L381.40,299.94 L382.87,299.98 L384.33,299.95 L385.79,299.90 L387.25,299.96 L388.71,299.97 L390.17,299.94 L391.63,299.98 L393.09,299.94 L394.56,298.23 L396.02,297.50 L397.48,300.00 L398.94,299.30 L400.40,298.92 L401.86,299.95 L403.32,299.96 L404.79,299.94 L406.25,300.00 L407.71,299.94 L409.17,299.91 L410.63,300.00 L412.09,299.96 L413.55,299.94 L415.01,300.00 L416.48,299.94 L417.94,299.91 L419.40,300.00 L420.86,299.96 L422.32,299.94 L423.78,300.00 L425.24,299.94 L426.70,299.91 L428.17,300.00 L429.63,299.97 L431.09,299.94 L432.55,299.98 L434.01,299.97 L435.47,299.93 L436.93,299.96 L438.40,299.97 L439.86,299.94 L441.32,297.67 L442.78,296.50 L444.24,299.94 L445.70,299.98 L447.16,299.98 L448.62,299.23 L450.09,298.90 L451.55,300.00 L453.01,299.96 L454.47,299.94 L455.93,300.00 L457.39,299.94 L458.85,299.91 L460.32,300.00 L461.78,299.96 L463.24,299.94 L464.70,300.00 L466.16,299.97 L467.62,299.93 L469.08,297.65 L470.54,296.50 L472.01,299.94 L473.47,299.98 L474.93,299.97 L476.39,299.93 L477.85,299.96 L479.31,299.97 L480.77,299.94 L482.23,299.98 L483.70,299.97 L485.16,299.93 L486.62,299.96 L488.08,299.97 L489.54,299.94 L491.00,299.98 L492.46,300.00 L493.93,297.62 L495.39,296.44 L496.85,300.00 L498.31,299.96 L499.77,299.94 L501.23,300.00 L502.69,299.94 L504.15,299.91 L505.62,300.00 L507.08,299.96 L508.54,299.94 L510.00,300.00" stroke="#1cc88a" fill="none" stroke-width="2" stroke-linejoin="round"/></g><text x="300" y="20" text-anchor="middle" font-size="16" fill="#333">Network Traffic for eth0</text><text x="10" y="200" text-anchor="middle" transform="rotate(-90,10,200)" font-size="12" fill="#666">Traffic (bytes/s)</text><g font-size="12"><circle cx="20" cy="375" r="5" fill="#4e73df"/><text x="30" y="380" fill="#333">rx: 23.3 at 22:53:10</text><circle cx="240" cy="375" r="5" fill="#1cc88a"/><text x="250" y="380" fill="#333">tx: 0.0 at 22:53:10</text></g></svg>