<svg width="600" height="400" xmlns="http://www.w3.org/2000/svg" style="font-family: Arial, sans-serif;"><rect width="600" height="400" fill="#ffffff"/><g transform="translate(60,30)"><rect width="510" height="300" fill="#f8f9fc" stroke="#ddd"/><g stroke-width="1"><line x1="0" y1="300" x2="510" y2="300" stroke="#eee" /><text x="-5" y="304" text-anchor="end" font-size="10" fill="#666">3.8</text><line x1="0" y1="240" x2="510" y2="240" stroke="#eee" /><text x="-5" y="244" text-anchor="end" font-size="10" fill="#666">126.7</text><line x1="0" y1="180" x2="510" y2="180" stroke="#eee" /><text x="-5" y="184" text-anchor="end" font-size="10" fill="#666">249.6</text><line x1="0" y1="120" x2="510" y2="120" stroke="#eee" /><text x="-5" y="124" text-anchor="end" font-size="10" fill="#666">372.5</text><line x1="0" y1="59.999999999999986" x2="510" y2="59.999999999999986" stroke="#eee" /><text x="-5" y="63.999999999999986" text-anchor="end" font-size="10" fill="#666">495.4</text><line x1="0" y1="0" x2="510" y2="0" stroke="#eee" /><text x="-5" y="4" text-anchor="end" font-size="10" fill="#666">618.3</text></g><g stroke-width="1"><line x1="0" y1="0" x2="0" y2="300" stroke="#eee"/><text x="0" y="320" text-anchor="middle" font-size="10" fill="#666">23:56:50</text><line x1="102" y1="0" x2="102" y2="300" stroke="#eee"/><text x="102" y="320" text-anchor="middle" font-size="10" fill="#666">00:08:44</text><line x1="204" y1="0" x2="204" y2="300" stroke="#eee"/><text x="204" y="320" text-anchor="middle" font-size="10" fill="#666">00:20:38</text><line x1="306" y1="0" x2="306" y2="300" stroke="#eee"/><text x="306" y="320" text-anchor="middle" font-size="10" fill="#666">00:32:32</text><line x1="408" y1="0" x2="408" y2="300" stroke="#eee"/><text x="408" y="320" text-anchor="middle" font-size="10" fill="#666">00:44:26</text><line x1="510" y1="0" x2="510" y2="300" stroke="#eee"/><text x="510" y="320" text-anchor="middle" font-size="10" fill="#666">00:56:20</text></g><path d="M0.00,159.10 L10.00,299.44 L20.00,257.10 L30.00,196.03 L40.00,299.34 L50.00,159.16 L60.00,299.31 L70.00,247.85 L80.00,208.75 L90.00,295.42 L100.00,162.25 L110.00,299.64 L120.00,157.42 L130.00,58.28 L140.00,272.68 L150.00,158.74 L160.00,299.17 L170.00,282.42 L180.00,157.31 L190.00,299.67 L200.00,299.44 L210.00,159.70 L220.00,290.26 L230.00,155.51 L240.00,300.00 L250.00,299.34 L260.00,158.95 L270.00,299.08 L280.00,150.57 L290.00,299.14 L300.00,286.01 L310.00,174.12 L320.00,299.91 L330.00,153.16 L340.00,299.94 L350.00,299.44 L360.00,158.68 L370.00,195.40 L380.00,299.59 L390.00,157.07 L400.00,299.62 L410.00,156.59 L420.00,299.05 L430.00,299.44 L440.00,153.28 L450.00,299.47 L460.00,285.40 L470.00,173.89 L480.00,299.32 L490.00,158.73 L500.00,298.49 L510.00,156.82" stroke="#4e73df" fill="none" stroke-width="2" stroke-linejoin="round"/><circle id="point-rx-0" cx="0.00" cy="159.10" r="5" fill="#4e73df" opacity="0" onmouseover="showTooltip(evt, 'rx', '292.4', '23:56:50', 0.00, 159.10)" onmouseout="hideTooltip()"/><circle id="point-rx-1" cx="10.00" cy="299.44" r="5" fill="#4e73df" opacity="0" onmouseover="showTooltip(evt, 'rx', '4.9', '23:58:00', 10.00, 299.44)" onmouseout="hideTooltip()"/><circle id="point-rx-2" cx="20.00" cy="257.10" r="5" fill="#4e73df" opacity="0" onmouseover="showTooltip(evt, 'rx', '91.7', '23:59:10', 20.00, 257.10)" onmouseout="hideTooltip()"/><circle id="point-rx-3" cx="30.00" cy="196.03" r="5" fill="#4e73df" opacity="0" onmouseover="showTooltip(evt, 'rx', '216.7', '00:00:20', 30.00, 196.03)" onmouseout="hideTooltip()"/><circle id="point-rx-4" cx="40.00" cy="299.34" r="5" fill="#4e73df" opacity="0" onmouseover="showTooltip(evt, 'rx', '5.1', '00:01:30', 40.00, 299.34)" onmouseout="hideTooltip()"/><circle id="point-rx-5" cx="50.00" cy="159.16" r="5" fill="#4e73df" opacity="0" onmouseover="showTooltip(evt, 'rx', '292.3', '00:02:40', 50.00, 159.16)" onmouseout="hideTooltip()"/><circle id="point-rx-6" cx="60.00" cy="299.31" r="5" fill="#4e73df" opacity="0" onmouseover="showTooltip(evt, 'rx', '5.2', '00:03:50', 60.00, 299.31)" onmouseout="hideTooltip()"/><circle id="point-rx-7" cx="70.00" cy="247.85" r="5" fill="#4e73df" opacity="0" onmouseover="showTooltip(evt, 'rx', '110.6', '00:05:00', 70.00, 247.85)" onmouseout="hideTooltip()"/><circle id="point-rx-8" cx="80.00" cy="208.75" r="5" fill="#4e73df" opacity="0" onmouseover="showTooltip(evt, 'rx', '190.7', '00:06:10', 80.00, 208.75)" onmouseout="hideTooltip()"/><circle id="point-rx-9" cx="90.00" cy="295.42" r="5" fill="#4e73df" opacity="0" onmouseover="showTooltip(evt, 'rx', '13.2', '00:07:20', 90.00, 295.42)" onmouseout="hideTooltip()"/><circle id="point-rx-10" cx="100.00" cy="162.25" r="5" fill="#4e73df" opacity="0" onmouseover="showTooltip(evt, 'rx', '285.9', '00:08:30', 100.00, 162.25)" onmouseout="hideTooltip()"/><circle id="point-rx-11" cx="110.00" cy="299.64" r="5" fill="#4e73df" opacity="0" onmouseover="showTooltip(evt, 'rx', '4.5', '00:09:40', 110.00, 299.64)" onmouseout="hideTooltip()"/><circle id="point-rx-12" cx="120.00" cy="157.42" r="5" fill="#4e73df" opacity="0" onmouseover="showTooltip(evt, 'rx', '295.8', '00:10:50', 120.00, 157.42)" onmouseout="hideTooltip()"/><circle id="point-rx-13" cx="130.00" cy="58.28" r="5" fill="#4e73df" opacity="0" onmouseover="showTooltip(evt, 'rx', '498.9', '00:12:00', 130.00, 58.28)" onmouseout="hideTooltip()"/><circle id="point-rx-14" cx="140.00" cy="272.68" r="5" fill="#4e73df" opacity="0" onmouseover="showTooltip(evt, 'rx', '59.7', '00:13:10', 140.00, 272.68)" onmouseout="hideTooltip()"/><circle id="point-rx-15" cx="150.00" cy="158.74" r="5" fill="#4e73df" opacity="0" onmouseover="showTooltip(evt, 'rx', '293.1', '00:14:20', 150.00, 158.74)" onmouseout="hideTooltip()"/><circle id="point-rx-16" cx="160.00" cy="299.17" r="5" fill="#4e73df" opacity="0" onmouseover="showTooltip(evt, 'rx', '5.5', '00:15:30', 160.00, 299.17)" onmouseout="hideTooltip()"/><circle id="point-rx-17" cx="170.00" cy="282.42" r="5" fill="#4e73df" opacity="0" onmouseover="showTooltip(evt, 'rx', '39.8', '00:16:40', 170.00, 282.42)" onmouseout="hideTooltip()"/><circle id="point-rx-18" cx="180.00" cy="157.31" r="5" fill="#4e73df" opacity="0" onmouseover="showTooltip(evt, 'rx', '296.1', '00:17:50', 180.00, 157.31)" onmouseout="hideTooltip()"/><circle id="point-rx-19" cx="190.00" cy="299.67" r="5" fill="#4e73df" opacity="0" onmouseover="showTooltip(evt, 'rx', '4.4', '00:19:00', 190.00, 299.67)" onmouseout="hideTooltip()"/><circle id="point-rx-20" cx="200.00" cy="299.44" r="5" fill="#4e73df" opacity="0" onmouseover="showTooltip(evt, 'rx', '4.9', '00:20:10', 200.00, 299.44)" onmouseout="hideTooltip()"/><circle id="point-rx-21" cx="210.00" cy="159.70" r="5" fill="#4e73df" opacity="0" onmouseover="showTooltip(evt, 'rx', '291.2', '00:21:20', 210.00, 159.70)" onmouseout="hideTooltip()"/><circle id="point-rx-22" cx="220.00" cy="290.26" r="5" fill="#4e73df" opacity="0" onmouseover="showTooltip(evt, 'rx', '23.7', '00:22:30', 220.00, 290.26)" onmouseout="hideTooltip()"/><circle id="point-rx-23" cx="230.00" cy="155.51" r="5" fill="#4e73df" opacity="0" onmouseover="showTooltip(evt, 'rx', '299.8', '00:23:40', 230.00, 155.51)" onmouseout="hideTooltip()"/><circle id="point-rx-24" cx="240.00" cy="300.00" r="5" fill="#4e73df" opacity="0" onmouseover="showTooltip(evt, 'rx', '3.8', '00:24:50', 240.00, 300.00)" onmouseout="hideTooltip()"/><circle id="point-rx-25" cx="250.00" cy="299.34" r="5" fill="#4e73df" opacity="0" onmouseover="showTooltip(evt, 'rx', '5.1', '00:26:00', 250.00, 299.34)" onmouseout="hideTooltip()"/><circle id="point-rx-26" cx="260.00" cy="158.95" r="5" fill="#4e73df" opacity="0" onmouseover="showTooltip(evt, 'rx', '292.7', '00:27:10', 260.00, 158.95)" onmouseout="hideTooltip()"/><circle id="point-rx-27" cx="270.00" cy="299.08" r="5" fill="#4e73df" opacity="0" onmouseover="showTooltip(evt, 'rx', '5.7', '00:28:20', 270.00, 299.08)" onmouseout="hideTooltip()"/><circle id="point-rx-28" cx="280.00" cy="150.57" r="5" fill="#4e73df" opacity="0" onmouseover="showTooltip(evt, 'rx', '309.9', '00:29:30', 280.00, 150.57)" onmouseout="hideTooltip()"/><circle id="point-rx-29" cx="290.00" cy="299.14" r="5" fill="#4e73df" opacity="0" onmouseover="showTooltip(evt, 'rx', '5.5', '00:30:40', 290.00, 299.14)" onmouseout="hideTooltip()"/><circle id="point-rx-30" cx="300.00" cy="286.01" r="5" fill="#4e73df" opacity="0" onmouseover="showTooltip(evt, 'rx', '32.4', '00:31:50', 300.00, 286.01)" onmouseout="hideTooltip()"/><circle id="point-rx-31" cx="310.00" cy="174.12" r="5" fill="#4e73df" opacity="0" onmouseover="showTooltip(evt, 'rx', '261.6', '00:33:00', 310.00, 174.12)" onmouseout="hideTooltip()"/><circle id="point-rx-32" cx="320.00" cy="299.91" r="5" fill="#4e73df" opacity="0" onmouseover="showTooltip(evt, 'rx', '4.0', '00:34:10', 320.00, 299.91)" onmouseout="hideTooltip()"/><circle id="point-rx-33" cx="330.00" cy="153.16" r="5" fill="#4e73df" opacity="0" onmouseover="showTooltip(evt, 'rx', '304.6', '00:35:20', 330.00, 153.16)" onmouseout="hideTooltip()"/><circle id="point-rx-34" cx="340.00" cy="299.94" r="5" fill="#4e73df" opacity="0" onmouseover="showTooltip(evt, 'rx', '3.9', '00:36:30', 340.00, 299.94)" onmouseout="hideTooltip()"/><circle id="point-rx-35" cx="350.00" cy="299.44" r="5" fill="#4e73df" opacity="0" onmouseover="showTooltip(evt, 'rx', '4.9', '00:37:40', 350.00, 299.44)" onmouseout="hideTooltip()"/><circle id="point-rx-36" cx="360.00" cy="158.68" r="5" fill="#4e73df" opacity="0" onmouseover="showTooltip(evt, 'rx', '293.3', '00:38:50', 360.00, 158.68)" onmouseout="hideTooltip()"/><circle id="point-rx-37" cx="370.00" cy="195.40" r="5" fill="#4e73df" opacity="0" onmouseover="showTooltip(evt, 'rx', '218.1', '00:40:00', 370.00, 195.40)" onmouseout="hideTooltip()"/><circle id="point-rx-38" cx="380.00" cy="299.59" r="5" fill="#4e73df" opacity="0" onmouseover="showTooltip(evt, 'rx', '4.6', '00:41:10', 380.00, 299.59)" onmouseout="hideTooltip()"/><circle id="point-rx-39" cx="390.00" cy="157.07" r="5" fill="#4e73df" opacity="0" onmouseover="showTooltip(evt, 'rx', '296.6', '00:42:20', 390.00, 157.07)" onmouseout="hideTooltip()"/><circle id="point-rx-40" cx="400.00" cy="299.62" r="5" fill="#4e73df" opacity="0" onmouseover="showTooltip(evt, 'rx', '4.6', '00:43:30', 400.00, 299.62)" onmouseout="hideTooltip()"/><circle id="point-rx-41" cx="410.00" cy="156.59" r="5" fill="#4e73df" opacity="0" onmouseover="showTooltip(evt, 'rx', '297.6', '00:44:40', 410.00, 156.59)" onmouseout="hideTooltip()"/><circle id="point-rx-42" cx="420.00" cy="299.05" r="5" fill="#4e73df" opacity="0" onmouseover="showTooltip(evt, 'rx', '5.7', '00:45:50', 420.00, 299.05)" onmouseout="hideTooltip()"/><circle id="point-rx-43" cx="430.00" cy="299.44" r="5" fill="#4e73df" opacity="0" onmouseover="showTooltip(evt, 'rx', '4.9', '00:47:00', 430.00, 299.44)" onmouseout="hideTooltip()"/><circle id="point-rx-44" cx="440.00" cy="153.28" r="5" fill="#4e73df" opacity="0" onmouseover="showTooltip(evt, 'rx', '304.3', '00:48:10', 440.00, 153.28)" onmouseout="hideTooltip()"/><circle id="point-rx-45" cx="450.00" cy="299.47" r="5" fill="#4e73df" opacity="0" onmouseover="showTooltip(evt, 'rx', '4.9', '00:49:20', 450.00, 299.47)" onmouseout="hideTooltip()"/><circle id="point-rx-46" cx="460.00" cy="285.40" r="5" fill="#4e73df" opacity="0" onmouseover="showTooltip(evt, 'rx', '33.7', '00:50:30', 460.00, 285.40)" onmouseout="hideTooltip()"/><circle id="point-rx-47" cx="470.00" cy="173.89" r="5" fill="#4e73df" opacity="0" onmouseover="showTooltip(evt, 'rx', '262.1', '00:51:40', 470.00, 173.89)" onmouseout="hideTooltip()"/><circle id="point-rx-48" cx="480.00" cy="299.32" r="5" fill="#4e73df" opacity="0" onmouseover="showTooltip(evt, 'rx', '5.2', '00:52:50', 480.00, 299.32)" onmouseout="hideTooltip()"/><circle id="point-rx-49" cx="490.00" cy="158.73" r="5" fill="#4e73df" opacity="0" onmouseover="showTooltip(evt, 'rx', '293.2', '00:54:00', 490.00, 158.73)" onmouseout="hideTooltip()"/><circle id="point-rx-50" cx="500.00" cy="298.49" r="5" fill="#4e73df" opacity="0" onmouseover="showTooltip(evt, 'rx', '6.9', '00:55:10', 500.00, 298.49)" onmouseout="hideTooltip()"/><circle id="point-rx-51" cx="510.00" cy="156.82" r="5" fill="#4e73df" opacity="0" onmouseover="showTooltip(evt, 'rx', '297.1', '00:56:20', 510.00, 156.82)" onmouseout="hideTooltip()"/><path d="M0.00,250.93 L10.00,299.44 L20.00,282.99 L30.00,265.58 L40.00,299.34 L50.00,249.44 L60.00,299.31 L70.00,279.26 L80.00,267.49 L90.00,297.98 L100.00,250.97 L110.00,299.64 L120.00,248.38 L130.00,0.00 L140.00,274.03 L150.00,238.87 L160.00,299.17 L170.00,299.91 L180.00,248.26 L190.00,299.67 L200.00,299.44 L210.00,249.75 L220.00,298.91 L230.00,249.24 L240.00,300.00 L250.00,299.34 L260.00,249.35 L270.00,299.08 L280.00,250.10 L290.00,299.14 L300.00,294.51 L310.00,254.99 L320.00,299.91 L330.00,248.20 L340.00,299.94 L350.00,299.44 L360.00,249.57 L370.00,269.68 L380.00,299.59 L390.00,248.86 L400.00,299.62 L410.00,248.45 L420.00,299.05 L430.00,299.44 L440.00,248.89 L450.00,299.47 L460.00,294.40 L470.00,254.86 L480.00,299.32 L490.00,249.69 L500.00,298.49 L510.00,248.49" stroke="#1cc88a" fill="none" stroke-width="2" stroke-linejoin="round"/><circle id="point-tx-0" cx="0.00" cy="250.93" r="5" fill="#1cc88a" opacity="0" onmouseover="showTooltip(evt, 'tx', '104.3', '23:56:50', 0.00, 250.93)" onmouseout="hideTooltip()"/><circle id="point-tx-1" cx="10.00" cy="299.44" r="5" fill="#1cc88a" opacity="0" onmouseover="showTooltip(evt, 'tx', '4.9', '23:58:00', 10.00, 299.44)" onmouseout="hideTooltip()"/><circle id="point-tx-2" cx="20.00" cy="282.99" r="5" fill="#1cc88a" opacity="0" onmouseover="showTooltip(evt, 'tx', '38.6', '23:59:10', 20.00, 282.99)" onmouseout="hideTooltip()"/><circle id="point-tx-3" cx="30.00" cy="265.58" r="5" fill="#1cc88a" opacity="0" onmouseover="showTooltip(evt, 'tx', '74.3', '00:00:20', 30.00, 265.58)" onmouseout="hideTooltip()"/><circle id="point-tx-4" cx="40.00" cy="299.34" r="5" fill="#1cc88a" opacity="0" onmouseover="showTooltip(evt, 'tx', '5.1', '00:01:30', 40.00, 299.34)" onmouseout="hideTooltip()"/><circle id="point-tx-5" cx="50.00" cy="249.44" r="5" fill="#1cc88a" opacity="0" onmouseover="showTooltip(evt, 'tx', '107.4', '00:02:40', 50.00, 249.44)" onmouseout="hideTooltip()"/><circle id="point-tx-6" cx="60.00" cy="299.31" r="5" fill="#1cc88a" opacity="0" onmouseover="showTooltip(evt, 'tx', '5.2', '00:03:50', 60.00, 299.31)" onmouseout="hideTooltip()"/><circle id="point-tx-7" cx="70.00" cy="279.26" r="5" fill="#1cc88a" opacity="0" onmouseover="showTooltip(evt, 'tx', '46.3', '00:05:00', 70.00, 279.26)" onmouseout="hideTooltip()"/><circle id="point-tx-8" cx="80.00" cy="267.49" r="5" fill="#1cc88a" opacity="0" onmouseover="showTooltip(evt, 'tx', '70.4', '00:06:10', 80.00, 267.49)" onmouseout="hideTooltip()"/><circle id="point-tx-9" cx="90.00" cy="297.98" r="5" fill="#1cc88a" opacity="0" onmouseover="showTooltip(evt, 'tx', '7.9', '00:07:20', 90.00, 297.98)" onmouseout="hideTooltip()"/><circle id="point-tx-10" cx="100.00" cy="250.97" r="5" fill="#1cc88a" opacity="0" onmouseover="showTooltip(evt, 'tx', '104.2', '00:08:30', 100.00, 250.97)" onmouseout="hideTooltip()"/><circle id="point-tx-11" cx="110.00" cy="299.64" r="5" fill="#1cc88a" opacity="0" onmouseover="showTooltip(evt, 'tx', '4.5', '00:09:40', 110.00, 299.64)" onmouseout="hideTooltip()"/><circle id="point-tx-12" cx="120.00" cy="248.38" r="5" fill="#1cc88a" opacity="0" onmouseover="showTooltip(evt, 'tx', '109.5', '00:10:50', 120.00, 248.38)" onmouseout="hideTooltip()"/><circle id="point-tx-13" cx="130.00" cy="0.00" r="5" fill="#1cc88a" opacity="0" onmouseover="showTooltip(evt, 'tx', '618.3', '00:12:00', 130.00, 0.00)" onmouseout="hideTooltip()"/><circle id="point-tx-14" cx="140.00" cy="274.03" r="5" fill="#1cc88a" opacity="0" onmouseover="showTooltip(evt, 'tx', '57.0', '00:13:10', 140.00, 274.03)" onmouseout="hideTooltip()"/><circle id="point-tx-15" cx="150.00" cy="238.87" r="5" fill="#1cc88a" opacity="0" onmouseover="showTooltip(evt, 'tx', '129.0', '00:14:20', 150.00, 238.87)" onmouseout="hideTooltip()"/><circle id="point-tx-16" cx="160.00" cy="299.17" r="5" fill="#1cc88a" opacity="0" onmouseover="showTooltip(evt, 'tx', '5.5', '00:15:30', 160.00, 299.17)" onmouseout="hideTooltip()"/><circle id="point-tx-17" cx="170.00" cy="299.91" r="5" fill="#1cc88a" opacity="0" onmouseover="showTooltip(evt, 'tx', '4.0', '00:16:40', 170.00, 299.91)" onmouseout="hideTooltip()"/><circle id="point-tx-18" cx="180.00" cy="248.26" r="5" fill="#1cc88a" opacity="0" onmouseover="showTooltip(evt, 'tx', '109.8', '00:17:50', 180.00, 248.26)" onmouseout="hideTooltip()"/><circle id="point-tx-19" cx="190.00" cy="299.67" r="5" fill="#1cc88a" opacity="0" onmouseover="showTooltip(evt, 'tx', '4.4', '00:19:00', 190.00, 299.67)" onmouseout="hideTooltip()"/><circle id="point-tx-20" cx="200.00" cy="299.44" r="5" fill="#1cc88a" opacity="0" onmouseover="showTooltip(evt, 'tx', '4.9', '00:20:10', 200.00, 299.44)" onmouseout="hideTooltip()"/><circle id="point-tx-21" cx="210.00" cy="249.75" r="5" fill="#1cc88a" opacity="0" onmouseover="showTooltip(evt, 'tx', '106.7', '00:21:20', 210.00, 249.75)" onmouseout="hideTooltip()"/><circle id="point-tx-22" cx="220.00" cy="298.91" r="5" fill="#1cc88a" opacity="0" onmouseover="showTooltip(evt, 'tx', '6.0', '00:22:30', 220.00, 298.91)" onmouseout="hideTooltip()"/><circle id="point-tx-23" cx="230.00" cy="249.24" r="5" fill="#1cc88a" opacity="0" onmouseover="showTooltip(evt, 'tx', '107.8', '00:23:40', 230.00, 249.24)" onmouseout="hideTooltip()"/><circle id="point-tx-24" cx="240.00" cy="300.00" r="5" fill="#1cc88a" opacity="0" onmouseover="showTooltip(evt, 'tx', '3.8', '00:24:50', 240.00, 300.00)" onmouseout="hideTooltip()"/><circle id="point-tx-25" cx="250.00" cy="299.34" r="5" fill="#1cc88a" opacity="0" onmouseover="showTooltip(evt, 'tx', '5.1', '00:26:00', 250.00, 299.34)" onmouseout="hideTooltip()"/><circle id="point-tx-26" cx="260.00" cy="249.35" r="5" fill="#1cc88a" opacity="0" onmouseover="showTooltip(evt, 'tx', '107.5', '00:27:10', 260.00, 249.35)" onmouseout="hideTooltip()"/><circle id="point-tx-27" cx="270.00" cy="299.08" r="5" fill="#1cc88a" opacity="0" onmouseover="showTooltip(evt, 'tx', '5.7', '00:28:20', 270.00, 299.08)" onmouseout="hideTooltip()"/><circle id="point-tx-28" cx="280.00" cy="250.10" r="5" fill="#1cc88a" opacity="0" onmouseover="showTooltip(evt, 'tx', '106.0', '00:29:30', 280.00, 250.10)" onmouseout="hideTooltip()"/><circle id="point-tx-29" cx="290.00" cy="299.14" r="5" fill="#1cc88a" opacity="0" onmouseover="showTooltip(evt, 'tx', '5.5', '00:30:40', 290.00, 299.14)" onmouseout="hideTooltip()"/><circle id="point-tx-30" cx="300.00" cy="294.51" r="5" fill="#1cc88a" opacity="0" onmouseover="showTooltip(evt, 'tx', '15.0', '00:31:50', 300.00, 294.51)" onmouseout="hideTooltip()"/><circle id="point-tx-31" cx="310.00" cy="254.99" r="5" fill="#1cc88a" opacity="0" onmouseover="showTooltip(evt, 'tx', '96.0', '00:33:00', 310.00, 254.99)" onmouseout="hideTooltip()"/><circle id="point-tx-32" cx="320.00" cy="299.91" r="5" fill="#1cc88a" opacity="0" onmouseover="showTooltip(evt, 'tx', '4.0', '00:34:10', 320.00, 299.91)" onmouseout="hideTooltip()"/><circle id="point-tx-33" cx="330.00" cy="248.20" r="5" fill="#1cc88a" opacity="0" onmouseover="showTooltip(evt, 'tx', '109.9', '00:35:20', 330.00, 248.20)" onmouseout="hideTooltip()"/><circle id="point-tx-34" cx="340.00" cy="299.94" r="5" fill="#1cc88a" opacity="0" onmouseover="showTooltip(evt, 'tx', '3.9', '00:36:30', 340.00, 299.94)" onmouseout="hideTooltip()"/><circle id="point-tx-35" cx="350.00" cy="299.44" r="5" fill="#1cc88a" opacity="0" onmouseover="showTooltip(evt, 'tx', '4.9', '00:37:40', 350.00, 299.44)" onmouseout="hideTooltip()"/><circle id="point-tx-36" cx="360.00" cy="249.57" r="5" fill="#1cc88a" opacity="0" onmouseover="showTooltip(evt, 'tx', '107.1', '00:38:50', 360.00, 249.57)" onmouseout="hideTooltip()"/><circle id="point-tx-37" cx="370.00" cy="269.68" r="5" fill="#1cc88a" opacity="0" onmouseover="showTooltip(evt, 'tx', '65.9', '00:40:00', 370.00, 269.68)" onmouseout="hideTooltip()"/><circle id="point-tx-38" cx="380.00" cy="299.59" r="5" fill="#1cc88a" opacity="0" onmouseover="showTooltip(evt, 'tx', '4.6', '00:41:10', 380.00, 299.59)" onmouseout="hideTooltip()"/><circle id="point-tx-39" cx="390.00" cy="248.86" r="5" fill="#1cc88a" opacity="0" onmouseover="showTooltip(evt, 'tx', '108.5', '00:42:20', 390.00, 248.86)" onmouseout="hideTooltip()"/><circle id="point-tx-40" cx="400.00" cy="299.62" r="5" fill="#1cc88a" opacity="0" onmouseover="showTooltip(evt, 'tx', '4.6', '00:43:30', 400.00, 299.62)" onmouseout="hideTooltip()"/><circle id="point-tx-41" cx="410.00" cy="248.45" r="5" fill="#1cc88a" opacity="0" onmouseover="showTooltip(evt, 'tx', '109.4', '00:44:40', 410.00, 248.45)" onmouseout="hideTooltip()"/><circle id="point-tx-42" cx="420.00" cy="299.05" r="5" fill="#1cc88a" opacity="0" onmouseover="showTooltip(evt, 'tx', '5.7', '00:45:50', 420.00, 299.05)" onmouseout="hideTooltip()"/><circle id="point-tx-43" cx="430.00" cy="299.44" r="5" fill="#1cc88a" opacity="0" onmouseover="showTooltip(evt, 'tx', '4.9', '00:47:00', 430.00, 299.44)" onmouseout="hideTooltip()"/><circle id="point-tx-44" cx="440.00" cy="248.89" r="5" fill="#1cc88a" opacity="0" onmouseover="showTooltip(evt, 'tx', '108.5', '00:48:10', 440.00, 248.89)" onmouseout="hideTooltip()"/><circle id="point-tx-45" cx="450.00" cy="299.47" r="5" fill="#1cc88a" opacity="0" onmouseover="showTooltip(evt, 'tx', '4.9', '00:49:20', 450.00, 299.47)" onmouseout="hideTooltip()"/><circle id="point-tx-46" cx="460.00" cy="294.40" r="5" fill="#1cc88a" opacity="0" onmouseover="showTooltip(evt, 'tx', '15.3', '00:50:30', 460.00, 294.40)" onmouseout="hideTooltip()"/><circle id="point-tx-47" cx="470.00" cy="254.86" r="5" fill="#1cc88a" opacity="0" onmouseover="showTooltip(evt, 'tx', '96.2', '00:51:40', 470.00, 254.86)" onmouseout="hideTooltip()"/><circle id="point-tx-48" cx="480.00" cy="299.32" r="5" fill="#1cc88a" opacity="0" onmouseover="showTooltip(evt, 'tx', '5.2', '00:52:50', 480.00, 299.32)" onmouseout="hideTooltip()"/><circle id="point-tx-49" cx="490.00" cy="249.69" r="5" fill="#1cc88a" opacity="0" onmouseover="showTooltip(evt, 'tx', '106.8', '00:54:00', 490.00, 249.69)" onmouseout="hideTooltip()"/><circle id="point-tx-50" cx="500.00" cy="298.49" r="5" fill="#1cc88a" opacity="0" onmouseover="showTooltip(evt, 'tx', '6.9', '00:55:10', 500.00, 298.49)" onmouseout="hideTooltip()"/><circle id="point-tx-51" cx="510.00" cy="248.49" r="5" fill="#1cc88a" opacity="0" onmouseover="showTooltip(evt, 'tx', '109.3', '00:56:20', 510.00, 248.49)" onmouseout="hideTooltip()"/></g><g id="tooltip" visibility="hidden"><rect x="0" y="0" width="150" height="40" fill="#333" opacity="0.8" rx="5"/><text x="5" y="15" font-size="10" fill="#fff" id="tooltip-series"></text><text x="5" y="30" font-size="10" fill="#fff" id="tooltip-value"></text></g><script><![CDATA[function showTooltip(evt, series, value, time, x, y) {  var tooltip = document.getElementById("tooltip");  var seriesText = document.getElementById("tooltip-series");  var valueText = document.getElementById("tooltip-value");  seriesText.textContent = "Series: " + series;  valueText.textContent = value + " at " + time;  tooltip.setAttribute("transform", "translate(" + (x + 10) + "," + (y - 50) + ")");  tooltip.setAttribute("visibility", "visible");  evt.target.setAttribute("r", "7");  evt.target.setAttribute("opacity", "1");}function hideTooltip() {  var tooltip = document.getElementById("tooltip");  tooltip.setAttribute("visibility", "hidden");  var circles = document.getElementsByTagName("circle");  for (var i = 0; i < circles.length; i++) {    circles[i].setAttribute("r", "5");    circles[i].setAttribute("opacity", "0");  }}]]></script><text x="300" y="20" text-anchor="middle" font-size="16" fill="#333">Network Traffic for eth0</text><text x="10" y="200" text-anchor="middle" transform="rotate(-90,10,200)" font-size="12" fill="#666">Traffic (bytes/s)</text><g font-size="12"><circle cx="20" cy="375" r="5" fill="#4e73df"/><text x="30" y="380" fill="#333">rx: 297.1 at 00:56:20</text><circle cx="240" cy="375" r="5" fill="#1cc88a"/><text x="250" y="380" fill="#333">tx: 109.3 at 00:56:20</text></g></svg>