<svg width="600" height="400" xmlns="http://www.w3.org/2000/svg" style="font-family: Arial, sans-serif;"><rect width="600" height="400" fill="#ffffff"/><g transform="translate(60,30)"><rect width="510" height="300" fill="#f8f9fc" stroke="#ddd"/><g stroke-width="1"><line x1="0" y1="300" x2="510" y2="300" stroke="#eee" /><text x="-5" y="304" text-anchor="end" font-size="10" fill="#666">0.0</text><line x1="0" y1="240" x2="510" y2="240" stroke="#eee" /><text x="-5" y="244" text-anchor="end" font-size="10" fill="#666">127366.2</text><line x1="0" y1="180" x2="510" y2="180" stroke="#eee" /><text x="-5" y="184" text-anchor="end" font-size="10" fill="#666">254732.5</text><line x1="0" y1="120" x2="510" y2="120" stroke="#eee" /><text x="-5" y="124" text-anchor="end" font-size="10" fill="#666">382098.7</text><line x1="0" y1="59.999999999999986" x2="510" y2="59.999999999999986" stroke="#eee" /><text x="-5" y="63.999999999999986" text-anchor="end" font-size="10" fill="#666">509464.9</text><line x1="0" y1="0" x2="510" y2="0" stroke="#eee" /><text x="-5" y="4" text-anchor="end" font-size="10" fill="#666">636831.1</text></g><g stroke-width="1"><line x1="0" y1="0" x2="0" y2="300" stroke="#eee"/><text x="0" y="320" text-anchor="middle" font-size="10" fill="#666">22:19:50</text><line x1="102" y1="0" x2="102" y2="300" stroke="#eee"/><text x="102" y="320" text-anchor="middle" font-size="10" fill="#666">22:31:50</text><line x1="204" y1="0" x2="204" y2="300" stroke="#eee"/><text x="204" y="320" text-anchor="middle" font-size="10" fill="#666">22:43:50</text><line x1="306" y1="0" x2="306" y2="300" stroke="#eee"/><text x="306" y="320" text-anchor="middle" font-size="10" fill="#666">22:55:50</text><line x1="408" y1="0" x2="408" y2="300" stroke="#eee"/><text x="408" y="320" text-anchor="middle" font-size="10" fill="#666">23:07:50</text><line x1="510" y1="0" x2="510" y2="300" stroke="#eee"/><text x="510" y="320" text-anchor="middle" font-size="10" fill="#666">23:19:50</text></g><path d="M0.00,300.00 L1.42,300.00 L2.83,300.00 L4.25,300.00 L5.67,300.00 L7.08,300.00 L8.50,300.00 L9.92,300.00 L11.33,300.00 L12.75,300.00 L14.17,300.00 L15.58,298.77 L17.00,294.34 L18.42,298.88 L19.83,299.14 L21.25,299.99 L22.67,300.00 L24.08,300.00 L25.50,300.00 L26.92,299.99 L28.33,300.00 L29.75,300.00 L31.17,300.00 L32.58,300.00 L34.00,300.00 L35.42,299.95 L36.83,299.56 L38.25,299.74 L39.67,300.00 L41.08,299.99 L42.50,299.90 L43.92,299.13 L45.33,299.99 L46.75,299.99 L48.17,299.99 L49.58,300.00 L51.00,299.99 L52.42,299.99 L53.83,300.00 L55.25,299.99 L56.67,299.99 L58.08,300.00 L59.50,299.99 L60.92,299.99 L62.33,300.00 L63.75,299.99 L65.17,299.99 L66.58,299.99 L68.00,300.00 L69.42,299.99 L70.83,300.00 L72.25,300.00 L73.67,299.99 L75.08,299.99 L76.50,299.99 L77.92,300.00 L79.33,299.99 L80.75,299.99 L82.17,300.00 L83.58,299.99 L85.00,299.99 L86.42,300.00 L87.83,299.99 L89.25,299.99 L90.67,300.00 L92.08,299.99 L93.50,299.99 L94.92,299.99 L96.33,299.99 L97.75,299.99 L99.17,267.34 L100.58,0.00 L102.00,244.97 L103.42,299.97 L104.83,299.99 L106.25,300.00 L107.67,299.99 L109.08,299.99 L110.50,300.00 L111.92,299.99 L113.33,299.99 L114.75,300.00 L116.17,299.95 L117.58,299.99 L119.00,299.99 L120.42,300.00 L121.83,299.99 L123.25,299.96 L124.67,300.00 L126.08,300.00 L127.50,300.00 L128.92,300.00 L130.33,299.99 L131.75,299.99 L133.17,300.00 L134.58,300.00 L136.00,299.90 L137.42,299.14 L138.83,300.00 L140.25,299.99 L141.67,300.00 L143.08,299.99 L144.50,300.00 L145.92,300.00 L147.33,300.00 L148.75,300.00 L150.17,300.00 L151.58,299.99 L153.00,300.00 L154.42,300.00 L155.83,300.00 L157.25,300.00 L158.67,299.90 L160.08,299.14 L161.50,300.00 L162.92,300.00 L164.33,300.00 L165.75,300.00 L167.17,299.99 L168.58,300.00 L170.00,300.00 L171.42,300.00 L172.83,299.97 L174.25,299.75 L175.67,300.00 L177.08,300.00 L178.50,299.99 L179.92,300.00 L181.33,300.00 L182.75,299.90 L184.17,299.14 L185.58,300.00 L187.00,300.00 L188.42,300.00 L189.83,300.00 L191.25,300.00 L192.67,300.00 L194.08,299.99 L195.50,300.00 L196.92,300.00 L198.33,299.99 L199.75,300.00 L201.17,300.00 L202.58,299.99 L204.00,300.00 L205.42,299.97 L206.83,299.71 L208.25,299.13 L209.67,300.00 L211.08,300.00 L212.50,300.00 L213.92,299.99 L215.33,300.00 L216.75,300.00 L218.17,300.00 L219.58,300.00 L221.00,300.00 L222.42,299.99 L223.83,299.99 L225.25,299.89 L226.67,300.00 L228.08,300.00 L229.50,299.99 L230.92,300.00 L232.33,300.00 L233.75,299.89 L235.17,299.08 L236.58,300.00 L238.00,300.00 L239.42,300.00 L240.83,299.99 L242.25,299.98 L243.67,300.00 L245.08,299.99 L246.50,300.00 L247.92,300.00 L249.33,299.99 L250.75,300.00 L252.17,299.62 L253.58,296.61 L255.00,300.00 L256.42,300.00 L257.83,300.00 L259.25,300.00 L260.67,300.00 L262.08,300.00 L263.50,299.90 L264.92,299.07 L266.33,300.00 L267.75,300.00 L269.17,299.99 L270.58,300.00 L272.00,300.00 L273.42,300.00 L274.83,300.00 L276.25,300.00 L277.67,300.00 L279.08,300.00 L280.50,300.00 L281.92,300.00 L283.33,300.00 L284.75,299.99 L286.17,300.00 L287.58,299.90 L289.00,299.10 L290.42,300.00 L291.83,300.00 L293.25,300.00 L294.67,300.00 L296.08,299.99 L297.50,300.00 L298.92,300.00 L300.33,299.99 L301.75,300.00 L303.17,300.00 L304.58,299.99 L306.00,300.00 L307.42,300.00 L308.83,299.99 L310.25,300.00 L311.67,299.89 L313.08,299.08 L314.50,300.00 L315.92,299.99 L317.33,300.00 L318.75,300.00 L320.17,299.99 L321.58,300.00 L323.00,300.00 L324.42,299.99 L325.83,300.00 L327.25,300.00 L328.67,300.00 L330.08,300.00 L331.50,299.99 L332.92,300.00 L334.33,300.00 L335.75,300.00 L337.17,300.00 L338.58,300.00 L340.00,299.99 L341.42,300.00 L342.83,299.99 L344.25,299.98 L345.67,300.00 L347.08,299.99 L348.50,300.00 L349.92,300.00 L351.33,300.00 L352.75,300.00 L354.17,300.00 L355.58,299.99 L357.00,300.00 L358.42,300.00 L359.83,300.00 L361.25,300.00 L362.67,300.00 L364.08,300.00 L365.50,300.00 L366.92,300.00 L368.33,300.00 L369.75,300.00 L371.17,299.89 L372.58,299.07 L374.00,300.00 L375.42,300.00 L376.83,300.00 L378.25,300.00 L379.67,300.00 L381.08,300.00 L382.50,299.99 L383.92,300.00 L385.33,299.99 L386.75,299.93 L388.17,299.92 L389.58,299.99 L391.00,299.99 L392.42,300.00 L393.83,300.00 L395.25,300.00 L396.67,300.00 L398.08,299.99 L399.50,300.00 L400.92,300.00 L402.33,299.99 L403.75,300.00 L405.17,300.00 L406.58,299.99 L408.00,299.99 L409.42,299.83 L410.83,299.05 L412.25,300.00 L413.67,300.00 L415.08,300.00 L416.50,300.00 L417.92,299.99 L419.33,300.00 L420.75,300.00 L422.17,299.99 L423.58,300.00 L425.00,300.00 L426.42,299.99 L427.83,300.00 L429.25,300.00 L430.67,300.00 L432.08,300.00 L433.50,299.99 L434.92,299.90 L436.33,299.08 L437.75,300.00 L439.17,300.00 L440.58,300.00 L442.00,299.99 L443.42,300.00 L444.83,300.00 L446.25,299.97 L447.67,300.00 L449.08,300.00 L450.50,300.00 L451.92,300.00 L453.33,299.99 L454.75,300.00 L456.17,300.00 L457.58,299.99 L459.00,300.00 L460.42,300.00 L461.83,299.89 L463.25,299.09 L464.67,300.00 L466.08,300.00 L467.50,300.00 L468.92,299.99 L470.33,300.00 L471.75,300.00 L473.17,299.99 L474.58,300.00 L476.00,300.00 L477.42,299.99 L478.83,300.00 L480.25,300.00 L481.67,300.00 L483.08,300.00 L484.50,299.99 L485.92,299.90 L487.33,299.00 L488.75,299.38 L490.17,299.99 L491.58,300.00 L493.00,299.99 L494.42,300.00 L495.83,300.00 L497.25,300.00 L498.67,300.00 L500.08,300.00 L501.50,300.00 L502.92,300.00 L504.33,300.00 L505.75,300.00 L507.17,300.00 L508.58,300.00 L510.00,300.00" stroke="#4e73df" fill="none" stroke-width="2" stroke-linejoin="round"/><path d="M0.00,300.00 L1.42,300.00 L2.83,300.00 L4.25,300.00 L5.67,300.00 L7.08,300.00 L8.50,300.00 L9.92,300.00 L11.33,300.00 L12.75,300.00 L14.17,300.00 L15.58,299.56 L17.00,298.61 L18.42,299.40 L19.83,299.69 L21.25,299.99 L22.67,299.99 L24.08,300.00 L25.50,300.00 L26.92,299.99 L28.33,300.00 L29.75,300.00 L31.17,300.00 L32.58,300.00 L34.00,300.00 L35.42,299.97 L36.83,299.72 L38.25,299.84 L39.67,300.00 L41.08,299.99 L42.50,299.96 L43.92,299.69 L45.33,299.99 L46.75,299.99 L48.17,299.99 L49.58,300.00 L51.00,299.99 L52.42,299.99 L53.83,300.00 L55.25,299.99 L56.67,299.99 L58.08,300.00 L59.50,299.99 L60.92,299.99 L62.33,300.00 L63.75,299.99 L65.17,299.99 L66.58,299.99 L68.00,300.00 L69.42,299.99 L70.83,299.99 L72.25,299.99 L73.67,299.99 L75.08,299.99 L76.50,299.99 L77.92,300.00 L79.33,299.99 L80.75,299.99 L82.17,300.00 L83.58,299.99 L85.00,299.99 L86.42,300.00 L87.83,299.99 L89.25,299.99 L90.67,300.00 L92.08,299.99 L93.50,299.99 L94.92,299.99 L96.33,299.99 L97.75,299.99 L99.17,299.39 L100.58,294.44 L102.00,298.62 L103.42,299.99 L104.83,299.99 L106.25,300.00 L107.67,299.99 L109.08,299.99 L110.50,300.00 L111.92,299.99 L113.33,299.99 L114.75,300.00 L116.17,299.99 L117.58,299.99 L119.00,299.99 L120.42,300.00 L121.83,299.99 L123.25,299.97 L124.67,300.00 L126.08,300.00 L127.50,300.00 L128.92,299.99 L130.33,300.00 L131.75,299.99 L133.17,300.00 L134.58,300.00 L136.00,299.96 L137.42,299.69 L138.83,300.00 L140.25,300.00 L141.67,300.00 L143.08,299.99 L144.50,300.00 L145.92,300.00 L147.33,300.00 L148.75,300.00 L150.17,300.00 L151.58,299.99 L153.00,300.00 L154.42,300.00 L155.83,300.00 L157.25,300.00 L158.67,299.96 L160.08,299.69 L161.50,300.00 L162.92,300.00 L164.33,300.00 L165.75,300.00 L167.17,299.99 L168.58,300.00 L170.00,300.00 L171.42,300.00 L172.83,299.98 L174.25,299.79 L175.67,300.00 L177.08,300.00 L178.50,299.99 L179.92,300.00 L181.33,300.00 L182.75,299.96 L184.17,299.69 L185.58,300.00 L187.00,300.00 L188.42,300.00 L189.83,300.00 L191.25,300.00 L192.67,300.00 L194.08,299.99 L195.50,300.00 L196.92,300.00 L198.33,299.99 L199.75,300.00 L201.17,300.00 L202.58,299.99 L204.00,300.00 L205.42,299.96 L206.83,299.93 L208.25,299.69 L209.67,300.00 L211.08,300.00 L212.50,300.00 L213.92,299.99 L215.33,300.00 L216.75,300.00 L218.17,300.00 L219.58,300.00 L221.00,300.00 L222.42,299.99 L223.83,300.00 L225.25,300.00 L226.67,300.00 L228.08,300.00 L229.50,299.99 L230.92,300.00 L232.33,300.00 L233.75,299.96 L235.17,299.68 L236.58,300.00 L238.00,300.00 L239.42,300.00 L240.83,300.00 L242.25,300.00 L243.67,300.00 L245.08,299.99 L246.50,300.00 L247.92,300.00 L249.33,299.99 L250.75,300.00 L252.17,299.96 L253.58,299.66 L255.00,300.00 L256.42,300.00 L257.83,300.00 L259.25,300.00 L260.67,300.00 L262.08,300.00 L263.50,299.96 L264.92,299.68 L266.33,300.00 L267.75,300.00 L269.17,299.99 L270.58,300.00 L272.00,300.00 L273.42,300.00 L274.83,300.00 L276.25,300.00 L277.67,300.00 L279.08,300.00 L280.50,300.00 L281.92,300.00 L283.33,300.00 L284.75,299.99 L286.17,300.00 L287.58,299.96 L289.00,299.68 L290.42,300.00 L291.83,300.00 L293.25,300.00 L294.67,300.00 L296.08,299.99 L297.50,300.00 L298.92,300.00 L300.33,299.99 L301.75,300.00 L303.17,300.00 L304.58,299.99 L306.00,300.00 L307.42,300.00 L308.83,299.99 L310.25,300.00 L311.67,299.96 L313.08,299.68 L314.50,300.00 L315.92,299.99 L317.33,300.00 L318.75,300.00 L320.17,299.99 L321.58,300.00 L323.00,300.00 L324.42,299.99 L325.83,300.00 L327.25,300.00 L328.67,300.00 L330.08,300.00 L331.50,299.99 L332.92,300.00 L334.33,300.00 L335.75,300.00 L337.17,300.00 L338.58,300.00 L340.00,299.99 L341.42,300.00 L342.83,300.00 L344.25,300.00 L345.67,300.00 L347.08,299.99 L348.50,300.00 L349.92,300.00 L351.33,300.00 L352.75,300.00 L354.17,300.00 L355.58,299.99 L357.00,300.00 L358.42,300.00 L359.83,300.00 L361.25,300.00 L362.67,300.00 L364.08,300.00 L365.50,300.00 L366.92,300.00 L368.33,300.00 L369.75,300.00 L371.17,299.96 L372.58,299.68 L374.00,300.00 L375.42,300.00 L376.83,300.00 L378.25,300.00 L379.67,300.00 L381.08,300.00 L382.50,299.99 L383.92,300.00 L385.33,300.00 L386.75,299.99 L388.17,299.99 L389.58,300.00 L391.00,299.99 L392.42,300.00 L393.83,300.00 L395.25,300.00 L396.67,300.00 L398.08,299.99 L399.50,300.00 L400.92,300.00 L402.33,299.99 L403.75,300.00 L405.17,300.00 L406.58,299.99 L408.00,300.00 L409.42,299.96 L410.83,299.68 L412.25,300.00 L413.67,300.00 L415.08,300.00 L416.50,300.00 L417.92,299.99 L419.33,300.00 L420.75,300.00 L422.17,299.99 L423.58,300.00 L425.00,300.00 L426.42,299.99 L427.83,300.00 L429.25,300.00 L430.67,300.00 L432.08,300.00 L433.50,299.99 L434.92,299.96 L436.33,299.67 L437.75,300.00 L439.17,300.00 L440.58,300.00 L442.00,299.99 L443.42,300.00 L444.83,300.00 L446.25,300.00 L447.67,300.00 L449.08,300.00 L450.50,300.00 L451.92,300.00 L453.33,299.99 L454.75,300.00 L456.17,300.00 L457.58,299.99 L459.00,300.00 L460.42,300.00 L461.83,299.96 L463.25,299.68 L464.67,300.00 L466.08,300.00 L467.50,300.00 L468.92,299.99 L470.33,300.00 L471.75,300.00 L473.17,299.99 L474.58,300.00 L476.00,300.00 L477.42,299.99 L478.83,300.00 L480.25,300.00 L481.67,300.00 L483.08,300.00 L484.50,299.99 L485.92,299.96 L487.33,299.66 L488.75,299.83 L490.17,299.99 L491.58,300.00 L493.00,299.99 L494.42,300.00 L495.83,300.00 L497.25,300.00 L498.67,300.00 L500.08,300.00 L501.50,300.00 L502.92,300.00 L504.33,300.00 L505.75,300.00 L507.17,300.00 L508.58,300.00 L510.00,300.00" stroke="#1cc88a" fill="none" stroke-width="2" stroke-linejoin="round"/></g><text x="300" y="20" text-anchor="middle" font-size="16" fill="#333">Network Traffic for eth0</text><text x="10" y="200" text-anchor="middle" transform="rotate(-90,10,200)" font-size="12" fill="#666">Traffic (bytes/s)</text><g font-size="12"><circle cx="20" cy="375" r="5" fill="#4e73df"/><text x="30" y="380" fill="#333">rx: 0.0 at 23:19:50</text><circle cx="240" cy="375" r="5" fill="#1cc88a"/><text x="250" y="380" fill="#333">tx: 0.0 at 23:19:50</text></g></svg>