<svg viewBox="0 0 800 450" xmlns="http://www.w3.org/2000/svg" style="font-family: -apple-system, BlinkMacSystemFont, 'Segoe UI', Roboto, sans-serif; width: 100%; height: 100%;" preserveAspectRatio="xMidYMid meet"><rect width="100%" height="100%" fill="#ffffff"/><g transform="translate(75,45)"><rect width="685" height="325" fill="#ffffff" stroke="#e2e8f0" stroke-width="1"/><line x1="0" y1="325.00" x2="685" y2="325.00" stroke="#e2e8f0" stroke-width="1" opacity="0.5"/><text x="-10" y="329.00" text-anchor="end" font-size="11" fill="#4a5568">1</text><line x1="0" y1="260.00" x2="685" y2="260.00" stroke="#e2e8f0" stroke-width="1" opacity="0.5"/><text x="-10" y="264.00" text-anchor="end" font-size="11" fill="#4a5568">1</text><line x1="0" y1="195.00" x2="685" y2="195.00" stroke="#e2e8f0" stroke-width="1" opacity="0.5"/><text x="-10" y="199.00" text-anchor="end" font-size="11" fill="#4a5568">1</text><line x1="0" y1="130.00" x2="685" y2="130.00" stroke="#e2e8f0" stroke-width="1" opacity="0.5"/><text x="-10" y="134.00" text-anchor="end" font-size="11" fill="#4a5568">2</text><line x1="0" y1="65.00" x2="685" y2="65.00" stroke="#e2e8f0" stroke-width="1" opacity="0.5"/><text x="-10" y="69.00" text-anchor="end" font-size="11" fill="#4a5568">2</text><line x1="0" y1="0.00" x2="685" y2="0.00" stroke="#e2e8f0" stroke-width="1" opacity="0.5"/><text x="-10" y="4.00" text-anchor="end" font-size="11" fill="#4a5568">2</text><line x1="0.00" y1="0" x2="0.00" y2="325" stroke="#e2e8f0" stroke-width="1" opacity="0.5"/><text x="0.00" y="345" text-anchor="middle" font-size="11" fill="#4a5568">15:02:20</text><line x1="114.17" y1="0" x2="114.17" y2="325" stroke="#e2e8f0" stroke-width="1" opacity="0.5"/><text x="114.17" y="345" text-anchor="middle" font-size="11" fill="#4a5568">15:07:23</text><line x1="228.33" y1="0" x2="228.33" y2="325" stroke="#e2e8f0" stroke-width="1" opacity="0.5"/><text x="228.33" y="345" text-anchor="middle" font-size="11" fill="#4a5568">15:12:26</text><line x1="342.50" y1="0" x2="342.50" y2="325" stroke="#e2e8f0" stroke-width="1" opacity="0.5"/><text x="342.50" y="345" text-anchor="middle" font-size="11" fill="#4a5568">15:17:30</text><line x1="456.67" y1="0" x2="456.67" y2="325" stroke="#e2e8f0" stroke-width="1" opacity="0.5"/><text x="456.67" y="345" text-anchor="middle" font-size="11" fill="#4a5568">15:22:33</text><line x1="570.83" y1="0" x2="570.83" y2="325" stroke="#e2e8f0" stroke-width="1" opacity="0.5"/><text x="570.83" y="345" text-anchor="middle" font-size="11" fill="#4a5568">15:27:36</text><line x1="685.00" y1="0" x2="685.00" y2="325" stroke="#e2e8f0" stroke-width="1" opacity="0.5"/><text x="685.00" y="345" text-anchor="middle" font-size="11" fill="#4a5568">15:32:40</text><defs><linearGradient id="g0-0" x1="0%" y1="0%" x2="0%" y2="100%"><stop offset="0%" style="stop-color:#3b82f6;stop-opacity:0.3"/><stop offset="100%" style="stop-color:#3b82f6;stop-opacity:0.05"/></linearGradient></defs><path d="M0.00,325 L0.00,27.08 L13.17,27.08 L26.35,27.08 L39.52,27.08 L52.69,27.08 L65.87,27.08 L79.04,27.08 L92.21,27.08 L105.38,27.08 L118.56,27.08 L131.73,27.08 L144.90,27.08 L158.08,104.46 L171.25,297.92 L184.42,297.92 L197.60,297.92 L210.77,297.92 L223.94,297.92 L237.12,297.92 L250.29,297.92 L263.46,297.92 L276.63,297.92 L289.81,297.92 L302.98,297.92 L316.15,297.92 L329.33,297.92 L342.50,297.92 L355.67,297.92 L368.85,297.92 L382.02,297.92 L395.19,297.92 L408.37,297.92 L421.54,297.92 L434.71,297.92 L447.88,297.92 L461.06,297.92 L474.23,297.92 L487.40,297.92 L500.58,297.92 L513.75,297.92 L526.92,297.92 L540.10,297.92 L553.27,297.92 L566.44,297.92 L579.62,297.92 L592.79,297.92 L605.96,297.92 L619.13,297.92 L632.31,297.92 L645.48,297.92 L658.65,297.92 L671.83,297.92 L685.00,297.92 L685.00,325 Z" fill="url(#g0-0)"/><path d="M0.00,27.08 L13.17,27.08 L26.35,27.08 L39.52,27.08 L52.69,27.08 L65.87,27.08 L79.04,27.08 L92.21,27.08 L105.38,27.08 L118.56,27.08 L131.73,27.08 L144.90,27.08 L158.08,104.46 L171.25,297.92 L184.42,297.92 L197.60,297.92 L210.77,297.92 L223.94,297.92 L237.12,297.92 L250.29,297.92 L263.46,297.92 L276.63,297.92 L289.81,297.92 L302.98,297.92 L316.15,297.92 L329.33,297.92 L342.50,297.92 L355.67,297.92 L368.85,297.92 L382.02,297.92 L395.19,297.92 L408.37,297.92 L421.54,297.92 L434.71,297.92 L447.88,297.92 L461.06,297.92 L474.23,297.92 L487.40,297.92 L500.58,297.92 L513.75,297.92 L526.92,297.92 L540.10,297.92 L553.27,297.92 L566.44,297.92 L579.62,297.92 L592.79,297.92 L605.96,297.92 L619.13,297.92 L632.31,297.92 L645.48,297.92 L658.65,297.92 L671.83,297.92 L685.00,297.92" stroke="#3b82f6" fill="none" stroke-width="2" stroke-linejoin="round" stroke-linecap="round"/><circle id="p-value-0" cx="0.00" cy="27.08" r="4" fill="#3b82f6" opacity="0" style="cursor: pointer;" onmouseover="showTooltip(evt, 'value', '2', '15:02:20', 0.00, 27.08)" onmouseout="hideTooltip()"/><circle id="p-value-1" cx="13.17" cy="27.08" r="4" fill="#3b82f6" opacity="0" style="cursor: pointer;" onmouseover="showTooltip(evt, 'value', '2', '15:02:55', 13.17, 27.08)" onmouseout="hideTooltip()"/><circle id="p-value-2" cx="26.35" cy="27.08" r="4" fill="#3b82f6" opacity="0" style="cursor: pointer;" onmouseover="showTooltip(evt, 'value', '2', '15:03:30', 26.35, 27.08)" onmouseout="hideTooltip()"/><circle id="p-value-3" cx="39.52" cy="27.08" r="4" fill="#3b82f6" opacity="0" style="cursor: pointer;" onmouseover="showTooltip(evt, 'value', '2', '15:04:05', 39.52, 27.08)" onmouseout="hideTooltip()"/><circle id="p-value-4" cx="52.69" cy="27.08" r="4" fill="#3b82f6" opacity="0" style="cursor: pointer;" onmouseover="showTooltip(evt, 'value', '2', '15:04:40', 52.69, 27.08)" onmouseout="hideTooltip()"/><circle id="p-value-5" cx="65.87" cy="27.08" r="4" fill="#3b82f6" opacity="0" style="cursor: pointer;" onmouseover="showTooltip(evt, 'value', '2', '15:05:15', 65.87, 27.08)" onmouseout="hideTooltip()"/><circle id="p-value-6" cx="79.04" cy="27.08" r="4" fill="#3b82f6" opacity="0" style="cursor: pointer;" onmouseover="showTooltip(evt, 'value', '2', '15:05:50', 79.04, 27.08)" onmouseout="hideTooltip()"/><circle id="p-value-7" cx="92.21" cy="27.08" r="4" fill="#3b82f6" opacity="0" style="cursor: pointer;" onmouseover="showTooltip(evt, 'value', '2', '15:06:25', 92.21, 27.08)" onmouseout="hideTooltip()"/><circle id="p-value-8" cx="105.38" cy="27.08" r="4" fill="#3b82f6" opacity="0" style="cursor: pointer;" onmouseover="showTooltip(evt, 'value', '2', '15:07:00', 105.38, 27.08)" onmouseout="hideTooltip()"/><circle id="p-value-9" cx="118.56" cy="27.08" r="4" fill="#3b82f6" opacity="0" style="cursor: pointer;" onmouseover="showTooltip(evt, 'value', '2', '15:07:35', 118.56, 27.08)" onmouseout="hideTooltip()"/><circle id="p-value-10" cx="131.73" cy="27.08" r="4" fill="#3b82f6" opacity="0" style="cursor: pointer;" onmouseover="showTooltip(evt, 'value', '2', '15:08:10', 131.73, 27.08)" onmouseout="hideTooltip()"/><circle id="p-value-11" cx="144.90" cy="27.08" r="4" fill="#3b82f6" opacity="0" style="cursor: pointer;" onmouseover="showTooltip(evt, 'value', '2', '15:08:45', 144.90, 27.08)" onmouseout="hideTooltip()"/><circle id="p-value-12" cx="158.08" cy="104.46" r="4" fill="#3b82f6" opacity="0" style="cursor: pointer;" onmouseover="showTooltip(evt, 'value', '2', '15:09:20', 158.08, 104.46)" onmouseout="hideTooltip()"/><circle id="p-value-13" cx="171.25" cy="297.92" r="4" fill="#3b82f6" opacity="0" style="cursor: pointer;" onmouseover="showTooltip(evt, 'value', '1', '15:09:55', 171.25, 297.92)" onmouseout="hideTooltip()"/><circle id="p-value-14" cx="184.42" cy="297.92" r="4" fill="#3b82f6" opacity="0" style="cursor: pointer;" onmouseover="showTooltip(evt, 'value', '1', '15:10:30', 184.42, 297.92)" onmouseout="hideTooltip()"/><circle id="p-value-15" cx="197.60" cy="297.92" r="4" fill="#3b82f6" opacity="0" style="cursor: pointer;" onmouseover="showTooltip(evt, 'value', '1', '15:11:05', 197.60, 297.92)" onmouseout="hideTooltip()"/><circle id="p-value-16" cx="210.77" cy="297.92" r="4" fill="#3b82f6" opacity="0" style="cursor: pointer;" onmouseover="showTooltip(evt, 'value', '1', '15:11:40', 210.77, 297.92)" onmouseout="hideTooltip()"/><circle id="p-value-17" cx="223.94" cy="297.92" r="4" fill="#3b82f6" opacity="0" style="cursor: pointer;" onmouseover="showTooltip(evt, 'value', '1', '15:12:15', 223.94, 297.92)" onmouseout="hideTooltip()"/><circle id="p-value-18" cx="237.12" cy="297.92" r="4" fill="#3b82f6" opacity="0" style="cursor: pointer;" onmouseover="showTooltip(evt, 'value', '1', '15:12:50', 237.12, 297.92)" onmouseout="hideTooltip()"/><circle id="p-value-19" cx="250.29" cy="297.92" r="4" fill="#3b82f6" opacity="0" style="cursor: pointer;" onmouseover="showTooltip(evt, 'value', '1', '15:13:25', 250.29, 297.92)" onmouseout="hideTooltip()"/><circle id="p-value-20" cx="263.46" cy="297.92" r="4" fill="#3b82f6" opacity="0" style="cursor: pointer;" onmouseover="showTooltip(evt, 'value', '1', '15:14:00', 263.46, 297.92)" onmouseout="hideTooltip()"/><circle id="p-value-21" cx="276.63" cy="297.92" r="4" fill="#3b82f6" opacity="0" style="cursor: pointer;" onmouseover="showTooltip(evt, 'value', '1', '15:14:35', 276.63, 297.92)" onmouseout="hideTooltip()"/><circle id="p-value-22" cx="289.81" cy="297.92" r="4" fill="#3b82f6" opacity="0" style="cursor: pointer;" onmouseover="showTooltip(evt, 'value', '1', '15:15:10', 289.81, 297.92)" onmouseout="hideTooltip()"/><circle id="p-value-23" cx="302.98" cy="297.92" r="4" fill="#3b82f6" opacity="0" style="cursor: pointer;" onmouseover="showTooltip(evt, 'value', '1', '15:15:45', 302.98, 297.92)" onmouseout="hideTooltip()"/><circle id="p-value-24" cx="316.15" cy="297.92" r="4" fill="#3b82f6" opacity="0" style="cursor: pointer;" onmouseover="showTooltip(evt, 'value', '1', '15:16:20', 316.15, 297.92)" onmouseout="hideTooltip()"/><circle id="p-value-25" cx="329.33" cy="297.92" r="4" fill="#3b82f6" opacity="0" style="cursor: pointer;" onmouseover="showTooltip(evt, 'value', '1', '15:16:55', 329.33, 297.92)" onmouseout="hideTooltip()"/><circle id="p-value-26" cx="342.50" cy="297.92" r="4" fill="#3b82f6" opacity="0" style="cursor: pointer;" onmouseover="showTooltip(evt, 'value', '1', '15:17:30', 342.50, 297.92)" onmouseout="hideTooltip()"/><circle id="p-value-27" cx="355.67" cy="297.92" r="4" fill="#3b82f6" opacity="0" style="cursor: pointer;" onmouseover="showTooltip(evt, 'value', '1', '15:18:05', 355.67, 297.92)" onmouseout="hideTooltip()"/><circle id="p-value-28" cx="368.85" cy="297.92" r="4" fill="#3b82f6" opacity="0" style="cursor: pointer;" onmouseover="showTooltip(evt, 'value', '1', '15:18:40', 368.85, 297.92)" onmouseout="hideTooltip()"/><circle id="p-value-29" cx="382.02" cy="297.92" r="4" fill="#3b82f6" opacity="0" style="cursor: pointer;" onmouseover="showTooltip(evt, 'value', '1', '15:19:15', 382.02, 297.92)" onmouseout="hideTooltip()"/><circle id="p-value-30" cx="395.19" cy="297.92" r="4" fill="#3b82f6" opacity="0" style="cursor: pointer;" onmouseover="showTooltip(evt, 'value', '1', '15:19:50', 395.19, 297.92)" onmouseout="hideTooltip()"/><circle id="p-value-31" cx="408.37" cy="297.92" r="4" fill="#3b82f6" opacity="0" style="cursor: pointer;" onmouseover="showTooltip(evt, 'value', '1', '15:20:25', 408.37, 297.92)" onmouseout="hideTooltip()"/><circle id="p-value-32" cx="421.54" cy="297.92" r="4" fill="#3b82f6" opacity="0" style="cursor: pointer;" onmouseover="showTooltip(evt, 'value', '1', '15:21:00', 421.54, 297.92)" onmouseout="hideTooltip()"/><circle id="p-value-33" cx="434.71" cy="297.92" r="4" fill="#3b82f6" opacity="0" style="cursor: pointer;" onmouseover="showTooltip(evt, 'value', '1', '15:21:35', 434.71, 297.92)" onmouseout="hideTooltip()"/><circle id="p-value-34" cx="447.88" cy="297.92" r="4" fill="#3b82f6" opacity="0" style="cursor: pointer;" onmouseover="showTooltip(evt, 'value', '1', '15:22:10', 447.88, 297.92)" onmouseout="hideTooltip()"/><circle id="p-value-35" cx="461.06" cy="297.92" r="4" fill="#3b82f6" opacity="0" style="cursor: pointer;" onmouseover="showTooltip(evt, 'value', '1', '15:22:45', 461.06, 297.92)" onmouseout="hideTooltip()"/><circle id="p-value-36" cx="474.23" cy="297.92" r="4" fill="#3b82f6" opacity="0" style="cursor: pointer;" onmouseover="showTooltip(evt, 'value', '1', '15:23:20', 474.23, 297.92)" onmouseout="hideTooltip()"/><circle id="p-value-37" cx="487.40" cy="297.92" r="4" fill="#3b82f6" opacity="0" style="cursor: pointer;" onmouseover="showTooltip(evt, 'value', '1', '15:23:55', 487.40, 297.92)" onmouseout="hideTooltip()"/><circle id="p-value-38" cx="500.58" cy="297.92" r="4" fill="#3b82f6" opacity="0" style="cursor: pointer;" onmouseover="showTooltip(evt, 'value', '1', '15:24:30', 500.58, 297.92)" onmouseout="hideTooltip()"/><circle id="p-value-39" cx="513.75" cy="297.92" r="4" fill="#3b82f6" opacity="0" style="cursor: pointer;" onmouseover="showTooltip(evt, 'value', '1', '15:25:05', 513.75, 297.92)" onmouseout="hideTooltip()"/><circle id="p-value-40" cx="526.92" cy="297.92" r="4" fill="#3b82f6" opacity="0" style="cursor: pointer;" onmouseover="showTooltip(evt, 'value', '1', '15:25:40', 526.92, 297.92)" onmouseout="hideTooltip()"/><circle id="p-value-41" cx="540.10" cy="297.92" r="4" fill="#3b82f6" opacity="0" style="cursor: pointer;" onmouseover="showTooltip(evt, 'value', '1', '15:26:15', 540.10, 297.92)" onmouseout="hideTooltip()"/><circle id="p-value-42" cx="553.27" cy="297.92" r="4" fill="#3b82f6" opacity="0" style="cursor: pointer;" onmouseover="showTooltip(evt, 'value', '1', '15:26:50', 553.27, 297.92)" onmouseout="hideTooltip()"/><circle id="p-value-43" cx="566.44" cy="297.92" r="4" fill="#3b82f6" opacity="0" style="cursor: pointer;" onmouseover="showTooltip(evt, 'value', '1', '15:27:25', 566.44, 297.92)" onmouseout="hideTooltip()"/><circle id="p-value-44" cx="579.62" cy="297.92" r="4" fill="#3b82f6" opacity="0" style="cursor: pointer;" onmouseover="showTooltip(evt, 'value', '1', '15:28:00', 579.62, 297.92)" onmouseout="hideTooltip()"/><circle id="p-value-45" cx="592.79" cy="297.92" r="4" fill="#3b82f6" opacity="0" style="cursor: pointer;" onmouseover="showTooltip(evt, 'value', '1', '15:28:35', 592.79, 297.92)" onmouseout="hideTooltip()"/><circle id="p-value-46" cx="605.96" cy="297.92" r="4" fill="#3b82f6" opacity="0" style="cursor: pointer;" onmouseover="showTooltip(evt, 'value', '1', '15:29:10', 605.96, 297.92)" onmouseout="hideTooltip()"/><circle id="p-value-47" cx="619.13" cy="297.92" r="4" fill="#3b82f6" opacity="0" style="cursor: pointer;" onmouseover="showTooltip(evt, 'value', '1', '15:29:45', 619.13, 297.92)" onmouseout="hideTooltip()"/><circle id="p-value-48" cx="632.31" cy="297.92" r="4" fill="#3b82f6" opacity="0" style="cursor: pointer;" onmouseover="showTooltip(evt, 'value', '1', '15:30:20', 632.31, 297.92)" onmouseout="hideTooltip()"/><circle id="p-value-49" cx="645.48" cy="297.92" r="4" fill="#3b82f6" opacity="0" style="cursor: pointer;" onmouseover="showTooltip(evt, 'value', '1', '15:30:55', 645.48, 297.92)" onmouseout="hideTooltip()"/><circle id="p-value-50" cx="658.65" cy="297.92" r="4" fill="#3b82f6" opacity="0" style="cursor: pointer;" onmouseover="showTooltip(evt, 'value', '1', '15:31:30', 658.65, 297.92)" onmouseout="hideTooltip()"/><circle id="p-value-51" cx="671.83" cy="297.92" r="4" fill="#3b82f6" opacity="0" style="cursor: pointer;" onmouseover="showTooltip(evt, 'value', '1', '15:32:05', 671.83, 297.92)" onmouseout="hideTooltip()"/><circle id="p-value-52" cx="685.00" cy="297.92" r="4" fill="#3b82f6" opacity="0" style="cursor: pointer;" onmouseover="showTooltip(evt, 'value', '1', '15:32:40', 685.00, 297.92)" onmouseout="hideTooltip()"/></g><text x="400" y="25" text-anchor="middle" font-size="16" font-weight="600" fill="#1a202c">PostgreSQL Connections</text><text x="20" y="225" text-anchor="middle" transform="rotate(-90,20,225)" font-size="12" font-weight="500" fill="#4a5568">Connections</text><g font-size="11"><rect x="75" y="403" width="180" height="18" fill="#e2e8f0" opacity="0.3" rx="3"/><rect x="80" y="408" width="10" height="10" fill="#3b82f6" rx="2"/><text x="95" y="417" fill="#1a202c" font-weight="500">value:</text><text x="165" y="417" fill="#3b82f6" font-weight="600">1</text></g><g id="tooltip" visibility="hidden"><rect x="0" y="0" width="160" height="50" fill="#ffffff" opacity="0.98" rx="6" stroke="#e2e8f0" stroke-width="1" style="filter: drop-shadow(0px 2px 4px rgba(0,0,0,0.1))"/><text x="8" y="18" font-size="11" fill="#4a5568" id="tooltip-series"></text><text x="8" y="35" font-size="12" font-weight="600" fill="#1a202c" id="tooltip-value"></text></g></svg>