<svg width="600" height="400" xmlns="http://www.w3.org/2000/svg" style="font-family: Arial, sans-serif;"><rect width="600" height="400" fill="#ffffff"/><g transform="translate(60,30)"><rect width="510" height="300" fill="#f8f9fc" stroke="#ddd"/><g stroke-width="1"><line x1="0" y1="300" x2="510" y2="300" stroke="#eee" /><text x="-5" y="304" text-anchor="end" font-size="10" fill="#666">1.0</text><line x1="0" y1="240" x2="510" y2="240" stroke="#eee" /><text x="-5" y="244" text-anchor="end" font-size="10" fill="#666">1.2</text><line x1="0" y1="180" x2="510" y2="180" stroke="#eee" /><text x="-5" y="184" text-anchor="end" font-size="10" fill="#666">1.4</text><line x1="0" y1="120" x2="510" y2="120" stroke="#eee" /><text x="-5" y="124" text-anchor="end" font-size="10" fill="#666">1.6</text><line x1="0" y1="59.999999999999986" x2="510" y2="59.999999999999986" stroke="#eee" /><text x="-5" y="63.999999999999986" text-anchor="end" font-size="10" fill="#666">1.8</text><line x1="0" y1="0" x2="510" y2="0" stroke="#eee" /><text x="-5" y="4" text-anchor="end" font-size="10" fill="#666">2.0</text></g><g stroke-width="1"><line x1="0" y1="0" x2="0" y2="300" stroke="#eee"/><text x="0" y="320" text-anchor="middle" font-size="10" fill="#666">20:10:20</text><line x1="102" y1="0" x2="102" y2="300" stroke="#eee"/><text x="102" y="320" text-anchor="middle" font-size="10" fill="#666">20:21:52</text><line x1="204" y1="0" x2="204" y2="300" stroke="#eee"/><text x="204" y="320" text-anchor="middle" font-size="10" fill="#666">20:33:24</text><line x1="306" y1="0" x2="306" y2="300" stroke="#eee"/><text x="306" y="320" text-anchor="middle" font-size="10" fill="#666">20:44:56</text><line x1="408" y1="0" x2="408" y2="300" stroke="#eee"/><text x="408" y="320" text-anchor="middle" font-size="10" fill="#666">20:56:28</text><line x1="510" y1="0" x2="510" y2="300" stroke="#eee"/><text x="510" y="320" text-anchor="middle" font-size="10" fill="#666">21:08:00</text></g><path d="M0.00,300.00 L1.47,300.00 L2.95,300.00 L4.42,300.00 L5.90,300.00 L7.37,300.00 L8.84,300.00 L10.32,300.00 L11.79,300.00 L13.27,300.00 L14.74,300.00 L16.21,300.00 L17.69,300.00 L19.16,300.00 L20.64,300.00 L22.11,300.00 L23.58,300.00 L25.06,300.00 L26.53,300.00 L28.01,300.00 L29.48,300.00 L30.95,300.00 L32.43,300.00 L33.90,300.00 L35.38,300.00 L36.85,300.00 L38.32,300.00 L39.80,300.00 L41.27,300.00 L42.75,300.00 L44.22,300.00 L45.69,300.00 L47.17,300.00 L48.64,300.00 L50.12,300.00 L51.59,300.00 L53.06,300.00 L54.54,300.00 L56.01,300.00 L57.49,300.00 L58.96,300.00 L60.43,300.00 L61.91,300.00 L63.38,300.00 L64.86,300.00 L66.33,300.00 L67.80,300.00 L69.28,300.00 L70.75,300.00 L72.23,300.00 L73.70,300.00 L75.17,300.00 L76.65,300.00 L78.12,300.00 L79.60,300.00 L81.07,300.00 L82.54,300.00 L84.02,300.00 L85.49,300.00 L86.97,300.00 L88.44,300.00 L89.91,300.00 L91.39,300.00 L92.86,300.00 L94.34,300.00 L95.81,300.00 L97.28,300.00 L98.76,300.00 L100.23,300.00 L101.71,300.00 L103.18,300.00 L104.65,300.00 L106.13,300.00 L107.60,300.00 L109.08,300.00 L110.55,300.00 L112.02,300.00 L113.50,300.00 L114.97,300.00 L116.45,300.00 L117.92,300.00 L119.39,300.00 L120.87,300.00 L122.34,300.00 L123.82,300.00 L125.29,300.00 L126.76,300.00 L128.24,300.00 L129.71,300.00 L131.18,300.00 L132.66,300.00 L134.13,300.00 L135.61,300.00 L137.08,300.00 L138.55,300.00 L140.03,300.00 L141.50,300.00 L142.98,300.00 L144.45,300.00 L145.92,300.00 L147.40,300.00 L148.87,300.00 L150.35,300.00 L151.82,300.00 L153.29,300.00 L154.77,300.00 L156.24,300.00 L157.72,300.00 L159.19,300.00 L160.66,300.00 L162.14,300.00 L163.61,300.00 L165.09,300.00 L166.56,300.00 L168.03,300.00 L169.51,300.00 L170.98,300.00 L172.46,300.00 L173.93,300.00 L175.40,300.00 L176.88,300.00 L178.35,300.00 L179.83,300.00 L181.30,300.00 L182.77,300.00 L184.25,300.00 L185.72,300.00 L187.20,300.00 L188.67,300.00 L190.14,300.00 L191.62,300.00 L193.09,300.00 L194.57,300.00 L196.04,300.00 L197.51,300.00 L198.99,300.00 L200.46,300.00 L201.94,300.00 L203.41,300.00 L204.88,300.00 L206.36,300.00 L207.83,300.00 L209.31,300.00 L210.78,300.00 L212.25,300.00 L213.73,300.00 L215.20,300.00 L216.68,300.00 L218.15,300.00 L219.62,300.00 L221.10,300.00 L222.57,300.00 L224.05,300.00 L225.52,300.00 L226.99,300.00 L228.47,300.00 L229.94,300.00 L231.42,300.00 L232.89,300.00 L234.36,300.00 L235.84,300.00 L237.31,300.00 L238.79,300.00 L240.26,300.00 L241.73,300.00 L243.21,300.00 L244.68,300.00 L246.16,300.00 L247.63,300.00 L249.10,300.00 L250.58,300.00 L252.05,300.00 L253.53,300.00 L255.00,300.00 L256.47,300.00 L257.95,300.00 L259.42,300.00 L260.90,300.00 L262.37,300.00 L263.84,300.00 L265.32,300.00 L266.79,300.00 L268.27,300.00 L269.74,300.00 L271.21,300.00 L272.69,300.00 L274.16,300.00 L275.64,300.00 L277.11,300.00 L278.58,300.00 L280.06,300.00 L281.53,300.00 L283.01,300.00 L284.48,300.00 L285.95,300.00 L287.43,300.00 L288.90,300.00 L290.38,300.00 L291.85,300.00 L293.32,300.00 L294.80,300.00 L296.27,300.00 L297.75,300.00 L299.22,300.00 L300.69,300.00 L302.17,300.00 L303.64,300.00 L305.12,300.00 L306.59,300.00 L308.06,300.00 L309.54,300.00 L311.01,300.00 L312.49,300.00 L313.96,300.00 L315.43,300.00 L316.91,300.00 L318.38,300.00 L319.86,300.00 L321.33,300.00 L322.80,300.00 L324.28,300.00 L325.75,300.00 L327.23,300.00 L328.70,300.00 L330.17,300.00 L331.65,300.00 L333.12,300.00 L334.60,300.00 L336.07,300.00 L337.54,300.00 L339.02,300.00 L340.49,300.00 L341.97,300.00 L343.44,300.00 L344.91,300.00 L346.39,300.00 L347.86,300.00 L349.34,300.00 L350.81,300.00 L352.28,300.00 L353.76,300.00 L355.23,300.00 L356.71,300.00 L358.18,300.00 L359.65,300.00 L361.13,300.00 L362.60,300.00 L364.08,300.00 L365.55,300.00 L367.02,300.00 L368.50,300.00 L369.97,300.00 L371.45,300.00 L372.92,300.00 L374.39,300.00 L375.87,300.00 L377.34,300.00 L378.82,300.00 L380.29,300.00 L381.76,300.00 L383.24,300.00 L384.71,300.00 L386.18,300.00 L387.66,300.00 L389.13,300.00 L390.61,300.00 L392.08,300.00 L393.55,300.00 L395.03,300.00 L396.50,300.00 L397.98,300.00 L399.45,300.00 L400.92,300.00 L402.40,300.00 L403.87,300.00 L405.35,300.00 L406.82,300.00 L408.29,300.00 L409.77,300.00 L411.24,300.00 L412.72,300.00 L414.19,300.00 L415.66,300.00 L417.14,300.00 L418.61,300.00 L420.09,300.00 L421.56,300.00 L423.03,300.00 L424.51,300.00 L425.98,300.00 L427.46,300.00 L428.93,300.00 L430.40,300.00 L431.88,300.00 L433.35,300.00 L434.83,300.00 L436.30,300.00 L437.77,300.00 L439.25,300.00 L440.72,300.00 L442.20,300.00 L443.67,300.00 L445.14,300.00 L446.62,300.00 L448.09,300.00 L449.57,300.00 L451.04,300.00 L452.51,300.00 L453.99,300.00 L455.46,300.00 L456.94,300.00 L458.41,300.00 L459.88,300.00 L461.36,300.00 L462.83,300.00 L464.31,300.00 L465.78,300.00 L467.25,300.00 L468.73,300.00 L470.20,300.00 L471.68,300.00 L473.15,300.00 L474.62,300.00 L476.10,300.00 L477.57,300.00 L479.05,300.00 L480.52,300.00 L481.99,300.00 L483.47,300.00 L484.94,300.00 L486.42,300.00 L487.89,300.00 L489.36,300.00 L490.84,300.00 L492.31,300.00 L493.79,300.00 L495.26,300.00 L496.73,300.00 L498.21,300.00 L499.68,300.00 L501.16,300.00 L502.63,300.00 L504.10,300.00 L505.58,300.00 L507.05,300.00 L508.53,300.00 L510.00,300.00" stroke="#4e73df" fill="none" stroke-width="2" stroke-linejoin="round"/></g><text x="300" y="20" text-anchor="middle" font-size="16" fill="#333">PostgreSQL Connections</text><text x="10" y="200" text-anchor="middle" transform="rotate(-90,10,200)" font-size="12" fill="#666">Connections</text><g font-size="12"><circle cx="20" cy="375" r="5" fill="#4e73df"/><text x="30" y="380" fill="#333">value: 1.0 at 21:08:00</text></g></svg>