<svg width="600" height="400" xmlns="http://www.w3.org/2000/svg" style="font-family: Arial, sans-serif;"><rect width="600" height="400" fill="#ffffff"/><g transform="translate(60,30)"><rect width="510" height="300" fill="#f8f9fc" stroke="#ddd"/><g stroke-width="1"><line x1="0" y1="300" x2="510" y2="300" stroke="#eee" /><text x="-5" y="304" text-anchor="end" font-size="10" fill="#666">1.0</text><line x1="0" y1="240" x2="510" y2="240" stroke="#eee" /><text x="-5" y="244" text-anchor="end" font-size="10" fill="#666">1.2</text><line x1="0" y1="180" x2="510" y2="180" stroke="#eee" /><text x="-5" y="184" text-anchor="end" font-size="10" fill="#666">1.4</text><line x1="0" y1="120" x2="510" y2="120" stroke="#eee" /><text x="-5" y="124" text-anchor="end" font-size="10" fill="#666">1.6</text><line x1="0" y1="59.999999999999986" x2="510" y2="59.999999999999986" stroke="#eee" /><text x="-5" y="63.999999999999986" text-anchor="end" font-size="10" fill="#666">1.8</text><line x1="0" y1="0" x2="510" y2="0" stroke="#eee" /><text x="-5" y="4" text-anchor="end" font-size="10" fill="#666">2.0</text></g><g stroke-width="1"><line x1="0" y1="0" x2="0" y2="300" stroke="#eee"/><text x="0" y="320" text-anchor="middle" font-size="10" fill="#666">20:20:00</text><line x1="102" y1="0" x2="102" y2="300" stroke="#eee"/><text x="102" y="320" text-anchor="middle" font-size="10" fill="#666">20:53:20</text><line x1="204" y1="0" x2="204" y2="300" stroke="#eee"/><text x="204" y="320" text-anchor="middle" font-size="10" fill="#666">21:26:40</text><line x1="306" y1="0" x2="306" y2="300" stroke="#eee"/><text x="306" y="320" text-anchor="middle" font-size="10" fill="#666">22:00:00</text><line x1="408" y1="0" x2="408" y2="300" stroke="#eee"/><text x="408" y="320" text-anchor="middle" font-size="10" fill="#666">22:33:20</text><line x1="510" y1="0" x2="510" y2="300" stroke="#eee"/><text x="510" y="320" text-anchor="middle" font-size="10" fill="#666">23:06:40</text></g><path d="M0.00,300.00 L25.50,300.00 L51.00,300.00 L76.50,300.00 L102.00,300.00 L127.50,300.00 L153.00,300.00 L178.50,300.00 L204.00,300.00 L229.50,300.00 L255.00,300.00 L280.50,300.00 L306.00,300.00 L331.50,300.00 L357.00,300.00 L382.50,300.00 L408.00,300.00 L433.50,300.00 L459.00,300.00 L484.50,300.00 L510.00,300.00" stroke="#4e73df" fill="none" stroke-width="2" stroke-linejoin="round"/><circle id="point-value-0" cx="0.00" cy="300.00" r="5" fill="#4e73df" opacity="0" onmouseover="showTooltip(evt, 'value', '1.0', '20:20:00', 0.00, 300.00)" onmouseout="hideTooltip()"/><circle id="point-value-1" cx="25.50" cy="300.00" r="5" fill="#4e73df" opacity="0" onmouseover="showTooltip(evt, 'value', '1.0', '20:28:20', 25.50, 300.00)" onmouseout="hideTooltip()"/><circle id="point-value-2" cx="51.00" cy="300.00" r="5" fill="#4e73df" opacity="0" onmouseover="showTooltip(evt, 'value', '1.0', '20:36:40', 51.00, 300.00)" onmouseout="hideTooltip()"/><circle id="point-value-3" cx="76.50" cy="300.00" r="5" fill="#4e73df" opacity="0" onmouseover="showTooltip(evt, 'value', '1.0', '20:45:00', 76.50, 300.00)" onmouseout="hideTooltip()"/><circle id="point-value-4" cx="102.00" cy="300.00" r="5" fill="#4e73df" opacity="0" onmouseover="showTooltip(evt, 'value', '1.0', '20:53:20', 102.00, 300.00)" onmouseout="hideTooltip()"/><circle id="point-value-5" cx="127.50" cy="300.00" r="5" fill="#4e73df" opacity="0" onmouseover="showTooltip(evt, 'value', '1.0', '21:01:40', 127.50, 300.00)" onmouseout="hideTooltip()"/><circle id="point-value-6" cx="153.00" cy="300.00" r="5" fill="#4e73df" opacity="0" onmouseover="showTooltip(evt, 'value', '1.0', '21:10:00', 153.00, 300.00)" onmouseout="hideTooltip()"/><circle id="point-value-7" cx="178.50" cy="300.00" r="5" fill="#4e73df" opacity="0" onmouseover="showTooltip(evt, 'value', '1.0', '21:18:20', 178.50, 300.00)" onmouseout="hideTooltip()"/><circle id="point-value-8" cx="204.00" cy="300.00" r="5" fill="#4e73df" opacity="0" onmouseover="showTooltip(evt, 'value', '1.0', '21:26:40', 204.00, 300.00)" onmouseout="hideTooltip()"/><circle id="point-value-9" cx="229.50" cy="300.00" r="5" fill="#4e73df" opacity="0" onmouseover="showTooltip(evt, 'value', '1.0', '21:35:00', 229.50, 300.00)" onmouseout="hideTooltip()"/><circle id="point-value-10" cx="255.00" cy="300.00" r="5" fill="#4e73df" opacity="0" onmouseover="showTooltip(evt, 'value', '1.0', '21:43:20', 255.00, 300.00)" onmouseout="hideTooltip()"/><circle id="point-value-11" cx="280.50" cy="300.00" r="5" fill="#4e73df" opacity="0" onmouseover="showTooltip(evt, 'value', '1.0', '21:51:40', 280.50, 300.00)" onmouseout="hideTooltip()"/><circle id="point-value-12" cx="306.00" cy="300.00" r="5" fill="#4e73df" opacity="0" onmouseover="showTooltip(evt, 'value', '1.0', '22:00:00', 306.00, 300.00)" onmouseout="hideTooltip()"/><circle id="point-value-13" cx="331.50" cy="300.00" r="5" fill="#4e73df" opacity="0" onmouseover="showTooltip(evt, 'value', '1.0', '22:08:20', 331.50, 300.00)" onmouseout="hideTooltip()"/><circle id="point-value-14" cx="357.00" cy="300.00" r="5" fill="#4e73df" opacity="0" onmouseover="showTooltip(evt, 'value', '1.0', '22:16:40', 357.00, 300.00)" onmouseout="hideTooltip()"/><circle id="point-value-15" cx="382.50" cy="300.00" r="5" fill="#4e73df" opacity="0" onmouseover="showTooltip(evt, 'value', '1.0', '22:25:00', 382.50, 300.00)" onmouseout="hideTooltip()"/><circle id="point-value-16" cx="408.00" cy="300.00" r="5" fill="#4e73df" opacity="0" onmouseover="showTooltip(evt, 'value', '1.0', '22:33:20', 408.00, 300.00)" onmouseout="hideTooltip()"/><circle id="point-value-17" cx="433.50" cy="300.00" r="5" fill="#4e73df" opacity="0" onmouseover="showTooltip(evt, 'value', '1.0', '22:41:40', 433.50, 300.00)" onmouseout="hideTooltip()"/><circle id="point-value-18" cx="459.00" cy="300.00" r="5" fill="#4e73df" opacity="0" onmouseover="showTooltip(evt, 'value', '1.0', '22:50:00', 459.00, 300.00)" onmouseout="hideTooltip()"/><circle id="point-value-19" cx="484.50" cy="300.00" r="5" fill="#4e73df" opacity="0" onmouseover="showTooltip(evt, 'value', '1.0', '22:58:20', 484.50, 300.00)" onmouseout="hideTooltip()"/><circle id="point-value-20" cx="510.00" cy="300.00" r="5" fill="#4e73df" opacity="0" onmouseover="showTooltip(evt, 'value', '1.0', '23:06:40', 510.00, 300.00)" onmouseout="hideTooltip()"/></g><g id="tooltip" visibility="hidden"><rect x="0" y="0" width="150" height="40" fill="#333" opacity="0.8" rx="5"/><text x="5" y="15" font-size="10" fill="#fff" id="tooltip-series"></text><text x="5" y="30" font-size="10" fill="#fff" id="tooltip-value"></text></g><script><![CDATA[function showTooltip(evt, series, value, time, x, y) {  var tooltip = document.getElementById("tooltip");  var seriesText = document.getElementById("tooltip-series");  var valueText = document.getElementById("tooltip-value");  seriesText.textContent = "Series: " + series;  valueText.textContent = value + " at " + time;  tooltip.setAttribute("transform", "translate(" + (x + 10) + "," + (y - 50) + ")");  tooltip.setAttribute("visibility", "visible");  evt.target.setAttribute("r", "7");  evt.target.setAttribute("opacity", "1");}function hideTooltip() {  var tooltip = document.getElementById("tooltip");  tooltip.setAttribute("visibility", "hidden");  var circles = document.getElementsByTagName("circle");  for (var i = 0; i < circles.length; i++) {    circles[i].setAttribute("r", "5");    circles[i].setAttribute("opacity", "0");  }}]]></script><text x="300" y="20" text-anchor="middle" font-size="16" fill="#333">PostgreSQL Connections</text><text x="10" y="200" text-anchor="middle" transform="rotate(-90,10,200)" font-size="12" fill="#666">Connections</text><g font-size="12"><circle cx="20" cy="375" r="5" fill="#4e73df"/><text x="30" y="380" fill="#333">value: 1.0 at 23:06:40</text></g></svg>