<svg width="600" height="400" xmlns="http://www.w3.org/2000/svg" style="font-family: Arial, sans-serif;"><rect width="600" height="400" fill="#ffffff"/><g transform="translate(60,30)"><rect width="510" height="300" fill="#f8f9fc" stroke="#ddd"/><g stroke-width="1"><line x1="0" y1="300" x2="510" y2="300" stroke="#eee" /><text x="-5" y="304" text-anchor="end" font-size="10" fill="#666">0.0</text><line x1="0" y1="240" x2="510" y2="240" stroke="#eee" /><text x="-5" y="244" text-anchor="end" font-size="10" fill="#666">20.0</text><line x1="0" y1="180" x2="510" y2="180" stroke="#eee" /><text x="-5" y="184" text-anchor="end" font-size="10" fill="#666">40.0</text><line x1="0" y1="120" x2="510" y2="120" stroke="#eee" /><text x="-5" y="124" text-anchor="end" font-size="10" fill="#666">60.0</text><line x1="0" y1="59.999999999999986" x2="510" y2="59.999999999999986" stroke="#eee" /><text x="-5" y="63.999999999999986" text-anchor="end" font-size="10" fill="#666">80.0</text><line x1="0" y1="0" x2="510" y2="0" stroke="#eee" /><text x="-5" y="4" text-anchor="end" font-size="10" fill="#666">100.0</text></g><g stroke-width="1"><line x1="0" y1="0" x2="0" y2="300" stroke="#eee"/><text x="0" y="320" text-anchor="middle" font-size="10" fill="#666">21:55:00</text><line x1="102" y1="0" x2="102" y2="300" stroke="#eee"/><text x="102" y="320" text-anchor="middle" font-size="10" fill="#666">22:06:52</text><line x1="204" y1="0" x2="204" y2="300" stroke="#eee"/><text x="204" y="320" text-anchor="middle" font-size="10" fill="#666">22:18:44</text><line x1="306" y1="0" x2="306" y2="300" stroke="#eee"/><text x="306" y="320" text-anchor="middle" font-size="10" fill="#666">22:30:36</text><line x1="408" y1="0" x2="408" y2="300" stroke="#eee"/><text x="408" y="320" text-anchor="middle" font-size="10" fill="#666">22:42:28</text><line x1="510" y1="0" x2="510" y2="300" stroke="#eee"/><text x="510" y="320" text-anchor="middle" font-size="10" fill="#666">22:54:20</text></g><path d="M0.00,270.53 L1.43,270.24 L2.87,270.10 L4.30,270.08 L5.73,270.05 L7.16,270.07 L8.60,270.07 L10.03,270.07 L11.46,270.05 L12.89,270.05 L14.33,270.04 L15.76,270.01 L17.19,270.01 L18.62,270.01 L20.06,270.03 L21.49,270.02 L22.92,269.97 L24.35,269.96 L25.79,269.87 L27.22,269.71 L28.65,269.67 L30.08,269.72 L31.52,269.61 L32.95,269.44 L34.38,269.33 L35.81,269.36 L37.25,269.27 L38.68,269.18 L40.11,269.24 L41.54,269.23 L42.98,269.24 L44.41,269.26 L45.84,269.24 L47.28,269.23 L48.71,269.23 L50.14,269.23 L51.57,269.21 L53.01,269.19 L54.44,269.18 L55.87,269.20 L57.30,269.20 L58.74,269.23 L60.17,269.23 L61.60,269.21 L63.03,269.22 L64.47,269.21 L65.90,269.22 L67.33,269.03 L68.76,268.94 L70.20,269.21 L71.63,269.21 L73.06,269.19 L74.49,269.20 L75.93,269.24 L77.36,269.23 L78.79,269.22 L80.22,269.19 L81.66,269.18 L83.09,269.19 L84.52,269.21 L85.96,269.24 L87.39,269.26 L88.82,269.26 L90.25,269.23 L91.69,269.22 L93.12,269.22 L94.55,269.26 L95.98,269.30 L97.42,269.29 L98.85,269.26 L100.28,269.23 L101.71,269.27 L103.15,269.31 L104.58,269.32 L106.01,269.30 L107.44,269.40 L108.88,269.54 L110.31,269.74 L111.74,270.23 L113.17,270.40 L114.61,270.34 L116.04,270.38 L117.47,270.46 L118.90,270.40 L120.34,270.38 L121.77,270.36 L123.20,270.33 L124.63,270.30 L126.07,270.27 L127.50,270.25 L128.93,270.22 L130.37,270.24 L131.80,270.25 L133.23,270.18 L134.66,270.14 L136.10,270.11 L137.53,270.10 L138.96,270.07 L140.39,270.00 L141.83,269.70 L143.26,269.55 L144.69,270.01 L146.12,270.04 L147.56,270.07 L148.99,270.08 L150.42,270.01 L151.85,269.99 L153.29,270.00 L154.72,269.98 L156.15,269.97 L157.58,269.66 L159.02,269.53 L160.45,270.00 L161.88,270.01 L163.31,269.99 L164.75,269.97 L166.18,269.94 L167.61,269.92 L169.04,269.91 L170.48,269.96 L171.91,270.13 L173.34,270.21 L174.78,270.27 L176.21,270.30 L177.64,270.22 L179.07,270.18 L180.51,270.16 L181.94,270.12 L183.37,270.13 L184.80,270.11 L186.24,270.08 L187.67,269.72 L189.10,269.45 L190.53,269.83 L191.97,269.83 L193.40,269.83 L194.83,269.79 L196.26,269.76 L197.70,269.76 L199.13,269.74 L200.56,269.74 L201.99,269.76 L203.43,269.77 L204.86,269.76 L206.29,269.75 L207.72,269.77 L209.16,269.73 L210.59,269.73 L212.02,269.73 L213.46,269.69 L214.89,269.71 L216.32,269.72 L217.75,269.69 L219.19,269.68 L220.62,269.67 L222.05,269.64 L223.48,269.67 L224.92,269.65 L226.35,269.57 L227.78,269.49 L229.21,269.47 L230.65,269.48 L232.08,269.50 L233.51,269.50 L234.94,269.50 L236.38,269.47 L237.81,269.22 L239.24,269.12 L240.67,269.44 L242.11,269.43 L243.54,269.44 L244.97,269.46 L246.40,269.45 L247.84,269.42 L249.27,269.43 L250.70,269.46 L252.13,269.44 L253.57,269.42 L255.00,269.44 L256.43,269.45 L257.87,269.41 L259.30,269.40 L260.73,269.39 L262.16,269.39 L263.60,269.41 L265.03,269.42 L266.46,269.44 L267.89,269.47 L269.33,269.43 L270.76,269.40 L272.19,269.39 L273.62,269.40 L275.06,269.40 L276.49,269.36 L277.92,269.29 L279.35,269.27 L280.79,269.26 L282.22,269.25 L283.65,269.23 L285.08,269.24 L286.52,269.28 L287.95,269.28 L289.38,269.27 L290.81,269.25 L292.25,269.32 L293.68,269.36 L295.11,269.35 L296.54,269.39 L297.98,269.46 L299.41,269.50 L300.84,269.48 L302.28,269.45 L303.71,269.46 L305.14,269.47 L306.57,269.48 L308.01,269.48 L309.44,269.47 L310.87,269.48 L312.30,269.53 L313.74,269.58 L315.17,269.58 L316.60,269.63 L318.03,269.64 L319.47,269.65 L320.90,269.64 L322.33,269.65 L323.76,269.67 L325.20,269.63 L326.63,269.62 L328.06,269.58 L329.49,269.59 L330.93,269.58 L332.36,269.54 L333.79,269.53 L335.22,269.54 L336.66,269.53 L338.09,269.53 L339.52,269.53 L340.96,269.54 L342.39,269.63 L343.82,269.60 L345.25,269.38 L346.69,269.31 L348.12,269.31 L349.55,269.34 L350.98,269.40 L352.42,269.38 L353.85,269.39 L355.28,269.36 L356.71,269.27 L358.15,269.25 L359.58,269.30 L361.01,269.36 L362.44,269.34 L363.88,269.26 L365.31,269.27 L366.74,269.36 L368.17,269.44 L369.61,269.54 L371.04,269.54 L372.47,269.55 L373.90,269.55 L375.34,269.54 L376.77,269.54 L378.20,269.56 L379.63,269.50 L381.07,269.47 L382.50,269.58 L383.93,269.59 L385.37,269.55 L386.80,269.58 L388.23,269.67 L389.66,269.66 L391.10,269.67 L392.53,269.69 L393.96,269.69 L395.39,269.70 L396.83,269.70 L398.26,269.67 L399.69,269.65 L401.12,269.64 L402.56,269.59 L403.99,269.59 L405.42,269.63 L406.85,269.66 L408.29,269.62 L409.72,269.60 L411.15,269.60 L412.58,269.59 L414.02,269.59 L415.45,269.60 L416.88,269.61 L418.31,269.63 L419.75,269.59 L421.18,269.59 L422.61,269.62 L424.04,269.63 L425.48,269.60 L426.91,269.60 L428.34,269.60 L429.78,269.59 L431.21,269.57 L432.64,269.56 L434.07,269.52 L435.51,269.51 L436.94,269.47 L438.37,269.47 L439.80,269.51 L441.24,269.53 L442.67,269.51 L444.10,269.50 L445.53,269.51 L446.97,269.49 L448.40,269.50 L449.83,269.49 L451.26,269.51 L452.70,269.51 L454.13,269.51 L455.56,269.52 L456.99,269.48 L458.43,269.42 L459.86,269.47 L461.29,269.56 L462.72,269.54 L464.16,269.51 L465.59,269.55 L467.02,269.56 L468.46,269.55 L469.89,269.49 L471.32,269.48 L472.75,269.51 L474.19,269.54 L475.62,269.54 L477.05,269.48 L478.48,269.39 L479.92,269.40 L481.35,269.39 L482.78,269.42 L484.21,269.45 L485.65,269.36 L487.08,269.34 L488.51,269.42 L489.94,269.44 L491.38,269.44 L492.81,269.43 L494.24,269.45 L495.67,269.46 L497.11,269.46 L498.54,269.47 L499.97,269.41 L501.40,269.38 L502.84,269.34 L504.27,269.31 L505.70,269.29 L507.13,269.12 L508.57,269.00 L510.00,269.28" stroke="#4e73df" fill="none" stroke-width="2" stroke-linejoin="round"/></g><text x="300" y="20" text-anchor="middle" font-size="16" fill="#333">RAM Utilization</text><text x="10" y="200" text-anchor="middle" transform="rotate(-90,10,200)" font-size="12" fill="#666">Usage (%)</text><g font-size="12"><circle cx="20" cy="375" r="5" fill="#4e73df"/><text x="30" y="380" fill="#333">value: 10.2 at 22:54:20</text></g></svg>