<svg width="600" height="400" xmlns="http://www.w3.org/2000/svg" style="font-family: Arial, sans-serif;"><rect width="600" height="400" fill="#ffffff"/><g transform="translate(60,30)"><rect width="510" height="300" fill="#f8f9fc" stroke="#ddd"/><g stroke-width="1"><line x1="0" y1="300" x2="510" y2="300" stroke="#eee" /><text x="-5" y="304" text-anchor="end" font-size="10" fill="#666">0.0</text><line x1="0" y1="240" x2="510" y2="240" stroke="#eee" /><text x="-5" y="244" text-anchor="end" font-size="10" fill="#666">20.0</text><line x1="0" y1="180" x2="510" y2="180" stroke="#eee" /><text x="-5" y="184" text-anchor="end" font-size="10" fill="#666">40.0</text><line x1="0" y1="120" x2="510" y2="120" stroke="#eee" /><text x="-5" y="124" text-anchor="end" font-size="10" fill="#666">60.0</text><line x1="0" y1="59.999999999999986" x2="510" y2="59.999999999999986" stroke="#eee" /><text x="-5" y="63.999999999999986" text-anchor="end" font-size="10" fill="#666">80.0</text><line x1="0" y1="0" x2="510" y2="0" stroke="#eee" /><text x="-5" y="4" text-anchor="end" font-size="10" fill="#666">100.0</text></g><g stroke-width="1"><line x1="0" y1="0" x2="0" y2="300" stroke="#eee"/><text x="0" y="320" text-anchor="middle" font-size="10" fill="#666">20:10:20</text><line x1="102" y1="0" x2="102" y2="300" stroke="#eee"/><text x="102" y="320" text-anchor="middle" font-size="10" fill="#666">20:22:14</text><line x1="204" y1="0" x2="204" y2="300" stroke="#eee"/><text x="204" y="320" text-anchor="middle" font-size="10" fill="#666">20:34:08</text><line x1="306" y1="0" x2="306" y2="300" stroke="#eee"/><text x="306" y="320" text-anchor="middle" font-size="10" fill="#666">20:46:02</text><line x1="408" y1="0" x2="408" y2="300" stroke="#eee"/><text x="408" y="320" text-anchor="middle" font-size="10" fill="#666">20:57:56</text><line x1="510" y1="0" x2="510" y2="300" stroke="#eee"/><text x="510" y="320" text-anchor="middle" font-size="10" fill="#666">21:09:50</text></g><path d="M0.00,264.00 L1.43,264.00 L2.86,264.01 L4.29,263.97 L5.71,263.96 L7.14,263.95 L8.57,263.96 L10.00,263.98 L11.43,264.00 L12.86,263.47 L14.29,262.71 L15.71,262.76 L17.14,262.75 L18.57,263.05 L20.00,263.67 L21.43,263.59 L22.86,263.59 L24.29,263.55 L25.71,263.54 L27.14,263.54 L28.57,263.61 L30.00,263.67 L31.43,263.63 L32.86,263.55 L34.29,263.51 L35.71,263.51 L37.14,263.51 L38.57,263.51 L40.00,263.60 L41.43,263.65 L42.86,263.64 L44.29,263.56 L45.71,263.55 L47.14,263.61 L48.57,263.59 L50.00,263.53 L51.43,263.48 L52.86,263.44 L54.29,263.46 L55.71,263.44 L57.14,263.41 L58.57,263.42 L60.00,263.46 L61.43,263.48 L62.86,263.43 L64.29,263.41 L65.71,263.38 L67.14,263.37 L68.57,263.36 L70.00,263.38 L71.43,263.36 L72.86,263.29 L74.29,263.28 L75.71,263.24 L77.14,263.24 L78.57,263.24 L80.00,263.24 L81.43,263.22 L82.86,263.17 L84.29,263.16 L85.71,263.13 L87.14,263.10 L88.57,263.15 L90.00,263.21 L91.43,263.25 L92.86,263.37 L94.29,263.43 L95.71,263.41 L97.14,263.43 L98.57,263.43 L100.00,263.38 L101.43,263.41 L102.86,263.41 L104.29,263.36 L105.71,263.35 L107.14,263.33 L108.57,263.34 L110.00,263.39 L111.43,263.41 L112.86,263.39 L114.29,263.41 L115.71,263.44 L117.14,263.43 L118.57,263.54 L120.00,263.65 L121.43,263.54 L122.86,263.52 L124.29,263.52 L125.71,263.55 L127.14,263.53 L128.57,263.60 L130.00,263.66 L131.43,263.70 L132.86,263.67 L134.29,263.67 L135.71,263.68 L137.14,263.71 L138.57,263.73 L140.00,263.72 L141.43,263.70 L142.86,263.66 L144.29,263.69 L145.71,263.67 L147.14,263.67 L148.57,263.69 L150.00,263.68 L151.43,263.67 L152.86,263.68 L154.29,263.67 L155.71,263.62 L157.14,263.60 L158.57,263.65 L160.00,263.67 L161.43,263.61 L162.86,263.60 L164.29,263.61 L165.71,263.68 L167.14,263.74 L168.57,263.70 L170.00,263.70 L171.43,263.68 L172.86,263.69 L174.29,263.73 L175.71,263.73 L177.14,263.72 L178.57,263.67 L180.00,263.68 L181.43,263.65 L182.86,263.64 L184.29,263.69 L185.71,263.71 L187.14,263.72 L188.57,263.72 L190.00,263.65 L191.43,263.60 L192.86,263.59 L194.29,263.63 L195.71,263.68 L197.14,263.66 L198.57,263.65 L200.00,263.65 L201.43,263.65 L202.86,263.67 L204.29,263.61 L205.71,263.59 L207.14,263.56 L208.57,263.58 L210.00,263.61 L211.43,263.61 L212.86,263.61 L214.29,263.64 L215.71,263.63 L217.14,263.62 L218.57,263.62 L220.00,263.64 L221.43,263.68 L222.86,263.68 L224.29,263.63 L225.71,263.65 L227.14,263.66 L228.57,263.64 L230.00,263.62 L231.43,263.64 L232.86,263.61 L234.29,263.60 L235.71,263.61 L237.14,263.65 L238.57,263.70 L240.00,263.67 L241.43,263.62 L242.86,263.62 L244.29,263.69 L245.71,263.69 L247.14,263.67 L248.57,263.68 L250.00,263.62 L251.43,263.64 L252.86,263.62 L254.29,263.64 L255.71,263.68 L257.14,263.68 L258.57,263.67 L260.00,263.63 L261.43,263.63 L262.86,263.63 L264.29,263.62 L265.71,263.64 L267.14,263.69 L268.57,263.64 L270.00,263.57 L271.43,263.58 L272.86,263.64 L274.29,263.65 L275.71,263.65 L277.14,263.68 L278.57,263.69 L280.00,263.66 L281.43,263.64 L282.86,263.64 L284.29,263.61 L285.71,263.59 L287.14,263.62 L288.57,263.63 L290.00,263.62 L291.43,263.64 L292.86,263.64 L294.29,263.63 L295.71,263.62 L297.14,263.62 L298.57,263.59 L300.00,263.58 L301.43,263.57 L302.86,263.58 L304.29,263.65 L305.71,263.62 L307.14,263.61 L308.57,263.58 L310.00,263.57 L311.43,263.58 L312.86,263.59 L314.29,263.60 L315.71,263.59 L317.14,263.60 L318.57,263.54 L320.00,263.58 L321.43,263.57 L322.86,263.56 L324.29,263.60 L325.71,263.61 L327.14,263.54 L328.57,263.52 L330.00,263.57 L331.43,263.58 L332.86,263.58 L334.29,263.57 L335.71,263.56 L337.14,263.60 L338.57,263.64 L340.00,263.64 L341.43,263.60 L342.86,263.58 L344.29,263.60 L345.71,263.57 L347.14,263.52 L348.57,263.55 L350.00,263.59 L351.43,263.58 L352.86,263.53 L354.29,263.52 L355.71,263.60 L357.14,263.59 L358.57,263.57 L360.00,263.62 L361.43,263.59 L362.86,263.60 L364.29,263.61 L365.71,263.60 L367.14,263.63 L368.57,263.68 L370.00,263.69 L371.43,263.61 L372.86,263.56 L374.29,263.63 L375.71,263.68 L377.14,263.71 L378.57,263.66 L380.00,263.67 L381.43,263.68 L382.86,263.68 L384.29,263.73 L385.71,263.70 L387.14,263.70 L388.57,263.69 L390.00,263.67 L391.43,263.67 L392.86,263.75 L394.29,263.72 L395.71,263.73 L397.14,263.84 L398.57,263.95 L400.00,264.04 L401.43,264.06 L402.86,264.00 L404.29,264.05 L405.71,264.11 L407.14,264.08 L408.57,264.05 L410.00,264.07 L411.43,264.12 L412.86,264.11 L414.29,264.09 L415.71,264.03 L417.14,264.01 L418.57,264.02 L420.00,263.94 L421.43,263.90 L422.86,263.92 L424.29,263.92 L425.71,263.93 L427.14,263.98 L428.57,264.05 L430.00,264.02 L431.43,263.99 L432.86,264.04 L434.29,264.05 L435.71,263.99 L437.14,263.97 L438.57,263.97 L440.00,263.98 L441.43,263.98 L442.86,263.95 L444.29,263.94 L445.71,263.91 L447.14,263.87 L448.57,263.88 L450.00,263.84 L451.43,263.81 L452.86,263.77 L454.29,263.74 L455.71,263.72 L457.14,263.71 L458.57,263.72 L460.00,263.71 L461.43,263.68 L462.86,263.75 L464.29,263.74 L465.71,263.70 L467.14,263.73 L468.57,263.78 L470.00,263.73 L471.43,263.72 L472.86,263.72 L474.29,263.71 L475.71,263.73 L477.14,263.79 L478.57,263.78 L480.00,263.76 L481.43,263.79 L482.86,263.81 L484.29,263.78 L485.71,263.75 L487.14,263.68 L488.57,263.63 L490.00,263.68 L491.43,263.69 L492.86,263.70 L494.29,263.68 L495.71,263.67 L497.14,263.67 L498.57,263.69 L500.00,263.69 L501.43,263.64 L502.86,263.61 L504.29,263.60 L505.71,263.55 L507.14,263.49 L508.57,263.49 L510.00,263.54" stroke="#4e73df" fill="none" stroke-width="2" stroke-linejoin="round"/></g><text x="300" y="20" text-anchor="middle" font-size="16" fill="#333">RAM Utilization</text><text x="10" y="200" text-anchor="middle" transform="rotate(-90,10,200)" font-size="12" fill="#666">Usage (%)</text><g font-size="12"><circle cx="20" cy="375" r="5" fill="#4e73df"/><text x="30" y="380" fill="#333">value: 12.2 at 21:09:50</text></g></svg>