<svg width="600" height="400" xmlns="http://www.w3.org/2000/svg" style="font-family: Arial, sans-serif;"><rect width="600" height="400" fill="#ffffff"/><g transform="translate(60,30)"><rect width="510" height="300" fill="#f8f9fc" stroke="#ddd"/><g stroke-width="1"><line x1="0" y1="300" x2="510" y2="300" stroke="#eee" /><text x="-5" y="304" text-anchor="end" font-size="10" fill="#666">0.0</text><line x1="0" y1="240" x2="510" y2="240" stroke="#eee" /><text x="-5" y="244" text-anchor="end" font-size="10" fill="#666">20.0</text><line x1="0" y1="180" x2="510" y2="180" stroke="#eee" /><text x="-5" y="184" text-anchor="end" font-size="10" fill="#666">40.0</text><line x1="0" y1="120" x2="510" y2="120" stroke="#eee" /><text x="-5" y="124" text-anchor="end" font-size="10" fill="#666">60.0</text><line x1="0" y1="59.999999999999986" x2="510" y2="59.999999999999986" stroke="#eee" /><text x="-5" y="63.999999999999986" text-anchor="end" font-size="10" fill="#666">80.0</text><line x1="0" y1="0" x2="510" y2="0" stroke="#eee" /><text x="-5" y="4" text-anchor="end" font-size="10" fill="#666">100.0</text></g><g stroke-width="1"><line x1="0" y1="0" x2="0" y2="300" stroke="#eee"/><text x="0" y="320" text-anchor="middle" font-size="10" fill="#666">22:19:40</text><line x1="102" y1="0" x2="102" y2="300" stroke="#eee"/><text x="102" y="320" text-anchor="middle" font-size="10" fill="#666">22:31:20</text><line x1="204" y1="0" x2="204" y2="300" stroke="#eee"/><text x="204" y="320" text-anchor="middle" font-size="10" fill="#666">22:43:00</text><line x1="306" y1="0" x2="306" y2="300" stroke="#eee"/><text x="306" y="320" text-anchor="middle" font-size="10" fill="#666">22:54:40</text><line x1="408" y1="0" x2="408" y2="300" stroke="#eee"/><text x="408" y="320" text-anchor="middle" font-size="10" fill="#666">23:06:20</text><line x1="510" y1="0" x2="510" y2="300" stroke="#eee"/><text x="510" y="320" text-anchor="middle" font-size="10" fill="#666">23:18:00</text></g><path d="M0.00,263.82 L10.20,263.86 L20.40,263.69 L30.60,263.87 L40.80,263.81 L51.00,263.78 L61.20,263.80 L71.40,263.83 L81.60,263.88 L91.80,263.28 L102.00,263.60 L112.20,263.61 L122.40,263.56 L132.60,263.55 L142.80,263.17 L153.00,263.07 L163.20,263.51 L173.40,263.49 L183.60,263.49 L193.80,263.43 L204.00,263.48 L214.20,263.60 L224.40,263.56 L234.60,263.54 L244.80,263.29 L255.00,261.76 L265.20,262.73 L275.40,261.18 L285.60,260.73 L295.80,260.70 L306.00,260.70 L316.20,260.68 L326.40,260.78 L336.60,261.62 L346.80,262.44 L357.00,262.21 L367.20,262.32 L377.40,262.25 L387.60,262.28 L397.80,262.28 L408.00,262.21 L418.20,262.18 L428.40,262.14 L438.60,262.21 L448.80,262.26 L459.00,262.25 L469.20,262.31 L479.40,262.37 L489.60,262.28 L499.80,262.34 L510.00,262.42" stroke="#4e73df" fill="none" stroke-width="2" stroke-linejoin="round"/><circle id="point-value-0" cx="0.00" cy="263.82" r="5" fill="#4e73df" opacity="0" onmouseover="showTooltip(evt, 'value', '12.1', '22:19:40', 0.00, 263.82)" onmouseout="hideTooltip()"/><circle id="point-value-1" cx="10.20" cy="263.86" r="5" fill="#4e73df" opacity="0" onmouseover="showTooltip(evt, 'value', '12.0', '22:20:50', 10.20, 263.86)" onmouseout="hideTooltip()"/><circle id="point-value-2" cx="20.40" cy="263.69" r="5" fill="#4e73df" opacity="0" onmouseover="showTooltip(evt, 'value', '12.1', '22:22:00', 20.40, 263.69)" onmouseout="hideTooltip()"/><circle id="point-value-3" cx="30.60" cy="263.87" r="5" fill="#4e73df" opacity="0" onmouseover="showTooltip(evt, 'value', '12.0', '22:23:10', 30.60, 263.87)" onmouseout="hideTooltip()"/><circle id="point-value-4" cx="40.80" cy="263.81" r="5" fill="#4e73df" opacity="0" onmouseover="showTooltip(evt, 'value', '12.1', '22:24:20', 40.80, 263.81)" onmouseout="hideTooltip()"/><circle id="point-value-5" cx="51.00" cy="263.78" r="5" fill="#4e73df" opacity="0" onmouseover="showTooltip(evt, 'value', '12.1', '22:25:30', 51.00, 263.78)" onmouseout="hideTooltip()"/><circle id="point-value-6" cx="61.20" cy="263.80" r="5" fill="#4e73df" opacity="0" onmouseover="showTooltip(evt, 'value', '12.1', '22:26:40', 61.20, 263.80)" onmouseout="hideTooltip()"/><circle id="point-value-7" cx="71.40" cy="263.83" r="5" fill="#4e73df" opacity="0" onmouseover="showTooltip(evt, 'value', '12.1', '22:27:50', 71.40, 263.83)" onmouseout="hideTooltip()"/><circle id="point-value-8" cx="81.60" cy="263.88" r="5" fill="#4e73df" opacity="0" onmouseover="showTooltip(evt, 'value', '12.0', '22:29:00', 81.60, 263.88)" onmouseout="hideTooltip()"/><circle id="point-value-9" cx="91.80" cy="263.28" r="5" fill="#4e73df" opacity="0" onmouseover="showTooltip(evt, 'value', '12.2', '22:30:10', 91.80, 263.28)" onmouseout="hideTooltip()"/><circle id="point-value-10" cx="102.00" cy="263.60" r="5" fill="#4e73df" opacity="0" onmouseover="showTooltip(evt, 'value', '12.1', '22:31:20', 102.00, 263.60)" onmouseout="hideTooltip()"/><circle id="point-value-11" cx="112.20" cy="263.61" r="5" fill="#4e73df" opacity="0" onmouseover="showTooltip(evt, 'value', '12.1', '22:32:30', 112.20, 263.61)" onmouseout="hideTooltip()"/><circle id="point-value-12" cx="122.40" cy="263.56" r="5" fill="#4e73df" opacity="0" onmouseover="showTooltip(evt, 'value', '12.1', '22:33:40', 122.40, 263.56)" onmouseout="hideTooltip()"/><circle id="point-value-13" cx="132.60" cy="263.55" r="5" fill="#4e73df" opacity="0" onmouseover="showTooltip(evt, 'value', '12.1', '22:34:50', 132.60, 263.55)" onmouseout="hideTooltip()"/><circle id="point-value-14" cx="142.80" cy="263.17" r="5" fill="#4e73df" opacity="0" onmouseover="showTooltip(evt, 'value', '12.3', '22:36:00', 142.80, 263.17)" onmouseout="hideTooltip()"/><circle id="point-value-15" cx="153.00" cy="263.07" r="5" fill="#4e73df" opacity="0" onmouseover="showTooltip(evt, 'value', '12.3', '22:37:10', 153.00, 263.07)" onmouseout="hideTooltip()"/><circle id="point-value-16" cx="163.20" cy="263.51" r="5" fill="#4e73df" opacity="0" onmouseover="showTooltip(evt, 'value', '12.2', '22:38:20', 163.20, 263.51)" onmouseout="hideTooltip()"/><circle id="point-value-17" cx="173.40" cy="263.49" r="5" fill="#4e73df" opacity="0" onmouseover="showTooltip(evt, 'value', '12.2', '22:39:30', 173.40, 263.49)" onmouseout="hideTooltip()"/><circle id="point-value-18" cx="183.60" cy="263.49" r="5" fill="#4e73df" opacity="0" onmouseover="showTooltip(evt, 'value', '12.2', '22:40:40', 183.60, 263.49)" onmouseout="hideTooltip()"/><circle id="point-value-19" cx="193.80" cy="263.43" r="5" fill="#4e73df" opacity="0" onmouseover="showTooltip(evt, 'value', '12.2', '22:41:50', 193.80, 263.43)" onmouseout="hideTooltip()"/><circle id="point-value-20" cx="204.00" cy="263.48" r="5" fill="#4e73df" opacity="0" onmouseover="showTooltip(evt, 'value', '12.2', '22:43:00', 204.00, 263.48)" onmouseout="hideTooltip()"/><circle id="point-value-21" cx="214.20" cy="263.60" r="5" fill="#4e73df" opacity="0" onmouseover="showTooltip(evt, 'value', '12.1', '22:44:10', 214.20, 263.60)" onmouseout="hideTooltip()"/><circle id="point-value-22" cx="224.40" cy="263.56" r="5" fill="#4e73df" opacity="0" onmouseover="showTooltip(evt, 'value', '12.1', '22:45:20', 224.40, 263.56)" onmouseout="hideTooltip()"/><circle id="point-value-23" cx="234.60" cy="263.54" r="5" fill="#4e73df" opacity="0" onmouseover="showTooltip(evt, 'value', '12.2', '22:46:30', 234.60, 263.54)" onmouseout="hideTooltip()"/><circle id="point-value-24" cx="244.80" cy="263.29" r="5" fill="#4e73df" opacity="0" onmouseover="showTooltip(evt, 'value', '12.2', '22:47:40', 244.80, 263.29)" onmouseout="hideTooltip()"/><circle id="point-value-25" cx="255.00" cy="261.76" r="5" fill="#4e73df" opacity="0" onmouseover="showTooltip(evt, 'value', '12.7', '22:48:50', 255.00, 261.76)" onmouseout="hideTooltip()"/><circle id="point-value-26" cx="265.20" cy="262.73" r="5" fill="#4e73df" opacity="0" onmouseover="showTooltip(evt, 'value', '12.4', '22:50:00', 265.20, 262.73)" onmouseout="hideTooltip()"/><circle id="point-value-27" cx="275.40" cy="261.18" r="5" fill="#4e73df" opacity="0" onmouseover="showTooltip(evt, 'value', '12.9', '22:51:10', 275.40, 261.18)" onmouseout="hideTooltip()"/><circle id="point-value-28" cx="285.60" cy="260.73" r="5" fill="#4e73df" opacity="0" onmouseover="showTooltip(evt, 'value', '13.1', '22:52:20', 285.60, 260.73)" onmouseout="hideTooltip()"/><circle id="point-value-29" cx="295.80" cy="260.70" r="5" fill="#4e73df" opacity="0" onmouseover="showTooltip(evt, 'value', '13.1', '22:53:30', 295.80, 260.70)" onmouseout="hideTooltip()"/><circle id="point-value-30" cx="306.00" cy="260.70" r="5" fill="#4e73df" opacity="0" onmouseover="showTooltip(evt, 'value', '13.1', '22:54:40', 306.00, 260.70)" onmouseout="hideTooltip()"/><circle id="point-value-31" cx="316.20" cy="260.68" r="5" fill="#4e73df" opacity="0" onmouseover="showTooltip(evt, 'value', '13.1', '22:55:50', 316.20, 260.68)" onmouseout="hideTooltip()"/><circle id="point-value-32" cx="326.40" cy="260.78" r="5" fill="#4e73df" opacity="0" onmouseover="showTooltip(evt, 'value', '13.1', '22:57:00', 326.40, 260.78)" onmouseout="hideTooltip()"/><circle id="point-value-33" cx="336.60" cy="261.62" r="5" fill="#4e73df" opacity="0" onmouseover="showTooltip(evt, 'value', '12.8', '22:58:10', 336.60, 261.62)" onmouseout="hideTooltip()"/><circle id="point-value-34" cx="346.80" cy="262.44" r="5" fill="#4e73df" opacity="0" onmouseover="showTooltip(evt, 'value', '12.5', '22:59:20', 346.80, 262.44)" onmouseout="hideTooltip()"/><circle id="point-value-35" cx="357.00" cy="262.21" r="5" fill="#4e73df" opacity="0" onmouseover="showTooltip(evt, 'value', '12.6', '23:00:30', 357.00, 262.21)" onmouseout="hideTooltip()"/><circle id="point-value-36" cx="367.20" cy="262.32" r="5" fill="#4e73df" opacity="0" onmouseover="showTooltip(evt, 'value', '12.6', '23:01:40', 367.20, 262.32)" onmouseout="hideTooltip()"/><circle id="point-value-37" cx="377.40" cy="262.25" r="5" fill="#4e73df" opacity="0" onmouseover="showTooltip(evt, 'value', '12.6', '23:02:50', 377.40, 262.25)" onmouseout="hideTooltip()"/><circle id="point-value-38" cx="387.60" cy="262.28" r="5" fill="#4e73df" opacity="0" onmouseover="showTooltip(evt, 'value', '12.6', '23:04:00', 387.60, 262.28)" onmouseout="hideTooltip()"/><circle id="point-value-39" cx="397.80" cy="262.28" r="5" fill="#4e73df" opacity="0" onmouseover="showTooltip(evt, 'value', '12.6', '23:05:10', 397.80, 262.28)" onmouseout="hideTooltip()"/><circle id="point-value-40" cx="408.00" cy="262.21" r="5" fill="#4e73df" opacity="0" onmouseover="showTooltip(evt, 'value', '12.6', '23:06:20', 408.00, 262.21)" onmouseout="hideTooltip()"/><circle id="point-value-41" cx="418.20" cy="262.18" r="5" fill="#4e73df" opacity="0" onmouseover="showTooltip(evt, 'value', '12.6', '23:07:30', 418.20, 262.18)" onmouseout="hideTooltip()"/><circle id="point-value-42" cx="428.40" cy="262.14" r="5" fill="#4e73df" opacity="0" onmouseover="showTooltip(evt, 'value', '12.6', '23:08:40', 428.40, 262.14)" onmouseout="hideTooltip()"/><circle id="point-value-43" cx="438.60" cy="262.21" r="5" fill="#4e73df" opacity="0" onmouseover="showTooltip(evt, 'value', '12.6', '23:09:50', 438.60, 262.21)" onmouseout="hideTooltip()"/><circle id="point-value-44" cx="448.80" cy="262.26" r="5" fill="#4e73df" opacity="0" onmouseover="showTooltip(evt, 'value', '12.6', '23:11:00', 448.80, 262.26)" onmouseout="hideTooltip()"/><circle id="point-value-45" cx="459.00" cy="262.25" r="5" fill="#4e73df" opacity="0" onmouseover="showTooltip(evt, 'value', '12.6', '23:12:10', 459.00, 262.25)" onmouseout="hideTooltip()"/><circle id="point-value-46" cx="469.20" cy="262.31" r="5" fill="#4e73df" opacity="0" onmouseover="showTooltip(evt, 'value', '12.6', '23:13:20', 469.20, 262.31)" onmouseout="hideTooltip()"/><circle id="point-value-47" cx="479.40" cy="262.37" r="5" fill="#4e73df" opacity="0" onmouseover="showTooltip(evt, 'value', '12.5', '23:14:30', 479.40, 262.37)" onmouseout="hideTooltip()"/><circle id="point-value-48" cx="489.60" cy="262.28" r="5" fill="#4e73df" opacity="0" onmouseover="showTooltip(evt, 'value', '12.6', '23:15:40', 489.60, 262.28)" onmouseout="hideTooltip()"/><circle id="point-value-49" cx="499.80" cy="262.34" r="5" fill="#4e73df" opacity="0" onmouseover="showTooltip(evt, 'value', '12.6', '23:16:50', 499.80, 262.34)" onmouseout="hideTooltip()"/><circle id="point-value-50" cx="510.00" cy="262.42" r="5" fill="#4e73df" opacity="0" onmouseover="showTooltip(evt, 'value', '12.5', '23:18:00', 510.00, 262.42)" onmouseout="hideTooltip()"/></g><g id="tooltip" visibility="hidden"><rect x="0" y="0" width="150" height="40" fill="#333" opacity="0.8" rx="5"/><text x="5" y="15" font-size="10" fill="#fff" id="tooltip-series"></text><text x="5" y="30" font-size="10" fill="#fff" id="tooltip-value"></text></g><script><![CDATA[function showTooltip(evt, series, value, time, x, y) {  var tooltip = document.getElementById("tooltip");  var seriesText = document.getElementById("tooltip-series");  var valueText = document.getElementById("tooltip-value");  seriesText.textContent = "Series: " + series;  valueText.textContent = value + " at " + time;  tooltip.setAttribute("transform", "translate(" + (x + 10) + "," + (y - 50) + ")");  tooltip.setAttribute("visibility", "visible");  evt.target.setAttribute("r", "7");  evt.target.setAttribute("opacity", "1");}function hideTooltip() {  var tooltip = document.getElementById("tooltip");  tooltip.setAttribute("visibility", "hidden");  var circles = document.getElementsByTagName("circle");  for (var i = 0; i < circles.length; i++) {    circles[i].setAttribute("r", "5");    circles[i].setAttribute("opacity", "0");  }}]]></script><text x="300" y="20" text-anchor="middle" font-size="16" fill="#333">RAM Utilization</text><text x="10" y="200" text-anchor="middle" transform="rotate(-90,10,200)" font-size="12" fill="#666">Usage (%)</text><g font-size="12"><circle cx="20" cy="375" r="5" fill="#4e73df"/><text x="30" y="380" fill="#333">value: 12.5 at 23:18:00</text></g></svg>