<svg width="600" height="400" xmlns="http://www.w3.org/2000/svg" style="font-family: Arial, sans-serif;"><rect width="600" height="400" fill="#ffffff"/><g transform="translate(60,30)"><rect width="510" height="300" fill="#f8f9fc" stroke="#ddd"/><g stroke-width="1"><line x1="0" y1="300" x2="510" y2="300" stroke="#eee" /><text x="-5" y="304" text-anchor="end" font-size="10" fill="#666">0.0</text><line x1="0" y1="240" x2="510" y2="240" stroke="#eee" /><text x="-5" y="244" text-anchor="end" font-size="10" fill="#666">20.0</text><line x1="0" y1="180" x2="510" y2="180" stroke="#eee" /><text x="-5" y="184" text-anchor="end" font-size="10" fill="#666">40.0</text><line x1="0" y1="120" x2="510" y2="120" stroke="#eee" /><text x="-5" y="124" text-anchor="end" font-size="10" fill="#666">60.0</text><line x1="0" y1="59.999999999999986" x2="510" y2="59.999999999999986" stroke="#eee" /><text x="-5" y="63.999999999999986" text-anchor="end" font-size="10" fill="#666">80.0</text><line x1="0" y1="0" x2="510" y2="0" stroke="#eee" /><text x="-5" y="4" text-anchor="end" font-size="10" fill="#666">100.0</text></g><g stroke-width="1"><line x1="0" y1="0" x2="0" y2="300" stroke="#eee"/><text x="0" y="320" text-anchor="middle" font-size="10" fill="#666">23:56:50</text><line x1="102" y1="0" x2="102" y2="300" stroke="#eee"/><text x="102" y="320" text-anchor="middle" font-size="10" fill="#666">00:08:44</text><line x1="204" y1="0" x2="204" y2="300" stroke="#eee"/><text x="204" y="320" text-anchor="middle" font-size="10" fill="#666">00:20:38</text><line x1="306" y1="0" x2="306" y2="300" stroke="#eee"/><text x="306" y="320" text-anchor="middle" font-size="10" fill="#666">00:32:32</text><line x1="408" y1="0" x2="408" y2="300" stroke="#eee"/><text x="408" y="320" text-anchor="middle" font-size="10" fill="#666">00:44:26</text><line x1="510" y1="0" x2="510" y2="300" stroke="#eee"/><text x="510" y="320" text-anchor="middle" font-size="10" fill="#666">00:56:20</text></g><path d="M0.00,268.88 L10.00,268.86 L20.00,267.57 L30.00,268.84 L40.00,268.82 L50.00,268.83 L60.00,268.63 L70.00,268.75 L80.00,268.74 L90.00,268.65 L100.00,268.47 L110.00,268.28 L120.00,268.51 L130.00,268.41 L140.00,268.45 L150.00,268.49 L160.00,268.03 L170.00,267.83 L180.00,267.81 L190.00,267.80 L200.00,268.09 L210.00,268.03 L220.00,267.92 L230.00,267.87 L240.00,267.77 L250.00,267.84 L260.00,267.75 L270.00,267.85 L280.00,267.83 L290.00,267.95 L300.00,267.70 L310.00,267.64 L320.00,267.88 L330.00,267.77 L340.00,267.71 L350.00,267.71 L360.00,267.68 L370.00,267.62 L380.00,266.82 L390.00,267.31 L400.00,267.21 L410.00,267.23 L420.00,267.19 L430.00,267.10 L440.00,267.15 L450.00,267.09 L460.00,266.09 L470.00,266.16 L480.00,266.07 L490.00,265.98 L500.00,265.97 L510.00,266.00" stroke="#4e73df" fill="none" stroke-width="2" stroke-linejoin="round"/><circle id="point-value-0" cx="0.00" cy="268.88" r="5" fill="#4e73df" opacity="0" onmouseover="showTooltip(evt, 'value', '10.4', '23:56:50', 0.00, 268.88)" onmouseout="hideTooltip()"/><circle id="point-value-1" cx="10.00" cy="268.86" r="5" fill="#4e73df" opacity="0" onmouseover="showTooltip(evt, 'value', '10.4', '23:58:00', 10.00, 268.86)" onmouseout="hideTooltip()"/><circle id="point-value-2" cx="20.00" cy="267.57" r="5" fill="#4e73df" opacity="0" onmouseover="showTooltip(evt, 'value', '10.8', '23:59:10', 20.00, 267.57)" onmouseout="hideTooltip()"/><circle id="point-value-3" cx="30.00" cy="268.84" r="5" fill="#4e73df" opacity="0" onmouseover="showTooltip(evt, 'value', '10.4', '00:00:20', 30.00, 268.84)" onmouseout="hideTooltip()"/><circle id="point-value-4" cx="40.00" cy="268.82" r="5" fill="#4e73df" opacity="0" onmouseover="showTooltip(evt, 'value', '10.4', '00:01:30', 40.00, 268.82)" onmouseout="hideTooltip()"/><circle id="point-value-5" cx="50.00" cy="268.83" r="5" fill="#4e73df" opacity="0" onmouseover="showTooltip(evt, 'value', '10.4', '00:02:40', 50.00, 268.83)" onmouseout="hideTooltip()"/><circle id="point-value-6" cx="60.00" cy="268.63" r="5" fill="#4e73df" opacity="0" onmouseover="showTooltip(evt, 'value', '10.5', '00:03:50', 60.00, 268.63)" onmouseout="hideTooltip()"/><circle id="point-value-7" cx="70.00" cy="268.75" r="5" fill="#4e73df" opacity="0" onmouseover="showTooltip(evt, 'value', '10.4', '00:05:00', 70.00, 268.75)" onmouseout="hideTooltip()"/><circle id="point-value-8" cx="80.00" cy="268.74" r="5" fill="#4e73df" opacity="0" onmouseover="showTooltip(evt, 'value', '10.4', '00:06:10', 80.00, 268.74)" onmouseout="hideTooltip()"/><circle id="point-value-9" cx="90.00" cy="268.65" r="5" fill="#4e73df" opacity="0" onmouseover="showTooltip(evt, 'value', '10.5', '00:07:20', 90.00, 268.65)" onmouseout="hideTooltip()"/><circle id="point-value-10" cx="100.00" cy="268.47" r="5" fill="#4e73df" opacity="0" onmouseover="showTooltip(evt, 'value', '10.5', '00:08:30', 100.00, 268.47)" onmouseout="hideTooltip()"/><circle id="point-value-11" cx="110.00" cy="268.28" r="5" fill="#4e73df" opacity="0" onmouseover="showTooltip(evt, 'value', '10.6', '00:09:40', 110.00, 268.28)" onmouseout="hideTooltip()"/><circle id="point-value-12" cx="120.00" cy="268.51" r="5" fill="#4e73df" opacity="0" onmouseover="showTooltip(evt, 'value', '10.5', '00:10:50', 120.00, 268.51)" onmouseout="hideTooltip()"/><circle id="point-value-13" cx="130.00" cy="268.41" r="5" fill="#4e73df" opacity="0" onmouseover="showTooltip(evt, 'value', '10.5', '00:12:00', 130.00, 268.41)" onmouseout="hideTooltip()"/><circle id="point-value-14" cx="140.00" cy="268.45" r="5" fill="#4e73df" opacity="0" onmouseover="showTooltip(evt, 'value', '10.5', '00:13:10', 140.00, 268.45)" onmouseout="hideTooltip()"/><circle id="point-value-15" cx="150.00" cy="268.49" r="5" fill="#4e73df" opacity="0" onmouseover="showTooltip(evt, 'value', '10.5', '00:14:20', 150.00, 268.49)" onmouseout="hideTooltip()"/><circle id="point-value-16" cx="160.00" cy="268.03" r="5" fill="#4e73df" opacity="0" onmouseover="showTooltip(evt, 'value', '10.7', '00:15:30', 160.00, 268.03)" onmouseout="hideTooltip()"/><circle id="point-value-17" cx="170.00" cy="267.83" r="5" fill="#4e73df" opacity="0" onmouseover="showTooltip(evt, 'value', '10.7', '00:16:40', 170.00, 267.83)" onmouseout="hideTooltip()"/><circle id="point-value-18" cx="180.00" cy="267.81" r="5" fill="#4e73df" opacity="0" onmouseover="showTooltip(evt, 'value', '10.7', '00:17:50', 180.00, 267.81)" onmouseout="hideTooltip()"/><circle id="point-value-19" cx="190.00" cy="267.80" r="5" fill="#4e73df" opacity="0" onmouseover="showTooltip(evt, 'value', '10.7', '00:19:00', 190.00, 267.80)" onmouseout="hideTooltip()"/><circle id="point-value-20" cx="200.00" cy="268.09" r="5" fill="#4e73df" opacity="0" onmouseover="showTooltip(evt, 'value', '10.6', '00:20:10', 200.00, 268.09)" onmouseout="hideTooltip()"/><circle id="point-value-21" cx="210.00" cy="268.03" r="5" fill="#4e73df" opacity="0" onmouseover="showTooltip(evt, 'value', '10.7', '00:21:20', 210.00, 268.03)" onmouseout="hideTooltip()"/><circle id="point-value-22" cx="220.00" cy="267.92" r="5" fill="#4e73df" opacity="0" onmouseover="showTooltip(evt, 'value', '10.7', '00:22:30', 220.00, 267.92)" onmouseout="hideTooltip()"/><circle id="point-value-23" cx="230.00" cy="267.87" r="5" fill="#4e73df" opacity="0" onmouseover="showTooltip(evt, 'value', '10.7', '00:23:40', 230.00, 267.87)" onmouseout="hideTooltip()"/><circle id="point-value-24" cx="240.00" cy="267.77" r="5" fill="#4e73df" opacity="0" onmouseover="showTooltip(evt, 'value', '10.7', '00:24:50', 240.00, 267.77)" onmouseout="hideTooltip()"/><circle id="point-value-25" cx="250.00" cy="267.84" r="5" fill="#4e73df" opacity="0" onmouseover="showTooltip(evt, 'value', '10.7', '00:26:00', 250.00, 267.84)" onmouseout="hideTooltip()"/><circle id="point-value-26" cx="260.00" cy="267.75" r="5" fill="#4e73df" opacity="0" onmouseover="showTooltip(evt, 'value', '10.7', '00:27:10', 260.00, 267.75)" onmouseout="hideTooltip()"/><circle id="point-value-27" cx="270.00" cy="267.85" r="5" fill="#4e73df" opacity="0" onmouseover="showTooltip(evt, 'value', '10.7', '00:28:20', 270.00, 267.85)" onmouseout="hideTooltip()"/><circle id="point-value-28" cx="280.00" cy="267.83" r="5" fill="#4e73df" opacity="0" onmouseover="showTooltip(evt, 'value', '10.7', '00:29:30', 280.00, 267.83)" onmouseout="hideTooltip()"/><circle id="point-value-29" cx="290.00" cy="267.95" r="5" fill="#4e73df" opacity="0" onmouseover="showTooltip(evt, 'value', '10.7', '00:30:40', 290.00, 267.95)" onmouseout="hideTooltip()"/><circle id="point-value-30" cx="300.00" cy="267.70" r="5" fill="#4e73df" opacity="0" onmouseover="showTooltip(evt, 'value', '10.8', '00:31:50', 300.00, 267.70)" onmouseout="hideTooltip()"/><circle id="point-value-31" cx="310.00" cy="267.64" r="5" fill="#4e73df" opacity="0" onmouseover="showTooltip(evt, 'value', '10.8', '00:33:00', 310.00, 267.64)" onmouseout="hideTooltip()"/><circle id="point-value-32" cx="320.00" cy="267.88" r="5" fill="#4e73df" opacity="0" onmouseover="showTooltip(evt, 'value', '10.7', '00:34:10', 320.00, 267.88)" onmouseout="hideTooltip()"/><circle id="point-value-33" cx="330.00" cy="267.77" r="5" fill="#4e73df" opacity="0" onmouseover="showTooltip(evt, 'value', '10.7', '00:35:20', 330.00, 267.77)" onmouseout="hideTooltip()"/><circle id="point-value-34" cx="340.00" cy="267.71" r="5" fill="#4e73df" opacity="0" onmouseover="showTooltip(evt, 'value', '10.8', '00:36:30', 340.00, 267.71)" onmouseout="hideTooltip()"/><circle id="point-value-35" cx="350.00" cy="267.71" r="5" fill="#4e73df" opacity="0" onmouseover="showTooltip(evt, 'value', '10.8', '00:37:40', 350.00, 267.71)" onmouseout="hideTooltip()"/><circle id="point-value-36" cx="360.00" cy="267.68" r="5" fill="#4e73df" opacity="0" onmouseover="showTooltip(evt, 'value', '10.8', '00:38:50', 360.00, 267.68)" onmouseout="hideTooltip()"/><circle id="point-value-37" cx="370.00" cy="267.62" r="5" fill="#4e73df" opacity="0" onmouseover="showTooltip(evt, 'value', '10.8', '00:40:00', 370.00, 267.62)" onmouseout="hideTooltip()"/><circle id="point-value-38" cx="380.00" cy="266.82" r="5" fill="#4e73df" opacity="0" onmouseover="showTooltip(evt, 'value', '11.1', '00:41:10', 380.00, 266.82)" onmouseout="hideTooltip()"/><circle id="point-value-39" cx="390.00" cy="267.31" r="5" fill="#4e73df" opacity="0" onmouseover="showTooltip(evt, 'value', '10.9', '00:42:20', 390.00, 267.31)" onmouseout="hideTooltip()"/><circle id="point-value-40" cx="400.00" cy="267.21" r="5" fill="#4e73df" opacity="0" onmouseover="showTooltip(evt, 'value', '10.9', '00:43:30', 400.00, 267.21)" onmouseout="hideTooltip()"/><circle id="point-value-41" cx="410.00" cy="267.23" r="5" fill="#4e73df" opacity="0" onmouseover="showTooltip(evt, 'value', '10.9', '00:44:40', 410.00, 267.23)" onmouseout="hideTooltip()"/><circle id="point-value-42" cx="420.00" cy="267.19" r="5" fill="#4e73df" opacity="0" onmouseover="showTooltip(evt, 'value', '10.9', '00:45:50', 420.00, 267.19)" onmouseout="hideTooltip()"/><circle id="point-value-43" cx="430.00" cy="267.10" r="5" fill="#4e73df" opacity="0" onmouseover="showTooltip(evt, 'value', '11.0', '00:47:00', 430.00, 267.10)" onmouseout="hideTooltip()"/><circle id="point-value-44" cx="440.00" cy="267.15" r="5" fill="#4e73df" opacity="0" onmouseover="showTooltip(evt, 'value', '10.9', '00:48:10', 440.00, 267.15)" onmouseout="hideTooltip()"/><circle id="point-value-45" cx="450.00" cy="267.09" r="5" fill="#4e73df" opacity="0" onmouseover="showTooltip(evt, 'value', '11.0', '00:49:20', 450.00, 267.09)" onmouseout="hideTooltip()"/><circle id="point-value-46" cx="460.00" cy="266.09" r="5" fill="#4e73df" opacity="0" onmouseover="showTooltip(evt, 'value', '11.3', '00:50:30', 460.00, 266.09)" onmouseout="hideTooltip()"/><circle id="point-value-47" cx="470.00" cy="266.16" r="5" fill="#4e73df" opacity="0" onmouseover="showTooltip(evt, 'value', '11.3', '00:51:40', 470.00, 266.16)" onmouseout="hideTooltip()"/><circle id="point-value-48" cx="480.00" cy="266.07" r="5" fill="#4e73df" opacity="0" onmouseover="showTooltip(evt, 'value', '11.3', '00:52:50', 480.00, 266.07)" onmouseout="hideTooltip()"/><circle id="point-value-49" cx="490.00" cy="265.98" r="5" fill="#4e73df" opacity="0" onmouseover="showTooltip(evt, 'value', '11.3', '00:54:00', 490.00, 265.98)" onmouseout="hideTooltip()"/><circle id="point-value-50" cx="500.00" cy="265.97" r="5" fill="#4e73df" opacity="0" onmouseover="showTooltip(evt, 'value', '11.3', '00:55:10', 500.00, 265.97)" onmouseout="hideTooltip()"/><circle id="point-value-51" cx="510.00" cy="266.00" r="5" fill="#4e73df" opacity="0" onmouseover="showTooltip(evt, 'value', '11.3', '00:56:20', 510.00, 266.00)" onmouseout="hideTooltip()"/></g><g id="tooltip" visibility="hidden"><rect x="0" y="0" width="150" height="40" fill="#333" opacity="0.8" rx="5"/><text x="5" y="15" font-size="10" fill="#fff" id="tooltip-series"></text><text x="5" y="30" font-size="10" fill="#fff" id="tooltip-value"></text></g><script><![CDATA[function showTooltip(evt, series, value, time, x, y) {  var tooltip = document.getElementById("tooltip");  var seriesText = document.getElementById("tooltip-series");  var valueText = document.getElementById("tooltip-value");  seriesText.textContent = "Series: " + series;  valueText.textContent = value + " at " + time;  tooltip.setAttribute("transform", "translate(" + (x + 10) + "," + (y - 50) + ")");  tooltip.setAttribute("visibility", "visible");  evt.target.setAttribute("r", "7");  evt.target.setAttribute("opacity", "1");}function hideTooltip() {  var tooltip = document.getElementById("tooltip");  tooltip.setAttribute("visibility", "hidden");  var circles = document.getElementsByTagName("circle");  for (var i = 0; i < circles.length; i++) {    circles[i].setAttribute("r", "5");    circles[i].setAttribute("opacity", "0");  }}]]></script><text x="300" y="20" text-anchor="middle" font-size="16" fill="#333">RAM Utilization</text><text x="10" y="200" text-anchor="middle" transform="rotate(-90,10,200)" font-size="12" fill="#666">Usage (%)</text><g font-size="12"><circle cx="20" cy="375" r="5" fill="#4e73df"/><text x="30" y="380" fill="#333">value: 11.3 at 00:56:20</text></g></svg>