<svg width="600" height="400" xmlns="http://www.w3.org/2000/svg" style="font-family: Arial, sans-serif;"><rect width="600" height="400" fill="#ffffff"/><g transform="translate(60,30)"><rect width="510" height="300" fill="#f8f9fc" stroke="#ddd"/><g stroke-width="1"><line x1="0" y1="300" x2="510" y2="300" stroke="#eee" /><text x="-5" y="304" text-anchor="end" font-size="10" fill="#666">0.0</text><line x1="0" y1="240" x2="510" y2="240" stroke="#eee" /><text x="-5" y="244" text-anchor="end" font-size="10" fill="#666">20.0</text><line x1="0" y1="180" x2="510" y2="180" stroke="#eee" /><text x="-5" y="184" text-anchor="end" font-size="10" fill="#666">40.0</text><line x1="0" y1="120" x2="510" y2="120" stroke="#eee" /><text x="-5" y="124" text-anchor="end" font-size="10" fill="#666">60.0</text><line x1="0" y1="59.999999999999986" x2="510" y2="59.999999999999986" stroke="#eee" /><text x="-5" y="63.999999999999986" text-anchor="end" font-size="10" fill="#666">80.0</text><line x1="0" y1="0" x2="510" y2="0" stroke="#eee" /><text x="-5" y="4" text-anchor="end" font-size="10" fill="#666">100.0</text></g><g stroke-width="1"><line x1="0" y1="0" x2="0" y2="300" stroke="#eee"/><text x="0" y="320" text-anchor="middle" font-size="10" fill="#666">22:19:50</text><line x1="102" y1="0" x2="102" y2="300" stroke="#eee"/><text x="102" y="320" text-anchor="middle" font-size="10" fill="#666">22:31:50</text><line x1="204" y1="0" x2="204" y2="300" stroke="#eee"/><text x="204" y="320" text-anchor="middle" font-size="10" fill="#666">22:43:50</text><line x1="306" y1="0" x2="306" y2="300" stroke="#eee"/><text x="306" y="320" text-anchor="middle" font-size="10" fill="#666">22:55:50</text><line x1="408" y1="0" x2="408" y2="300" stroke="#eee"/><text x="408" y="320" text-anchor="middle" font-size="10" fill="#666">23:07:50</text><line x1="510" y1="0" x2="510" y2="300" stroke="#eee"/><text x="510" y="320" text-anchor="middle" font-size="10" fill="#666">23:19:50</text></g><path d="M0.00,300.00 L1.42,300.00 L2.83,300.00 L4.25,300.00 L5.67,300.00 L7.08,300.00 L8.50,300.00 L9.92,300.00 L11.33,300.00 L12.75,300.00 L14.17,300.00 L15.58,289.53 L17.00,283.78 L18.42,284.80 L19.83,285.05 L21.25,283.58 L22.67,283.58 L24.08,283.55 L25.50,283.61 L26.92,283.07 L28.33,278.24 L29.75,278.33 L31.17,278.17 L32.58,278.33 L34.00,278.13 L35.42,278.15 L36.83,277.46 L38.25,272.03 L39.67,272.85 L41.08,273.18 L42.50,272.91 L43.92,271.28 L45.33,271.32 L46.75,271.46 L48.17,272.92 L49.58,273.51 L51.00,273.50 L52.42,273.51 L53.83,273.47 L55.25,273.47 L56.67,273.43 L58.08,273.34 L59.50,273.27 L60.92,273.37 L62.33,273.33 L63.75,273.30 L65.17,273.26 L66.58,273.25 L68.00,273.22 L69.42,273.24 L70.83,273.20 L72.25,273.23 L73.67,273.21 L75.08,273.28 L76.50,273.25 L77.92,273.30 L79.33,273.25 L80.75,273.21 L82.17,273.19 L83.58,273.18 L85.00,273.14 L86.42,273.13 L87.83,273.21 L89.25,273.11 L90.67,273.12 L92.08,273.16 L93.50,273.09 L94.92,273.13 L96.33,273.09 L97.75,273.11 L99.17,273.01 L100.58,272.29 L102.00,272.90 L103.42,271.44 L104.83,271.18 L106.25,270.90 L107.67,270.77 L109.08,270.81 L110.50,270.86 L111.92,270.87 L113.33,270.81 L114.75,270.80 L116.17,270.81 L117.58,270.74 L119.00,270.75 L120.42,270.69 L121.83,270.65 L123.25,270.64 L124.67,270.64 L126.08,270.55 L127.50,270.38 L128.92,270.40 L130.33,270.35 L131.75,270.33 L133.17,270.30 L134.58,270.41 L136.00,270.49 L137.42,271.82 L138.83,271.94 L140.25,271.98 L141.67,271.83 L143.08,271.82 L144.50,271.84 L145.92,270.46 L147.33,270.29 L148.75,270.29 L150.17,270.32 L151.58,270.34 L153.00,270.29 L154.42,270.31 L155.83,270.21 L157.25,270.14 L158.67,270.26 L160.08,270.31 L161.50,271.59 L162.92,271.43 L164.33,271.46 L165.75,271.40 L167.17,271.37 L168.58,271.41 L170.00,271.37 L171.42,271.24 L172.83,269.79 L174.25,269.59 L175.67,269.56 L177.08,269.51 L178.50,269.37 L179.92,269.33 L181.33,269.27 L182.75,269.23 L184.17,269.11 L185.58,269.14 L187.00,269.11 L188.42,268.88 L189.83,268.99 L191.25,268.96 L192.67,268.94 L194.08,268.97 L195.50,269.01 L196.92,269.21 L198.33,271.13 L199.75,271.03 L201.17,269.55 L202.58,269.29 L204.00,269.31 L205.42,269.29 L206.83,269.27 L208.25,269.18 L209.67,269.23 L211.08,269.19 L212.50,269.15 L213.92,269.23 L215.33,269.21 L216.75,269.21 L218.17,269.19 L219.58,269.34 L221.00,270.91 L222.42,270.92 L223.83,270.91 L225.25,270.92 L226.67,270.89 L228.08,270.88 L229.50,270.85 L230.92,270.88 L232.33,270.88 L233.75,270.85 L235.17,270.84 L236.58,270.93 L238.00,270.74 L239.42,269.16 L240.83,269.20 L242.25,269.15 L243.67,269.07 L245.08,269.13 L246.50,269.12 L247.92,269.13 L249.33,269.10 L250.75,269.16 L252.17,269.05 L253.58,268.83 L255.00,268.97 L256.42,270.69 L257.83,270.69 L259.25,270.71 L260.67,270.70 L262.08,270.65 L263.50,270.58 L264.92,270.51 L266.33,270.58 L267.75,270.61 L269.17,270.68 L270.58,270.66 L272.00,270.88 L273.42,270.82 L274.83,270.81 L276.25,270.84 L277.67,270.82 L279.08,270.78 L280.50,270.85 L281.92,270.83 L283.33,270.80 L284.75,270.80 L286.17,270.81 L287.58,270.80 L289.00,270.77 L290.42,270.69 L291.83,270.59 L293.25,270.60 L294.67,270.67 L296.08,270.60 L297.50,270.57 L298.92,270.58 L300.33,270.59 L301.75,270.51 L303.17,270.48 L304.58,270.55 L306.00,270.50 L307.42,270.40 L308.83,270.55 L310.25,270.53 L311.67,270.38 L313.08,270.17 L314.50,269.95 L315.92,270.16 L317.33,270.06 L318.75,270.41 L320.17,270.47 L321.58,270.46 L323.00,270.63 L324.42,270.65 L325.83,270.74 L327.25,270.73 L328.67,270.70 L330.08,270.57 L331.50,270.55 L332.92,270.53 L334.33,270.55 L335.75,270.50 L337.17,270.50 L338.58,270.46 L340.00,270.48 L341.42,270.55 L342.83,270.54 L344.25,270.49 L345.67,270.50 L347.08,270.51 L348.50,270.59 L349.92,270.59 L351.33,270.59 L352.75,270.55 L354.17,270.38 L355.58,270.27 L357.00,270.19 L358.42,270.17 L359.83,270.20 L361.25,270.18 L362.67,270.16 L364.08,270.11 L365.50,270.10 L366.92,270.09 L368.33,270.08 L369.75,270.01 L371.17,269.98 L372.58,269.95 L374.00,270.02 L375.42,270.02 L376.83,270.02 L378.25,270.04 L379.67,270.02 L381.08,270.05 L382.50,270.01 L383.92,270.09 L385.33,270.02 L386.75,270.01 L388.17,270.00 L389.58,269.98 L391.00,270.01 L392.42,270.00 L393.83,270.04 L395.25,270.04 L396.67,270.06 L398.08,270.00 L399.50,270.00 L400.92,270.04 L402.33,269.99 L403.75,269.98 L405.17,269.82 L406.58,269.78 L408.00,269.71 L409.42,269.79 L410.83,269.71 L412.25,269.77 L413.67,269.73 L415.08,269.82 L416.50,270.19 L417.92,269.93 L419.33,268.23 L420.75,268.00 L422.17,268.07 L423.58,268.17 L425.00,268.18 L426.42,268.21 L427.83,268.19 L429.25,268.24 L430.67,268.18 L432.08,268.22 L433.50,268.22 L434.92,268.25 L436.33,268.13 L437.75,268.18 L439.17,268.25 L440.58,268.17 L442.00,268.15 L443.42,268.13 L444.83,268.06 L446.25,268.03 L447.67,268.11 L449.08,268.08 L450.50,268.16 L451.92,268.37 L453.33,268.01 L454.75,268.04 L456.17,268.05 L457.58,268.03 L459.00,268.14 L460.42,268.06 L461.83,267.99 L463.25,268.03 L464.67,268.14 L466.08,268.02 L467.50,268.00 L468.92,268.04 L470.33,268.01 L471.75,268.01 L473.17,268.11 L474.58,268.08 L476.00,268.06 L477.42,268.05 L478.83,268.16 L480.25,268.05 L481.67,267.95 L483.08,267.99 L484.50,268.02 L485.92,268.07 L487.33,268.10 L488.75,269.24 L490.17,268.00 L491.58,268.26 L493.00,268.24 L494.42,268.34 L495.83,268.26 L497.25,300.00 L498.67,300.00 L500.08,300.00 L501.50,300.00 L502.92,300.00 L504.33,300.00 L505.75,300.00 L507.17,300.00 L508.58,300.00 L510.00,300.00" stroke="#4e73df" fill="none" stroke-width="2" stroke-linejoin="round"/></g><text x="300" y="20" text-anchor="middle" font-size="16" fill="#333">RAM Utilization</text><text x="10" y="200" text-anchor="middle" transform="rotate(-90,10,200)" font-size="12" fill="#666">Usage (%)</text><g font-size="12"><circle cx="20" cy="375" r="5" fill="#4e73df"/><text x="30" y="380" fill="#333">value: 0.0 at 23:19:50</text></g></svg>