<svg width="600" height="400" xmlns="http://www.w3.org/2000/svg" style="font-family: Arial, sans-serif;"><rect width="600" height="400" fill="#ffffff"/><g transform="translate(60,30)"><rect width="510" height="300" fill="#f8f9fc" stroke="#ddd"/><g stroke-width="1"><line x1="0" y1="300" x2="510" y2="300" stroke="#eee" /><text x="-5" y="304" text-anchor="end" font-size="10" fill="#666">0.0 MB</text><line x1="0" y1="240" x2="510" y2="240" stroke="#eee" /><text x="-5" y="244" text-anchor="end" font-size="10" fill="#666">0.2 MB</text><line x1="0" y1="180" x2="510" y2="180" stroke="#eee" /><text x="-5" y="184" text-anchor="end" font-size="10" fill="#666">0.4 MB</text><line x1="0" y1="120" x2="510" y2="120" stroke="#eee" /><text x="-5" y="124" text-anchor="end" font-size="10" fill="#666">0.6 MB</text><line x1="0" y1="59.999999999999986" x2="510" y2="59.999999999999986" stroke="#eee" /><text x="-5" y="63.999999999999986" text-anchor="end" font-size="10" fill="#666">0.8 MB</text><line x1="0" y1="0" x2="510" y2="0" stroke="#eee" /><text x="-5" y="4" text-anchor="end" font-size="10" fill="#666">1.0 MB</text></g><g stroke-width="1"><line x1="0" y1="0" x2="0" y2="300" stroke="#eee"/><text x="0" y="320" text-anchor="middle" font-size="10" fill="#666">20:10:20</text><line x1="102" y1="0" x2="102" y2="300" stroke="#eee"/><text x="102" y="320" text-anchor="middle" font-size="10" fill="#666">20:22:02</text><line x1="204" y1="0" x2="204" y2="300" stroke="#eee"/><text x="204" y="320" text-anchor="middle" font-size="10" fill="#666">20:33:44</text><line x1="306" y1="0" x2="306" y2="300" stroke="#eee"/><text x="306" y="320" text-anchor="middle" font-size="10" fill="#666">20:45:26</text><line x1="408" y1="0" x2="408" y2="300" stroke="#eee"/><text x="408" y="320" text-anchor="middle" font-size="10" fill="#666">20:57:08</text><line x1="510" y1="0" x2="510" y2="300" stroke="#eee"/><text x="510" y="320" text-anchor="middle" font-size="10" fill="#666">21:08:50</text></g><path d="M0.00,300.00 L1.45,300.00 L2.91,300.00 L4.36,300.00 L5.81,300.00 L7.26,300.00 L8.72,300.00 L10.17,300.00 L11.62,300.00 L13.08,300.00 L14.53,300.00 L15.98,300.00 L17.44,300.00 L18.89,300.00 L20.34,300.00 L21.79,300.00 L23.25,300.00 L24.70,300.00 L26.15,300.00 L27.61,300.00 L29.06,300.00 L30.51,300.00 L31.97,300.00 L33.42,300.00 L34.87,300.00 L36.32,300.00 L37.78,300.00 L39.23,300.00 L40.68,300.00 L42.14,300.00 L43.59,300.00 L45.04,300.00 L46.50,300.00 L47.95,300.00 L49.40,300.00 L50.85,300.00 L52.31,300.00 L53.76,300.00 L55.21,300.00 L56.67,300.00 L58.12,300.00 L59.57,300.00 L61.03,300.00 L62.48,300.00 L63.93,300.00 L65.38,300.00 L66.84,300.00 L68.29,300.00 L69.74,300.00 L71.20,300.00 L72.65,300.00 L74.10,300.00 L75.56,300.00 L77.01,300.00 L78.46,300.00 L79.91,300.00 L81.37,300.00 L82.82,300.00 L84.27,300.00 L85.73,300.00 L87.18,300.00 L88.63,300.00 L90.09,300.00 L91.54,300.00 L92.99,300.00 L94.44,300.00 L95.90,300.00 L97.35,300.00 L98.80,300.00 L100.26,300.00 L101.71,300.00 L103.16,300.00 L104.62,300.00 L106.07,300.00 L107.52,300.00 L108.97,300.00 L110.43,300.00 L111.88,300.00 L113.33,300.00 L114.79,300.00 L116.24,300.00 L117.69,300.00 L119.15,300.00 L120.60,300.00 L122.05,300.00 L123.50,300.00 L124.96,300.00 L126.41,300.00 L127.86,300.00 L129.32,300.00 L130.77,300.00 L132.22,300.00 L133.68,300.00 L135.13,300.00 L136.58,300.00 L138.03,300.00 L139.49,300.00 L140.94,300.00 L142.39,300.00 L143.85,300.00 L145.30,300.00 L146.75,300.00 L148.21,300.00 L149.66,300.00 L151.11,300.00 L152.56,300.00 L154.02,300.00 L155.47,300.00 L156.92,300.00 L158.38,300.00 L159.83,300.00 L161.28,300.00 L162.74,300.00 L164.19,300.00 L165.64,300.00 L167.09,300.00 L168.55,300.00 L170.00,300.00 L171.45,300.00 L172.91,300.00 L174.36,300.00 L175.81,300.00 L177.26,300.00 L178.72,300.00 L180.17,300.00 L181.62,300.00 L183.08,300.00 L184.53,300.00 L185.98,300.00 L187.44,300.00 L188.89,300.00 L190.34,300.00 L191.79,300.00 L193.25,300.00 L194.70,300.00 L196.15,300.00 L197.61,300.00 L199.06,300.00 L200.51,300.00 L201.97,300.00 L203.42,300.00 L204.87,300.00 L206.32,300.00 L207.78,300.00 L209.23,300.00 L210.68,300.00 L212.14,300.00 L213.59,300.00 L215.04,300.00 L216.50,300.00 L217.95,300.00 L219.40,300.00 L220.85,300.00 L222.31,300.00 L223.76,300.00 L225.21,300.00 L226.67,300.00 L228.12,300.00 L229.57,300.00 L231.03,300.00 L232.48,300.00 L233.93,300.00 L235.38,300.00 L236.84,300.00 L238.29,300.00 L239.74,300.00 L241.20,300.00 L242.65,300.00 L244.10,300.00 L245.56,300.00 L247.01,300.00 L248.46,300.00 L249.91,300.00 L251.37,300.00 L252.82,300.00 L254.27,300.00 L255.73,300.00 L257.18,300.00 L258.63,300.00 L260.09,300.00 L261.54,300.00 L262.99,300.00 L264.44,300.00 L265.90,300.00 L267.35,300.00 L268.80,300.00 L270.26,300.00 L271.71,300.00 L273.16,300.00 L274.62,300.00 L276.07,300.00 L277.52,300.00 L278.97,300.00 L280.43,300.00 L281.88,300.00 L283.33,300.00 L284.79,300.00 L286.24,300.00 L287.69,300.00 L289.15,300.00 L290.60,300.00 L292.05,300.00 L293.50,300.00 L294.96,300.00 L296.41,300.00 L297.86,300.00 L299.32,300.00 L300.77,300.00 L302.22,300.00 L303.68,300.00 L305.13,300.00 L306.58,300.00 L308.03,300.00 L309.49,300.00 L310.94,300.00 L312.39,300.00 L313.85,300.00 L315.30,300.00 L316.75,300.00 L318.21,300.00 L319.66,300.00 L321.11,300.00 L322.56,300.00 L324.02,300.00 L325.47,300.00 L326.92,300.00 L328.38,300.00 L329.83,300.00 L331.28,300.00 L332.74,300.00 L334.19,300.00 L335.64,300.00 L337.09,300.00 L338.55,300.00 L340.00,300.00 L341.45,300.00 L342.91,300.00 L344.36,300.00 L345.81,300.00 L347.26,300.00 L348.72,300.00 L350.17,300.00 L351.62,300.00 L353.08,300.00 L354.53,300.00 L355.98,300.00 L357.44,300.00 L358.89,300.00 L360.34,300.00 L361.79,300.00 L363.25,300.00 L364.70,300.00 L366.15,300.00 L367.61,300.00 L369.06,300.00 L370.51,300.00 L371.97,300.00 L373.42,300.00 L374.87,300.00 L376.32,300.00 L377.78,300.00 L379.23,300.00 L380.68,300.00 L382.14,300.00 L383.59,300.00 L385.04,300.00 L386.50,300.00 L387.95,300.00 L389.40,300.00 L390.85,300.00 L392.31,300.00 L393.76,300.00 L395.21,300.00 L396.67,300.00 L398.12,300.00 L399.57,300.00 L401.03,300.00 L402.48,300.00 L403.93,300.00 L405.38,300.00 L406.84,300.00 L408.29,300.00 L409.74,300.00 L411.20,300.00 L412.65,300.00 L414.10,300.00 L415.56,300.00 L417.01,300.00 L418.46,300.00 L419.91,300.00 L421.37,300.00 L422.82,300.00 L424.27,300.00 L425.73,300.00 L427.18,300.00 L428.63,300.00 L430.09,300.00 L431.54,300.00 L432.99,300.00 L434.44,300.00 L435.90,300.00 L437.35,300.00 L438.80,300.00 L440.26,300.00 L441.71,300.00 L443.16,300.00 L444.62,300.00 L446.07,300.00 L447.52,300.00 L448.97,300.00 L450.43,300.00 L451.88,300.00 L453.33,300.00 L454.79,300.00 L456.24,300.00 L457.69,300.00 L459.15,300.00 L460.60,300.00 L462.05,300.00 L463.50,300.00 L464.96,300.00 L466.41,300.00 L467.86,300.00 L469.32,300.00 L470.77,300.00 L472.22,300.00 L473.68,300.00 L475.13,300.00 L476.58,300.00 L478.03,300.00 L479.49,300.00 L480.94,300.00 L482.39,300.00 L483.85,300.00 L485.30,300.00 L486.75,300.00 L488.21,300.00 L489.66,300.00 L491.11,300.00 L492.56,300.00 L494.02,300.00 L495.47,300.00 L496.92,300.00 L498.38,300.00 L499.83,300.00 L501.28,300.00 L502.74,300.00 L504.19,300.00 L505.64,300.00 L507.09,300.00 L508.55,300.00 L510.00,300.00" stroke="#4e73df" fill="none" stroke-width="2" stroke-linejoin="round"/></g><text x="300" y="20" text-anchor="middle" font-size="16" fill="#333">Memory Usage for postgres</text><text x="10" y="200" text-anchor="middle" transform="rotate(-90,10,200)" font-size="12" fill="#666">Memory (MB)</text><g font-size="12"><circle cx="20" cy="375" r="5" fill="#4e73df"/><text x="30" y="380" fill="#333">value: 0.0 MB at 21:08:50</text></g></svg>