<svg viewBox="0 0 800 450" xmlns="http://www.w3.org/2000/svg" style="font-family: -apple-system, BlinkMacSystemFont, 'Segoe UI', Roboto, sans-serif; width: 100%; height: 100%;" preserveAspectRatio="xMidYMid meet"><rect width="100%" height="100%" fill="#ffffff"/><g transform="translate(75,45)"><rect width="685" height="325" fill="#ffffff" stroke="#e2e8f0" stroke-width="1"/><line x1="0" y1="325.00" x2="685" y2="325.00" stroke="#e2e8f0" stroke-width="1" opacity="0.5"/><text x="-10" y="329.00" text-anchor="end" font-size="11" fill="#4a5568">26.3</text><line x1="0" y1="260.00" x2="685" y2="260.00" stroke="#e2e8f0" stroke-width="1" opacity="0.5"/><text x="-10" y="264.00" text-anchor="end" font-size="11" fill="#4a5568">26.3</text><line x1="0" y1="195.00" x2="685" y2="195.00" stroke="#e2e8f0" stroke-width="1" opacity="0.5"/><text x="-10" y="199.00" text-anchor="end" font-size="11" fill="#4a5568">26.3</text><line x1="0" y1="130.00" x2="685" y2="130.00" stroke="#e2e8f0" stroke-width="1" opacity="0.5"/><text x="-10" y="134.00" text-anchor="end" font-size="11" fill="#4a5568">26.4</text><line x1="0" y1="65.00" x2="685" y2="65.00" stroke="#e2e8f0" stroke-width="1" opacity="0.5"/><text x="-10" y="69.00" text-anchor="end" font-size="11" fill="#4a5568">26.4</text><line x1="0" y1="0.00" x2="685" y2="0.00" stroke="#e2e8f0" stroke-width="1" opacity="0.5"/><text x="-10" y="4.00" text-anchor="end" font-size="11" fill="#4a5568">26.4</text><line x1="0.00" y1="0" x2="0.00" y2="325" stroke="#e2e8f0" stroke-width="1" opacity="0.5"/><text x="0.00" y="345" text-anchor="middle" font-size="11" fill="#4a5568">14:33:45</text><line x1="114.17" y1="0" x2="114.17" y2="325" stroke="#e2e8f0" stroke-width="1" opacity="0.5"/><text x="114.17" y="345" text-anchor="middle" font-size="11" fill="#4a5568">14:43:34</text><line x1="228.33" y1="0" x2="228.33" y2="325" stroke="#e2e8f0" stroke-width="1" opacity="0.5"/><text x="228.33" y="345" text-anchor="middle" font-size="11" fill="#4a5568">14:53:23</text><line x1="342.50" y1="0" x2="342.50" y2="325" stroke="#e2e8f0" stroke-width="1" opacity="0.5"/><text x="342.50" y="345" text-anchor="middle" font-size="11" fill="#4a5568">15:03:12</text><line x1="456.67" y1="0" x2="456.67" y2="325" stroke="#e2e8f0" stroke-width="1" opacity="0.5"/><text x="456.67" y="345" text-anchor="middle" font-size="11" fill="#4a5568">15:13:01</text><line x1="570.83" y1="0" x2="570.83" y2="325" stroke="#e2e8f0" stroke-width="1" opacity="0.5"/><text x="570.83" y="345" text-anchor="middle" font-size="11" fill="#4a5568">15:22:50</text><line x1="685.00" y1="0" x2="685.00" y2="325" stroke="#e2e8f0" stroke-width="1" opacity="0.5"/><text x="685.00" y="345" text-anchor="middle" font-size="11" fill="#4a5568">15:32:40</text><defs><linearGradient id="g0-1" x1="0%" y1="0%" x2="0%" y2="100%"><stop offset="0%" style="stop-color:#3b82f6;stop-opacity:0.3"/><stop offset="100%" style="stop-color:#3b82f6;stop-opacity:0.05"/></linearGradient></defs><path d="M332.33,325 L332.33,27.08 L339.11,27.08 L345.89,27.08 L352.67,27.08 L359.46,27.08 L366.24,27.08 L373.02,27.08 L379.80,27.08 L386.58,27.08 L393.37,27.08 L400.15,27.08 L406.93,27.08 L413.71,27.08 L420.50,27.08 L427.28,27.08 L434.06,27.08 L440.84,27.08 L447.62,27.08 L454.41,27.08 L461.19,27.08 L467.97,27.08 L474.75,27.08 L481.53,27.08 L488.32,27.08 L495.10,27.08 L501.88,27.08 L508.66,27.08 L515.45,27.08 L522.23,27.08 L529.01,27.08 L535.79,27.08 L542.57,27.08 L549.36,27.08 L556.14,143.15 L562.92,297.92 L569.70,297.92 L576.49,297.92 L583.27,297.92 L590.05,297.92 L596.83,297.92 L603.61,297.92 L610.40,297.92 L617.18,297.92 L623.96,297.92 L630.74,297.92 L637.52,297.92 L644.31,297.92 L651.09,297.92 L657.87,297.92 L664.65,297.92 L671.44,297.92 L678.22,297.92 L685.00,297.92 L685.00,325 Z" fill="url(#g0-1)"/><path d="M332.33,27.08 L339.11,27.08 L345.89,27.08 L352.67,27.08 L359.46,27.08 L366.24,27.08 L373.02,27.08 L379.80,27.08 L386.58,27.08 L393.37,27.08 L400.15,27.08 L406.93,27.08 L413.71,27.08 L420.50,27.08 L427.28,27.08 L434.06,27.08 L440.84,27.08 L447.62,27.08 L454.41,27.08 L461.19,27.08 L467.97,27.08 L474.75,27.08 L481.53,27.08 L488.32,27.08 L495.10,27.08 L501.88,27.08 L508.66,27.08 L515.45,27.08 L522.23,27.08 L529.01,27.08 L535.79,27.08 L542.57,27.08 L549.36,27.08 L556.14,143.15 L562.92,297.92 L569.70,297.92 L576.49,297.92 L583.27,297.92 L590.05,297.92 L596.83,297.92 L603.61,297.92 L610.40,297.92 L617.18,297.92 L623.96,297.92 L630.74,297.92 L637.52,297.92 L644.31,297.92 L651.09,297.92 L657.87,297.92 L664.65,297.92 L671.44,297.92 L678.22,297.92 L685.00,297.92" stroke="#3b82f6" fill="none" stroke-width="2" stroke-linejoin="round" stroke-linecap="round"/><circle id="p-value-0" cx="0.00" cy="297.92" r="4" fill="#3b82f6" opacity="0" style="cursor: pointer;" onmouseover="showTooltip(evt, 'value', '26.3', '14:33:45', 0.00, 297.92)" onmouseout="hideTooltip()"/><circle id="p-value-1" cx="332.33" cy="27.08" r="4" fill="#3b82f6" opacity="0" style="cursor: pointer;" onmouseover="showTooltip(evt, 'value', '26.4', '15:02:20', 332.33, 27.08)" onmouseout="hideTooltip()"/><circle id="p-value-2" cx="339.11" cy="27.08" r="4" fill="#3b82f6" opacity="0" style="cursor: pointer;" onmouseover="showTooltip(evt, 'value', '26.4', '15:02:55', 339.11, 27.08)" onmouseout="hideTooltip()"/><circle id="p-value-3" cx="345.89" cy="27.08" r="4" fill="#3b82f6" opacity="0" style="cursor: pointer;" onmouseover="showTooltip(evt, 'value', '26.4', '15:03:30', 345.89, 27.08)" onmouseout="hideTooltip()"/><circle id="p-value-4" cx="352.67" cy="27.08" r="4" fill="#3b82f6" opacity="0" style="cursor: pointer;" onmouseover="showTooltip(evt, 'value', '26.4', '15:04:05', 352.67, 27.08)" onmouseout="hideTooltip()"/><circle id="p-value-5" cx="359.46" cy="27.08" r="4" fill="#3b82f6" opacity="0" style="cursor: pointer;" onmouseover="showTooltip(evt, 'value', '26.4', '15:04:40', 359.46, 27.08)" onmouseout="hideTooltip()"/><circle id="p-value-6" cx="366.24" cy="27.08" r="4" fill="#3b82f6" opacity="0" style="cursor: pointer;" onmouseover="showTooltip(evt, 'value', '26.4', '15:05:15', 366.24, 27.08)" onmouseout="hideTooltip()"/><circle id="p-value-7" cx="373.02" cy="27.08" r="4" fill="#3b82f6" opacity="0" style="cursor: pointer;" onmouseover="showTooltip(evt, 'value', '26.4', '15:05:50', 373.02, 27.08)" onmouseout="hideTooltip()"/><circle id="p-value-8" cx="379.80" cy="27.08" r="4" fill="#3b82f6" opacity="0" style="cursor: pointer;" onmouseover="showTooltip(evt, 'value', '26.4', '15:06:25', 379.80, 27.08)" onmouseout="hideTooltip()"/><circle id="p-value-9" cx="386.58" cy="27.08" r="4" fill="#3b82f6" opacity="0" style="cursor: pointer;" onmouseover="showTooltip(evt, 'value', '26.4', '15:07:00', 386.58, 27.08)" onmouseout="hideTooltip()"/><circle id="p-value-10" cx="393.37" cy="27.08" r="4" fill="#3b82f6" opacity="0" style="cursor: pointer;" onmouseover="showTooltip(evt, 'value', '26.4', '15:07:35', 393.37, 27.08)" onmouseout="hideTooltip()"/><circle id="p-value-11" cx="400.15" cy="27.08" r="4" fill="#3b82f6" opacity="0" style="cursor: pointer;" onmouseover="showTooltip(evt, 'value', '26.4', '15:08:10', 400.15, 27.08)" onmouseout="hideTooltip()"/><circle id="p-value-12" cx="406.93" cy="27.08" r="4" fill="#3b82f6" opacity="0" style="cursor: pointer;" onmouseover="showTooltip(evt, 'value', '26.4', '15:08:45', 406.93, 27.08)" onmouseout="hideTooltip()"/><circle id="p-value-13" cx="413.71" cy="27.08" r="4" fill="#3b82f6" opacity="0" style="cursor: pointer;" onmouseover="showTooltip(evt, 'value', '26.4', '15:09:20', 413.71, 27.08)" onmouseout="hideTooltip()"/><circle id="p-value-14" cx="420.50" cy="27.08" r="4" fill="#3b82f6" opacity="0" style="cursor: pointer;" onmouseover="showTooltip(evt, 'value', '26.4', '15:09:55', 420.50, 27.08)" onmouseout="hideTooltip()"/><circle id="p-value-15" cx="427.28" cy="27.08" r="4" fill="#3b82f6" opacity="0" style="cursor: pointer;" onmouseover="showTooltip(evt, 'value', '26.4', '15:10:30', 427.28, 27.08)" onmouseout="hideTooltip()"/><circle id="p-value-16" cx="434.06" cy="27.08" r="4" fill="#3b82f6" opacity="0" style="cursor: pointer;" onmouseover="showTooltip(evt, 'value', '26.4', '15:11:05', 434.06, 27.08)" onmouseout="hideTooltip()"/><circle id="p-value-17" cx="440.84" cy="27.08" r="4" fill="#3b82f6" opacity="0" style="cursor: pointer;" onmouseover="showTooltip(evt, 'value', '26.4', '15:11:40', 440.84, 27.08)" onmouseout="hideTooltip()"/><circle id="p-value-18" cx="447.62" cy="27.08" r="4" fill="#3b82f6" opacity="0" style="cursor: pointer;" onmouseover="showTooltip(evt, 'value', '26.4', '15:12:15', 447.62, 27.08)" onmouseout="hideTooltip()"/><circle id="p-value-19" cx="454.41" cy="27.08" r="4" fill="#3b82f6" opacity="0" style="cursor: pointer;" onmouseover="showTooltip(evt, 'value', '26.4', '15:12:50', 454.41, 27.08)" onmouseout="hideTooltip()"/><circle id="p-value-20" cx="461.19" cy="27.08" r="4" fill="#3b82f6" opacity="0" style="cursor: pointer;" onmouseover="showTooltip(evt, 'value', '26.4', '15:13:25', 461.19, 27.08)" onmouseout="hideTooltip()"/><circle id="p-value-21" cx="467.97" cy="27.08" r="4" fill="#3b82f6" opacity="0" style="cursor: pointer;" onmouseover="showTooltip(evt, 'value', '26.4', '15:14:00', 467.97, 27.08)" onmouseout="hideTooltip()"/><circle id="p-value-22" cx="474.75" cy="27.08" r="4" fill="#3b82f6" opacity="0" style="cursor: pointer;" onmouseover="showTooltip(evt, 'value', '26.4', '15:14:35', 474.75, 27.08)" onmouseout="hideTooltip()"/><circle id="p-value-23" cx="481.53" cy="27.08" r="4" fill="#3b82f6" opacity="0" style="cursor: pointer;" onmouseover="showTooltip(evt, 'value', '26.4', '15:15:10', 481.53, 27.08)" onmouseout="hideTooltip()"/><circle id="p-value-24" cx="488.32" cy="27.08" r="4" fill="#3b82f6" opacity="0" style="cursor: pointer;" onmouseover="showTooltip(evt, 'value', '26.4', '15:15:45', 488.32, 27.08)" onmouseout="hideTooltip()"/><circle id="p-value-25" cx="495.10" cy="27.08" r="4" fill="#3b82f6" opacity="0" style="cursor: pointer;" onmouseover="showTooltip(evt, 'value', '26.4', '15:16:20', 495.10, 27.08)" onmouseout="hideTooltip()"/><circle id="p-value-26" cx="501.88" cy="27.08" r="4" fill="#3b82f6" opacity="0" style="cursor: pointer;" onmouseover="showTooltip(evt, 'value', '26.4', '15:16:55', 501.88, 27.08)" onmouseout="hideTooltip()"/><circle id="p-value-27" cx="508.66" cy="27.08" r="4" fill="#3b82f6" opacity="0" style="cursor: pointer;" onmouseover="showTooltip(evt, 'value', '26.4', '15:17:30', 508.66, 27.08)" onmouseout="hideTooltip()"/><circle id="p-value-28" cx="515.45" cy="27.08" r="4" fill="#3b82f6" opacity="0" style="cursor: pointer;" onmouseover="showTooltip(evt, 'value', '26.4', '15:18:05', 515.45, 27.08)" onmouseout="hideTooltip()"/><circle id="p-value-29" cx="522.23" cy="27.08" r="4" fill="#3b82f6" opacity="0" style="cursor: pointer;" onmouseover="showTooltip(evt, 'value', '26.4', '15:18:40', 522.23, 27.08)" onmouseout="hideTooltip()"/><circle id="p-value-30" cx="529.01" cy="27.08" r="4" fill="#3b82f6" opacity="0" style="cursor: pointer;" onmouseover="showTooltip(evt, 'value', '26.4', '15:19:15', 529.01, 27.08)" onmouseout="hideTooltip()"/><circle id="p-value-31" cx="535.79" cy="27.08" r="4" fill="#3b82f6" opacity="0" style="cursor: pointer;" onmouseover="showTooltip(evt, 'value', '26.4', '15:19:50', 535.79, 27.08)" onmouseout="hideTooltip()"/><circle id="p-value-32" cx="542.57" cy="27.08" r="4" fill="#3b82f6" opacity="0" style="cursor: pointer;" onmouseover="showTooltip(evt, 'value', '26.4', '15:20:25', 542.57, 27.08)" onmouseout="hideTooltip()"/><circle id="p-value-33" cx="549.36" cy="27.08" r="4" fill="#3b82f6" opacity="0" style="cursor: pointer;" onmouseover="showTooltip(evt, 'value', '26.4', '15:21:00', 549.36, 27.08)" onmouseout="hideTooltip()"/><circle id="p-value-34" cx="556.14" cy="143.15" r="4" fill="#3b82f6" opacity="0" style="cursor: pointer;" onmouseover="showTooltip(evt, 'value', '26.4', '15:21:35', 556.14, 143.15)" onmouseout="hideTooltip()"/><circle id="p-value-35" cx="562.92" cy="297.92" r="4" fill="#3b82f6" opacity="0" style="cursor: pointer;" onmouseover="showTooltip(evt, 'value', '26.3', '15:22:10', 562.92, 297.92)" onmouseout="hideTooltip()"/><circle id="p-value-36" cx="569.70" cy="297.92" r="4" fill="#3b82f6" opacity="0" style="cursor: pointer;" onmouseover="showTooltip(evt, 'value', '26.3', '15:22:45', 569.70, 297.92)" onmouseout="hideTooltip()"/><circle id="p-value-37" cx="576.49" cy="297.92" r="4" fill="#3b82f6" opacity="0" style="cursor: pointer;" onmouseover="showTooltip(evt, 'value', '26.3', '15:23:20', 576.49, 297.92)" onmouseout="hideTooltip()"/><circle id="p-value-38" cx="583.27" cy="297.92" r="4" fill="#3b82f6" opacity="0" style="cursor: pointer;" onmouseover="showTooltip(evt, 'value', '26.3', '15:23:55', 583.27, 297.92)" onmouseout="hideTooltip()"/><circle id="p-value-39" cx="590.05" cy="297.92" r="4" fill="#3b82f6" opacity="0" style="cursor: pointer;" onmouseover="showTooltip(evt, 'value', '26.3', '15:24:30', 590.05, 297.92)" onmouseout="hideTooltip()"/><circle id="p-value-40" cx="596.83" cy="297.92" r="4" fill="#3b82f6" opacity="0" style="cursor: pointer;" onmouseover="showTooltip(evt, 'value', '26.3', '15:25:05', 596.83, 297.92)" onmouseout="hideTooltip()"/><circle id="p-value-41" cx="603.61" cy="297.92" r="4" fill="#3b82f6" opacity="0" style="cursor: pointer;" onmouseover="showTooltip(evt, 'value', '26.3', '15:25:40', 603.61, 297.92)" onmouseout="hideTooltip()"/><circle id="p-value-42" cx="610.40" cy="297.92" r="4" fill="#3b82f6" opacity="0" style="cursor: pointer;" onmouseover="showTooltip(evt, 'value', '26.3', '15:26:15', 610.40, 297.92)" onmouseout="hideTooltip()"/><circle id="p-value-43" cx="617.18" cy="297.92" r="4" fill="#3b82f6" opacity="0" style="cursor: pointer;" onmouseover="showTooltip(evt, 'value', '26.3', '15:26:50', 617.18, 297.92)" onmouseout="hideTooltip()"/><circle id="p-value-44" cx="623.96" cy="297.92" r="4" fill="#3b82f6" opacity="0" style="cursor: pointer;" onmouseover="showTooltip(evt, 'value', '26.3', '15:27:25', 623.96, 297.92)" onmouseout="hideTooltip()"/><circle id="p-value-45" cx="630.74" cy="297.92" r="4" fill="#3b82f6" opacity="0" style="cursor: pointer;" onmouseover="showTooltip(evt, 'value', '26.3', '15:28:00', 630.74, 297.92)" onmouseout="hideTooltip()"/><circle id="p-value-46" cx="637.52" cy="297.92" r="4" fill="#3b82f6" opacity="0" style="cursor: pointer;" onmouseover="showTooltip(evt, 'value', '26.3', '15:28:35', 637.52, 297.92)" onmouseout="hideTooltip()"/><circle id="p-value-47" cx="644.31" cy="297.92" r="4" fill="#3b82f6" opacity="0" style="cursor: pointer;" onmouseover="showTooltip(evt, 'value', '26.3', '15:29:10', 644.31, 297.92)" onmouseout="hideTooltip()"/><circle id="p-value-48" cx="651.09" cy="297.92" r="4" fill="#3b82f6" opacity="0" style="cursor: pointer;" onmouseover="showTooltip(evt, 'value', '26.3', '15:29:45', 651.09, 297.92)" onmouseout="hideTooltip()"/><circle id="p-value-49" cx="657.87" cy="297.92" r="4" fill="#3b82f6" opacity="0" style="cursor: pointer;" onmouseover="showTooltip(evt, 'value', '26.3', '15:30:20', 657.87, 297.92)" onmouseout="hideTooltip()"/><circle id="p-value-50" cx="664.65" cy="297.92" r="4" fill="#3b82f6" opacity="0" style="cursor: pointer;" onmouseover="showTooltip(evt, 'value', '26.3', '15:30:55', 664.65, 297.92)" onmouseout="hideTooltip()"/><circle id="p-value-51" cx="671.44" cy="297.92" r="4" fill="#3b82f6" opacity="0" style="cursor: pointer;" onmouseover="showTooltip(evt, 'value', '26.3', '15:31:30', 671.44, 297.92)" onmouseout="hideTooltip()"/><circle id="p-value-52" cx="678.22" cy="297.92" r="4" fill="#3b82f6" opacity="0" style="cursor: pointer;" onmouseover="showTooltip(evt, 'value', '26.3', '15:32:05', 678.22, 297.92)" onmouseout="hideTooltip()"/><circle id="p-value-53" cx="685.00" cy="297.92" r="4" fill="#3b82f6" opacity="0" style="cursor: pointer;" onmouseover="showTooltip(evt, 'value', '26.3', '15:32:40', 685.00, 297.92)" onmouseout="hideTooltip()"/></g><text x="400" y="25" text-anchor="middle" font-size="16" font-weight="600" fill="#1a202c">Memory Usage</text><text x="20" y="225" text-anchor="middle" transform="rotate(-90,20,225)" font-size="12" font-weight="500" fill="#4a5568">Memory (MB)</text><g font-size="11"><rect x="75" y="403" width="180" height="18" fill="#e2e8f0" opacity="0.3" rx="3"/><rect x="80" y="408" width="10" height="10" fill="#3b82f6" rx="2"/><text x="95" y="417" fill="#1a202c" font-weight="500">value:</text><text x="165" y="417" fill="#3b82f6" font-weight="600">26.3</text></g><g id="tooltip" visibility="hidden"><rect x="0" y="0" width="160" height="50" fill="#ffffff" opacity="0.98" rx="6" stroke="#e2e8f0" stroke-width="1" style="filter: drop-shadow(0px 2px 4px rgba(0,0,0,0.1))"/><text x="8" y="18" font-size="11" fill="#4a5568" id="tooltip-series"></text><text x="8" y="35" font-size="12" font-weight="600" fill="#1a202c" id="tooltip-value"></text></g></svg>