<svg width="600" height="400" xmlns="http://www.w3.org/2000/svg" style="font-family: Arial, sans-serif;"><rect width="600" height="400" fill="#ffffff"/><g transform="translate(60,30)"><rect width="510" height="300" fill="#f8f9fc" stroke="#ddd"/><g stroke-width="1"><line x1="0" y1="300" x2="510" y2="300" stroke="#eee" /><text x="-5" y="304" text-anchor="end" font-size="10" fill="#666">68.6 MB</text><line x1="0" y1="240" x2="510" y2="240" stroke="#eee" /><text x="-5" y="244" text-anchor="end" font-size="10" fill="#666">68.8 MB</text><line x1="0" y1="180" x2="510" y2="180" stroke="#eee" /><text x="-5" y="184" text-anchor="end" font-size="10" fill="#666">69.0 MB</text><line x1="0" y1="120" x2="510" y2="120" stroke="#eee" /><text x="-5" y="124" text-anchor="end" font-size="10" fill="#666">69.2 MB</text><line x1="0" y1="59.999999999999986" x2="510" y2="59.999999999999986" stroke="#eee" /><text x="-5" y="63.999999999999986" text-anchor="end" font-size="10" fill="#666">69.4 MB</text><line x1="0" y1="0" x2="510" y2="0" stroke="#eee" /><text x="-5" y="4" text-anchor="end" font-size="10" fill="#666">69.6 MB</text></g><g stroke-width="1"><line x1="0" y1="0" x2="0" y2="300" stroke="#eee"/><text x="0" y="320" text-anchor="middle" font-size="10" fill="#666">23:56:50</text><line x1="102" y1="0" x2="102" y2="300" stroke="#eee"/><text x="102" y="320" text-anchor="middle" font-size="10" fill="#666">00:08:16</text><line x1="204" y1="0" x2="204" y2="300" stroke="#eee"/><text x="204" y="320" text-anchor="middle" font-size="10" fill="#666">00:19:42</text><line x1="306" y1="0" x2="306" y2="300" stroke="#eee"/><text x="306" y="320" text-anchor="middle" font-size="10" fill="#666">00:31:08</text><line x1="408" y1="0" x2="408" y2="300" stroke="#eee"/><text x="408" y="320" text-anchor="middle" font-size="10" fill="#666">00:42:34</text><line x1="510" y1="0" x2="510" y2="300" stroke="#eee"/><text x="510" y="320" text-anchor="middle" font-size="10" fill="#666">00:54:00</text></g><path d="M0.00,300.00 L10.41,300.00 L20.82,300.00 L31.22,300.00 L41.63,300.00 L52.04,300.00 L62.45,300.00 L72.86,300.00 L83.27,300.00 L93.67,300.00 L104.08,300.00 L114.49,300.00 L124.90,300.00 L135.31,300.00 L145.71,300.00 L156.12,300.00 L166.53,300.00 L176.94,300.00 L187.35,300.00 L197.76,300.00 L208.16,300.00 L218.57,300.00 L228.98,300.00 L239.39,300.00 L249.80,300.00 L260.20,300.00 L270.61,300.00 L281.02,300.00 L291.43,300.00 L301.84,300.00 L312.24,300.00 L322.65,300.00 L333.06,300.00 L343.47,300.00 L353.88,300.00 L364.29,300.00 L374.69,300.00 L385.10,300.00 L395.51,300.00 L405.92,300.00 L416.33,300.00 L426.73,300.00 L437.14,300.00 L447.55,300.00 L457.96,300.00 L468.37,300.00 L478.78,300.00 L489.18,300.00 L499.59,300.00 L510.00,300.00" stroke="#4e73df" fill="none" stroke-width="2" stroke-linejoin="round"/><circle id="point-value-0" cx="0.00" cy="300.00" r="5" fill="#4e73df" opacity="0" onmouseover="showTooltip(evt, 'value', '68.6 MB', '23:56:50', 0.00, 300.00)" onmouseout="hideTooltip()"/><circle id="point-value-1" cx="10.41" cy="300.00" r="5" fill="#4e73df" opacity="0" onmouseover="showTooltip(evt, 'value', '68.6 MB', '23:58:00', 10.41, 300.00)" onmouseout="hideTooltip()"/><circle id="point-value-2" cx="20.82" cy="300.00" r="5" fill="#4e73df" opacity="0" onmouseover="showTooltip(evt, 'value', '68.6 MB', '23:59:10', 20.82, 300.00)" onmouseout="hideTooltip()"/><circle id="point-value-3" cx="31.22" cy="300.00" r="5" fill="#4e73df" opacity="0" onmouseover="showTooltip(evt, 'value', '68.6 MB', '00:00:20', 31.22, 300.00)" onmouseout="hideTooltip()"/><circle id="point-value-4" cx="41.63" cy="300.00" r="5" fill="#4e73df" opacity="0" onmouseover="showTooltip(evt, 'value', '68.6 MB', '00:01:30', 41.63, 300.00)" onmouseout="hideTooltip()"/><circle id="point-value-5" cx="52.04" cy="300.00" r="5" fill="#4e73df" opacity="0" onmouseover="showTooltip(evt, 'value', '68.6 MB', '00:02:40', 52.04, 300.00)" onmouseout="hideTooltip()"/><circle id="point-value-6" cx="62.45" cy="300.00" r="5" fill="#4e73df" opacity="0" onmouseover="showTooltip(evt, 'value', '68.6 MB', '00:03:50', 62.45, 300.00)" onmouseout="hideTooltip()"/><circle id="point-value-7" cx="72.86" cy="300.00" r="5" fill="#4e73df" opacity="0" onmouseover="showTooltip(evt, 'value', '68.6 MB', '00:05:00', 72.86, 300.00)" onmouseout="hideTooltip()"/><circle id="point-value-8" cx="83.27" cy="300.00" r="5" fill="#4e73df" opacity="0" onmouseover="showTooltip(evt, 'value', '68.6 MB', '00:06:10', 83.27, 300.00)" onmouseout="hideTooltip()"/><circle id="point-value-9" cx="93.67" cy="300.00" r="5" fill="#4e73df" opacity="0" onmouseover="showTooltip(evt, 'value', '68.6 MB', '00:07:20', 93.67, 300.00)" onmouseout="hideTooltip()"/><circle id="point-value-10" cx="104.08" cy="300.00" r="5" fill="#4e73df" opacity="0" onmouseover="showTooltip(evt, 'value', '68.6 MB', '00:08:30', 104.08, 300.00)" onmouseout="hideTooltip()"/><circle id="point-value-11" cx="114.49" cy="300.00" r="5" fill="#4e73df" opacity="0" onmouseover="showTooltip(evt, 'value', '68.6 MB', '00:09:40', 114.49, 300.00)" onmouseout="hideTooltip()"/><circle id="point-value-12" cx="124.90" cy="300.00" r="5" fill="#4e73df" opacity="0" onmouseover="showTooltip(evt, 'value', '68.6 MB', '00:10:50', 124.90, 300.00)" onmouseout="hideTooltip()"/><circle id="point-value-13" cx="135.31" cy="300.00" r="5" fill="#4e73df" opacity="0" onmouseover="showTooltip(evt, 'value', '68.6 MB', '00:12:00', 135.31, 300.00)" onmouseout="hideTooltip()"/><circle id="point-value-14" cx="145.71" cy="300.00" r="5" fill="#4e73df" opacity="0" onmouseover="showTooltip(evt, 'value', '68.6 MB', '00:13:10', 145.71, 300.00)" onmouseout="hideTooltip()"/><circle id="point-value-15" cx="156.12" cy="300.00" r="5" fill="#4e73df" opacity="0" onmouseover="showTooltip(evt, 'value', '68.6 MB', '00:14:20', 156.12, 300.00)" onmouseout="hideTooltip()"/><circle id="point-value-16" cx="166.53" cy="300.00" r="5" fill="#4e73df" opacity="0" onmouseover="showTooltip(evt, 'value', '68.6 MB', '00:15:30', 166.53, 300.00)" onmouseout="hideTooltip()"/><circle id="point-value-17" cx="176.94" cy="300.00" r="5" fill="#4e73df" opacity="0" onmouseover="showTooltip(evt, 'value', '68.6 MB', '00:16:40', 176.94, 300.00)" onmouseout="hideTooltip()"/><circle id="point-value-18" cx="187.35" cy="300.00" r="5" fill="#4e73df" opacity="0" onmouseover="showTooltip(evt, 'value', '68.6 MB', '00:17:50', 187.35, 300.00)" onmouseout="hideTooltip()"/><circle id="point-value-19" cx="197.76" cy="300.00" r="5" fill="#4e73df" opacity="0" onmouseover="showTooltip(evt, 'value', '68.6 MB', '00:19:00', 197.76, 300.00)" onmouseout="hideTooltip()"/><circle id="point-value-20" cx="208.16" cy="300.00" r="5" fill="#4e73df" opacity="0" onmouseover="showTooltip(evt, 'value', '68.6 MB', '00:20:10', 208.16, 300.00)" onmouseout="hideTooltip()"/><circle id="point-value-21" cx="218.57" cy="300.00" r="5" fill="#4e73df" opacity="0" onmouseover="showTooltip(evt, 'value', '68.6 MB', '00:21:20', 218.57, 300.00)" onmouseout="hideTooltip()"/><circle id="point-value-22" cx="228.98" cy="300.00" r="5" fill="#4e73df" opacity="0" onmouseover="showTooltip(evt, 'value', '68.6 MB', '00:22:30', 228.98, 300.00)" onmouseout="hideTooltip()"/><circle id="point-value-23" cx="239.39" cy="300.00" r="5" fill="#4e73df" opacity="0" onmouseover="showTooltip(evt, 'value', '68.6 MB', '00:23:40', 239.39, 300.00)" onmouseout="hideTooltip()"/><circle id="point-value-24" cx="249.80" cy="300.00" r="5" fill="#4e73df" opacity="0" onmouseover="showTooltip(evt, 'value', '68.6 MB', '00:24:50', 249.80, 300.00)" onmouseout="hideTooltip()"/><circle id="point-value-25" cx="260.20" cy="300.00" r="5" fill="#4e73df" opacity="0" onmouseover="showTooltip(evt, 'value', '68.6 MB', '00:26:00', 260.20, 300.00)" onmouseout="hideTooltip()"/><circle id="point-value-26" cx="270.61" cy="300.00" r="5" fill="#4e73df" opacity="0" onmouseover="showTooltip(evt, 'value', '68.6 MB', '00:27:10', 270.61, 300.00)" onmouseout="hideTooltip()"/><circle id="point-value-27" cx="281.02" cy="300.00" r="5" fill="#4e73df" opacity="0" onmouseover="showTooltip(evt, 'value', '68.6 MB', '00:28:20', 281.02, 300.00)" onmouseout="hideTooltip()"/><circle id="point-value-28" cx="291.43" cy="300.00" r="5" fill="#4e73df" opacity="0" onmouseover="showTooltip(evt, 'value', '68.6 MB', '00:29:30', 291.43, 300.00)" onmouseout="hideTooltip()"/><circle id="point-value-29" cx="301.84" cy="300.00" r="5" fill="#4e73df" opacity="0" onmouseover="showTooltip(evt, 'value', '68.6 MB', '00:30:40', 301.84, 300.00)" onmouseout="hideTooltip()"/><circle id="point-value-30" cx="312.24" cy="300.00" r="5" fill="#4e73df" opacity="0" onmouseover="showTooltip(evt, 'value', '68.6 MB', '00:31:50', 312.24, 300.00)" onmouseout="hideTooltip()"/><circle id="point-value-31" cx="322.65" cy="300.00" r="5" fill="#4e73df" opacity="0" onmouseover="showTooltip(evt, 'value', '68.6 MB', '00:33:00', 322.65, 300.00)" onmouseout="hideTooltip()"/><circle id="point-value-32" cx="333.06" cy="300.00" r="5" fill="#4e73df" opacity="0" onmouseover="showTooltip(evt, 'value', '68.6 MB', '00:34:10', 333.06, 300.00)" onmouseout="hideTooltip()"/><circle id="point-value-33" cx="343.47" cy="300.00" r="5" fill="#4e73df" opacity="0" onmouseover="showTooltip(evt, 'value', '68.6 MB', '00:35:20', 343.47, 300.00)" onmouseout="hideTooltip()"/><circle id="point-value-34" cx="353.88" cy="300.00" r="5" fill="#4e73df" opacity="0" onmouseover="showTooltip(evt, 'value', '68.6 MB', '00:36:30', 353.88, 300.00)" onmouseout="hideTooltip()"/><circle id="point-value-35" cx="364.29" cy="300.00" r="5" fill="#4e73df" opacity="0" onmouseover="showTooltip(evt, 'value', '68.6 MB', '00:37:40', 364.29, 300.00)" onmouseout="hideTooltip()"/><circle id="point-value-36" cx="374.69" cy="300.00" r="5" fill="#4e73df" opacity="0" onmouseover="showTooltip(evt, 'value', '68.6 MB', '00:38:50', 374.69, 300.00)" onmouseout="hideTooltip()"/><circle id="point-value-37" cx="385.10" cy="300.00" r="5" fill="#4e73df" opacity="0" onmouseover="showTooltip(evt, 'value', '68.6 MB', '00:40:00', 385.10, 300.00)" onmouseout="hideTooltip()"/><circle id="point-value-38" cx="395.51" cy="300.00" r="5" fill="#4e73df" opacity="0" onmouseover="showTooltip(evt, 'value', '68.6 MB', '00:41:10', 395.51, 300.00)" onmouseout="hideTooltip()"/><circle id="point-value-39" cx="405.92" cy="300.00" r="5" fill="#4e73df" opacity="0" onmouseover="showTooltip(evt, 'value', '68.6 MB', '00:42:20', 405.92, 300.00)" onmouseout="hideTooltip()"/><circle id="point-value-40" cx="416.33" cy="300.00" r="5" fill="#4e73df" opacity="0" onmouseover="showTooltip(evt, 'value', '68.6 MB', '00:43:30', 416.33, 300.00)" onmouseout="hideTooltip()"/><circle id="point-value-41" cx="426.73" cy="300.00" r="5" fill="#4e73df" opacity="0" onmouseover="showTooltip(evt, 'value', '68.6 MB', '00:44:40', 426.73, 300.00)" onmouseout="hideTooltip()"/><circle id="point-value-42" cx="437.14" cy="300.00" r="5" fill="#4e73df" opacity="0" onmouseover="showTooltip(evt, 'value', '68.6 MB', '00:45:50', 437.14, 300.00)" onmouseout="hideTooltip()"/><circle id="point-value-43" cx="447.55" cy="300.00" r="5" fill="#4e73df" opacity="0" onmouseover="showTooltip(evt, 'value', '68.6 MB', '00:47:00', 447.55, 300.00)" onmouseout="hideTooltip()"/><circle id="point-value-44" cx="457.96" cy="300.00" r="5" fill="#4e73df" opacity="0" onmouseover="showTooltip(evt, 'value', '68.6 MB', '00:48:10', 457.96, 300.00)" onmouseout="hideTooltip()"/><circle id="point-value-45" cx="468.37" cy="300.00" r="5" fill="#4e73df" opacity="0" onmouseover="showTooltip(evt, 'value', '68.6 MB', '00:49:20', 468.37, 300.00)" onmouseout="hideTooltip()"/><circle id="point-value-46" cx="478.78" cy="300.00" r="5" fill="#4e73df" opacity="0" onmouseover="showTooltip(evt, 'value', '68.6 MB', '00:50:30', 478.78, 300.00)" onmouseout="hideTooltip()"/><circle id="point-value-47" cx="489.18" cy="300.00" r="5" fill="#4e73df" opacity="0" onmouseover="showTooltip(evt, 'value', '68.6 MB', '00:51:40', 489.18, 300.00)" onmouseout="hideTooltip()"/><circle id="point-value-48" cx="499.59" cy="300.00" r="5" fill="#4e73df" opacity="0" onmouseover="showTooltip(evt, 'value', '68.6 MB', '00:52:50', 499.59, 300.00)" onmouseout="hideTooltip()"/><circle id="point-value-49" cx="510.00" cy="300.00" r="5" fill="#4e73df" opacity="0" onmouseover="showTooltip(evt, 'value', '68.6 MB', '00:54:00', 510.00, 300.00)" onmouseout="hideTooltip()"/></g><g id="tooltip" visibility="hidden"><rect x="0" y="0" width="150" height="40" fill="#333" opacity="0.8" rx="5"/><text x="5" y="15" font-size="10" fill="#fff" id="tooltip-series"></text><text x="5" y="30" font-size="10" fill="#fff" id="tooltip-value"></text></g><script><![CDATA[function showTooltip(evt, series, value, time, x, y) {  var tooltip = document.getElementById("tooltip");  var seriesText = document.getElementById("tooltip-series");  var valueText = document.getElementById("tooltip-value");  seriesText.textContent = "Series: " + series;  valueText.textContent = value + " at " + time;  tooltip.setAttribute("transform", "translate(" + (x + 10) + "," + (y - 50) + ")");  tooltip.setAttribute("visibility", "visible");  evt.target.setAttribute("r", "7");  evt.target.setAttribute("opacity", "1");}function hideTooltip() {  var tooltip = document.getElementById("tooltip");  tooltip.setAttribute("visibility", "hidden");  var circles = document.getElementsByTagName("circle");  for (var i = 0; i < circles.length; i++) {    circles[i].setAttribute("r", "5");    circles[i].setAttribute("opacity", "0");  }}]]></script><text x="300" y="20" text-anchor="middle" font-size="16" fill="#333">Memory Usage for postgres</text><text x="10" y="200" text-anchor="middle" transform="rotate(-90,10,200)" font-size="12" fill="#666">Memory (MB)</text><g font-size="12"><circle cx="20" cy="375" r="5" fill="#4e73df"/><text x="30" y="380" fill="#333">value: 68.6 MB at 00:54:00</text></g></svg>