<svg width="600" height="400" xmlns="http://www.w3.org/2000/svg" style="font-family: Arial, sans-serif;"><rect width="600" height="400" fill="#ffffff"/><g transform="translate(60,30)"><rect width="510" height="300" fill="#f8f9fc" stroke="#ddd"/><g stroke-width="1"><line x1="0" y1="300" x2="510" y2="300" stroke="#eee" /><text x="-5" y="304" text-anchor="end" font-size="10" fill="#666">65.3 MB</text><line x1="0" y1="240" x2="510" y2="240" stroke="#eee" /><text x="-5" y="244" text-anchor="end" font-size="10" fill="#666">65.5 MB</text><line x1="0" y1="180" x2="510" y2="180" stroke="#eee" /><text x="-5" y="184" text-anchor="end" font-size="10" fill="#666">65.7 MB</text><line x1="0" y1="120" x2="510" y2="120" stroke="#eee" /><text x="-5" y="124" text-anchor="end" font-size="10" fill="#666">65.9 MB</text><line x1="0" y1="59.999999999999986" x2="510" y2="59.999999999999986" stroke="#eee" /><text x="-5" y="63.999999999999986" text-anchor="end" font-size="10" fill="#666">66.1 MB</text><line x1="0" y1="0" x2="510" y2="0" stroke="#eee" /><text x="-5" y="4" text-anchor="end" font-size="10" fill="#666">66.3 MB</text></g><g stroke-width="1"><line x1="0" y1="0" x2="0" y2="300" stroke="#eee"/><text x="0" y="320" text-anchor="middle" font-size="10" fill="#666">21:55:00</text><line x1="102" y1="0" x2="102" y2="300" stroke="#eee"/><text x="102" y="320" text-anchor="middle" font-size="10" fill="#666">22:06:30</text><line x1="204" y1="0" x2="204" y2="300" stroke="#eee"/><text x="204" y="320" text-anchor="middle" font-size="10" fill="#666">22:18:00</text><line x1="306" y1="0" x2="306" y2="300" stroke="#eee"/><text x="306" y="320" text-anchor="middle" font-size="10" fill="#666">22:29:30</text><line x1="408" y1="0" x2="408" y2="300" stroke="#eee"/><text x="408" y="320" text-anchor="middle" font-size="10" fill="#666">22:41:00</text><line x1="510" y1="0" x2="510" y2="300" stroke="#eee"/><text x="510" y="320" text-anchor="middle" font-size="10" fill="#666">22:52:30</text></g><path d="M0.00,300.00 L1.48,300.00 L2.96,300.00 L4.43,300.00 L5.91,300.00 L7.39,300.00 L8.87,300.00 L10.35,300.00 L11.83,300.00 L13.30,300.00 L14.78,300.00 L16.26,300.00 L17.74,300.00 L19.22,300.00 L20.70,300.00 L22.17,300.00 L23.65,300.00 L25.13,300.00 L26.61,300.00 L28.09,300.00 L29.57,300.00 L31.04,300.00 L32.52,300.00 L34.00,300.00 L35.48,300.00 L36.96,300.00 L38.43,300.00 L39.91,300.00 L41.39,300.00 L42.87,300.00 L44.35,300.00 L45.83,300.00 L47.30,300.00 L48.78,300.00 L50.26,300.00 L51.74,300.00 L53.22,300.00 L54.70,300.00 L56.17,300.00 L57.65,300.00 L59.13,300.00 L60.61,300.00 L62.09,300.00 L63.57,300.00 L65.04,300.00 L66.52,300.00 L68.00,300.00 L69.48,300.00 L70.96,300.00 L72.43,300.00 L73.91,300.00 L75.39,300.00 L76.87,300.00 L78.35,300.00 L79.83,300.00 L81.30,300.00 L82.78,300.00 L84.26,300.00 L85.74,300.00 L87.22,300.00 L88.70,300.00 L90.17,300.00 L91.65,300.00 L93.13,300.00 L94.61,300.00 L96.09,300.00 L97.57,300.00 L99.04,300.00 L100.52,300.00 L102.00,300.00 L103.48,300.00 L104.96,300.00 L106.43,300.00 L107.91,300.00 L109.39,300.00 L110.87,300.00 L112.35,300.00 L113.83,300.00 L115.30,300.00 L116.78,300.00 L118.26,300.00 L119.74,300.00 L121.22,300.00 L122.70,300.00 L124.17,300.00 L125.65,300.00 L127.13,300.00 L128.61,300.00 L130.09,300.00 L131.57,300.00 L133.04,300.00 L134.52,300.00 L136.00,300.00 L137.48,300.00 L138.96,300.00 L140.43,300.00 L141.91,300.00 L143.39,300.00 L144.87,300.00 L146.35,300.00 L147.83,300.00 L149.30,300.00 L150.78,300.00 L152.26,300.00 L153.74,300.00 L155.22,300.00 L156.70,300.00 L158.17,300.00 L159.65,300.00 L161.13,300.00 L162.61,300.00 L164.09,300.00 L165.57,300.00 L167.04,300.00 L168.52,300.00 L170.00,300.00 L171.48,300.00 L172.96,300.00 L174.43,300.00 L175.91,300.00 L177.39,300.00 L178.87,300.00 L180.35,300.00 L181.83,300.00 L183.30,300.00 L184.78,300.00 L186.26,300.00 L187.74,300.00 L189.22,300.00 L190.70,300.00 L192.17,300.00 L193.65,300.00 L195.13,300.00 L196.61,300.00 L198.09,300.00 L199.57,300.00 L201.04,300.00 L202.52,300.00 L204.00,300.00 L205.48,300.00 L206.96,300.00 L208.43,300.00 L209.91,300.00 L211.39,300.00 L212.87,300.00 L214.35,300.00 L215.83,300.00 L217.30,300.00 L218.78,300.00 L220.26,300.00 L221.74,300.00 L223.22,300.00 L224.70,300.00 L226.17,300.00 L227.65,300.00 L229.13,300.00 L230.61,300.00 L232.09,300.00 L233.57,300.00 L235.04,300.00 L236.52,300.00 L238.00,300.00 L239.48,300.00 L240.96,300.00 L242.43,300.00 L243.91,300.00 L245.39,300.00 L246.87,300.00 L248.35,300.00 L249.83,300.00 L251.30,300.00 L252.78,300.00 L254.26,300.00 L255.74,300.00 L257.22,300.00 L258.70,300.00 L260.17,300.00 L261.65,300.00 L263.13,300.00 L264.61,300.00 L266.09,300.00 L267.57,300.00 L269.04,300.00 L270.52,300.00 L272.00,300.00 L273.48,300.00 L274.96,300.00 L276.43,300.00 L277.91,300.00 L279.39,300.00 L280.87,300.00 L282.35,300.00 L283.83,300.00 L285.30,300.00 L286.78,300.00 L288.26,300.00 L289.74,300.00 L291.22,300.00 L292.70,300.00 L294.17,300.00 L295.65,300.00 L297.13,300.00 L298.61,300.00 L300.09,300.00 L301.57,300.00 L303.04,300.00 L304.52,300.00 L306.00,300.00 L307.48,300.00 L308.96,300.00 L310.43,300.00 L311.91,300.00 L313.39,300.00 L314.87,300.00 L316.35,300.00 L317.83,300.00 L319.30,300.00 L320.78,300.00 L322.26,300.00 L323.74,300.00 L325.22,300.00 L326.70,300.00 L328.17,300.00 L329.65,300.00 L331.13,300.00 L332.61,300.00 L334.09,300.00 L335.57,300.00 L337.04,300.00 L338.52,300.00 L340.00,300.00 L341.48,300.00 L342.96,300.00 L344.43,300.00 L345.91,300.00 L347.39,300.00 L348.87,300.00 L350.35,300.00 L351.83,300.00 L353.30,300.00 L354.78,300.00 L356.26,300.00 L357.74,300.00 L359.22,300.00 L360.70,300.00 L362.17,300.00 L363.65,300.00 L365.13,300.00 L366.61,300.00 L368.09,300.00 L369.57,300.00 L371.04,300.00 L372.52,300.00 L374.00,300.00 L375.48,300.00 L376.96,300.00 L378.43,300.00 L379.91,300.00 L381.39,300.00 L382.87,300.00 L384.35,300.00 L385.83,300.00 L387.30,300.00 L388.78,300.00 L390.26,300.00 L391.74,300.00 L393.22,300.00 L394.70,300.00 L396.17,300.00 L397.65,300.00 L399.13,300.00 L400.61,300.00 L402.09,300.00 L403.57,300.00 L405.04,300.00 L406.52,300.00 L408.00,300.00 L409.48,300.00 L410.96,300.00 L412.43,300.00 L413.91,300.00 L415.39,300.00 L416.87,300.00 L418.35,300.00 L419.83,300.00 L421.30,300.00 L422.78,300.00 L424.26,300.00 L425.74,300.00 L427.22,300.00 L428.70,300.00 L430.17,300.00 L431.65,300.00 L433.13,300.00 L434.61,300.00 L436.09,300.00 L437.57,300.00 L439.04,300.00 L440.52,300.00 L442.00,300.00 L443.48,300.00 L444.96,300.00 L446.43,300.00 L447.91,300.00 L449.39,300.00 L450.87,300.00 L452.35,300.00 L453.83,300.00 L455.30,300.00 L456.78,300.00 L458.26,300.00 L459.74,300.00 L461.22,300.00 L462.70,300.00 L464.17,300.00 L465.65,300.00 L467.13,300.00 L468.61,300.00 L470.09,300.00 L471.57,300.00 L473.04,300.00 L474.52,300.00 L476.00,300.00 L477.48,300.00 L478.96,300.00 L480.43,300.00 L481.91,300.00 L483.39,300.00 L484.87,300.00 L486.35,300.00 L487.83,300.00 L489.30,300.00 L490.78,300.00 L492.26,300.00 L493.74,300.00 L495.22,300.00 L496.70,300.00 L498.17,300.00 L499.65,300.00 L501.13,300.00 L502.61,300.00 L504.09,300.00 L505.57,300.00 L507.04,300.00 L508.52,300.00 L510.00,300.00" stroke="#4e73df" fill="none" stroke-width="2" stroke-linejoin="round"/></g><text x="300" y="20" text-anchor="middle" font-size="16" fill="#333">Memory Usage for postgres</text><text x="10" y="200" text-anchor="middle" transform="rotate(-90,10,200)" font-size="12" fill="#666">Memory (MB)</text><g font-size="12"><circle cx="20" cy="375" r="5" fill="#4e73df"/><text x="30" y="380" fill="#333">value: 65.3 MB at 22:52:30</text></g></svg>